<?xml version="1.0" encoding="utf-8"?>
<!-- Generator: Adobe Illustrator 27.5.0, SVG Export Plug-In . SVG Version: 6.00 Build 0)  -->
<svg version="1.1" baseProfile="basic" id="Ebene_1"
	 xmlns="http://www.w3.org/2000/svg" xmlns:xlink="http://www.w3.org/1999/xlink" x="0px" y="0px" width="198.425px"
	 height="101.209px" viewBox="0 0 198.425 101.209" xml:space="preserve">
<style type="text/css">
	.st0{fill:#0F2741;}
	.st1{fill:none;}
	.st2{fill:#FFFFFF;}
	.st3{fill:#0F2741;stroke:#FFFFFF;stroke-linecap:round;stroke-miterlimit:10;}
	.st4{fill:#D8D8D8;}
	.st5{fill:#FFFFFF;stroke:#0F2741;stroke-linecap:round;stroke-miterlimit:10;}
</style>
<path class="st0" d="M192.845,101.209H5.669C2.538,101.209,0,98.671,0,95.54V5.669C0,2.538,2.538,0,5.669,0h187.176
	c3.131,0,5.669,2.538,5.669,5.669v89.87C198.515,98.671,195.977,101.209,192.845,101.209z"/>
<g>
	<rect x="-54.574" y="84.849" class="st1" width="306.847" height="10.463"/>
	<path class="st2" d="M43.818,85.423v9.791h-0.98v-9.791H43.818z"/>
	<path class="st2" d="M53.621,95.214h-0.98l-5.42-8.236v8.236h-0.98v-9.791h0.98l5.42,8.223v-8.223h0.98V95.214z"/>
	<path class="st2" d="M65.653,86.012c0.775,0.392,1.368,0.957,1.779,1.694c0.411,0.738,0.617,1.616,0.617,2.634
		c0,1.009-0.206,1.879-0.617,2.612c-0.411,0.733-1.003,1.293-1.779,1.681c-0.775,0.388-1.704,0.581-2.787,0.581h-2.899v-9.791h2.899
		C63.948,85.423,64.878,85.619,65.653,86.012z M65.982,93.33c0.714-0.714,1.071-1.711,1.071-2.99c0-1.289-0.357-2.295-1.071-3.019
		c-0.714-0.724-1.753-1.086-3.117-1.086h-1.919v8.166h1.919C64.229,94.401,65.268,94.045,65.982,93.33z"/>
	<path class="st2" d="M70.991,86.222v3.656h3.712v0.812h-3.712v3.712h4.132v0.812h-5.112v-9.805h5.112v0.812H70.991z"/>
	<path class="st2" d="M77.855,85.423v6.163c0,0.972,0.232,1.69,0.693,2.157c0.463,0.467,1.096,0.7,1.898,0.7s1.432-0.23,1.885-0.693
		c0.453-0.462,0.68-1.184,0.68-2.164v-6.163h0.98v6.149c0,1.242-0.33,2.176-0.988,2.802c-0.658,0.625-1.516,0.938-2.57,0.938
		s-1.912-0.313-2.57-0.938c-0.658-0.626-0.987-1.56-0.987-2.802v-6.149H77.855z"/>
	<path class="st2" d="M91.971,85.423v0.812h-2.718v8.979h-0.98v-8.979h-2.731v-0.812H91.971z"/>
	<path class="st2" d="M94.689,94.976c-0.49-0.224-0.875-0.536-1.155-0.938c-0.28-0.401-0.43-0.85-0.448-1.345h1.037
		c0.046,0.477,0.256,0.895,0.63,1.254c0.373,0.359,0.92,0.539,1.639,0.539c0.663,0,1.188-0.17,1.576-0.511
		c0.387-0.341,0.581-0.772,0.581-1.296c0-0.42-0.107-0.759-0.322-1.016s-0.481-0.448-0.798-0.574
		c-0.318-0.126-0.757-0.264-1.317-0.413c-0.653-0.177-1.172-0.351-1.555-0.519s-0.71-0.429-0.98-0.784
		c-0.271-0.354-0.406-0.835-0.406-1.442c0-0.505,0.131-0.955,0.393-1.352c0.261-0.397,0.63-0.708,1.106-0.932
		c0.477-0.225,1.022-0.336,1.639-0.336c0.905,0,1.637,0.222,2.192,0.665s0.875,1.016,0.959,1.716h-1.064
		c-0.065-0.401-0.285-0.759-0.658-1.071c-0.373-0.313-0.878-0.47-1.513-0.47c-0.588,0-1.078,0.156-1.471,0.47
		c-0.393,0.312-0.588,0.74-0.588,1.281c0,0.411,0.106,0.742,0.322,0.994c0.214,0.253,0.482,0.444,0.805,0.575s0.759,0.271,1.31,0.42
		c0.635,0.178,1.148,0.353,1.541,0.525s0.724,0.437,0.994,0.791c0.271,0.355,0.406,0.831,0.406,1.429
		c0,0.458-0.121,0.892-0.364,1.303c-0.242,0.411-0.602,0.742-1.078,0.994c-0.477,0.253-1.046,0.379-1.709,0.379
		C95.746,95.313,95.179,95.2,94.689,94.976z"/>
	<path class="st2" d="M101.615,87.728c0.42-0.761,0.994-1.354,1.723-1.779s1.541-0.637,2.438-0.637c1.093,0,2.028,0.259,2.809,0.777
		c0.779,0.518,1.347,1.249,1.701,2.191h-1.148c-0.28-0.662-0.707-1.181-1.281-1.555c-0.574-0.373-1.268-0.56-2.08-0.56
		c-0.72,0-1.366,0.168-1.94,0.504s-1.024,0.819-1.352,1.449c-0.327,0.631-0.49,1.361-0.49,2.192s0.163,1.56,0.49,2.186
		c0.327,0.625,0.777,1.106,1.352,1.442s1.221,0.504,1.94,0.504c0.812,0,1.506-0.184,2.08-0.553s1.001-0.88,1.281-1.534h1.148
		c-0.354,0.935-0.924,1.658-1.709,2.171c-0.784,0.514-1.718,0.771-2.801,0.771c-0.896,0-1.709-0.212-2.438-0.637
		s-1.303-1.016-1.723-1.772c-0.42-0.756-0.631-1.615-0.631-2.577S101.195,88.488,101.615,87.728z"/>
	<path class="st2" d="M119.467,85.423v9.791h-0.98v-4.58h-5.309v4.58h-0.98v-9.791h0.98v4.398h5.309v-4.398H119.467z"/>
	<path class="st2" d="M122.887,94.416h3.517v0.798h-4.497v-9.791h0.98V94.416z"/>
	<path class="st2" d="M133.922,92.889h-4.454l-0.854,2.325h-1.036l3.571-9.665h1.107l3.558,9.665h-1.037L133.922,92.889z
		 M133.628,92.076l-1.933-5.294l-1.934,5.294H133.628z"/>
	<path class="st2" d="M144.78,95.214h-0.98l-5.421-8.236v8.236h-0.98v-9.791h0.98l5.421,8.223v-8.223h0.98V95.214z"/>
	<path class="st2" d="M152.9,86.012c0.774,0.392,1.367,0.957,1.778,1.694c0.411,0.738,0.616,1.616,0.616,2.634
		c0,1.009-0.205,1.879-0.616,2.612s-1.004,1.293-1.778,1.681c-0.775,0.388-1.704,0.581-2.788,0.581h-2.899v-9.791h2.899
		C151.196,85.423,152.125,85.619,152.9,86.012z M153.229,93.33c0.714-0.714,1.071-1.711,1.071-2.99c0-1.289-0.357-2.295-1.071-3.019
		c-0.715-0.724-1.754-1.086-3.117-1.086h-1.919v8.166h1.919C151.475,94.401,152.514,94.045,153.229,93.33z"/>
</g>
<path class="st2" d="M189.485,8.987v67.455H9.029V8.987H189.485 M189.651,5.987H8.864c-1.566,0-2.835,1.269-2.835,2.835v67.786
	c0,1.566,1.269,2.835,2.835,2.835h180.787c1.566,0,2.835-1.269,2.835-2.835V8.821C192.485,7.256,191.216,5.987,189.651,5.987
	L189.651,5.987z"/>
<g>
	<rect x="9.305" y="20.436" class="st1" width="179.856" height="55.57"/>
	<path class="st2" d="M44.768,21.024v9.777h-1.961v-6.359l-2.619,6.359h-1.485l-2.633-6.359v6.359h-1.961v-9.777h2.227l3.11,7.27
		l3.109-7.27H44.768z"/>
	<path class="st2" d="M52.651,28.938h-3.894l-0.644,1.863h-2.059l3.516-9.791h2.283l3.516,9.791h-2.073L52.651,28.938z
		 M52.119,27.369l-1.415-4.09l-1.415,4.09H52.119z"/>
	<path class="st2" d="M61.69,30.801l-2.157-3.81h-0.925v3.81h-1.961v-9.777h3.67c0.756,0,1.401,0.133,1.933,0.399
		s0.931,0.625,1.197,1.078c0.266,0.453,0.399,0.959,0.399,1.52c0,0.644-0.187,1.226-0.561,1.744
		c-0.374,0.519-0.929,0.875-1.667,1.072l2.339,3.964H61.69z M58.608,25.52h1.639c0.532,0,0.929-0.128,1.19-0.385
		c0.261-0.256,0.392-0.614,0.392-1.071c0-0.448-0.131-0.796-0.392-1.043c-0.262-0.248-0.658-0.371-1.19-0.371h-1.639V25.52z"/>
	<path class="st2" d="M71.206,30.801l-3.558-4.356v4.356h-1.961v-9.777h1.961v4.384l3.558-4.384h2.367l-4.034,4.846l4.146,4.931
		H71.206z"/>
	<path class="st2" d="M81.759,21.024v1.583h-2.605v8.194h-1.961v-8.194h-2.605v-1.583H81.759z"/>
	<path class="st2" d="M89.123,21.024v1.583h-4.076v2.507h3.124v1.555h-3.124v4.132h-1.961v-9.777H89.123z"/>
	<path class="st2" d="M92.377,21.024v6.051c0,0.664,0.173,1.17,0.518,1.52c0.346,0.35,0.831,0.525,1.457,0.525
		c0.635,0,1.125-0.175,1.471-0.525c0.345-0.35,0.518-0.856,0.518-1.52v-6.051h1.975v6.037c0,0.831-0.18,1.534-0.54,2.108
		s-0.84,1.006-1.442,1.296c-0.603,0.29-1.272,0.434-2.01,0.434c-0.728,0-1.389-0.145-1.982-0.434
		c-0.593-0.29-1.062-0.722-1.408-1.296c-0.345-0.574-0.518-1.277-0.518-2.108v-6.037H92.377z M92.405,19.819
		c-0.177-0.177-0.266-0.397-0.266-0.658s0.089-0.483,0.266-0.666s0.397-0.273,0.659-0.273c0.261,0,0.483,0.091,0.665,0.273
		s0.273,0.404,0.273,0.666s-0.091,0.481-0.273,0.658s-0.404,0.266-0.665,0.266C92.802,20.086,92.582,19.997,92.405,19.819z
		 M94.996,19.819c-0.177-0.177-0.266-0.397-0.266-0.658s0.089-0.483,0.266-0.666s0.397-0.273,0.659-0.273
		c0.261,0,0.483,0.091,0.665,0.273s0.273,0.404,0.273,0.666s-0.091,0.481-0.273,0.658s-0.404,0.266-0.665,0.266
		C95.393,20.086,95.173,19.997,94.996,19.819z"/>
	<path class="st2" d="M108.547,21.024v9.777h-1.961v-4.16h-4.188v4.16h-1.962v-9.777h1.962v4.02h4.188v-4.02H108.547z"/>
	<path class="st2" d="M115.759,30.801l-2.157-3.81h-0.924v3.81h-1.961v-9.777h3.67c0.756,0,1.4,0.133,1.933,0.399
		s0.932,0.625,1.197,1.078c0.267,0.453,0.399,0.959,0.399,1.52c0,0.644-0.187,1.226-0.561,1.744
		c-0.373,0.519-0.929,0.875-1.667,1.072l2.34,3.964H115.759z M112.677,25.52h1.639c0.532,0,0.929-0.128,1.19-0.385
		c0.262-0.256,0.393-0.614,0.393-1.071c0-0.448-0.131-0.796-0.393-1.043s-0.658-0.371-1.19-0.371h-1.639V25.52z"/>
	<path class="st2" d="M121.718,22.607v2.451h3.291v1.555h-3.291v2.591h3.712v1.597h-5.673V21.01h5.673v1.597H121.718z"/>
	<path class="st2" d="M132.413,30.801l-2.157-3.81h-0.924v3.81h-1.961v-9.777h3.67c0.756,0,1.4,0.133,1.933,0.399
		s0.932,0.625,1.197,1.078c0.267,0.453,0.399,0.959,0.399,1.52c0,0.644-0.187,1.226-0.561,1.744
		c-0.373,0.519-0.929,0.875-1.667,1.072l2.34,3.964H132.413z M129.332,25.52h1.639c0.532,0,0.929-0.128,1.19-0.385
		c0.262-0.256,0.393-0.614,0.393-1.071c0-0.448-0.131-0.796-0.393-1.043s-0.658-0.371-1.19-0.371h-1.639V25.52z"/>
	<path class="st2" d="M145.999,21.024v1.583h-4.075v2.507h3.123v1.555h-3.123v4.132h-1.961v-9.777H145.999z"/>
	<path class="st2" d="M149.253,21.024v6.051c0,0.664,0.173,1.17,0.519,1.52c0.345,0.35,0.831,0.525,1.456,0.525
		c0.635,0,1.126-0.175,1.471-0.525c0.346-0.35,0.519-0.856,0.519-1.52v-6.051h1.975v6.037c0,0.831-0.18,1.534-0.539,2.108
		s-0.84,1.006-1.442,1.296s-1.272,0.434-2.01,0.434c-0.729,0-1.39-0.145-1.982-0.434s-1.062-0.722-1.407-1.296
		c-0.346-0.574-0.519-1.277-0.519-2.108v-6.037H149.253z M149.281,19.819c-0.178-0.177-0.267-0.397-0.267-0.658
		s0.089-0.483,0.267-0.666c0.177-0.182,0.396-0.273,0.658-0.273c0.261,0,0.483,0.091,0.665,0.273
		c0.183,0.182,0.273,0.404,0.273,0.666s-0.091,0.481-0.273,0.658c-0.182,0.177-0.404,0.266-0.665,0.266
		C149.678,20.086,149.458,19.997,149.281,19.819z M151.872,19.819c-0.178-0.177-0.266-0.397-0.266-0.658s0.088-0.483,0.266-0.666
		s0.396-0.273,0.658-0.273s0.483,0.091,0.666,0.273c0.182,0.182,0.272,0.404,0.272,0.666s-0.091,0.481-0.272,0.658
		c-0.183,0.177-0.404,0.266-0.666,0.266S152.05,19.997,151.872,19.819z"/>
	<path class="st2" d="M162.354,30.801l-2.157-3.81h-0.924v3.81h-1.961v-9.777h3.67c0.756,0,1.4,0.133,1.933,0.399
		s0.932,0.625,1.197,1.078c0.267,0.453,0.399,0.959,0.399,1.52c0,0.644-0.187,1.226-0.561,1.744
		c-0.373,0.519-0.929,0.875-1.667,1.072l2.34,3.964H162.354z M159.273,25.52h1.639c0.532,0,0.929-0.128,1.19-0.385
		c0.262-0.256,0.393-0.614,0.393-1.071c0-0.448-0.131-0.796-0.393-1.043s-0.658-0.371-1.19-0.371h-1.639V25.52z"/>
	<path class="st2" d="M27.686,42.328c-0.248,0.458-0.635,0.827-1.163,1.106c-0.527,0.28-1.193,0.42-1.996,0.42h-1.639v3.754h-1.961
		v-9.777h3.6c0.756,0,1.4,0.131,1.933,0.392c0.532,0.262,0.932,0.621,1.198,1.079s0.399,0.976,0.399,1.555
		C28.057,41.38,27.933,41.871,27.686,42.328z M25.648,41.901c0.261-0.247,0.392-0.595,0.392-1.043c0-0.952-0.532-1.429-1.597-1.429
		h-1.555v2.844h1.555C24.985,42.273,25.386,42.149,25.648,41.901z"/>
	<path class="st2" d="M38.146,37.832l-3.585,9.777h-2.381l-3.585-9.777h2.101l2.689,7.774l2.675-7.774H38.146z"/>
	<path class="st2" d="M44.93,41.782v1.652h-5.939v-1.652H44.93z"/>
	<path class="st2" d="M52.618,45.746h-3.894l-0.644,1.863h-2.059l3.516-9.791h2.283l3.516,9.791h-2.073L52.618,45.746z
		 M52.086,44.177l-1.415-4.09l-1.415,4.09H52.086z"/>
	<path class="st2" d="M58.24,37.832v6.051c0,0.664,0.173,1.17,0.518,1.52c0.346,0.35,0.831,0.525,1.457,0.525
		c0.635,0,1.125-0.175,1.471-0.525c0.345-0.35,0.518-0.856,0.518-1.52v-6.051h1.975v6.037c0,0.831-0.18,1.534-0.54,2.108
		s-0.84,1.006-1.442,1.296c-0.603,0.29-1.272,0.434-2.01,0.434c-0.728,0-1.389-0.145-1.982-0.434
		c-0.593-0.29-1.062-0.722-1.408-1.296c-0.345-0.574-0.518-1.277-0.518-2.108v-6.037H58.24z"/>
	<path class="st2" d="M72.337,37.832v1.583h-4.076v2.507h3.124v1.555h-3.124v4.132H66.3v-9.777H72.337z"/>
	<path class="st2" d="M79.772,38.435c0.78,0.401,1.382,0.973,1.807,1.716c0.425,0.742,0.637,1.604,0.637,2.584
		s-0.212,1.837-0.637,2.57c-0.425,0.733-1.027,1.3-1.807,1.702c-0.78,0.402-1.683,0.603-2.71,0.603h-3.418v-9.777h3.418
		C78.089,37.832,78.992,38.033,79.772,38.435z M79.373,45.102c0.56-0.56,0.84-1.349,0.84-2.367c0-1.018-0.28-1.814-0.84-2.388
		c-0.561-0.574-1.354-0.861-2.381-0.861h-1.387v6.457h1.387C78.019,45.942,78.812,45.662,79.373,45.102z"/>
	<path class="st2" d="M89.277,45.746h-3.894l-0.644,1.863H82.68l3.516-9.791h2.283l3.516,9.791h-2.073L89.277,45.746z
		 M88.745,44.177l-1.415-4.09l-1.415,4.09H88.745z"/>
	<path class="st2" d="M93.096,40.122c0.434-0.761,1.027-1.354,1.779-1.779c0.751-0.425,1.594-0.637,2.528-0.637
		c1.092,0,2.049,0.28,2.872,0.84c0.821,0.56,1.396,1.335,1.724,2.325h-2.256c-0.224-0.467-0.539-0.817-0.945-1.051
		c-0.406-0.233-0.875-0.35-1.408-0.35c-0.57,0-1.076,0.133-1.52,0.399c-0.444,0.266-0.79,0.642-1.037,1.127
		c-0.248,0.486-0.371,1.055-0.371,1.709c0,0.644,0.124,1.211,0.371,1.702c0.247,0.49,0.593,0.869,1.037,1.135
		c0.443,0.266,0.95,0.399,1.52,0.399c0.532,0,1.001-0.119,1.408-0.357s0.721-0.59,0.945-1.058h2.256
		c-0.328,1-0.898,1.777-1.717,2.332c-0.817,0.556-1.777,0.833-2.878,0.833c-0.934,0-1.777-0.212-2.528-0.637
		c-0.752-0.425-1.345-1.016-1.779-1.772s-0.651-1.615-0.651-2.577S92.662,40.883,93.096,40.122z"/>
	<path class="st2" d="M111.813,37.832v9.777h-1.961v-4.16h-4.188v4.16h-1.961v-9.777h1.961v4.02h4.188v-4.02H111.813z"/>
	<path class="st2" d="M119.689,45.746h-3.894l-0.645,1.863h-2.059l3.516-9.791h2.283l3.516,9.791h-2.073L119.689,45.746z
		 M119.157,44.177l-1.414-4.09l-1.415,4.09H119.157z"/>
	<path class="st2" d="M132.047,47.609h-1.961l-4.439-6.709v6.709h-1.961v-9.791h1.961l4.439,6.724v-6.724h1.961V47.609z"/>
	<path class="st2" d="M136.178,46.054h3.222v1.555h-5.183v-9.777h1.961V46.054z"/>
	<path class="st2" d="M146.932,45.746h-3.894l-0.645,1.863h-2.059l3.516-9.791h2.283l3.516,9.791h-2.073L146.932,45.746z
		 M146.4,44.177l-1.414-4.09l-1.415,4.09H146.4z"/>
	<path class="st2" d="M157.384,40.774c-0.224-0.411-0.532-0.724-0.924-0.938c-0.393-0.215-0.85-0.322-1.373-0.322
		c-0.579,0-1.093,0.131-1.541,0.393c-0.448,0.261-0.798,0.635-1.05,1.12c-0.253,0.486-0.379,1.046-0.379,1.681
		c0,0.654,0.129,1.223,0.386,1.709c0.257,0.485,0.613,0.859,1.071,1.12c0.457,0.262,0.989,0.393,1.597,0.393
		c0.747,0,1.358-0.198,1.835-0.596c0.477-0.396,0.789-0.95,0.938-1.66h-3.361v-1.499h5.294v1.708
		c-0.131,0.682-0.41,1.312-0.84,1.891c-0.43,0.579-0.983,1.043-1.66,1.394c-0.677,0.351-1.436,0.525-2.276,0.525
		c-0.942,0-1.795-0.212-2.556-0.637c-0.762-0.425-1.358-1.016-1.793-1.772s-0.651-1.615-0.651-2.577s0.217-1.823,0.651-2.584
		c0.435-0.761,1.031-1.354,1.793-1.779c0.761-0.425,1.608-0.637,2.542-0.637c1.102,0,2.06,0.269,2.871,0.805
		c0.812,0.537,1.373,1.291,1.682,2.262H157.384z"/>
	<path class="st2" d="M163.524,39.415v2.451h3.291v1.555h-3.291v2.591h3.712v1.597h-5.673v-9.791h5.673v1.597H163.524z"/>
	<path class="st2" d="M177.539,47.609h-1.961l-4.439-6.709v6.709h-1.961v-9.791h1.961l4.439,6.724v-6.724h1.961V47.609z"/>
	<path class="st2" d="M44.782,54.64v9.777h-1.961V54.64H44.782z"/>
	<path class="st2" d="M57.607,54.64v9.777h-1.961v-6.359l-2.619,6.359h-1.485l-2.633-6.359v6.359h-1.961V54.64h2.227l3.11,7.27
		l3.109-7.27H57.607z"/>
	<path class="st2" d="M70.059,60.229c0.354,0.448,0.532,0.962,0.532,1.541c0,0.523-0.129,0.983-0.385,1.38
		c-0.257,0.396-0.628,0.707-1.114,0.932c-0.485,0.224-1.06,0.336-1.723,0.336h-4.216V54.64h4.034c0.663,0,1.235,0.107,1.716,0.322
		s0.845,0.514,1.092,0.896s0.372,0.817,0.372,1.303c0,0.569-0.152,1.046-0.456,1.429c-0.303,0.382-0.707,0.654-1.211,0.812
		C69.251,59.505,69.704,59.78,70.059,60.229z M65.114,58.674h1.793c0.467,0,0.827-0.105,1.079-0.315s0.378-0.511,0.378-0.903
		s-0.126-0.696-0.378-0.911c-0.252-0.214-0.612-0.322-1.079-0.322h-1.793V58.674z M68.203,62.484
		c0.266-0.225,0.399-0.542,0.399-0.953c0-0.42-0.14-0.749-0.42-0.987c-0.28-0.238-0.659-0.357-1.135-0.357h-1.933v2.634h1.975
		C67.565,62.82,67.937,62.708,68.203,62.484z"/>
	<path class="st2" d="M72.597,62.204c0.896-0.747,1.61-1.37,2.143-1.87c0.533-0.499,0.976-1.02,1.331-1.562
		c0.354-0.541,0.532-1.074,0.532-1.597c0-0.476-0.112-0.85-0.336-1.121c-0.224-0.271-0.569-0.406-1.036-0.406
		c-0.467,0-0.827,0.157-1.079,0.469c-0.252,0.313-0.383,0.74-0.393,1.282h-1.905c0.037-1.121,0.371-1.97,1.001-2.549
		c0.63-0.579,1.431-0.868,2.402-0.868c1.064,0,1.881,0.282,2.451,0.847c0.569,0.565,0.854,1.31,0.854,2.234
		c0,0.728-0.196,1.424-0.588,2.087s-0.84,1.239-1.345,1.729s-1.163,1.081-1.975,1.772h4.132v1.625h-6.919V62.82L72.597,62.204z"/>
	<path class="st2" d="M80.507,56.93c0.434-0.761,1.027-1.354,1.779-1.779c0.751-0.425,1.594-0.637,2.528-0.637
		c1.092,0,2.049,0.28,2.871,0.84s1.396,1.335,1.723,2.325h-2.255c-0.224-0.467-0.539-0.817-0.945-1.051
		c-0.406-0.233-0.875-0.35-1.408-0.35c-0.57,0-1.076,0.133-1.52,0.399c-0.444,0.266-0.79,0.642-1.037,1.127
		c-0.248,0.486-0.371,1.055-0.371,1.709c0,0.645,0.124,1.212,0.371,1.702c0.247,0.49,0.593,0.868,1.037,1.134
		c0.443,0.267,0.95,0.399,1.52,0.399c0.532,0,1.001-0.119,1.408-0.357c0.406-0.237,0.721-0.59,0.945-1.057h2.255
		c-0.327,0.999-0.899,1.776-1.716,2.332c-0.817,0.556-1.777,0.833-2.878,0.833c-0.934,0-1.777-0.212-2.528-0.638
		c-0.752-0.425-1.345-1.015-1.779-1.771c-0.434-0.756-0.651-1.615-0.651-2.577S80.073,57.692,80.507,56.93z"/>
	<path class="st2" d="M96.848,58.59v1.653h-5.939V58.59H96.848z"/>
	<path class="st2" d="M106.046,60.229c0.354,0.448,0.531,0.962,0.531,1.541c0,0.523-0.129,0.983-0.385,1.38
		c-0.258,0.396-0.629,0.707-1.113,0.932c-0.486,0.224-1.061,0.336-1.723,0.336h-4.217V54.64h4.034c0.664,0,1.236,0.107,1.717,0.322
		s0.846,0.514,1.092,0.896c0.248,0.383,0.371,0.817,0.371,1.303c0,0.569-0.15,1.046-0.455,1.429
		c-0.303,0.382-0.707,0.654-1.211,0.812C105.237,59.505,105.69,59.78,106.046,60.229z M101.1,58.674h1.793
		c0.467,0,0.826-0.105,1.078-0.315s0.379-0.511,0.379-0.903s-0.127-0.696-0.379-0.911c-0.252-0.214-0.611-0.322-1.078-0.322H101.1
		V58.674z M104.188,62.484c0.268-0.225,0.4-0.542,0.4-0.953c0-0.42-0.141-0.749-0.42-0.987c-0.281-0.238-0.658-0.357-1.135-0.357
		H101.1v2.634h1.975C103.552,62.82,103.923,62.708,104.188,62.484z"/>
	<path class="st2" d="M110.324,56.223v2.451h3.291v1.554h-3.291v2.592h3.712v1.597h-5.673v-9.791h5.673v1.597H110.324z"/>
	<path class="st2" d="M121.019,64.417l-2.157-3.81h-0.924v3.81h-1.961V54.64h3.67c0.756,0,1.4,0.133,1.933,0.399
		s0.932,0.625,1.197,1.078c0.267,0.453,0.399,0.959,0.399,1.52c0,0.644-0.187,1.226-0.561,1.743
		c-0.373,0.519-0.929,0.876-1.667,1.072l2.34,3.964H121.019z M117.938,59.137h1.639c0.532,0,0.929-0.129,1.19-0.386
		c0.262-0.256,0.393-0.614,0.393-1.071c0-0.448-0.131-0.796-0.393-1.043s-0.658-0.371-1.19-0.371h-1.639V59.137z"/>
	<path class="st2" d="M126.978,56.223v2.451h3.291v1.554h-3.291v2.592h3.712v1.597h-5.673v-9.791h5.673v1.597H126.978z"/>
	<path class="st2" d="M134.606,54.64v9.777h-1.961V54.64H134.606z"/>
	<path class="st2" d="M136.929,56.93c0.435-0.761,1.027-1.354,1.779-1.779c0.751-0.425,1.594-0.637,2.527-0.637
		c1.093,0,2.05,0.28,2.872,0.84c0.821,0.56,1.396,1.335,1.723,2.325h-2.255c-0.225-0.467-0.54-0.817-0.945-1.051
		c-0.406-0.233-0.876-0.35-1.408-0.35c-0.569,0-1.076,0.133-1.52,0.399s-0.789,0.642-1.037,1.127
		c-0.247,0.486-0.371,1.055-0.371,1.709c0,0.645,0.124,1.212,0.371,1.702c0.248,0.49,0.594,0.868,1.037,1.134
		c0.443,0.267,0.95,0.399,1.52,0.399c0.532,0,1.002-0.119,1.408-0.357c0.405-0.237,0.721-0.59,0.945-1.057h2.255
		c-0.327,0.999-0.898,1.776-1.716,2.332c-0.817,0.556-1.776,0.833-2.879,0.833c-0.934,0-1.776-0.212-2.527-0.638
		c-0.752-0.425-1.345-1.015-1.779-1.771c-0.435-0.756-0.651-1.615-0.651-2.577S136.495,57.692,136.929,56.93z"/>
	<path class="st2" d="M155.644,54.64v9.777h-1.961v-4.16h-4.188v4.16h-1.961V54.64h1.961v4.02h4.188v-4.02H155.644z"/>
</g>
</svg>
