<?xml version="1.0" encoding="UTF-8"?>
<svg id="Ebene_1" xmlns="http://www.w3.org/2000/svg" width="184.248" height="197.008" version="1.1" xmlns:xlink="http://www.w3.org/1999/xlink" viewBox="0 0 184.248 197.008">
  <!-- Generator: Adobe Illustrator 29.7.1, SVG Export Plug-In . SVG Version: 2.1.1 Build 8)  -->
  <defs>
    <style>
      .st0 {
        fill: #1d1d1b;
      }

      .st1 {
        fill: #fff;
      }

      .st2, .st3 {
        fill: none;
      }

      .st4 {
        fill: #e30613;
      }

      .st5 {
        clip-path: url(#clippath-1);
      }

      .st6 {
        clip-path: url(#clippath);
      }

      .st3 {
        stroke: #1d1d1b;
        stroke-miterlimit: 10;
      }
    </style>
    <clipPath id="clippath">
      <rect class="st2" x="-.004" width="184.252" height="197.008"/>
    </clipPath>
    <clipPath id="clippath-1">
      <rect class="st2" x="-.004" width="184.252" height="197.008"/>
    </clipPath>
  </defs>
  <polygon class="st1" points="183.748 15.526 .496 15.526 .496 196.508 183.748 196.508 183.748 15.526 183.748 15.526"/>
  <g class="st6">
    <polygon class="st3" points="183.748 15.526 .496 15.526 .496 196.508 183.748 196.508 183.748 15.526 183.748 15.526"/>
  </g>
  <polygon class="st1" points="183.748 .5 .496 .5 .496 181.482 183.748 181.482 183.748 .5 183.748 .5"/>
  <g class="st5">
    <polygon class="st3" points="183.748 .5 .496 .5 .496 181.482 183.748 181.482 183.748 .5 183.748 .5"/>
  </g>
  <polygon class="st4" points="175.842 159.908 8.402 159.908 8.402 174.251 175.842 174.251 175.842 159.908 175.842 159.908"/>
  <polygon class="st4" points="175.84 46.806 154.153 46.796 154.164 61.861 8.402 61.861 8.402 8.666 175.817 8.666 175.84 46.806 175.84 46.806"/>
  <path class="st1" d="M47.616,27.979h4.936c.834,0,1.51-.657,1.528-1.475h.007v-8.964c0-1.665-1.368-3.016-3.055-3.016H18.707c-1.689,0-3.054,1.351-3.054,3.016v34.356c0,1.669,1.365,3.018,3.054,3.018h32.325c1.686,0,3.055-1.349,3.055-3.018l-.007-8.403c0-.832-.682-1.507-1.528-1.507h-4.936c-.846,0-1.528.674-1.528,1.507l.008,1.693c0,1.389-1.138,2.515-2.545,2.515h-10.321c-1.409,0-2.549-1.125-2.549-2.515v-7.627l-6.94-6.785v-6.618c0-1.39,1.141-2.515,2.544-2.515h17.265c1.407,0,2.545,1.125,2.545,2.515l-.008,2.316c0,.833.682,1.508,1.528,1.508h0Z"/>
  <path class="st1" d="M98.803,14.525h-4.962c-.845,0-1.525.675-1.525,1.506v13.443c0,1.387-1.133,2.512-2.539,2.512h-17.385c-1.406,0-2.577-1.124-2.577-2.512v-13.443c0-.83-.714-1.506-1.559-1.506h-4.964c-.842,0-1.523.675-1.523,1.506l.06,35.865c0,1.669,1.366,3.018,3.053,3.018h8.912c1.686,0,3.053-1.349,3.053-3.018v-10.184l.059-.143c0-1.388,1.141-2.369,2.549-2.369h10.28c1.402,0,2.561,1.124,2.561,2.512l.016-.143-.016,11.839c0,.831.701,1.506,1.546,1.506h4.962c.845,0,1.529-.674,1.529-1.506V16.031c0-.83-.684-1.506-1.529-1.506h0Z"/>
  <path class="st1" d="M116.634,30.854v-14.823c0-.83-.687-1.506-1.527-1.506h-5.096c-.844,0-1.57.675-1.57,1.506v35.865c0,1.669,1.33,3.018,3.017,3.018h8.985c1.689,0,3.055-1.349,3.055-3.018v-14.222l-6.864-6.82h0Z"/>
  <path class="st1" d="M166.128,14.525h-31.987c-1.686,0-3.055,1.351-3.055,3.016v34.356c0,1.669,1.369,3.018,3.055,3.018h9.034c1.684,0,3.063-1.349,3.063-3.018v-10.292c0-1.391,1.155-2.521,2.558-2.521h17.332c1.687,0,3.053-1.358,3.053-3.023v-18.52c0-1.665-1.366-3.016-3.053-3.016h0ZM161.4,30.352c0,.833-.686,1.508-1.529,1.508h-19.344c-.846,0-1.529-.675-1.529-1.508v-7.355c0-.831.683-1.508,1.529-1.508h19.344c.843,0,1.529.676,1.529,1.508v7.355h0Z"/>
  <path class="st0" d="M92.228,191.196c-.277.244-.607.366-.991.366-.521,0-.944-.192-1.269-.576-.326-.384-.488-1.028-.488-1.933,0-.853.165-1.47.496-1.851.33-.381.761-.571,1.291-.571.384,0,.71.107.979.322.269.215.445.508.53.879l1.431-.342c-.163-.573-.407-1.012-.732-1.318-.547-.518-1.258-.777-2.134-.777-1.003,0-1.812.33-2.427.989-.615.659-.923,1.585-.923,2.776,0,1.126.306,2.014.918,2.664.612.649,1.393.974,2.344.974.768,0,1.402-.19,1.902-.569.5-.379.857-.96,1.072-1.741l-1.401-.444c-.12.524-.319.908-.596,1.152h0ZM95.46,192.676h2.72c.534,0,.96-.051,1.279-.152.426-.137.765-.327,1.016-.571.332-.322.587-.744.766-1.265.147-.426.22-.934.22-1.523,0-.671-.078-1.235-.234-1.692-.157-.457-.385-.844-.684-1.16-.299-.315-.659-.535-1.079-.659-.313-.091-.767-.137-1.362-.137h-2.642v7.159h0ZM97.555,186.728c.589,0,.985.023,1.186.069.27.058.493.171.669.337.176.166.312.397.41.693.098.296.146.721.146,1.274s-.049.991-.146,1.311c-.098.321-.224.551-.378.691-.155.14-.349.24-.583.298-.179.046-.471.069-.874.069h-1.079v-4.742h.65ZM105.895,185.488h-1.114c-.156.436-.444.818-.864,1.145s-.809.549-1.167.667v1.245c.68-.225,1.271-.572,1.773-1.04v5.171h1.372v-7.188h0ZM111.913,185.945c-.357-.305-.807-.457-1.35-.457-.775,0-1.405.29-1.89.869-.485.58-.728,1.525-.728,2.837,0,1.279.233,2.2.699,2.761.465.562,1.059.843,1.782.843.674,0,1.225-.222,1.655-.664.43-.443.645-1.031.645-1.763,0-.69-.205-1.253-.613-1.69-.409-.436-.899-.654-1.472-.654-.508,0-.933.202-1.275.606.052-.824.179-1.366.379-1.626.2-.261.445-.391.735-.391.218,0,.395.065.532.195.137.131.221.332.254.606l1.328-.147c-.098-.579-.325-1.021-.681-1.325h0ZM109.757,189.348c.182-.207.405-.31.669-.31.273,0,.501.108.683.325.183.216.274.557.274,1.023,0,.452-.085.778-.254.976-.169.199-.381.298-.635.298-.263,0-.498-.121-.703-.364-.205-.242-.308-.587-.308-1.033,0-.403.092-.708.274-.915h0ZM116.627,186.889c-.645.811-1.16,1.731-1.545,2.759-.386,1.029-.59,2.038-.613,3.028h1.323c-.003-.632.1-1.349.31-2.151.21-.803.515-1.56.916-2.273.4-.713.794-1.26,1.181-1.641v-.996h-4.692v1.274h3.12ZM119.337,189.563c-.192.324-.288.679-.288,1.067,0,.703.255,1.256.766,1.66.433.342.975.513,1.626.513.7,0,1.261-.207,1.683-.621.421-.413.632-.95.632-1.611,0-.4-.103-.753-.31-1.059-.207-.306-.509-.539-.906-.699.313-.136.555-.334.728-.593.172-.259.258-.554.258-.886,0-.534-.188-.975-.564-1.323-.376-.349-.904-.523-1.584-.523-.687,0-1.217.174-1.589.523-.373.348-.559.789-.559,1.323,0,.312.08.6.241.862s.419.468.774.617c-.413.176-.716.426-.908.75h0ZM120.763,186.811c.156-.156.366-.234.63-.234.254,0,.458.077.612.232.155.155.232.36.232.618,0,.273-.078.487-.234.642-.156.154-.365.232-.625.232-.257,0-.463-.077-.618-.23-.154-.153-.232-.366-.232-.64,0-.257.079-.463.235-.62h0ZM120.648,189.746c.164-.231.414-.347.75-.347.289,0,.528.102.717.305.189.204.284.473.284.808,0,.385-.093.678-.279.882-.185.203-.42.305-.703.305-.29,0-.531-.106-.725-.317-.194-.212-.291-.507-.291-.884,0-.27.083-.521.247-.752h0ZM125.323,192.239c.427.372.964.559,1.612.559.683,0,1.255-.222,1.714-.664.458-.443.688-.979.688-1.607,0-.433-.123-.802-.369-1.108-.245-.306-.573-.503-.984-.591.687-.374,1.031-.876,1.031-1.504,0-.443-.168-.84-.503-1.191-.407-.43-.947-.645-1.621-.645-.394,0-.75.074-1.067.222-.318.148-.565.352-.742.611-.178.258-.31.604-.398,1.037l1.264.215c.036-.312.137-.55.303-.713.166-.163.366-.244.601-.244.237,0,.428.072.571.215.143.143.215.335.215.576,0,.283-.098.51-.293.681-.196.171-.479.252-.85.242l-.151,1.118c.244-.068.454-.103.63-.103.267,0,.493.101.678.303.186.202.279.476.279.821,0,.364-.097.654-.291.869-.194.215-.432.322-.715.322-.264,0-.488-.09-.674-.269-.186-.179-.299-.437-.342-.776l-1.328.161c.068.602.316,1.09.742,1.463h0ZM134.21,192.676v-1.441h.889v-1.206h-.889v-4.541h-1.152l-3.106,4.546v1.201h2.93v1.441h1.328ZM131.236,190.029l1.646-2.446v2.446h-1.646Z"/>
  <path class="st0" d="M85.966,147.874v-.782h-4.065v-2.253h3.663v-.777h-3.663v-2.028h3.911v-.782h-4.788v6.622h4.941ZM87.886,147.874v-2.62c0-.614.126-1.031.377-1.251.251-.22.55-.33.897-.33.217,0,.406.049.567.147.161.098.273.229.337.393.063.164.095.412.095.743v2.918h.813v-2.95c0-.376-.015-.639-.045-.79-.048-.232-.132-.432-.253-.601-.12-.168-.302-.305-.544-.408-.242-.104-.508-.156-.797-.156-.666,0-1.174.263-1.527.79v-.682h-.732v4.797h.813ZM93.03,149.712v-2.335c.139.175.315.319.531.434.215.114.458.171.729.171.37,0,.723-.104,1.059-.314.336-.209.592-.51.768-.903.176-.393.264-.835.264-1.326,0-.457-.08-.878-.239-1.262-.16-.384-.396-.681-.709-.892-.313-.211-.675-.316-1.084-.316-.313,0-.58.061-.799.183s-.417.305-.592.548v-.623h-.741v6.635h.813ZM93.353,144.091c.266-.324.573-.485.919-.485.349,0,.65.152.901.456.251.304.377.762.377,1.373,0,.641-.129,1.115-.386,1.42-.257.306-.567.459-.928.459-.355,0-.658-.148-.908-.443-.25-.295-.375-.751-.375-1.368s.133-1.088.4-1.412h0ZM100.654,147.874h.849c-.102-.184-.171-.376-.206-.576-.034-.2-.051-.678-.051-1.434v-1.084c0-.361-.014-.611-.041-.75-.048-.223-.133-.407-.253-.553-.121-.146-.309-.267-.565-.364-.256-.096-.588-.144-.998-.144-.413,0-.775.056-1.089.169-.313.113-.553.274-.718.483-.166.21-.285.484-.357.825l.795.108c.087-.34.222-.577.404-.711.182-.134.464-.201.847-.201.409,0,.718.092.926.275.153.136.23.369.23.7,0,.03-.002.101-.004.213-.311.108-.794.201-1.45.28-.322.039-.563.079-.723.122-.217.06-.412.149-.585.266-.173.117-.313.273-.42.468-.107.194-.16.408-.16.643,0,.401.141.73.425.987.283.257.688.386,1.215.386.319,0,.618-.053.896-.158.278-.105.568-.286.869-.542.024.226.079.423.163.592h0ZM100.424,145.765c0,.358-.044.629-.131.813-.115.237-.294.425-.538.562-.244.137-.522.205-.835.205-.316,0-.556-.072-.72-.216-.164-.145-.246-.326-.246-.542,0-.142.038-.271.113-.387.075-.115.182-.204.321-.264.138-.06.375-.114.709-.162.59-.085,1.032-.187,1.328-.308v.299h0ZM103.301,147.874v-6.622h-.813v6.622h.813Z"/>
  <path class="st0" d="M23.726,122.233v-6.245h2.225v-1.271h-5.973v1.271h2.23v6.245h1.518ZM28.945,121.095c-.154.123-.344.184-.569.184-.332,0-.608-.118-.831-.356-.222-.237-.338-.57-.349-.997h3.609c.02-1.104-.203-1.923-.672-2.458-.468-.535-1.107-.803-1.918-.803-.721,0-1.318.256-1.789.767-.472.511-.708,1.217-.708,2.12,0,.755.179,1.381.538,1.876.455.619,1.155.928,2.102.928.598,0,1.096-.137,1.495-.413.398-.275.69-.675.874-1.202l-1.436-.241c-.079.274-.195.472-.349.595h0ZM27.223,119.044c-.003-.393.097-.704.302-.933.205-.229.465-.344.779-.344.294,0,.543.109.749.326.205.217.313.534.323.951h-2.153ZM32.322,121.905c.432.301,1.019.451,1.761.451.817,0,1.434-.179,1.851-.538.417-.359.625-.788.625-1.287,0-.458-.15-.815-.451-1.072-.304-.253-.84-.466-1.607-.64-.767-.175-1.216-.31-1.346-.406-.096-.071-.144-.158-.144-.261,0-.12.055-.217.164-.292.164-.106.436-.159.815-.159.301,0,.532.056.695.169.162.113.273.275.331.487l1.359-.251c-.137-.475-.386-.834-.749-1.077-.362-.242-.916-.364-1.661-.364-.783,0-1.36.161-1.733.482-.373.321-.559.718-.559,1.19,0,.523.215.931.646,1.225.311.212,1.048.446,2.21.702.249.058.41.122.482.19.068.072.103.162.103.272,0,.16-.063.289-.19.384-.188.137-.468.205-.841.205-.338,0-.602-.072-.789-.218-.188-.145-.313-.358-.374-.638l-1.446.221c.133.516.416.924.849,1.225h0ZM39.333,116.788v-1.922l-1.446.84v1.082h-.661v1.149h.661v2.373c0,.51.015.848.046,1.016.038.235.105.423.203.561.097.138.25.251.459.338.208.088.443.131.702.131.424,0,.803-.072,1.138-.215l-.123-1.118c-.253.092-.446.139-.579.139-.096,0-.177-.024-.243-.072-.067-.048-.109-.109-.128-.182-.019-.074-.028-.333-.028-.777v-2.194h.984v-1.149h-.984ZM43.034,118.229v-1.441h-1.441v1.441h1.441ZM43.034,122.233v-1.441h-1.441v1.441h1.441ZM51.589,115.166c-.374-.32-.847-.48-1.418-.48-.814,0-1.475.304-1.984.913-.509.608-.764,1.601-.764,2.979,0,1.343.244,2.309.733,2.899.489.589,1.113.884,1.871.884.708,0,1.287-.232,1.738-.697.451-.465.677-1.082.677-1.851,0-.724-.214-1.316-.643-1.774-.429-.458-.944-.687-1.546-.687-.533,0-.979.212-1.338.636.055-.865.187-1.434.397-1.707.21-.274.467-.41.772-.41.229,0,.415.068.559.205.144.136.232.348.267.635l1.395-.153c-.102-.609-.341-1.073-.715-1.392h0ZM49.325,118.739c.191-.217.426-.326.702-.326.287,0,.526.114.718.341.191.228.287.586.287,1.075,0,.475-.089.816-.267,1.025-.178.208-.4.313-.667.313-.277,0-.523-.128-.738-.382-.215-.255-.323-.616-.323-1.085,0-.423.096-.744.287-.961h0ZM59.876,114.717h-1.605l-2.927,7.516h1.61l.62-1.707h3.004l.656,1.707h1.651l-3.009-7.516h0ZM58.041,119.259l1.015-2.789,1.036,2.789h-2.051ZM68.633,118.849c0-.42-.027-.743-.079-.969-.053-.225-.147-.427-.282-.605-.135-.177-.334-.323-.597-.438-.263-.115-.554-.172-.872-.172-.721,0-1.319.308-1.794.923v-.8h-1.338v5.445h1.441v-2.466c0-.608.037-1.025.11-1.251.073-.226.209-.407.408-.543.198-.137.422-.206.672-.206.195,0,.361.048.5.144.138.096.238.23.3.403.062.172.092.552.092,1.14v2.779h1.441v-3.384h0ZM71.371,122.233v-.8c.219.305.479.534.782.69.302.155.609.233.92.233.632,0,1.17-.251,1.612-.754.443-.502.664-1.218.664-2.148,0-.899-.217-1.588-.651-2.068-.434-.481-.983-.721-1.646-.721-.608,0-1.135.253-1.579.759v-2.707h-1.441v7.516h1.338ZM71.807,118.17c.229-.268.516-.403.861-.403.352,0,.641.138.866.413.226.275.338.724.338,1.346,0,.585-.112,1.013-.336,1.284-.224.272-.495.408-.813.408-.414,0-.745-.191-.995-.574-.178-.27-.267-.687-.267-1.251,0-.547.115-.955.343-1.223h0ZM77.949,116.05v-1.333h-1.441v1.333h1.441ZM77.949,122.233v-5.445h-1.441v5.445h1.441ZM82.23,121.095c-.154.123-.343.184-.569.184-.331,0-.608-.118-.831-.356-.222-.237-.338-.57-.349-.997h3.609c.02-1.104-.203-1.923-.672-2.458-.468-.535-1.107-.803-1.918-.803-.721,0-1.318.256-1.789.767s-.708,1.217-.708,2.12c0,.755.179,1.381.538,1.876.455.619,1.155.928,2.102.928.598,0,1.096-.137,1.494-.413.398-.275.689-.675.874-1.202l-1.436-.241c-.079.274-.195.472-.349.595h0ZM80.507,119.044c-.003-.393.097-.704.303-.933.205-.229.465-.344.779-.344.294,0,.543.109.749.326.205.217.313.534.323.951h-2.153ZM86.777,116.788v-1.922l-1.446.84v1.082h-.661v1.149h.661v2.373c0,.51.015.848.046,1.016.038.235.105.423.202.561.097.138.25.251.459.338.208.088.443.131.702.131.424,0,.803-.072,1.138-.215l-.123-1.118c-.253.092-.446.139-.579.139-.096,0-.177-.024-.243-.072-.067-.048-.109-.109-.128-.182-.019-.074-.028-.333-.028-.777v-2.194h.984v-1.149h-.984ZM91.566,121.095c-.154.123-.344.184-.569.184-.332,0-.608-.118-.831-.356-.222-.237-.338-.57-.349-.997h3.609c.02-1.104-.203-1.923-.672-2.458-.468-.535-1.107-.803-1.917-.803-.721,0-1.318.256-1.789.767-.472.511-.707,1.217-.707,2.12,0,.755.179,1.381.538,1.876.454.619,1.155.928,2.102.928.598,0,1.096-.137,1.494-.413.398-.275.69-.675.874-1.202l-1.436-.241c-.079.274-.195.472-.349.595h0ZM89.843,119.044c-.003-.393.098-.704.303-.933.205-.229.465-.344.779-.344.294,0,.543.109.749.326.205.217.313.534.323.951h-2.153ZM95.98,120.551c0-.926.04-1.534.12-1.825.08-.29.19-.491.331-.602.14-.111.311-.167.513-.167.208,0,.434.079.677.236l.446-1.256c-.304-.181-.62-.272-.949-.272-.232,0-.44.058-.623.175-.183.116-.389.357-.618.722v-.774h-1.338v5.445h1.441v-1.682h0ZM103.132,122.233v-2.835h.99c.687,0,1.211-.036,1.574-.108.266-.058.528-.177.787-.356.258-.18.47-.426.638-.741.167-.314.251-.702.251-1.164,0-.598-.145-1.086-.436-1.464-.29-.377-.651-.622-1.081-.735-.281-.075-.882-.113-1.805-.113h-2.435v7.516h1.517ZM103.865,115.988c.547,0,.911.018,1.092.052.246.044.45.155.61.333.161.178.241.403.241.677,0,.222-.057.417-.171.584-.115.168-.273.291-.475.369-.201.079-.601.118-1.199.118h-.831v-2.133h.733ZM108.603,114.717v7.516h1.44v-2.727c0-.458.044-.805.131-1.039.087-.234.225-.409.413-.525.188-.116.401-.175.641-.175.208,0,.382.046.52.136.138.091.235.213.29.367.054.154.082.516.082,1.087v2.876h1.44v-3.194c0-.489-.024-.849-.074-1.082-.05-.232-.142-.444-.277-.636-.135-.191-.336-.348-.602-.471-.267-.123-.566-.185-.897-.185-.646,0-1.202.272-1.667.815v-2.763h-1.44ZM115.042,121.026c.236.435.58.766,1.033.992.453.225.929.338,1.428.338.807,0,1.476-.271,2.007-.813.532-.541.797-1.224.797-2.048,0-.817-.263-1.492-.789-2.027-.527-.535-1.202-.803-2.025-.803-.533,0-1.016.118-1.449.354-.432.236-.766.578-1.002,1.025-.236.448-.354.911-.354,1.39,0,.625.118,1.156.354,1.592h0ZM116.549,118.27c.257-.287.573-.431.949-.431s.691.144.946.431c.254.287.382.697.382,1.23,0,.547-.128.964-.382,1.251-.255.287-.57.431-.946.431s-.692-.144-.949-.431c-.256-.287-.384-.7-.384-1.24s.128-.954.384-1.241h0ZM122.948,116.788v-1.922l-1.446.84v1.082h-.661v1.149h.661v2.373c0,.51.015.848.046,1.016.038.235.105.423.203.561.097.138.25.251.459.338.208.088.442.131.702.131.424,0,.803-.072,1.138-.215l-.123-1.118c-.253.092-.446.139-.579.139-.096,0-.177-.024-.244-.072-.066-.048-.109-.109-.128-.182-.019-.074-.028-.333-.028-.777v-2.194h.984v-1.149h-.984ZM124.952,121.026c.236.435.581.766,1.034.992.452.225.928.338,1.427.338.807,0,1.476-.271,2.008-.813.531-.541.797-1.224.797-2.048,0-.817-.263-1.492-.79-2.027-.526-.535-1.201-.803-2.025-.803-.533,0-1.016.118-1.448.354-.433.236-.767.578-1.003,1.025-.235.448-.353.911-.353,1.39,0,.625.118,1.156.353,1.592h0ZM126.46,118.27c.256-.287.572-.431.948-.431s.691.144.946.431c.255.287.382.697.382,1.23,0,.547-.127.964-.382,1.251-.255.287-.57.431-.946.431s-.692-.144-.948-.431c-.257-.287-.385-.7-.385-1.24s.128-.954.385-1.241h0ZM134.14,122.233l2.164-5.445h-1.482l-1.036,2.779c-.055.154-.106.308-.154.461-.02.076-.07.231-.148.467l-.298-.928-1.025-2.779h-1.513l2.195,5.445h1.297ZM137.206,121.026c.236.435.58.766,1.033.992.453.225.929.338,1.428.338.806,0,1.475-.271,2.007-.813.531-.541.797-1.224.797-2.048,0-.817-.263-1.492-.789-2.027-.527-.535-1.202-.803-2.025-.803-.534,0-1.016.118-1.449.354-.432.236-.766.578-1.002,1.025-.236.448-.354.911-.354,1.39,0,.625.118,1.156.354,1.592h0ZM138.713,118.27c.257-.287.573-.431.949-.431s.691.144.946.431c.254.287.382.697.382,1.23,0,.547-.128.964-.382,1.251-.255.287-.57.431-.946.431s-.692-.144-.949-.431c-.256-.287-.384-.7-.384-1.24s.128-.954.384-1.241h0ZM145.04,122.233v-7.516h-1.441v7.516h1.441ZM148.029,116.788v-1.922l-1.446.84v1.082h-.661v1.149h.661v2.373c0,.51.015.848.046,1.016.038.235.105.423.203.561.097.138.25.251.459.338.208.088.442.131.702.131.424,0,.803-.072,1.138-.215l-.123-1.118c-.253.092-.446.139-.579.139-.096,0-.177-.024-.244-.072-.066-.048-.109-.109-.128-.182-.019-.074-.028-.333-.028-.777v-2.194h.984v-1.149h-.984ZM151.438,117.919c.144-.101.344-.152.6-.152.38,0,.638.059.774.177.137.118.205.316.205.593v.143c-.259.11-.726.227-1.399.354-.499.096-.881.207-1.146.336-.265.128-.471.312-.618.553s-.22.516-.22.823c0,.465.161.85.484,1.154.323.304.765.456,1.325.456.318,0,.617-.06.898-.179.28-.12.543-.299.789-.539.01.028.027.084.051.17.055.188.101.329.139.425h1.425c-.126-.26-.213-.503-.259-.731-.046-.227-.069-.58-.069-1.058l.015-1.682c0-.625-.064-1.055-.192-1.289-.128-.234-.349-.428-.664-.58-.314-.152-.793-.228-1.435-.228-.708,0-1.241.127-1.6.38-.359.253-.612.642-.759,1.169l1.308.235c.088-.253.205-.429.348-.53h0ZM153.017,119.905c0,.346-.018.58-.056.703-.055.188-.169.347-.344.477-.235.171-.483.256-.743.256-.232,0-.424-.073-.574-.22-.151-.147-.226-.322-.226-.523,0-.206.094-.375.282-.508.123-.082.385-.166.785-.251.4-.086.692-.159.876-.221v.287h0ZM157.293,116.05v-1.333h-1.44v1.333h1.44ZM157.293,122.233v-5.445h-1.44v5.445h1.44ZM160.159,122.233v-1.743l.672-.702,1.369,2.445h1.553l-1.994-3.455,1.861-1.99h-1.774l-1.687,1.918v-3.989h-1.44v7.516h1.44Z"/>
  <path class="st0" d="M64.966,125.961h-1.605l-2.928,7.516h1.61l.62-1.707h3.004l.656,1.707h1.651l-3.01-7.516h0ZM63.13,130.504l1.015-2.789,1.036,2.789h-2.051ZM73.692,133.477v-5.444h-1.441v2.296c0,.78-.036,1.269-.108,1.469-.072.2-.205.368-.4.503-.195.135-.415.202-.661.202-.215,0-.393-.05-.533-.151-.14-.101-.237-.238-.29-.41-.053-.173-.079-.642-.079-1.407v-2.502h-1.441v3.445c0,.513.065.914.195,1.205.13.29.34.516.631.676.29.161.619.241.984.241.359,0,.7-.083,1.023-.251.323-.167.584-.396.782-.687v.815h1.338ZM75.045,134.011c0,.485.193.886.579,1.202.386.316,1.041.474,1.964.474.489,0,.893-.051,1.213-.154.32-.102.575-.244.766-.425.191-.181.34-.431.446-.749.106-.318.159-.798.159-1.44v-4.886h-1.348v.763c-.438-.591-.993-.886-1.666-.886-.653,0-1.199.24-1.638.722-.439.482-.659,1.18-.659,2.092,0,.728.167,1.337.502,1.825.427.619,1.007.928,1.738.928.656,0,1.2-.294,1.63-.881v.794c0,.321-.022.542-.067.662-.065.167-.161.288-.287.364-.188.112-.47.169-.846.169-.294,0-.509-.051-.646-.154-.099-.072-.162-.203-.19-.395l-1.646-.2c-.003.069-.005.127-.005.175h0ZM76.673,129.414c.224-.268.508-.402.854-.402.355,0,.649.137.882.41.232.273.349.692.349,1.256,0,.54-.121.948-.364,1.223-.243.275-.54.413-.892.413-.328,0-.604-.135-.828-.403-.224-.268-.336-.691-.336-1.269,0-.55.112-.959.336-1.228h0ZM86.519,133.477v-5.444h-1.441v2.296c0,.78-.036,1.269-.108,1.469-.072.2-.205.368-.4.503-.195.135-.415.202-.661.202-.215,0-.393-.05-.533-.151-.14-.101-.237-.238-.29-.41-.053-.173-.079-.642-.079-1.407v-2.502h-1.441v3.445c0,.513.065.914.195,1.205.13.29.34.516.631.676.291.161.619.241.984.241.359,0,.7-.083,1.023-.251.323-.167.584-.396.782-.687v.815h1.338ZM88.352,133.149c.432.301,1.019.451,1.761.451.817,0,1.434-.179,1.851-.538.417-.359.625-.788.625-1.287,0-.458-.15-.815-.451-1.071-.304-.253-.84-.467-1.607-.641-.767-.174-1.216-.309-1.346-.405-.096-.072-.144-.159-.144-.262,0-.119.055-.217.164-.292.164-.106.436-.159.815-.159.301,0,.532.057.695.169.162.113.272.276.331.487l1.359-.251c-.137-.475-.386-.834-.748-1.076-.362-.243-.916-.364-1.661-.364-.783,0-1.36.16-1.733.481-.373.322-.559.718-.559,1.19,0,.523.215.931.646,1.225.311.212,1.048.446,2.21.703.249.058.41.121.482.189.068.072.103.163.103.272,0,.161-.063.289-.19.385-.188.136-.468.205-.841.205-.338,0-.602-.073-.789-.218-.188-.145-.313-.358-.374-.639l-1.446.221c.133.516.416.925.849,1.225h0ZM95.363,128.033v-1.923l-1.446.841v1.082h-.661v1.148h.661v2.374c0,.509.015.847.046,1.015.038.236.105.423.202.561.097.139.25.252.459.339.208.087.443.13.702.13.424,0,.803-.071,1.138-.215l-.123-1.118c-.253.093-.446.139-.579.139-.096,0-.177-.024-.243-.072-.067-.048-.109-.108-.128-.182-.019-.073-.028-.332-.028-.777v-2.194h.984v-1.148h-.984ZM101.961,132.139c.076-.13.174-.263.295-.4.122-.136.41-.413.864-.83.455-.417.769-.737.943-.959.264-.335.456-.655.577-.961.122-.306.182-.628.182-.967,0-.594-.212-1.092-.635-1.492-.424-.4-1.007-.599-1.749-.599-.677,0-1.24.172-1.692.517-.451.346-.719.915-.805,1.708l1.436.143c.027-.42.13-.721.308-.902.177-.181.417-.272.717-.272.305,0,.543.086.716.259.172.173.258.42.258.741,0,.29-.099.584-.297.882-.147.215-.545.625-1.194,1.23-.807.749-1.347,1.349-1.621,1.802-.273.453-.437.933-.492,1.438h5.05v-1.338h-2.861ZM106.53,126.7c-.493.622-.739,1.64-.739,3.055,0,1.443.224,2.445.672,3.007.448.562,1.037.844,1.769.844.728,0,1.295-.257,1.702-.769.492-.623.738-1.644.738-3.066s-.244-2.446-.733-3.061c-.41-.52-.979-.779-1.707-.779s-1.296.256-1.702.769h0ZM108.696,127.292c.135.111.247.331.335.661.089.33.134.936.134,1.818s-.05,1.507-.149,1.876c-.075.287-.181.486-.318.597-.136.111-.292.167-.466.167-.175,0-.329-.055-.464-.164s-.247-.329-.336-.659c-.089-.33-.133-.936-.133-1.817s.049-1.509.148-1.882c.075-.287.181-.486.318-.597.137-.111.292-.167.467-.167.174,0,.329.056.464.167h0ZM113.641,132.139c.075-.13.173-.263.294-.4.122-.136.41-.413.864-.83.455-.417.769-.737.944-.959.263-.335.455-.655.576-.961.122-.306.182-.628.182-.967,0-.594-.212-1.092-.635-1.492-.424-.4-1.007-.599-1.749-.599-.676,0-1.24.172-1.691.517-.452.346-.72.915-.805,1.708l1.435.143c.027-.42.13-.721.308-.902.177-.181.417-.272.718-.272.304,0,.542.086.715.259.172.173.259.42.259.741,0,.29-.1.584-.298.882-.147.215-.545.625-1.194,1.23-.807.749-1.347,1.349-1.62,1.802-.274.453-.438.933-.493,1.438h5.05v-1.338h-2.86ZM118.281,133.047c.437.372,1.003.559,1.697.559.868,0,1.546-.332,2.035-.995.359-.485.538-1.037.538-1.656,0-.742-.222-1.345-.666-1.81-.445-.465-.986-.697-1.625-.697-.335,0-.664.08-.985.241l.226-1.277h2.717v-1.348h-3.809l-.739,3.912,1.169.169c.328-.366.699-.549,1.113-.549.331,0,.601.116.807.346.207.231.311.577.311,1.039,0,.492-.105.86-.313,1.104-.209.245-.463.367-.764.367-.263,0-.496-.095-.697-.285-.202-.189-.323-.446-.364-.771l-1.436.149c.085.628.347,1.129.785,1.502h0Z"/>
  <path class="st0" d="M71.506,96.512c0,1.34.533,2.447,1.6,3.32,1.067.873,2.874,1.31,5.423,1.31,1.35,0,2.466-.142,3.349-.425.883-.283,1.588-.675,2.117-1.175.529-.5.939-1.19,1.232-2.067.293-.878.439-2.204.439-3.979v-13.495h-3.724v2.11c-1.208-1.633-2.742-2.45-4.602-2.45-1.803,0-3.311.666-4.524,1.997-1.213,1.331-1.82,3.257-1.82,5.777,0,2.011.462,3.691,1.388,5.041,1.18,1.709,2.78,2.563,4.8,2.563,1.812,0,3.314-.812,4.503-2.435v2.195c0,.887-.061,1.496-.184,1.827-.179.462-.444.798-.793,1.005-.519.312-1.298.467-2.337.467-.812,0-1.407-.142-1.784-.425-.274-.198-.449-.562-.524-1.09l-4.545-.552c-.009.189-.014.349-.014.482h0ZM76.002,83.817c.618-.741,1.404-1.112,2.358-1.112.982,0,1.793.378,2.435,1.133.642.755.963,1.912.963,3.469,0,1.492-.335,2.617-1.005,3.377-.67.76-1.492,1.14-2.464,1.14-.906,0-1.669-.37-2.287-1.112-.618-.741-.928-1.909-.928-3.505,0-1.52.309-2.65.928-3.391h0ZM102.906,95.039v-15.038h-3.978v6.344c0,2.152-.099,3.505-.297,4.057-.198.552-.566,1.015-1.105,1.388-.538.373-1.147.559-1.827.559-.595,0-1.086-.139-1.473-.418-.387-.278-.654-.656-.8-1.133-.146-.477-.219-1.772-.219-3.887v-6.91h-3.979v9.516c0,1.416.179,2.525.538,3.328.359.802.939,1.426,1.742,1.869.802.444,1.708.665,2.719.665.991,0,1.933-.231,2.825-.694.892-.462,1.612-1.095,2.159-1.897v2.251h3.695ZM110.914,80.001v-5.31l-3.993,2.322v2.988h-1.826v3.172h1.826v6.556c0,1.407.043,2.341.128,2.804.103.651.29,1.168.559,1.551.269.382.691.694,1.267.935.576.241,1.223.361,1.94.361,1.171,0,2.219-.198,3.144-.595l-.34-3.087c-.699.255-1.232.382-1.6.382-.265,0-.489-.066-.673-.198-.184-.132-.302-.3-.354-.503-.052-.203-.078-.918-.078-2.145v-6.061h2.719v-3.172h-2.719Z"/>
  <path class="st1" d="M16.794,167.21c0,.881.052,1.547.156,1.998.072.305.22.596.446.873.226.278.533.503.921.677.388.173.959.26,1.711.26.623,0,1.128-.079,1.515-.239.387-.159.696-.373.926-.642.231-.268.389-.598.475-.988.086-.39.129-1.058.129-2.003v-4.136h-1.59v4.356c0,.623-.023,1.069-.07,1.337-.047.269-.185.495-.414.68-.229.184-.569.276-1.021.276-.444,0-.794-.097-1.05-.292-.256-.195-.418-.454-.486-.776-.039-.201-.059-.64-.059-1.316v-4.265h-1.59v4.2h0ZM30.036,167.339c0-.44-.028-.779-.083-1.015-.055-.236-.154-.448-.295-.634-.141-.186-.35-.339-.626-.459-.276-.12-.58-.18-.913-.18-.756,0-1.382.322-1.88.967v-.838h-1.402v5.704h1.509v-2.584c0-.637.038-1.074.115-1.31.077-.236.219-.426.427-.569.208-.144.442-.215.704-.215.204,0,.379.05.524.15.145.1.25.241.314.422.064.181.097.579.097,1.195v2.911h1.509v-3.545h0ZM33.17,166.364c.15-.105.36-.158.628-.158.397,0,.668.062.811.185.143.124.215.33.215.62v.151c-.272.114-.761.238-1.466.37-.523.101-.923.218-1.2.352-.278.135-.493.328-.647.58-.154.253-.231.54-.231.862,0,.487.169.89.508,1.209.338.319.801.478,1.388.478.333,0,.646-.063.94-.188.294-.125.569-.313.827-.564.011.029.029.088.054.177.057.197.106.346.145.446h1.493c-.133-.272-.223-.527-.271-.765-.048-.238-.072-.608-.072-1.11l.016-1.761c0-.656-.067-1.106-.201-1.351s-.366-.448-.695-.607c-.329-.159-.831-.239-1.504-.239-.741,0-1.3.132-1.676.397-.376.265-.641.674-.795,1.225l1.37.247c.093-.265.215-.45.365-.556h0ZM34.824,168.446c0,.361-.02.606-.059.735-.057.197-.177.364-.36.5-.247.179-.507.268-.779.268-.244,0-.444-.077-.602-.231-.158-.153-.236-.336-.236-.547,0-.215.098-.392.295-.532.129-.086.403-.174.822-.263.419-.09.725-.167.918-.231v.301h0ZM39.242,170.884v-.838c.229.319.502.56.819.723.317.162.638.244.964.244.662,0,1.225-.263,1.689-.79.464-.526.696-1.276.696-2.25,0-.942-.227-1.664-.682-2.167-.455-.503-1.03-.755-1.724-.755-.637,0-1.189.265-1.654.795v-2.836h-1.509v7.874h1.402ZM39.698,166.627c.24-.281.541-.421.902-.421.369,0,.671.144.908.432.236.288.354.758.354,1.41,0,.612-.117,1.061-.352,1.346-.235.284-.518.427-.851.427-.433,0-.781-.201-1.042-.602-.186-.283-.279-.72-.279-1.311,0-.572.12-.999.36-1.281h0ZM44.728,163.01v7.874h1.509v-2.857c0-.48.046-.843.137-1.088.091-.245.235-.429.432-.551.197-.121.421-.182.671-.182.218,0,.4.047.545.142.145.095.246.223.303.384.057.161.086.541.086,1.139v3.013h1.509v-3.346c0-.512-.026-.89-.078-1.134-.052-.243-.149-.465-.29-.666-.142-.2-.352-.365-.631-.494-.279-.129-.593-.193-.94-.193-.677,0-1.259.285-1.746.854v-2.895h-1.509ZM53.056,166.364c.15-.105.36-.158.628-.158.397,0,.668.062.811.185.143.124.215.33.215.62v.151c-.272.114-.761.238-1.466.37-.523.101-.923.218-1.2.352-.277.135-.493.328-.647.58-.154.253-.231.54-.231.862,0,.487.169.89.508,1.209.338.319.801.478,1.388.478.333,0,.646-.063.94-.188.293-.125.569-.313.827-.564.011.029.029.088.054.177.057.197.106.346.145.446h1.493c-.132-.272-.223-.527-.271-.765-.048-.238-.073-.608-.073-1.11l.016-1.761c0-.656-.067-1.106-.201-1.351-.134-.245-.366-.448-.696-.607-.329-.159-.831-.239-1.504-.239-.741,0-1.3.132-1.676.397-.376.265-.641.674-.795,1.225l1.37.247c.093-.265.215-.45.365-.556h0ZM54.71,168.446c0,.361-.02.606-.059.735-.057.197-.177.364-.36.5-.247.179-.507.268-.779.268-.243,0-.444-.077-.602-.231-.158-.153-.236-.336-.236-.547,0-.215.099-.392.295-.532.129-.086.403-.174.822-.263.419-.09.725-.167.918-.231v.301h0ZM53.335,164.17v-1.294h-1.295v1.294h1.295ZM55.65,164.17v-1.294h-1.3v1.294h1.3ZM62.979,167.339c0-.44-.028-.779-.083-1.015-.056-.236-.154-.448-.295-.634-.142-.186-.35-.339-.626-.459-.276-.12-.58-.18-.913-.18-.756,0-1.382.322-1.88.967v-.838h-1.402v5.704h1.509v-2.584c0-.637.038-1.074.115-1.31.077-.236.219-.426.427-.569.208-.144.442-.215.704-.215.204,0,.379.05.524.15.145.1.25.241.314.422.064.181.097.579.097,1.195v2.911h1.509v-3.545h0ZM64.475,171.443c0,.508.202.928.607,1.259.405.331,1.09.497,2.057.497.512,0,.935-.054,1.27-.161.335-.108.602-.256.803-.446.201-.19.356-.451.467-.784.111-.333.167-.836.167-1.509v-5.119h-1.413v.8c-.458-.619-1.04-.929-1.746-.929-.684,0-1.256.252-1.716.757-.46.505-.69,1.236-.69,2.192,0,.762.175,1.4.526,1.912.448.648,1.055.972,1.821.972.688,0,1.257-.308,1.708-.924v.833c0,.336-.023.567-.07.693-.068.175-.168.302-.301.381-.197.118-.492.177-.886.177-.308,0-.534-.054-.677-.161-.104-.075-.17-.213-.199-.414l-1.724-.209c-.004.072-.005.132-.005.183h0ZM66.18,166.627c.234-.281.533-.421.894-.421.372,0,.68.143.924.429.243.287.365.726.365,1.316,0,.566-.127.993-.381,1.281-.254.289-.566.433-.934.433-.344,0-.633-.141-.868-.422-.235-.281-.352-.724-.352-1.329,0-.577.117-1.005.352-1.287h0ZM72.958,164.406v-1.396h-1.509v1.396h1.509ZM72.958,170.884v-5.704h-1.509v5.704h1.509ZM74.47,171.443c0,.508.202.928.607,1.259.405.331,1.09.497,2.057.497.512,0,.936-.054,1.27-.161.335-.108.602-.256.803-.446.201-.19.356-.451.467-.784.111-.333.167-.836.167-1.509v-5.119h-1.413v.8c-.458-.619-1.04-.929-1.746-.929-.684,0-1.256.252-1.716.757-.46.505-.69,1.236-.69,2.192,0,.762.175,1.4.526,1.912.448.648,1.055.972,1.821.972.688,0,1.257-.308,1.708-.924v.833c0,.336-.023.567-.07.693-.068.175-.168.302-.301.381-.197.118-.492.177-.886.177-.308,0-.534-.054-.677-.161-.104-.075-.17-.213-.199-.414l-1.724-.209c-.004.072-.005.132-.005.183h0ZM76.175,166.627c.234-.281.533-.421.894-.421.372,0,.68.143.924.429.244.287.365.726.365,1.316,0,.566-.127.993-.381,1.281-.254.289-.566.433-.935.433-.344,0-.633-.141-.867-.422-.235-.281-.352-.724-.352-1.329,0-.577.117-1.005.352-1.287h0ZM84.382,169.692c-.161.129-.36.193-.596.193-.347,0-.637-.124-.87-.373-.233-.249-.355-.597-.365-1.045h3.781c.022-1.157-.213-2.015-.704-2.575-.491-.561-1.16-.841-2.009-.841-.756,0-1.38.268-1.874.803-.494.535-.741,1.276-.741,2.221,0,.791.188,1.447.564,1.966.476.648,1.21.972,2.202.972.627,0,1.149-.144,1.566-.432.417-.289.722-.709.916-1.26l-1.504-.252c-.083.286-.204.494-.365.623h0ZM82.578,167.543c-.004-.412.102-.737.317-.977.215-.24.487-.36.816-.36.308,0,.569.113.784.341.215.227.328.559.338.996h-2.256ZM93.111,170.884v-6.542h2.331v-1.332h-6.257v1.332h2.337v6.542h1.59ZM98.689,169.692c-.161.129-.36.193-.596.193-.347,0-.637-.124-.87-.373-.233-.249-.354-.597-.365-1.045h3.781c.022-1.157-.213-2.015-.703-2.575-.491-.561-1.16-.841-2.009-.841-.756,0-1.38.268-1.874.803-.494.535-.741,1.276-.741,2.221,0,.791.188,1.447.564,1.966.476.648,1.21.972,2.202.972.627,0,1.148-.144,1.566-.432.417-.289.722-.709.916-1.26l-1.504-.252c-.082.286-.204.494-.365.623h0ZM96.884,167.543c-.004-.412.102-.737.317-.977.215-.24.487-.36.816-.36.308,0,.569.113.784.341.215.227.328.559.338.996h-2.256ZM102.336,170.54c.452.315,1.067.473,1.845.473.855,0,1.502-.188,1.938-.564.437-.376.656-.825.656-1.348,0-.48-.158-.854-.473-1.123-.319-.265-.88-.489-1.684-.671-.804-.183-1.274-.324-1.41-.424-.1-.076-.15-.167-.15-.274,0-.126.057-.228.172-.307.172-.111.456-.166.854-.166.315,0,.558.059.728.177.17.118.285.288.346.51l1.423-.263c-.143-.497-.404-.873-.784-1.128-.379-.254-.959-.381-1.74-.381-.82,0-1.425.168-1.815.505-.391.336-.586.752-.586,1.246,0,.548.226.976.677,1.284.326.222,1.097.467,2.315.735.261.061.43.128.505.199.071.075.107.17.107.285,0,.168-.066.303-.199.403-.197.143-.49.215-.88.215-.355,0-.631-.076-.828-.229-.197-.152-.327-.375-.392-.668l-1.514.231c.139.54.436.968.889,1.283h0ZM109.791,165.18v-2.014l-1.515.881v1.133h-.693v1.203h.693v2.487c0,.533.016.888.048,1.063.04.247.11.443.212.588.102.145.263.264.481.355.218.091.464.137.736.137.444,0,.841-.075,1.192-.226l-.129-1.171c-.265.097-.467.145-.607.145-.1,0-.185-.025-.255-.075-.069-.05-.114-.113-.134-.19-.02-.077-.029-.349-.029-.814v-2.299h1.031v-1.203h-1.031ZM112.336,170.54c.453.315,1.068.473,1.845.473.856,0,1.502-.188,1.939-.564.437-.376.656-.825.656-1.348,0-.48-.158-.854-.473-1.123-.319-.265-.88-.489-1.684-.671-.804-.183-1.274-.324-1.41-.424-.1-.076-.15-.167-.15-.274,0-.126.057-.228.172-.307.171-.111.456-.166.854-.166.315,0,.557.059.727.177.17.118.286.288.347.51l1.423-.263c-.143-.497-.405-.873-.784-1.128-.38-.254-.96-.381-1.74-.381-.82,0-1.425.168-1.816.505-.39.336-.585.752-.585,1.246,0,.548.225.976.677,1.284.325.222,1.097.467,2.315.735.261.061.429.128.504.199.072.075.108.17.108.285,0,.168-.066.303-.199.403-.197.143-.49.215-.881.215-.354,0-.63-.076-.827-.229-.197-.152-.327-.375-.392-.668l-1.515.231c.14.54.436.968.889,1.283h0ZM121.73,170.54c.453.315,1.068.473,1.845.473.856,0,1.502-.188,1.939-.564s.655-.825.655-1.348c0-.48-.157-.854-.472-1.123-.319-.265-.88-.489-1.684-.671-.804-.183-1.274-.324-1.41-.424-.1-.076-.15-.167-.15-.274,0-.126.057-.228.171-.307.172-.111.457-.166.854-.166.315,0,.558.059.728.177.17.118.286.288.347.51l1.423-.263c-.143-.497-.405-.873-.784-1.128-.38-.254-.96-.381-1.74-.381-.82,0-1.426.168-1.816.505-.39.336-.585.752-.585,1.246,0,.548.225.976.676,1.284.326.222,1.098.467,2.315.735.262.061.43.128.505.199.072.075.108.17.108.285,0,.168-.067.303-.199.403-.197.143-.491.215-.881.215-.354,0-.63-.076-.827-.229-.197-.152-.328-.375-.392-.668l-1.515.231c.14.54.436.968.889,1.283h0ZM130.539,169.692c-.161.129-.36.193-.597.193-.347,0-.637-.124-.87-.373-.232-.249-.354-.597-.365-1.045h3.781c.022-1.157-.213-2.015-.703-2.575-.491-.561-1.16-.841-2.009-.841-.756,0-1.38.268-1.875.803-.494.535-.741,1.276-.741,2.221,0,.791.188,1.447.564,1.966.476.648,1.21.972,2.202.972.627,0,1.149-.144,1.566-.432.417-.289.722-.709.916-1.26l-1.504-.252c-.083.286-.204.494-.365.623h0ZM128.734,167.543c-.004-.412.102-.737.317-.977.215-.24.487-.36.816-.36.308,0,.57.113.784.341.215.227.328.559.339.996h-2.256ZM135.338,164.406v-1.396h-1.51v1.396h1.51ZM135.338,170.884v-5.704h-1.51v5.704h1.51ZM138.579,165.18v-2.014l-1.515.881v1.133h-.693v1.203h.693v2.487c0,.533.016.888.049,1.063.039.247.11.443.212.588.102.145.262.264.481.355.218.091.463.137.735.137.444,0,.842-.075,1.193-.226l-.129-1.171c-.265.097-.467.145-.607.145-.1,0-.185-.025-.255-.075-.07-.05-.115-.113-.135-.19-.019-.077-.029-.349-.029-.814v-2.299h1.031v-1.203h-1.031ZM147.473,162.978h-1.224c-.172.48-.489.899-.951,1.259-.462.36-.89.604-1.284.733v1.37c.749-.247,1.399-.628,1.95-1.144v5.688h1.509v-7.906h0ZM150.602,170.532c.379.328.877.492,1.493.492.856,0,1.55-.319,2.084-.956.533-.638.8-1.676.8-3.116,0-1.414-.256-2.43-.768-3.048-.512-.617-1.167-.926-1.966-.926-.734,0-1.338.244-1.812.733-.475.489-.712,1.132-.712,1.931,0,.766.225,1.388.674,1.866s.984.717,1.603.717c.57,0,1.044-.22,1.424-.66-.061.902-.201,1.496-.419,1.783-.219.286-.484.43-.795.43-.247,0-.446-.072-.596-.215-.151-.143-.244-.364-.28-.661l-1.461.161c.108.652.351,1.142.731,1.469h0ZM152.989,166.775c-.198.229-.443.344-.733.344-.301,0-.551-.119-.752-.357-.2-.238-.301-.612-.301-1.12,0-.501.093-.862.277-1.082.184-.221.416-.331.696-.331.293,0,.552.134.776.403.223.269.335.646.335,1.133,0,.444-.099.781-.298,1.01h0ZM159.499,164.519c-.709.892-1.276,1.903-1.7,3.035-.424,1.131-.649,2.241-.674,3.33h1.455c-.003-.695.111-1.483.342-2.366.23-.883.566-1.716,1.007-2.5.44-.784.873-1.386,1.299-1.805v-1.096h-5.161v1.402h3.432ZM162.59,167.46c-.211.356-.317.747-.317,1.173,0,.774.281,1.383.843,1.827.476.376,1.073.564,1.789.564.77,0,1.386-.228,1.85-.683.464-.454.696-1.045.696-1.772,0-.44-.114-.829-.341-1.165-.228-.337-.56-.593-.997-.769.344-.15.611-.367.801-.652.189-.285.284-.61.284-.975,0-.587-.207-1.072-.62-1.456-.414-.383-.995-.574-1.743-.574-.756,0-1.338.191-1.748.574-.41.384-.615.869-.615,1.456,0,.344.088.66.266.948.177.288.461.515.851.679-.455.194-.788.469-.999.825h0ZM164.158,164.433c.172-.172.403-.258.693-.258.279,0,.504.086.674.256.17.17.255.396.255.679,0,.301-.086.536-.258.706-.171.17-.401.255-.687.255-.283,0-.509-.084-.679-.252-.171-.168-.256-.403-.256-.704,0-.282.086-.51.258-.682h0ZM164.032,167.661c.181-.254.456-.381.824-.381.319,0,.582.112.79.336.208.224.312.52.312.889,0,.422-.102.745-.307.969-.204.224-.462.336-.773.336-.319,0-.585-.117-.798-.349-.213-.233-.319-.557-.319-.973,0-.297.09-.572.271-.827h0Z"/>
  <path class="st4" d="M52.65,187.781c-.373-.272-.875-.408-1.506-.408-.771,0-1.384.238-1.836.715-.453.477-.679,1.144-.679,2,0,.846.225,1.508.676,1.987.451.479,1.055.718,1.814.718.667,0,1.2-.158,1.597-.474.397-.316.666-.783.806-1.401l-1.348-.23c-.068.362-.186.616-.352.764-.166.149-.379.223-.64.223-.348,0-.626-.127-.832-.381-.207-.254-.31-.689-.31-1.304,0-.553.102-.948.305-1.184.203-.236.476-.354.818-.354.257,0,.466.068.627.205.161.137.264.34.31.61l1.353-.244c-.163-.556-.431-.971-.803-1.242h0ZM54.489,185.517v7.159h1.372v-2.598c0-.436.042-.766.125-.989.083-.223.214-.39.393-.5.179-.111.382-.166.61-.166.199,0,.364.043.496.129.132.086.224.203.276.349.052.147.078.492.078,1.035v2.74h1.372v-3.042c0-.466-.024-.809-.071-1.031-.047-.221-.135-.423-.264-.605-.129-.182-.32-.332-.574-.449-.254-.118-.539-.176-.855-.176-.615,0-1.144.259-1.587.776v-2.632h-1.372ZM61.974,186.787v-1.27h-1.372v1.27h1.372ZM61.974,192.676v-5.186h-1.372v5.186h1.372ZM63.341,194.648h1.372v-2.612c.257.277.502.472.735.586.233.114.492.171.779.171.602,0,1.115-.24,1.538-.72.423-.481.635-1.154.635-2.019,0-.844-.21-1.501-.63-1.973-.42-.472-.931-.708-1.533-.708-.345,0-.659.081-.942.244-.283.163-.508.374-.674.635v-.762h-1.279v7.158h0ZM65.031,188.845c.221-.259.5-.388.835-.388.322,0,.592.132.811.395.218.264.327.668.327,1.211,0,.583-.106,1.002-.317,1.258-.212.255-.477.383-.796.383-.332,0-.614-.139-.845-.418-.231-.278-.347-.708-.347-1.291,0-.508.111-.891.332-1.15h0ZM70.861,192.676v-1.372h-1.372v1.372h1.372ZM77.023,185.517h-1.372v2.578c-.423-.481-.925-.722-1.504-.722-.632,0-1.154.229-1.567.686-.413.457-.62,1.125-.62,2.004,0,.86.212,1.529.637,2.01.425.48.935.72,1.531.72.293,0,.583-.073.872-.218.288-.144.538-.365.749-.661v.762h1.275v-7.159h0ZM73.69,188.811c.22-.259.492-.388.818-.388.335,0,.61.131.825.393.215.262.322.691.322,1.286,0,.534-.111.935-.332,1.204-.221.269-.49.403-.806.403-.397,0-.706-.179-.928-.537-.153-.248-.23-.648-.23-1.202,0-.514.11-.9.33-1.159h0ZM81.046,191.592c-.146.117-.327.175-.542.175-.316,0-.58-.113-.791-.339-.212-.226-.322-.543-.332-.95h3.438c.02-1.051-.194-1.832-.64-2.341-.446-.509-1.055-.764-1.826-.764-.687,0-1.255.243-1.704.73-.449.487-.674,1.159-.674,2.019,0,.719.171,1.315.513,1.787.433.589,1.1.884,2.002.884.57,0,1.044-.131,1.423-.393.379-.262.657-.644.832-1.145l-1.367-.23c-.075.261-.185.449-.332.567h0ZM79.406,189.638c-.003-.374.093-.67.288-.888.195-.218.443-.327.742-.327.28,0,.518.103.713.31.195.206.298.508.308.905h-2.051ZM85.015,192.798l1.792-7.403h-1.03l-1.773,7.403h1.011Z"/>
</svg>