<svg id="Ebene_1" data-name="Ebene 1" xmlns="http://www.w3.org/2000/svg" xmlns:xlink="http://www.w3.org/1999/xlink" viewBox="0 0 338.78 113.39"><defs><style>.cls-1,.cls-15{fill:none;}.cls-2{fill:#cdb725;}.cls-3{fill:#c3ad1b;}.cls-4{clip-path:url(#clip-path);}.cls-5{fill:#f5df4d;}.cls-6{fill:#e1cb39;}.cls-7{fill:#007888;}.cls-8{fill:#008292;}.cls-9{fill:#006e7e;}.cls-10{fill:#00a0b0;}.cls-11{fill:#bbbdbf;}.cls-12{fill:#a7a9ab;}.cls-13{fill:#b1b3b5;}.cls-14{fill:#d9dbdd;}.cls-15{stroke:#000;stroke-miterlimit:10;}</style><clipPath id="clip-path" transform="translate(-15.45 -14.17)"><rect class="cls-1" x="15.45" y="14.17" width="361.22" height="113.39"/></clipPath></defs><polygon class="cls-2" points="54.66 85.4 54.66 98.05 57.78 99.86 68.7 93.56 54.66 85.4"/><polygon class="cls-2" points="58.09 64.62 54.66 66.6 54.66 75.94 76.86 88.85 88.36 82.21 58.09 64.62"/><polygon class="cls-3" points="54.66 85.4 68.7 93.56 68.66 79.96 54.66 71.82 54.66 85.4"/><polygon class="cls-3" points="56.7 56.75 53.86 58.39 58.09 64.62 88.35 82.21 80.43 70.54 56.7 56.75"/><g class="cls-4"><path class="cls-2" d="M98.92,63.62l-7-4.09L72.14,70.92l23.74,13.8c.31-.34.6-.68.89-1l.11-.13.08-.1c.27-.33.53-.67.79-1l.12-.17c.23-.31.44-.63.65-1l.1-.14.06-.1.36-.6.16-.26c.17-.3.33-.59.48-.89h0v0a18.45,18.45,0,0,0,.78-1.76.05.05,0,0,0,0,0c0-.07.05-.14.08-.22.09-.23.17-.47.25-.71s.07-.25.11-.37.13-.44.19-.66l.06-.21a1.06,1.06,0,0,1,0-.19l.12-.59c0-.14.06-.28.08-.42s.07-.42.1-.63,0-.27,0-.4.05-.47.07-.71l0-.35c0-.35,0-.71,0-1.07v-.23c0-3.68-.94-6.06-2.77-7.12" transform="translate(-15.45 -14.17)"/><path class="cls-5" d="M86.66,76c3-1.7,4.45-1.46,4.46,1.43v.23c0,2.88-1.44,5.16-4.48,6.92L84.08,86l0-8.55Z" transform="translate(-15.45 -14.17)"/><path class="cls-6" d="M77.65,67.74l-5.19,3,11.6,6.74L86.66,76l.63-.34.2-.1.39-.18.21-.09.33-.13.2-.06.29-.08.25,0,.13,0h.41A1.86,1.86,0,0,1,90,75a1.36,1.36,0,0,1,.25.11h0Z" transform="translate(-15.45 -14.17)"/></g><polygon class="cls-6" points="54.66 69.81 54.66 71.82 68.66 79.96 70.4 78.95 54.66 69.81"/><polygon class="cls-3" points="54.66 63.73 68.64 71.85 68.64 63.3 57.02 56.57 54.66 57.93 54.66 63.73"/><g class="cls-4"><path class="cls-5" d="M92.31,103l11.49-6.64L95.88,84.72C99.31,81,101.71,76.46,101.7,71v-.23c0-8.5-5-10-14.47-4.54l-14,8.14V114l10.92-6.31V94.13l1.7-1ZM63.63,70.87l48.19-28.35V99.21L63.63,127.56Z" transform="translate(-15.45 -14.17)"/><path class="cls-7" d="M60.23,82.47,54,78.85l-31,18,13.52,7.81c.47.27.93.52,1.38.76l.41.21c.31.17.63.32.93.47l.24.12.21.09c.29.14.59.27.87.39l.38.16c.41.17.81.32,1.19.46h0l.09,0c.34.12.67.23,1,.32l.35.1.69.17.14,0,.26,0,.61.11.39.06a5.51,5.51,0,0,0,.57.06l.23,0h.13c.26,0,.51,0,.76,0h.2a9,9,0,0,0,.91-.08h.05l.35-.07a2.84,2.84,0,0,0,.31-.06l.42-.11.27-.08.44-.17.21-.08a5.81,5.81,0,0,0,.61-.31l9.12-5.3Z" transform="translate(-15.45 -14.17)"/></g><polygon class="cls-8" points="11.13 39.97 7.61 42.02 7.49 82.72 38.53 64.68 38.55 55.81 11.13 39.97"/><g class="cls-4"><path class="cls-9" d="M44.73,89.55c0,.11,0,.2,0,.3,0,.29,0,.58-.07.85a2.17,2.17,0,0,1,0,.25c0,.25-.06.49-.1.72l-.06.28c0,.24-.1.47-.16.68a.65.65,0,0,0,0,.13,5.52,5.52,0,0,1-.26.69,1.11,1.11,0,0,1-.09.19,4.16,4.16,0,0,1-.23.42l-.12.18q-.13.18-.27.33a1.59,1.59,0,0,0-.13.13,2.42,2.42,0,0,1-.45.34l15.48-9V71.72l-11-6.37-11.9,6.91,1.81,1,.29.18c.44.26.85.52,1.24.8l.22.15c.37.26.71.53,1,.8l.2.18c.26.23.51.47.75.71l.26.27c.17.17.32.35.47.52l.25.3c.17.22.33.44.48.67l.15.2c.2.3.38.61.55.93l.12.24c.13.25.25.49.36.75,0,.11.09.23.14.35s.19.49.27.74l.14.44.18.65c0,.15.08.3.11.46s.11.54.16.82,0,.27.07.41c.07.48.13,1,.18,1.49,0,.26,0,.52,0,.78s0,.26,0,.4c0,.41,0,.83,0,1.27v.45c0,.45,0,.88,0,1.28" transform="translate(-15.45 -14.17)"/><path class="cls-10" d="M56.28,94.63v-.38C56.31,81.52,50,71,37.5,63.81L24.18,56.12V96.2l13.21,7.69c12.29,7.1,18.85,3.53,18.89-9.26M15.45,42.52,63.63,70.87v56.69L15.45,99.21Z" transform="translate(-15.45 -14.17)"/><path class="cls-10" d="M37,73.31c5.36,3.1,7.74,7.17,7.72,14.51v.45c0,7-2.32,8.77-7.74,5.64l-1.79-1.07V72.26Z" transform="translate(-15.45 -14.17)"/><path class="cls-11" d="M59,62.92c.14,0,.28,0,.42,0,.34,0,.68,2,1,2l1.33-.11.42,0c.68,0,1.36,0,2,0h.15c.65,0,1.3,0,2,.08l.38,0c.64.05,1.28-2,1.92-2L89.71,50.68l0-7.42c0-3.3-2.9-6.54-8.12-9.55-.64-.38-1.31-.72-2-1.05-.22-.11-.46-.2-.69-.31-.46-.21-.92-.42-1.39-.6-.28-.12-.57-.21-.86-.32s-.86-.32-1.3-.46l-1-.28c-.43-.12-.85-.25-1.29-.36l-.24-.07c-.53-.13-1.06-.24-1.6-.35L71,29.85c-.58-.11-1.16-.2-1.75-.28l-.4-.06c-.57-.07-1.15-.14-1.72-.19h-.28l-.38,0c-.65,0-1.3-.07-2-.08h-.15c-.68,0-1.36,0-2,0l-.43,0-.42,0-.91.08-1,.1-1.23.18c-.33.05-.67.09-1,.15l-1.24.26-1,.22c-.42.1-.84.23-1.26.35s-.6.16-.9.26l-.12,0c-.59.2-1.18.41-1.77.64l-.46.19c-.49.2-1,.41-1.45.63l-.52.25c-.61.3-1.21.61-1.79,1l-.38.22-.49.29-.2.13-.58.36-.39.26-.56.38-.35.24-.56.42-.28.21c-.53.43-1,.86-1.47,1.29a2.28,2.28,0,0,0-.22.22l-.42.43c-.08.09-.15.18-.23.26l-.34.41-.21.27c-.1.13-.2.26-.29.4l-.1.14-.09.14c-.09.13-.17.27-.25.41l-.15.27c-.08.15-.15.29-.22.44a2.72,2.72,0,0,0-.11.25,5.38,5.38,0,0,0-.2.51l-.06.18a6,6,0,0,0-.18.7v0l-.06.4,0,.22c0,.21,0,.43,0,.65l0,7.3Z" transform="translate(-15.45 -14.17)"/></g><polygon class="cls-12" points="61.12 44.69 61.13 41.3 50.64 35.25 50.64 50.8 61.12 44.69"/><g class="cls-4"><path class="cls-13" d="M54,58.72l12.11,1.73,0-11a10.93,10.93,0,0,1-10.32-.34c-1.72-1-2.57-2.12-2.57-3.32V59.11Z" transform="translate(-15.45 -14.17)"/><path class="cls-13" d="M75.14,49.11l0-7.57a2.45,2.45,0,0,1,0,.38,2.55,2.55,0,0,1-.42.95,6.34,6.34,0,0,1-1.59,1.54l0,6.06Z" transform="translate(-15.45 -14.17)"/><path class="cls-14" d="M47.61,54.09c8.77,5.06,19.74,6.1,29,1.39L66.09,49.42a10.93,10.93,0,0,1-10.32-.34c-4.09-2.36-3.27-5.42,2.22-8.61l.37-.21C63.94,37,69.21,36.64,73,38.84c2.93,1.69,2.84,3.62.13,5.57L84,50.68C92.15,45,90.17,39.19,81.22,34c-9.79-5.65-23.81-6-34-.13l-.37.22c-10.1,5.87-11.22,13.07.76,20m16-39.92,48.19,28.35L63.63,70.87,15.45,42.52Z" transform="translate(-15.45 -14.17)"/></g><path d="M143.56,49.75v-.16a7,7,0,0,1,7.41-7.3c3.86,0,6.46,1.76,6.8,5.64h-4.68a2,2,0,0,0-2.1-2.06c-1.64,0-2.64,1.28-2.64,3.7v.16c0,2.38,1,3.7,2.72,3.7a2.17,2.17,0,0,0,2.36-2.1H158c-.24,3.76-3,5.74-6.78,5.74C146,57.07,143.56,54.13,143.56,49.75Z" transform="translate(-15.45 -14.17)"/><path d="M158.79,51.71v-.16c0-3.4,2.54-5.48,5.84-5.48s5.8,2,5.8,5.38v.16c0,3.44-2.56,5.46-5.82,5.46S158.79,55.15,158.79,51.71Zm7.64-.08v-.14c0-1.64-.58-2.52-1.8-2.52s-1.86.82-1.86,2.46v.16c0,1.7.6,2.58,1.86,2.58S166.43,53.29,166.43,51.63Z" transform="translate(-15.45 -14.17)"/><path d="M171.8,46.35h3.95v2.12a3.28,3.28,0,0,1,3.36-2.26v3.68c-2.18-.12-3.36.6-3.36,2.1v4.82H171.8Z" transform="translate(-15.45 -14.17)"/><path d="M180.32,46.35h3.94v1.52a3.58,3.58,0,0,1,3.21-1.8c2.38,0,4.38,1.78,4.38,5.44v.16c0,3.66-2,5.4-4.4,5.4a3.45,3.45,0,0,1-3.19-1.76v5h-3.94Zm7.53,5.28v-.16c0-1.68-.68-2.48-1.86-2.48s-1.82.88-1.82,2.48v.16c0,1.62.63,2.44,1.84,2.44S187.85,53.23,187.85,51.63Z" transform="translate(-15.45 -14.17)"/><path d="M192.78,51.71v-.16c0-3.4,2.54-5.48,5.85-5.48s5.8,2,5.8,5.38v.16c0,3.44-2.56,5.46-5.82,5.46S192.78,55.15,192.78,51.71Zm7.65-.08v-.14c0-1.64-.58-2.52-1.8-2.52s-1.87.82-1.87,2.46v.16c0,1.7.61,2.58,1.87,2.58S200.43,53.29,200.43,51.63Z" transform="translate(-15.45 -14.17)"/><path d="M205.8,46.35h3.94v2.12a3.29,3.29,0,0,1,3.37-2.26v3.68c-2.19-.12-3.37.6-3.37,2.1v4.82H205.8Z" transform="translate(-15.45 -14.17)"/><path d="M213.76,53.91c0-2.46,2-3.42,5.62-3.42h.91v-.18c0-.88-.16-1.52-1.23-1.52a1.14,1.14,0,0,0-1.24,1.12h-3.68c.16-2.56,2.16-3.86,5.16-3.86s4.89,1.24,4.89,4v6.76h-3.81v-1.2a3.34,3.34,0,0,1-3.06,1.46C215.44,57.07,213.76,56.15,213.76,53.91Zm6.53-.76v-.54h-.85c-1.32,0-1.8.26-1.8,1,0,.5.38.82,1.1.82C219.64,54.43,220.29,53.93,220.29,53.15Z" transform="translate(-15.45 -14.17)"/><path d="M226.4,53.31V49h-1.22V46.35h1.22V44.21h3.94v2.14h2V49h-2v3.94a.9.9,0,0,0,1,1,2.72,2.72,0,0,0,1-.16v3a7.55,7.55,0,0,1-2.08.3C227.8,57.05,226.4,55.93,226.4,53.31Z" transform="translate(-15.45 -14.17)"/><path d="M233.2,51.71v-.16c0-3.4,2.6-5.5,5.81-5.5,2.94,0,5.44,1.68,5.44,5.44v1h-7.27a1.87,1.87,0,0,0,2,1.94c1.11,0,1.53-.52,1.65-1.12h3.68c-.32,2.4-2.14,3.8-5.46,3.8S233.2,55.17,233.2,51.71Zm7.44-1.32c0-1.12-.58-1.8-1.63-1.8a1.8,1.8,0,0,0-1.81,1.8Z" transform="translate(-15.45 -14.17)"/><path d="M144.3,63.71h5.47c5.12,0,7.72,2.44,7.72,7v.14c0,4.56-2.68,7.18-7.72,7.18H144.3Zm5.31,10.82c2.22,0,3.16-1.1,3.16-3.6v-.16c0-2.62-1-3.58-3.18-3.58h-.74v7.34Z" transform="translate(-15.45 -14.17)"/><path d="M158.92,64.79a2.14,2.14,0,1,1,2.14,2A2,2,0,0,1,158.92,64.79Zm.18,2.76H163V78H159.1Z" transform="translate(-15.45 -14.17)"/><path d="M164.42,77.93h3.91c.13.64.5,1.24,1.72,1.24a1.78,1.78,0,0,0,2-2V75.55a3.49,3.49,0,0,1-3.18,1.84c-2.39,0-4.39-1.72-4.39-5v-.16c0-3.14,2-5,4.36-5A3.33,3.33,0,0,1,172.05,69V67.55H176v9.56c0,3.12-2.06,4.78-6,4.78C166.4,81.89,164.7,80.41,164.42,77.93Zm7.75-5.5v-.14c0-1.28-.66-2.12-1.84-2.12s-1.84.82-1.84,2.14v.16c0,1.28.64,2.12,1.84,2.12S172.17,73.75,172.17,72.43Z" transform="translate(-15.45 -14.17)"/><path d="M177.8,64.79a2.14,2.14,0,1,1,2.14,2A2,2,0,0,1,177.8,64.79Zm.18,2.76h3.93V78H178Z" transform="translate(-15.45 -14.17)"/><path d="M184.32,74.51V70.19H183.1V67.55h1.22V65.41h3.94v2.14h2v2.64h-2v3.94a.9.9,0,0,0,1,1,2.72,2.72,0,0,0,1-.16v3a7.57,7.57,0,0,1-2.09.3C185.72,78.25,184.32,77.13,184.32,74.51Z" transform="translate(-15.45 -14.17)"/><path d="M191.24,75.11c0-2.46,2-3.42,5.63-3.42h.9v-.18c0-.88-.16-1.52-1.22-1.52a1.14,1.14,0,0,0-1.25,1.12h-3.68c.16-2.56,2.16-3.86,5.17-3.86s4.88,1.24,4.88,4V78h-3.8v-1.2a3.36,3.36,0,0,1-3.07,1.46C192.92,78.27,191.24,77.35,191.24,75.11Zm6.53-.76v-.54h-.85c-1.32,0-1.79.26-1.79,1,0,.5.38.82,1.09.82C197.13,75.63,197.77,75.13,197.77,74.35Z" transform="translate(-15.45 -14.17)"/><path d="M203.58,63h3.93V78h-3.93Z" transform="translate(-15.45 -14.17)"/><path d="M213.54,63.71h5.84c4,0,6,1.58,6,4.64v.08A3.8,3.8,0,0,1,223,72.17L226.21,78h-4.76l-2.67-4.9h-.72V78h-4.52Zm5.59,6.48c1.25,0,1.86-.52,1.86-1.56v-.08c0-1-.62-1.44-1.85-1.44h-1.08v3.08Z" transform="translate(-15.45 -14.17)"/><path d="M226.56,72.91v-.16c0-3.4,2.6-5.5,5.81-5.5,2.94,0,5.44,1.68,5.44,5.44v1h-7.26a1.86,1.86,0,0,0,2,1.94c1.1,0,1.52-.52,1.64-1.12h3.68c-.32,2.4-2.14,3.8-5.46,3.8S226.56,76.37,226.56,72.91ZM234,71.59c0-1.12-.59-1.8-1.64-1.8a1.8,1.8,0,0,0-1.81,1.8Z" transform="translate(-15.45 -14.17)"/><path d="M238.66,74.65h3.6a1.12,1.12,0,0,0,1.3,1.08c.76,0,1.11-.3,1.11-.74s-.45-.7-1.85-.88c-2.82-.32-4.06-1.08-4.06-3.32,0-2.4,2.1-3.54,4.66-3.54,2.72,0,4.54.9,4.79,3.46h-3.54a1.08,1.08,0,0,0-1.19-1c-.72,0-1,.32-1,.72s.48.68,1.65.8c3,.36,4.42,1.08,4.42,3.34,0,2.58-2,3.68-4.93,3.68S238.72,77,238.66,74.65Z" transform="translate(-15.45 -14.17)"/><path d="M249.86,67.55h3.94v1.52a3.58,3.58,0,0,1,3.21-1.8c2.37,0,4.38,1.78,4.38,5.44v.16c0,3.66-2,5.4-4.41,5.4a3.42,3.42,0,0,1-3.18-1.76v5h-3.94Zm7.52,5.28v-.16c0-1.68-.68-2.48-1.86-2.48s-1.82.88-1.82,2.48v.16c0,1.62.64,2.44,1.84,2.44S257.38,74.43,257.38,72.83Z" transform="translate(-15.45 -14.17)"/><path d="M262.32,72.91v-.16c0-3.4,2.54-5.48,5.84-5.48s5.81,2,5.81,5.38v.16c0,3.44-2.56,5.46-5.83,5.46S262.32,76.35,262.32,72.91Zm7.64-.08v-.14c0-1.64-.58-2.52-1.8-2.52s-1.86.82-1.86,2.46v.16c0,1.7.6,2.58,1.86,2.58S270,74.49,270,72.83Z" transform="translate(-15.45 -14.17)"/><path d="M275.34,67.55h3.94v1.68a3.69,3.69,0,0,1,3.46-2c2,0,3.36,1.26,3.36,3.86V78h-3.94V72c0-1.06-.38-1.6-1.32-1.6s-1.56.58-1.56,1.82V78h-3.94Z" transform="translate(-15.45 -14.17)"/><path d="M287.4,74.65H291a1.12,1.12,0,0,0,1.3,1.08c.76,0,1.1-.3,1.1-.74s-.44-.7-1.84-.88c-2.82-.32-4.06-1.08-4.06-3.32,0-2.4,2.1-3.54,4.66-3.54,2.72,0,4.55.9,4.78,3.46H293.4a1.07,1.07,0,0,0-1.18-1c-.72,0-1,.32-1,.72s.48.68,1.64.8c3,.36,4.43,1.08,4.43,3.34,0,2.58-2,3.68-4.93,3.68S287.46,77,287.4,74.65Z" transform="translate(-15.45 -14.17)"/><path d="M298.44,64.79a2.14,2.14,0,1,1,2.14,2A2,2,0,0,1,298.44,64.79Zm.18,2.76h3.92V78h-3.92Z" transform="translate(-15.45 -14.17)"/><path d="M308.46,76.41V78h-3.94V63h3.94v6.06a3.58,3.58,0,0,1,3.2-1.8c2.38,0,4.39,1.78,4.39,5.44v.16c0,3.66-2,5.4-4.41,5.4A3.32,3.32,0,0,1,308.46,76.41ZM312,72.83v-.16c0-1.68-.68-2.48-1.86-2.48s-1.82.88-1.82,2.48v.16c0,1.62.64,2.44,1.84,2.44S312,74.43,312,72.83Z" transform="translate(-15.45 -14.17)"/><path d="M317.38,64.79a2.14,2.14,0,1,1,2.14,2A2,2,0,0,1,317.38,64.79Zm.18,2.76h3.92V78h-3.92Z" transform="translate(-15.45 -14.17)"/><path d="M323.5,63h3.92V78H323.5Z" transform="translate(-15.45 -14.17)"/><path d="M329.26,64.79a2.14,2.14,0,1,1,2.14,2A2,2,0,0,1,329.26,64.79Zm.18,2.76h3.92V78h-3.92Z" transform="translate(-15.45 -14.17)"/><path d="M335.78,74.51V70.19h-1.22V67.55h1.22V65.41h3.94v2.14h2v2.64h-2v3.94a.9.9,0,0,0,1,1,2.72,2.72,0,0,0,1-.16v3a7.55,7.55,0,0,1-2.08.3C337.18,78.25,335.78,77.13,335.78,74.51Z" transform="translate(-15.45 -14.17)"/><path d="M346.6,77l-4.18-9.42h4.26l2,5.22,1.84-5.22h3.72l-5.58,13.94H344.9Z" transform="translate(-15.45 -14.17)"/><path d="M146.91,93.83,145.32,98l1.53.74v.44h-4.19v-.44L144.2,98l5-12.26h.94L154.55,98l1.5.74v.44h-4.88v-.44l1.54-.74-1.46-4.2Zm.28-.7H151l-1.12-3.4c-.12-.38-.36-1.28-.52-1.94Z" transform="translate(-15.45 -14.17)"/><path d="M162.51,92.37l-2.6,7h-.76L156,90.65l-1.26-.56v-.44h4.49v.44l-1.52.56,1.71,5a5,5,0,0,0,.17.48,6.93,6.93,0,0,1,.32,1.1l2.78-7.54h.62l2,6.1c.14.44.3,1.06.4,1.46L168,90.75l-1.52-.66v-.44h3.78v.44l-1.16.66-3.46,8.66h-.82Z" transform="translate(-15.45 -14.17)"/><path d="M171.8,92V90.21l.14,0a10.5,10.5,0,0,1,3.23-.62c1.9,0,2.79.74,2.79,2.32v5.36c0,.54.07.62.67.8l1,.3v.38l-1.36.46a3.51,3.51,0,0,1-.9.14c-.61,0-.86-.26-1-.92l-.36.16-.69.28c-.52.22-.8.34-.88.36a3.25,3.25,0,0,1-.94.12A2.36,2.36,0,0,1,171,96.93a2.28,2.28,0,0,1,2-2.34,26.2,26.2,0,0,1,3.4-.48V92c0-1.26-.54-1.7-2.1-1.7-.24,0-.34,0-.62,0L172.82,92Zm4.58,2.68a17.59,17.59,0,0,0-2.22.4c-1,.26-1.48.74-1.48,1.6,0,1,.8,1.68,2,1.68a4.24,4.24,0,0,0,1.4-.24l.28-.06Z" transform="translate(-15.45 -14.17)"/><path d="M181,99.21v-.44l1.7-.7v-7l-1.7-.48v-.42l3.28-.72v1.14l.32-.14a8,8,0,0,1,2.78-.9,1.81,1.81,0,0,1,.9.26V92h-1.17l-.61-1.14a5,5,0,0,0-.64-.06,4.93,4.93,0,0,0-1.58.32v7l2.1.7v.44Z" transform="translate(-15.45 -14.17)"/><path d="M196.05,99.35v-1a9.07,9.07,0,0,1-3.23.94c-2,0-3.54-1.88-3.54-4.42a5.07,5.07,0,0,1,5.28-5.34,3.73,3.73,0,0,1,1.49.24v-3l-1.79-.52v-.38l3.39-.76V97.83l1.6.5v.38Zm0-8.84a4.17,4.17,0,0,0-1.33-.16c-2.32,0-3.74,1.54-3.74,4s1.3,3.82,3.38,3.82a5.34,5.34,0,0,0,1.69-.3Z" transform="translate(-15.45 -14.17)"/><path d="M206,99.21v-.66a1.17,1.17,0,0,0,.16-.2l2-1.92a19.65,19.65,0,0,0,3.4-4.32,4.52,4.52,0,0,0,.54-2.18,2.51,2.51,0,0,0-2.7-2.76,5.68,5.68,0,0,0-1.32.14l-.86,2.34h-.62V87a16,16,0,0,1,3.54-.58c2.31,0,3.85,1.34,3.85,3.3a5.4,5.4,0,0,1-1.77,3.84c-.55.62-1.2,1.3-1.88,2a23,23,0,0,1-2.42,2.28h5l.9-2.06h.66l-.26,3.48Z" transform="translate(-15.45 -14.17)"/><path d="M216.46,93c0-4.14,1.72-6.7,4.52-6.7s4.23,2.46,4.23,6.54-1.7,6.7-4.53,6.7C218,99.51,216.46,97.05,216.46,93Zm1.88.12c0,3.78.76,5.52,2.4,5.52a2.22,2.22,0,0,0,2-1.54,11.76,11.76,0,0,0,.56-4.08c0-2.4-.3-4.12-.86-5a1.79,1.79,0,0,0-1.56-.84c-1.08,0-1.92.84-2.26,2.3A16.94,16.94,0,0,0,218.34,93.09Z" transform="translate(-15.45 -14.17)"/><path d="M226.68,99.21v-.66a1.17,1.17,0,0,0,.16-.2l2-1.92a19.65,19.65,0,0,0,3.4-4.32,4.52,4.52,0,0,0,.54-2.18,2.52,2.52,0,0,0-2.7-2.76,5.68,5.68,0,0,0-1.32.14l-.86,2.34h-.62V87a16,16,0,0,1,3.54-.58c2.3,0,3.84,1.34,3.84,3.3a5.38,5.38,0,0,1-1.76,3.84c-.56.62-1.2,1.3-1.88,2a23,23,0,0,1-2.42,2.28h4.94l.9-2.06h.67l-.27,3.48Z" transform="translate(-15.45 -14.17)"/><path d="M238.46,99.21v-.44l2.1-.7V88.51l-3.48.68v-.5a18.72,18.72,0,0,0,3.32-1.38,9.1,9.1,0,0,0,1.42-.94h.42v11.7l2.1.7v.44Z" transform="translate(-15.45 -14.17)"/><line class="cls-15" x1="113.39" y1="28.35" x2="113.39" y2="85.04"/></svg>