<?xml version="1.0" encoding="UTF-8"?>
<svg xmlns="http://www.w3.org/2000/svg" width="348.132" height="371.706" version="1.1" xmlns:xlink="http://www.w3.org/1999/xlink" viewBox="0 0 348.132 371.706">
  <defs>
    <style>
      .cls-1 {
        fill: #e20615;
      }

      .cls-2 {
        fill: #fff;
      }

      .cls-3, .cls-4 {
        fill: none;
      }

      .cls-5 {
        clip-path: url(#clippath-1);
      }

      .cls-6 {
        fill: #f5a02a;
      }

      .cls-7 {
        fill: #f39519;
      }

      .cls-8 {
        clip-path: url(#clippath-3);
      }

      .cls-9 {
        fill: #1e2042;
      }

      .cls-4 {
        stroke: #f5a02a;
        stroke-miterlimit: 10;
        stroke-width: 5.668px;
      }

      .cls-10 {
        fill: #1d1d1b;
      }

      .cls-11 {
        clip-path: url(#clippath-2);
      }

      .cls-12 {
        clip-path: url(#clippath);
      }
    </style>
    <clipPath id="clippath">
      <rect class="cls-3" y="-.528" width="348.132" height="372.234"/>
    </clipPath>
    <clipPath id="clippath-1">
      <rect class="cls-3" x="14.544" y="17.539" width="318.675" height="72.118"/>
    </clipPath>
    <clipPath id="clippath-2">
      <rect class="cls-3" x="14.544" y="17.539" width="318.675" height="72.118"/>
    </clipPath>
    <clipPath id="clippath-3">
      <rect class="cls-3" x="243.017" y="307.775" width="88.887" height="27.31"/>
    </clipPath>
  </defs>
  <!-- Generator: Adobe Illustrator 28.6.0, SVG Export Plug-In . SVG Version: 1.2.0 Build 709)  -->
  <g>
    <g id="Ebene_1">
      <g>
        <polygon class="cls-2" points="345.298 2.842 2.834 2.842 2.834 369.69 345.298 369.69 345.298 2.842 345.298 2.842"/>
        <g class="cls-12">
          <polygon class="cls-4" points="345.298 2.842 2.834 2.842 2.834 369.69 345.298 369.69 345.298 2.842 345.298 2.842"/>
        </g>
        <polygon class="cls-7" points="112.671 55.613 100.879 55.613 100.879 49.376 110.341 49.376 110.341 45.254 100.879 45.254 100.879 39.376 111.883 39.376 111.883 34.967 95.932 34.967 95.932 59.986 112.671 59.986 112.671 55.613 112.671 55.613"/>
        <polygon class="cls-9" points="116.686 59.986 121.74 59.986 121.74 50.774 130.916 50.774 130.916 46.258 121.74 46.258 121.74 39.519 132.457 39.519 132.457 34.967 116.686 34.967 116.686 59.986 116.686 59.986"/>
        <path class="cls-9" d="M150.486,47.871h-9.749v-3.907c0-3.011,1.29-4.911,4.875-4.911s4.875,1.9,4.875,4.911v3.907h0ZM145.612,34.645c-6.81,0-9.965,3.62-9.965,8.997v16.381h5.09v-7.671h9.749v7.671h5.09v-16.381c0-5.412-3.119-8.997-9.965-8.997h0Z"/>
        <polygon class="cls-9" points="175.685 59.986 180.739 59.986 180.739 34.967 175.685 34.967 175.685 44.967 165.935 44.967 165.935 34.967 160.881 34.967 160.881 59.986 165.935 59.986 165.935 49.52 175.685 49.52 175.685 59.986 175.685 59.986"/>
        <path class="cls-9" d="M200.955,43.606c0,2.509-1.47,3.835-4.767,3.835h-4.731v-8.029h4.731c3.333,0,4.767,1.434,4.767,4.05v.143h0ZM206.008,43.713v-1.075c0-4.516-2.939-7.671-9.642-7.671h-9.965v25.055h5.054v-8.459h5.09l4.23,8.459h5.627l-5.089-9.427c3.19-1.183,4.695-3.477,4.695-6.882h0Z"/>
        <polygon class="cls-9" points="227.229 55.613 215.471 55.613 215.471 49.376 224.935 49.376 224.935 45.254 215.471 45.254 215.471 39.376 226.476 39.376 226.476 34.967 210.524 34.967 210.524 59.986 227.229 59.986 227.229 55.613 227.229 55.613"/>
        <path class="cls-9" d="M236.332,47.441v-8.029h4.732c3.333,0,4.767,1.434,4.767,4.05v.179c0,2.509-1.47,3.835-4.767,3.835h-4.732v-.036h0ZM245.652,59.986h5.627l-5.089-9.427c3.19-1.183,4.695-3.477,4.695-6.882v-1.075c0-4.516-2.939-7.671-9.642-7.671h-9.965v25.055h5.054v-8.459h5.091l4.229,8.459h0Z"/>
        <path class="cls-9" d="M257.552,60.345c1.47,0,2.329-.932,2.329-2.437,0-1.577-.86-2.473-2.329-2.473h-1.255c-1.47,0-2.329.896-2.329,2.473,0,1.505.86,2.437,2.329,2.437h1.255Z"/>
        <path class="cls-9" d="M279.954,51.993h-4.839v.609c0,1.971-.932,3.262-3.547,3.262-2.652,0-3.549-1.362-3.549-3.334v-5.377c0-1.971.897-3.334,3.584-3.334,2.58,0,3.512,1.29,3.512,3.262v.681h4.839v-1.183c0-4.086-2.688-7.205-8.351-7.205-5.843,0-8.531,3.154-8.531,7.205v6.559c0,4.086,2.688,7.169,8.495,7.169,5.699,0,8.386-3.118,8.386-7.169v-1.147h0Z"/>
        <g class="cls-5">
          <path class="cls-9" d="M295.834,52.387c0,2.115-1.004,3.477-3.728,3.477s-3.728-1.362-3.728-3.477v-5.126c0-2.079,1.004-3.477,3.728-3.477s3.728,1.398,3.728,3.477v5.126h0ZM292.069,39.376c-6.02,0-8.817,3.298-8.817,7.276v6.452c0,3.979,2.797,7.205,8.817,7.205,5.987,0,8.819-3.226,8.819-7.205v-6.452c0-3.979-2.832-7.276-8.819-7.276h0Z"/>
          <path class="cls-9" d="M325.62,39.376c-3.37,0-5.198.86-6.595,2.509-1.327-1.649-3.19-2.509-6.595-2.509-5.233,0-7.599,2.76-7.599,6.846v13.8h5.089v-13.226c0-1.756.897-2.975,3.298-2.975,2.331,0,3.263,1.219,3.263,2.975v13.226h5.091v-13.226c0-1.756.895-2.975,3.298-2.975,2.364,0,3.298,1.219,3.298,2.975v13.226h5.054v-13.8c.035-4.086-2.294-6.846-7.599-6.846h0Z"/>
        </g>
        <path class="cls-9" d="M102.061,78.123c0,1.183-.538,2.007-2.043,2.007h-2.007v-6.775h2.007c1.47,0,2.043.789,2.043,2.007v2.76h0ZM100.018,71.42h-4.158v10.61h4.158c2.868,0,4.194-1.47,4.194-3.692v-3.19c0-2.222-1.326-3.728-4.194-3.728h0Z"/>
        <polygon class="cls-9" points="106.255 71.42 108.406 71.42 108.406 82.03 106.255 82.03 106.255 71.42 106.255 71.42"/>
        <polygon class="cls-9" points="112.886 77.55 116.901 77.55 116.901 75.793 112.886 75.793 112.886 73.284 117.582 73.284 117.582 71.42 110.807 71.42 110.807 82.03 117.904 82.03 117.904 80.202 112.886 80.202 112.886 77.55 112.886 77.55"/>
        <polygon class="cls-9" points="122.098 73.32 124.249 73.32 124.249 82.03 126.399 82.03 126.399 71.42 122.098 71.42 122.098 73.32 122.098 73.32"/>
        <path class="cls-9" d="M129.733,80.095h-.538c-.609,0-1.004.394-1.004,1.039s.359,1.04,1.004,1.04h.538c.609,0,1.004-.394,1.004-1.04-.036-.645-.394-1.039-1.004-1.039h0Z"/>
        <path class="cls-9" d="M142.099,76.905h-4.122v-1.649c0-1.29.538-2.079,2.079-2.079,1.505,0,2.079.789,2.079,2.079v1.649h-.036ZM140.02,71.277c-2.867,0-4.229,1.541-4.229,3.799v6.954h2.151v-3.262h4.122v3.262h2.15v-6.954c.036-2.258-1.29-3.799-4.194-3.799h0Z"/>
        <path class="cls-9" d="M152.709,78.123c0,1.183-.537,2.007-2.043,2.007h-2.007v-6.775h2.007c1.47,0,2.043.789,2.043,2.007v2.76h0ZM150.666,71.42h-4.158v10.61h4.158c2.868,0,4.194-1.47,4.194-3.692v-3.19c0-2.222-1.326-3.728-4.194-3.728h0Z"/>
        <path class="cls-9" d="M163.068,75.112c0,1.075-.609,1.613-2.007,1.613h-2.007v-3.405h2.007c1.398,0,2.007.609,2.007,1.721v.072h0ZM165.218,75.148v-.466c0-1.9-1.255-3.262-4.086-3.262h-4.23v10.61h2.151v-3.584h2.151l1.792,3.584h2.366l-2.151-3.979c1.362-.502,2.007-1.47,2.007-2.903h0Z"/>
        <polygon class="cls-9" points="169.233 77.55 173.247 77.55 173.247 75.793 169.233 75.793 169.233 73.284 173.892 73.284 173.892 71.42 167.118 71.42 167.118 82.03 174.215 82.03 174.215 80.202 169.233 80.202 169.233 77.55 169.233 77.55"/>
        <path class="cls-9" d="M180.344,75.901c-1.541-.323-2.688-.43-2.688-1.47v-.071c0-.753.573-1.29,2.007-1.29s1.971.573,1.971,1.398v.215h2.079v-.394c0-1.828-1.255-3.047-4.086-3.047-2.76,0-4.086,1.255-4.086,3.047v.072c0,2.366,1.721,2.76,3.477,3.118,1.541.323,2.616.502,2.616,1.47v.108c0,.609-.466,1.254-2.079,1.254-1.685,0-2.079-.609-2.079-1.434v-.251h-2.079v.43c0,1.828,1.255,3.047,4.194,3.047,2.796,0,4.158-1.326,4.158-3.011v-.143c0-2.222-1.721-2.688-3.405-3.047h0Z"/>
        <path class="cls-9" d="M190.058,75.901c-1.541-.323-2.688-.43-2.688-1.47v-.071c0-.753.573-1.29,2.007-1.29s1.972.573,1.972,1.398v.215h2.079v-.394c0-1.828-1.254-3.047-4.086-3.047-2.76,0-4.086,1.255-4.086,3.047v.072c0,2.366,1.721,2.76,3.477,3.118,1.541.323,2.617.502,2.617,1.47v.108c0,.609-.466,1.254-2.079,1.254-1.685,0-2.079-.609-2.079-1.434v-.251h-2.079v.43c0,1.828,1.255,3.047,4.194,3.047,2.796,0,4.158-1.326,4.158-3.011v-.143c0-2.222-1.72-2.688-3.405-3.047h0Z"/>
        <polygon class="cls-9" points="197.478 77.55 201.493 77.55 201.493 75.793 197.478 75.793 197.478 73.284 202.138 73.284 202.138 71.42 195.363 71.42 195.363 82.03 202.459 82.03 202.459 80.202 197.478 80.202 197.478 77.55 197.478 77.55"/>
        <polygon class="cls-9" points="207.657 82.03 209.772 82.03 209.772 78.123 213.679 78.123 213.679 76.223 209.772 76.223 209.772 73.356 214.325 73.356 214.325 71.42 207.657 71.42 207.657 82.03 207.657 82.03"/>
        <path class="cls-9" d="M222.031,78.195c0,1.255-.573,2.079-2.115,2.079s-2.115-.824-2.115-2.079v-6.739h-2.152v6.954c0,2.294,1.327,3.8,4.266,3.8,2.904,0,4.264-1.505,4.264-3.8v-6.954h-2.15v6.739h0Z"/>
        <path class="cls-9" d="M221.062,68.696c-.466,0-.752.287-.752.789s.287.789.752.789h.538c.466,0,.754-.287.754-.789,0-.466-.288-.789-.754-.789h-.538Z"/>
        <path class="cls-9" d="M218.23,68.696c-.466,0-.752.287-.752.789s.251.789.752.789h.538c.466,0,.754-.287.754-.789,0-.466-.288-.789-.754-.789h-.538Z"/>
        <path class="cls-9" d="M232.604,75.112c0,1.075-.608,1.613-2.007,1.613h-2.006v-3.405h2.006c1.399,0,2.007.609,2.007,1.721v.072h0ZM234.756,75.148v-.466c0-1.9-1.255-3.262-4.087-3.262h-4.229v10.61h2.152v-3.584h2.15l1.793,3.584h2.364l-2.15-3.979c1.362-.502,2.007-1.47,2.007-2.903h0Z"/>
        <polygon class="cls-7" points="242.21 77.55 246.225 77.55 246.225 75.793 242.21 75.793 242.21 73.284 246.87 73.284 246.87 71.42 240.133 71.42 240.133 82.03 247.194 82.03 247.194 80.202 242.21 80.202 242.21 77.55 242.21 77.55"/>
        <polygon class="cls-7" points="248.088 76.403 253.859 76.403 253.859 78.195 248.088 78.195 248.088 76.403 248.088 76.403"/>
        <path class="cls-7" d="M261.029,79.055l-2.869-7.635h-2.688v10.61h2.15v-1.541c0-2.079-.107-4.194-.214-6.237l2.76,7.133h1.828l2.832-7.133c-.142,2.043-.251,4.158-.251,6.273v1.541h2.152v-10.61h-2.69l-3.009,7.599h0Z"/>
        <path class="cls-7" d="M275.152,78.302c0,1.147-.573,1.936-2.152,1.936s-2.15-.789-2.15-1.936v-3.118c0-1.147.573-1.971,2.15-1.971s2.152.789,2.152,1.971v3.118h0ZM273,71.277c-2.939,0-4.264,1.47-4.264,3.692v3.369c0,2.294,1.325,3.799,4.264,3.799s4.301-1.506,4.301-3.799v-3.369c0-2.186-1.362-3.692-4.301-3.692h0Z"/>
        <path class="cls-7" d="M285.545,79.019c0,.789-.466,1.29-1.828,1.29h-2.257v-2.903h2.15c1.327,0,1.935.466,1.935,1.398v.215h0ZM281.423,73.177h1.972c1.397,0,1.828.43,1.828,1.183v.215c0,.86-.538,1.255-1.793,1.255h-2.007v-2.652h0ZM286.12,76.51c.932-.323,1.253-1.219,1.253-2.043v-.323c0-1.685-1.183-2.688-3.727-2.688h-4.231v10.61h4.553c2.58,0,3.728-1.111,3.728-2.796v-.43c-.037-1.147-.538-1.9-1.577-2.33h0Z"/>
        <polygon class="cls-7" points="289.595 71.42 291.747 71.42 291.747 82.03 289.595 82.03 289.595 71.42 289.595 71.42"/>
        <polygon class="cls-7" points="296.263 71.42 294.148 71.42 294.148 82.03 300.671 82.03 300.671 80.13 296.263 80.13 296.263 71.42 296.263 71.42"/>
        <polygon class="cls-7" points="302.141 71.42 304.292 71.42 304.292 82.03 302.141 82.03 302.141 71.42 302.141 71.42"/>
        <polygon class="cls-7" points="305.727 73.356 308.808 73.356 308.808 82.03 310.96 82.03 310.96 73.356 314.078 73.356 314.078 71.42 305.727 71.42 305.727 73.356 305.727 73.356"/>
        <path class="cls-7" d="M321.032,70.273c.466,0,.752-.287.752-.789,0-.466-.287-.789-.752-.789h-.538c-.466,0-.752.287-.752.789s.287.789.752.789h.538Z"/>
        <path class="cls-7" d="M318.2,70.273c.466,0,.752-.287.752-.789,0-.466-.251-.789-.752-.789h-.538c-.466,0-.752.287-.752.789s.25.789.752.789h.538Z"/>
        <path class="cls-7" d="M321.426,76.905h-4.122v-1.649c0-1.29.538-2.079,2.079-2.079,1.505,0,2.078.789,2.078,2.079v1.649h-.035ZM319.346,71.277c-2.867,0-4.229,1.541-4.229,3.799v6.954h2.152v-3.262h4.122v3.262h2.15v-6.954c.035-2.258-1.29-3.799-4.194-3.799h0Z"/>
        <polygon class="cls-7" points="324.831 73.356 327.914 73.356 327.914 82.03 330.101 82.03 330.101 73.356 333.182 73.356 333.182 71.42 324.831 71.42 324.831 73.356 324.831 73.356"/>
        <g class="cls-11">
          <path class="cls-7" d="M64.367,71.412q.036-.036.072-.072s.036-.036.036-.072c-.036.072-.072.108-.107.143h0Z"/>
          <path class="cls-7" d="M49.348,25.138h0l-.143-1.183c.072.573.143,1.183.143,1.183h0ZM81.715,59.476v-1.219c0-.359-.036-.717-.072-1.04-.036-.43-.072-.824-.108-1.255-.036-.251-.072-.502-.107-.789-.036-.143-.036-.287-.072-.43-.036-.179-.072-.359-.108-.502-.107-.609-.251-1.219-.394-1.828-.107-.466-.251-.896-.394-1.362,0-.036-.036-.072-.036-.108-.108-.323-.215-.645-.323-1.004-.072-.179-.143-.394-.215-.573-.072-.179-.143-.394-.215-.574-.071-.143-.107-.287-.179-.394-.072-.179-.179-.394-.251-.574-.036-.072-.071-.143-.107-.215-.036-.108-.108-.179-.143-.287-.108-.251-.251-.502-.358-.753-.143-.287-.287-.573-.466-.86-.036-.036-.036-.072-.072-.107-.394-.681-.789-1.326-1.219-1.936-.036-.036-.036-.072-.072-.107,0-.036-.036-.036-.036-.072-.179-.251-.358-.538-.573-.789-.072-.072-.108-.143-.179-.215-.323-.43-.645-.86-1.004-1.255-.358-.43-.753-.824-1.147-1.255-.071-.072-.107-.108-.179-.179-.072-.072-.143-.179-.251-.251-.072-.072-.179-.179-.251-.251-.251-.215-.502-.466-.753-.681-.072-.036-.108-.108-.179-.143-.215-.179-.43-.358-.609-.538-.179-.143-.394-.323-.574-.466-.072-.072-.179-.143-.251-.215-.215-.179-.466-.358-.681-.502-.072-.036-.107-.072-.179-.108-.108-.072-.179-.143-.287-.179-.143-.108-.287-.179-.43-.287-.251-.143-.502-.323-.753-.466-.107-.072-.215-.143-.323-.179-.215-.107-.43-.251-.645-.358-.108-.072-.215-.108-.287-.179-.107-.072-.251-.107-.358-.179-.071-.036-.107-.072-.179-.072-.323-.179-.681-.323-1.004-.466h-.036c-.036,0-.036-.036-.072-.036-.251-.108-.538-.251-.824-.358-.322-.143-.645-.251-1.003-.394h-.036c-.322-.108-.645-.215-.968-.323-.072-.036-.143-.036-.215-.072-.036,0-.108-.036-.143-.036-.143-.036-.323-.072-.466-.143-.287-.072-.609-.179-.932-.251-.358-.072-.717-.179-1.075-.251-.251-.036-.466-.072-.717-.143-.143-.036-.287-.036-.43-.072-.358-.036-.681-.108-1.039-.143h-.143c-.215-.036-.466-.036-.717-.072-.251-.036-.466-.036-.717-.072h-.107c-.323-.036-.681-.036-1.004-.036h-1.183c-.358,0-.681.036-1.039.036h-.215c-.215,0-.466.036-.681.072-.215.036-.43.036-.645.072h0c-1.218.143-2.401.358-3.584.681-.394.108-.789.215-1.183.358h0c-.036,0-.072.036-.108.036-.753.251-1.505.502-2.222.824-.179.072-.358.143-.538.251-.179.072-.394.179-.573.251-.036,0-.036.036-.072.036-.179.072-.359.179-.502.251-.143.072-.323.143-.466.251-.036,0-.036.036-.072.036-.179.108-.394.215-.573.359-.179.107-.323.179-.502.287-.179.108-.359.215-.538.358-.215.143-.394.251-.609.43-.143.108-.251.215-.394.287-.215.179-.466.358-.681.538-.036.036-.072.036-.108.072-.251.215-.466.43-.681.681-.036.036-.072.072-.108.108-.072.072-.143.143-.215.215,0,0,0,.036-.036.036-.323.358-.609.753-.86,1.147,0,.036-.036.036-.036.072-.107.179-.215.323-.287.502-.036.072-.108.179-.143.251-.072.108-.143.251-.179.394-.072.107-.108.251-.143.358-.036.107-.108.251-.143.358-.036.108-.072.215-.108.359-.036.179-.108.323-.143.502,0,.036-.036.107-.036.143v.072c-.036.179-.072.358-.108.538,0,.108-.036.215-.036.287v.179c0,.107-.036.179-.036.287v1.075c0,.179.036.394.072.574,0,.072,0,.143.036.215.036.179.072.358.107.538.036.072.036.179.072.251.036.143.072.287.108.394.036.108.072.251.107.359.036.107.072.179.108.251.072.143.108.323.179.466.036.072.072.143.107.215.072.108.108.251.179.359,0,.036.036.072.036.107.036.072.071.179.143.251.072.143.143.251.215.394l.036.036.036.036c.107.179.251.358.358.538-.036.036-.072.072-.108.108-.215.179-.394.358-.609.502l-.036.036c-.108.108-.251.215-.358.323-.179.179-.394.358-.574.538-.108.108-.179.215-.287.323-.215.215-.394.43-.574.645-.072.072-.143.179-.215.287-.215.251-.394.466-.574.717-.072.107-.179.251-.251.358-.143.179-.251.358-.394.573-.036.036-.036.072-.072.108-.036.036-.036.072-.072.108-.108.143-.179.323-.287.466-.108.179-.215.358-.323.538-.143.251-.251.466-.394.717-.072.143-.143.251-.215.394-.143.287-.251.609-.394.896-.036.108-.072.179-.108.287-.107.287-.215.573-.287.86-.036.108-.072.215-.107.323,0,.036-.036.108-.036.143-.036.072-.036.143-.072.215-.036.108-.072.251-.072.394-.072.287-.143.538-.179.824-.036.108-.036.251-.072.358-.036.323-.107.645-.143,1.004,0,.143,0,.251-.036.394-.036.323-.036.609-.036.932,0,.179,0,.394.036.574,0,.143.036.323.036.466v.251c0,.108,0,.179.036.287.036.179.072.358.107.502s.036.323.072.466c.072.323.143.645.251.968.036.143.072.251.108.358.107.287.215.574.323.86.072.179.143.323.215.502.107.251.215.466.358.717.036.108.107.179.143.287.072.107.107.215.179.287.072.107.108.179.143.287.072.072.107.179.179.251.143.215.287.43.466.645.108.143.215.287.322.43.143.179.323.358.466.538.143.179.323.358.466.502.143.143.287.287.43.43.143.143.287.287.43.394.072.072.179.143.287.215.108.108.215.215.358.287.072.072.144.143.251.215.072.072.143.108.215.143.179.143.358.251.538.394.179.108.358.251.538.359.179.107.358.215.538.323.179.107.394.215.574.323.179.107.394.179.573.287.215.108.394.179.609.287.072.036.143.036.179.072.144.036.251.108.394.143.215.072.43.179.681.251.144.072.323.108.466.143.251.072.502.143.753.215.179.036.323.072.502.143.251.072.502.108.717.179.179.036.358.072.538.108.251.036.466.072.717.108h.108c.143.036.287.036.394.036.179.036.394.072.573.072h.143c.215,0,.394.036.609.036s.43.036.645.036h1.255c.251,0,.502,0,.717-.036.143,0,.287,0,.466-.036h.107c.251,0,.502-.036.753-.072.108,0,.215,0,.323-.036h.072c.215-.036.43-.036.645-.072.215-.036.394-.036.609-.072.179-.036.358-.072.537-.107.215-.036.43-.072.681-.108.287-.072.573-.108.824-.179.107-.036.251-.036.358-.072h.036c.179-.036.394-.108.574-.143.179-.036.394-.108.573-.143.108-.036.215-.072.287-.108.717-.215,1.398-.466,2.079-.789h.036c.179-.072.394-.179.574-.287.179-.072.358-.179.538-.251h.036s.036,0,.036-.036c.215-.108.43-.215.609-.358.143-.072.287-.143.43-.251.036,0,.036-.036.072-.036.108-.072.215-.143.323-.215.251-.143.502-.287.717-.466.072-.036.143-.108.215-.143.251-.179.502-.358.753-.538.179-.143.358-.287.502-.43.143-.108.287-.251.43-.358,0,0-.179-.215-.466-.538l.466.538c.036-.036.072-.072.108-.108.036-.036.071-.072.107-.072.287-.251.574-.538.86-.86,1.004-1.075,1.72-3.011.323-4.086-1.434-1.111-3.441.287-4.552,1.255l-.036.036c-.072.072-.143.108-.179.179.036-.036.072-.072.107-.107h0c-.215.179-.43.358-.681.538-.179.143-.358.251-.538.394-.072.072-.179.108-.251.179-.179.108-.358.215-.538.358-.107.072-.179.108-.287.179,0,0-.036,0-.036.036-.143.072-.251.143-.394.215-.143.072-.287.179-.466.251h-.036c-.107.072-.251.107-.358.179-.143.072-.287.143-.466.215h-.036c-.538.215-1.075.43-1.649.609-.072.036-.108.036-.179.072-.072.036-.179.036-.251.072-.251.071-.502.143-.753.179-.609.143-1.219.251-1.828.358-.036,0-.072,0-.108.036-.609.108-1.255.179-1.864.215h-.179c-.143,0-.323,0-.466.036-.179,0-.358,0-.538.036h-1.362c-.179,0-.394-.036-.574-.036h-.108c-.179,0-.322-.036-.502-.072-.108,0-.215-.036-.323-.036-.215-.036-.43-.072-.609-.108-.108-.036-.215-.036-.322-.072-.215-.036-.394-.107-.609-.143-.108-.036-.215-.072-.323-.072-.179-.036-.394-.108-.574-.179-.107-.036-.251-.072-.358-.108-.143-.072-.322-.107-.466-.179-.143-.072-.287-.108-.43-.179-.143-.072-.287-.143-.43-.215-.143-.072-.251-.143-.394-.179-.143-.072-.323-.179-.466-.251-.108-.072-.215-.143-.323-.179-.143-.108-.287-.179-.43-.287-.108-.072-.251-.179-.359-.251-.036-.036-.107-.072-.143-.108-.036-.036-.108-.072-.143-.108-.179-.143-.323-.287-.502-.394-.072-.072-.143-.143-.215-.215l-.359-.359c-.107-.107-.215-.215-.287-.323-.107-.107-.215-.251-.323-.394-.072-.108-.143-.179-.215-.287-.107-.143-.215-.323-.322-.466-.072-.107-.143-.215-.179-.287-.072-.108-.143-.251-.215-.358-.072-.143-.179-.323-.251-.502-.036-.072-.072-.143-.072-.179-.108-.215-.179-.43-.251-.681v-.036c-.072-.251-.144-.502-.179-.753,0-.036,0-.108-.036-.143-.036-.143-.072-.287-.072-.394v-.215c0-.143-.036-.251-.036-.394v-.43c0-.179,0-.394.036-.574v-.251c.036-.251.036-.466.108-.717,0-.036,0-.108.036-.143.036-.215.108-.43.144-.645.036-.108.036-.215.072-.287.036-.143.072-.287.143-.43.072-.179.108-.358.179-.538.036-.072.072-.143.072-.179.107-.215.179-.466.323-.681,0,0,0-.036.036-.036.143-.251.251-.502.394-.753.036-.036.071-.107.071-.143.108-.179.215-.358.323-.538,0-.036.036-.036.072-.071.107-.143.215-.287.323-.43.072-.108.143-.215.251-.323.143-.179.251-.323.394-.502.072-.072.143-.179.215-.251.143-.179.323-.358.466-.502.071-.072.107-.143.179-.179.179-.179.358-.358.538-.538.036-.036.108-.108.143-.143.215-.179.43-.358.645-.538.036-.036.072-.072.108-.072.179-.143.358-.287.538-.43h0c.108.036.179.108.287.143.215.107.394.179.609.287.215.108.466.179.681.251.215.071.43.143.645.215.215.072.466.108.681.179.215.036.43.108.645.143.215.036.43.072.681.108.143,0,.251.036.394.072h.538c.143,0,.287,0,.394.036h.645c.251,0,.502,0,.717-.036h.359c.107,0,.215-.036.323-.036s.179,0,.287-.036h.072l.323-.036h.179l.251-.036c.072,0,.179-.036.251-.072.143-.036.251-.072.394-.108.108-.036.251-.071.359-.107.143-.036.287-.108.43-.179.036-.036.108-.036.143-.072.143-.072.323-.143.466-.215,0,0,.036,0,.036-.036.072-.036.108-.072.179-.108.072-.036.143-.072.215-.143.072-.036.108-.072.179-.108.071-.072.179-.108.251-.179.072-.072.143-.143.215-.215.072-.072.107-.108.179-.179,0,0,0-.036.036-.036.072-.072.143-.179.215-.251.072-.072.143-.143.179-.251.072-.107.143-.215.215-.358.036-.072.071-.107.107-.179,0-.036.036-.072.036-.072v-.036c0-.036.036-.036.036-.072.179-.43.323-.932.323-1.398h0c0-.215,0-.43-.036-.645v-.107c-.036-.251-.107-.502-.179-.753-.072-.251-.215-.466-.323-.681l-.036-.036c-.107-.215-.251-.394-.394-.538-.143-.179-.287-.323-.466-.466-.108-.071-.179-.143-.287-.215-.071-.036-.107-.108-.179-.143-.108-.072-.179-.107-.287-.179-.072-.036-.143-.072-.179-.108-.072-.036-.179-.072-.251-.108-.072-.036-.143-.072-.179-.072,0,0-.036,0-.036-.036q-.036,0-.072-.036c-.108-.036-.215-.072-.323-.108-.108-.036-.179-.072-.287-.108-.108-.036-.251-.072-.358-.108-.143-.036-.323-.072-.466-.108-.072,0-.143-.036-.215-.036h-.143c-.215-.036-.43-.036-.681-.036h-.753c-.323,0-.645.036-.968.072-.107,0-.251,0-.358.036h-.072c-.072,0-.143.036-.215.036-.358.036-.681.107-1.039.179h-.036c-.036,0-.072,0-.108.036-.287.072-.609.143-.896.215-.107.036-.179.036-.287.072-.358.108-.717.215-1.04.358-.072.036-.143.036-.179.072-.358.143-.717.287-1.075.43-.036,0-.072.036-.108.036-.108.036-.215.108-.358.179h0q-.036-.036-.072-.072c-.072-.108-.143-.215-.215-.323-.071-.108-.143-.215-.179-.323-.036-.071-.072-.143-.143-.215-.036-.036-.036-.108-.072-.143-.036-.108-.107-.215-.143-.323-.036-.108-.072-.215-.108-.358-.036-.143-.072-.251-.108-.394,0-.108-.036-.179-.036-.287,0-.143-.036-.287-.036-.43v-.251c0-.143.036-.251.036-.358,0-.072,0-.143.036-.179,0-.036.036-.036.036-.072.036-.108.072-.251.108-.359.036-.072.072-.179.108-.251.072-.143.143-.287.215-.43.036-.072.072-.143.108-.179.108-.143.215-.287.358-.466.036-.036.072-.108.143-.143.143-.143.287-.287.43-.43.036-.036.071-.072.143-.143l.036-.036c.143-.108.287-.251.43-.359.108-.072.179-.143.287-.215.143-.108.287-.179.43-.287.143-.072.251-.179.394-.251.143-.072.251-.143.394-.215.143-.072.287-.179.466-.251.036-.036.072-.036.108-.072.251-.143.466-.251.717-.394.323-.143.645-.287.968-.43.036,0,.072-.036.107-.036.574-.251,1.183-.466,1.756-.645.036,0,.072-.036.108-.036.323-.108.645-.179.968-.287.394-.108.824-.179,1.219-.287h.072c.43-.072.896-.143,1.326-.215.072,0,.143-.036.179-.036.179-.036.358-.036.502-.036.179-.036.394-.036.573-.036h.108c.323-.036.609-.036.932-.036h.968c.323,0,.609.036.932.036.215,0,.394.036.609.036.179,0,.394.036.574.071h.036c.323.036.609.072.932.108.108,0,.215.036.323.036.215.036.43.072.645.108.287.072.573.107.86.179.287.072.609.143.896.251.036,0,.072.036.108.036.179.072.394.108.574.179.179.072.394.108.573.179.072.036.108.036.143.072.287.108.538.215.824.323.072.036.143.072.179.072.215.072.394.179.609.251.179.072.358.179.538.251.108.036.215.108.323.143.072.036.143.072.215.108.036.036.072.036.108.072.538.287,1.075.609,1.577.932.036.036.108.072.144.108.322.215.645.466.968.717.251.179.502.394.753.574.287.251.573.502.86.753.215.215.43.394.645.609.215.215.394.43.609.645.215.215.43.466.645.681.502.609,1.004,1.219,1.434,1.9,0,.036.036.036.036.072.359.538.717,1.075,1.04,1.649v.036c.287.538.573,1.075.86,1.649.036.108.108.215.143.358.215.502.43,1.04.645,1.577.036.071.036.143.072.179.179.502.323,1.004.466,1.505.072.215.108.394.143.609.143.538.251,1.075.323,1.613v.036c.108.574.179,1.147.215,1.756,0,.179.036.323.036.502.036.574.036,1.147.036,1.721s-.036,1.147-.108,1.72c0,.179-.036.323-.036.502-.072.574-.144,1.147-.287,1.721v.036c-.107.573-.251,1.147-.43,1.721-.108.466-.251.896-.394,1.326v.036c-.108.287-.179.538-.287.824-.215.574-.466,1.147-.717,1.685-.036.036-.036.072-.072.143-.107.179-.179.394-.287.573-.072.143-.144.287-.215.394-.466.86-.968,1.685-1.505,2.509-.358.538-.753,1.075-1.147,1.577-.036.036-.072.072-.108.108-.072.072-.143.179-.215.251-.323.43-.717.824-1.075,1.218-.287.323-.609.645-.932.932-.251.251-.502.502-.753.717-.107.108-.215.179-.323.287-.287.215-.538.466-.824.681-.645.502-1.326,1.004-2.007,1.434-.108.072-.215.143-.287.215-.538.323-1.075.645-1.649.932-.072.036-.143.072-.215.108-.573.287-1.147.573-1.72.824-.036.036-.108.036-.143.072-.323.143-.645.287-1.004.394-.538.215-1.111.43-1.685.609-.143.036-.251.072-.394.108-.251.072-.502.143-.753.215h-.036c-1.326.359-2.652.645-4.014.824-.215.036-.43.036-.609.072-.43.072-.896.108-1.326.143-.108,0-.215.036-.323.036-.359.036-.681.036-1.04.036h0c-.251,0-.502.036-.753.036h-.287c-1.398,0-2.796-.072-4.194-.215h-.108c-.287-.036-.573-.072-.86-.108-.072,0-.107,0-.179-.036-.323-.036-.645-.107-1.004-.143-.538-.108-1.111-.215-1.649-.359-.143-.036-.251-.072-.394-.072h-.036c-.287-.072-.573-.143-.824-.251-.287-.072-.538-.179-.824-.251-.753-.251-1.505-.502-2.258-.824-.036,0-.072-.036-.108-.036-.609-.251-1.219-.538-1.828-.824-.143-.072-.287-.179-.43-.251-.394-.215-.789-.394-1.147-.609-.072-.036-.179-.072-.251-.143-.179-.107-.323-.215-.502-.358-.43-.287-.824-.538-1.219-.824-1.075-.789-2.115-1.685-3.083-2.652-.036-.036-.072-.072-.072-.072-.466-.466-.896-.932-1.326-1.434l-.036-.036c-.036-.072-.107-.107-.143-.179-.036-.036-.072-.108-.108-.143-.323-.43-.645-.824-.968-1.219-.036-.036-.072-.107-.108-.143-.143-.179-.251-.358-.394-.574-.143-.215-.323-.466-.466-.717-.43-.681-.824-1.362-1.219-2.079-.036-.072-.072-.143-.108-.215-.287-.574-.573-1.183-.824-1.756,0-.036-.036-.072-.036-.108-1.326-3.119-2.115-6.452-2.366-9.857,0-.179-.036-.323-.036-.502-.036-.502-.036-1.004-.036-1.47v-.251c0-.251,0-.466.036-.717,0-.43,0-.86.036-1.29.036-.717.108-1.398.215-2.079.143-1.004.358-2.007.609-3.011v-.036c.072-.323.143-.645.251-.968.108-.323.179-.609.287-.932.036-.107.072-.179.108-.287.215-.609.43-1.183.681-1.792.179-.394.323-.825.538-1.219,0-.036.036-.036.036-.071l.609-1.219c.072-.107.107-.215.179-.323.108-.179.215-.358.287-.538.108-.179.215-.358.323-.538.143-.215.251-.43.394-.609.323-.466.645-.932.968-1.398.072-.072.107-.179.179-.251.287-.394.609-.789.932-1.183.143-.179.287-.358.43-.538.287-.323.574-.645.896-.968.179-.179.358-.359.538-.573.251-.251.502-.502.789-.753.323-.287.645-.573.968-.86.072-.072.143-.108.215-.179.466-.394.968-.789,1.47-1.183.036-.036.107-.072.143-.108.538-.394,1.075-.753,1.613-1.111l.036-.036.036-.036c.538-.359,1.111-.681,1.685-1.004.072-.036.143-.072.215-.143.538-.323,1.111-.609,1.649-.896.072-.036.107-.072.179-.072.574-.287,1.147-.538,1.756-.789.072-.036.108-.036.179-.072.609-.251,1.219-.466,1.828-.681.036-.036.108-.036.144-.072.645-.215,1.254-.43,1.9-.609.036,0,.072,0,.072-.036,2.043-.574,4.122-1.004,6.273-1.219h0c.036,0,.072,0,.108-.036h.215c.753-.036,1.649.681,2.222,1.111.466.394.896.789,1.362,1.183.609.645,1.398.753,2.258.789h5.556c.394,0,.717-.323.717-.717v-1.255h2.33c.394,0,.717-.323.717-.717v-.358c0-.394-.323-.717-.717-.717h-2.33v-3.226h2.437c.394,0,.717-.323.717-.717v-.359c0-.394-.322-.717-.717-.717h-2.437v-1.541c0-.394-.323-.717-.717-.717h-5.305c-.681,0-1.362.108-1.935.466-.645.43-1.183,1.004-1.792,1.505-.609.502-1.29,1.039-2.115,1.111-.287.036-.609.036-.896.072h.036c-.179,0-.323.036-.502.036-.179.036-.323.036-.502.072-.215.036-.43.072-.645.107-.323.036-.645.072-.968.143l-.143.036c-.753.143-1.505.287-2.222.43l-.107.036c-.394.108-.789.215-1.183.287-.323.072-.681.179-1.004.251l-.144.036c-.717.215-1.398.43-2.115.681l-.215.072c-.323.108-.645.251-.968.394-.323.143-.681.251-1.004.394l-.287.108c-.609.251-1.255.538-1.864.824-.143.072-.251.108-.394.179-.251.143-.502.251-.753.394-.394.215-.789.394-1.183.609-.036.036-.072.036-.107.072-.681.394-1.326.789-1.971,1.183-.036,0-.036.036-.072.036s-.036.036-.072.036c-.251.143-.466.323-.717.502-.358.251-.753.502-1.111.789-.072.036-.143.108-.215.143-.573.43-1.147.86-1.685,1.326-.072.072-.179.143-.251.215-.179.143-.323.287-.466.43-.215.179-.43.358-.609.573-.287.287-.609.573-.896.86-.215.215-.466.466-.681.717-.323.358-.681.717-.968,1.075-.072.072-.108.143-.179.215-.143.143-.251.323-.394.466-.359.43-.681.86-1.04,1.29-.108.143-.215.287-.287.43-.359.502-.717,1.004-1.075,1.541-.036.036-.036.072-.072.108-.287.43-.538.86-.789,1.29-.107.179-.215.394-.323.609-.322.574-.609,1.147-.86,1.721-.036.072-.072.107-.107.179h0c-.072.143-.108.287-.179.43-.179.394-.358.789-.502,1.183-.179.43-.323.824-.502,1.254-.143.359-.251.753-.394,1.111-.107.323-.179.609-.287.932-.072.251-.143.538-.215.789-.036.215-.107.394-.143.609-.251,1.075-.502,2.187-.645,3.262h0v.072l-.251,2.294c-.036.538-.072,1.075-.072,1.613v1.147c0,.538,0,1.075.036,1.613,0,.143,0,.287.036.43,0,.107,0,.215.036.323.036.681.108,1.362.179,2.043v.108c.215,1.541.502,3.118.932,4.624.43,1.541.932,3.047,1.577,4.516.609,1.47,1.362,2.903,2.187,4.265.824,1.362,1.756,2.688,2.796,3.907.072.072.108.143.179.215.036.036.072.107.143.143l.036.036c.502.574,1.039,1.147,1.577,1.721q.036.036.072.072c.43.43.896.824,1.326,1.219.143.108.287.251.43.394l.107.072c.573.502,1.183.968,1.792,1.434l1.111.753c.143.072.251.179.394.251.179.108.323.251.502.358.036.036.072.036.108.072.072.036.143.072.251.143.573.323,1.147.645,1.72.932.072.036.143.072.215.108.466.251.968.43,1.434.645,1.004.43,2.007.86,3.047,1.183l.143.036c.43.143.896.251,1.326.394.287.072.609.179.896.287h.036c.215.072.466.107.681.143.036,0,.108.036.143.036.394.072.789.179,1.183.251.108.036.215.036.323.072.43.072.896.143,1.326.179.323.036.645.108.968.143h.107c1.219.143,2.438.179,3.656.215.394,0,.789.036,1.183.036h.107c.681,0,1.362-.036,2.079-.072.108,0,.215,0,.323-.036.323-.036.645-.036.968-.108.538-.072,1.111-.143,1.649-.215,1.04-.179,2.079-.358,3.119-.609.466-.108.932-.215,1.398-.358l.108-.036c.143-.036.251-.072.394-.108l1.004-.287.824-.251.753-.323.072-.036,1.219-.502.215-.072c.215-.072.43-.179.681-.287.108-.072.215-.107.359-.179l.752-.394c.144-.072.287-.143.43-.215l.538-.287.143-.072.072-.036.322-.179s.036,0,.036-.036c.143-.072.322-.179.466-.287.036,0,.036-.036.072-.036.108-.072.215-.143.323-.215.251-.179.502-.358.753-.502l.538-.358c.323-.215.609-.394.896-.645h0l.502-.394,1.04-.86.358-.287c.072-.036.108-.107.179-.179.215-.179.43-.394.609-.574.323-.323.645-.645.968-.968.287-.287.609-.574.86-.896l.789-.932c.072-.108.179-.215.251-.323.036-.036.072-.108.108-.143.466-.574.86-1.147,1.29-1.756.036-.036.036-.072.072-.072.036-.036.036-.072.036-.072.609-.932,1.219-1.9,1.721-2.868.072-.143.179-.323.251-.466.108-.215.215-.43.323-.681,0-.036.036-.036.036-.072.036-.072.036-.108.072-.179.287-.645.573-1.29.824-1.971.107-.323.251-.645.358-.968,0-.036.036-.072.036-.072.143-.43.287-.896.43-1.362.072-.251.143-.502.215-.717.036-.143.072-.251.108-.394.036-.143.072-.323.107-.466.072-.251.108-.502.179-.753.036-.251.107-.538.143-.789.036-.108.036-.215.072-.359.072-.43.108-.86.179-1.29.036-.394.072-.753.108-1.147v-.036c.036-.394.036-.789.036-1.219v-.036c.107-.036.107-.072.107-.143h0Z"/>
        </g>
        <path class="cls-7" d="M59.886,68.796c-.071.072-.143.108-.215.179.072-.036.143-.107.215-.179h0Z"/>
        <g class="cls-8">
          <polygon class="cls-1" points="243.017 335.622 243.017 307.775 331.904 307.775 331.904 327.973 320.401 327.984 320.406 335.622 243.017 335.622"/>
        </g>
        <path class="cls-2" d="M263.839,317.989h2.623c.442,0,.801-.348.811-.779h.004v-4.741c0-.882-.726-1.598-1.621-1.598h-17.162c-.897,0-1.623.716-1.623,1.598v18.171c0,.88.726,1.595,1.623,1.595h17.162c.896,0,1.621-.714,1.621-1.595l-.004-4.444c0-.44-.361-.799-.811-.799h-2.623c-.448,0-.811.359-.811.799l.006.894c0,.735-.607,1.33-1.351,1.33h-5.481c-.746,0-1.353-.595-1.353-1.33v-4.034l-3.684-3.588v-3.501c0-.735.605-1.33,1.351-1.33h9.168c.744,0,1.351.595,1.351,1.33l-.006,1.224c0,.44.363.797.811.797"/>
        <path class="cls-2" d="M291.016,310.874h-2.634c-.448,0-.807.357-.807.797v7.108c0,.733-.603,1.33-1.349,1.33h-9.232c-.746,0-1.368-.597-1.368-1.33v-7.108c0-.44-.378-.797-.826-.797h-2.6c-.448,0-.811.357-.811.797l-.004,18.968c0,.882.726,1.597,1.621,1.597h4.731c.896,0,1.621-.714,1.621-1.597v-5.385l.032-.077c0-.733.607-1.255,1.353-1.255h5.457c.746,0,1.343.595,1.343,1.332l.008-.077.009,6.262c0,.44.372.797.82.797h2.634c.45,0,.812-.357.812-.797v-19.767c0-.44-.363-.797-.812-.797"/>
        <path class="cls-2" d="M300.484,319.51v-7.839c0-.44-.361-.799-.811-.799h-2.706c-.448,0-.831.359-.831.799v18.968c0,.88.707,1.597,1.6,1.597h4.771c.897,0,1.623-.716,1.623-1.597v-7.522l-3.647-3.607Z"/>
        <path class="cls-2" d="M326.763,310.874h-16.982c-.894,0-1.621.714-1.621,1.597v18.169c0,.882.727,1.597,1.621,1.597h4.795c.896,0,1.629-.714,1.629-1.597v-5.443c0-.735.612-1.334,1.358-1.334h9.2c.897,0,1.623-.718,1.623-1.598v-9.795c0-.88-.725-1.595-1.623-1.595M324.253,319.246c0,.44-.363.795-.812.795h-10.269c-.448,0-.811-.355-.811-.795v-3.89c0-.44.363-.797.811-.797h10.269c.45,0,.812.357.812.797v3.89Z"/>
        <polygon class="cls-6" points="15.883 307.921 15.883 335.085 239.223 335.085 239.223 307.921 15.883 307.921 15.883 307.921"/>
        <path class="cls-2" d="M48.128,327.302v-13.525h-2.731v13.525h2.731ZM59.624,321.213c0-.756-.048-1.338-.143-1.744-.095-.406-.265-.769-.507-1.088-.243-.319-.601-.582-1.075-.788-.474-.206-.996-.31-1.568-.31-1.298,0-2.374.554-3.229,1.661v-1.44h-2.408v9.799h2.593v-4.438c0-1.094.066-1.844.198-2.25.132-.406.377-.733.734-.979.357-.246.76-.368,1.209-.368.351,0,.65.087.899.259.249.172.429.414.54.724.111.31.166.996.166,2.052v5.001h2.592v-6.09h0ZM70.289,327.302v-4.087l2.214-2.262,3.718,6.348h3.533l-5.369-8.257,5.093-5.268h-3.672l-5.517,6.005v-6.005h-2.731v13.525h2.731ZM81.184,325.13c.424.784,1.044,1.379,1.859,1.786.815.406,1.671.608,2.569.608,1.451,0,2.655-.487,3.612-1.462.956-.975,1.435-2.203,1.435-3.686,0-1.47-.474-2.685-1.421-3.648-.947-.962-2.162-1.443-3.644-1.443-.96,0-1.828.212-2.606.637-.778.425-1.379,1.039-1.804,1.846-.424.805-.637,1.638-.637,2.5,0,1.126.212,2.08.637,2.864h0ZM83.897,320.17c.461-.516,1.03-.775,1.707-.775s1.244.259,1.702.775c.458.518.687,1.255.687,2.214,0,.984-.229,1.734-.687,2.252-.458.516-1.026.775-1.702.775s-1.245-.259-1.707-.775c-.461-.518-.692-1.262-.692-2.233s.231-1.716.692-2.233h0ZM92.726,325.13c.424.784,1.044,1.379,1.859,1.786.815.406,1.671.608,2.569.608,1.451,0,2.655-.487,3.612-1.462.956-.975,1.435-2.203,1.435-3.686,0-1.47-.474-2.685-1.421-3.648-.947-.962-2.162-1.443-3.644-1.443-.96,0-1.828.212-2.606.637-.778.425-1.379,1.039-1.804,1.846-.424.805-.637,1.638-.637,2.5,0,1.126.212,2.08.637,2.864h0ZM95.438,320.17c.461-.516,1.03-.775,1.707-.775s1.244.259,1.702.775c.458.518.687,1.255.687,2.214,0,.984-.229,1.734-.687,2.252-.458.516-1.026.775-1.702.775s-1.245-.259-1.707-.775c-.461-.518-.692-1.262-.692-2.233s.231-1.716.692-2.233h0ZM104.156,331.03h2.592v-4.937c.486.523.948.892,1.388,1.107.44.215.93.323,1.472.323,1.138,0,2.107-.453,2.906-1.36.799-.907,1.199-2.178,1.199-3.815,0-1.593-.397-2.836-1.19-3.728-.793-.892-1.759-1.338-2.897-1.338-.652,0-1.246.155-1.781.461-.535.308-.959.709-1.273,1.2v-1.44h-2.417v13.526h0ZM107.348,320.064c.418-.489.944-.733,1.578-.733.609,0,1.119.249,1.531.748.412.497.618,1.26.618,2.288,0,1.1-.2,1.891-.6,2.375-.4.482-.901.724-1.504.724-.627,0-1.159-.263-1.596-.788-.437-.527-.655-1.34-.655-2.441,0-.96.209-1.684.627-2.173h0ZM120.818,325.254c-.277.221-.618.333-1.024.333-.597,0-1.095-.214-1.495-.642-.4-.427-.609-1.024-.627-1.793h6.495c.037-1.988-.366-3.462-1.209-4.425-.843-.962-1.993-1.443-3.45-1.443-1.298,0-2.371.459-3.22,1.379-.849.92-1.273,2.192-1.273,3.815,0,1.36.323,2.485.969,3.376.818,1.113,2.079,1.67,3.783,1.67,1.076,0,1.973-.248,2.689-.743.716-.495,1.241-1.217,1.573-2.163l-2.583-.435c-.142.493-.351.85-.627,1.071h0ZM117.718,321.564c-.006-.709.175-1.268.544-1.68.369-.412.836-.618,1.402-.618.529,0,.978.195,1.347.586s.563.962.581,1.712h-3.875ZM128.761,324.276c0-1.666.072-2.76.217-3.284.144-.523.343-.884.595-1.085.252-.198.56-.299.923-.299.375,0,.781.14,1.218.423l.803-2.26c-.547-.327-1.116-.489-1.707-.489-.418,0-.792.104-1.121.314-.329.21-.7.642-1.112,1.302v-1.394h-2.408v9.799h2.592v-3.027h0ZM136.197,319.539c.258-.181.618-.272,1.079-.272.683,0,1.147.106,1.393.317.246.213.369.569.369,1.066v.259c-.467.197-1.307.41-2.519.637-.898.172-1.585.374-2.062.605-.477.231-.847.563-1.112.996-.265.435-.397.928-.397,1.481,0,.837.291,1.529.872,2.075.581.548,1.376.822,2.385.822.572,0,1.11-.108,1.615-.323.504-.215.978-.538,1.421-.969.019.051.049.151.092.306.098.338.181.593.249.765h2.565c-.228-.468-.383-.905-.466-1.315-.083-.408-.124-1.043-.124-1.905l.028-3.027c0-1.126-.115-1.899-.346-2.32-.23-.421-.629-.769-1.195-1.043-.566-.272-1.427-.41-2.583-.41-1.273,0-2.233.229-2.878.682-.646.455-1.101,1.156-1.365,2.105l2.353.423c.16-.455.369-.773.627-.954h0ZM139.039,323.114c0,.622-.034,1.043-.101,1.264-.098.338-.304.623-.618.858-.424.308-.87.461-1.338.461-.418,0-.763-.132-1.033-.397-.271-.264-.406-.578-.406-.941,0-.368.169-.673.507-.913.221-.147.692-.298,1.411-.452.72-.155,1.245-.287,1.578-.397v.516h0ZM146.862,317.504v-3.46l-2.602,1.513v1.946h-1.19v2.067h1.19v4.272c0,.916.028,1.525.083,1.827.068.423.189.76.364,1.009.175.249.45.454.826.61.375.157.796.234,1.264.234.763,0,1.445-.128,2.048-.387l-.221-2.01c-.455.164-.803.247-1.042.247-.172,0-.318-.042-.438-.128-.12-.087-.197-.195-.231-.327-.034-.132-.051-.599-.051-1.398v-3.949h1.771v-2.067h-1.771ZM153.025,316.176v-2.398h-2.592v2.398h2.592ZM153.025,327.302v-9.799h-2.592v9.799h2.592ZM155.719,325.13c.424.784,1.044,1.379,1.859,1.786.815.406,1.671.608,2.569.608,1.451,0,2.655-.487,3.612-1.462.956-.975,1.435-2.203,1.435-3.686,0-1.47-.474-2.685-1.421-3.648-.947-.962-2.162-1.443-3.644-1.443-.959,0-1.828.212-2.606.637-.778.425-1.379,1.039-1.804,1.846-.424.805-.637,1.638-.637,2.5,0,1.126.212,2.08.637,2.864h0ZM158.431,320.17c.461-.516,1.03-.775,1.707-.775s1.244.259,1.702.775c.458.518.687,1.255.687,2.214,0,.984-.229,1.734-.687,2.252-.458.516-1.026.775-1.702.775s-1.246-.259-1.707-.775c-.461-.518-.692-1.262-.692-2.233s.23-1.716.692-2.233h0ZM176.136,321.213c0-.756-.048-1.338-.143-1.744-.095-.406-.265-.769-.508-1.088-.243-.319-.601-.582-1.075-.788-.474-.206-.996-.31-1.568-.31-1.298,0-2.374.554-3.229,1.661v-1.44h-2.408v9.799h2.593v-4.438c0-1.094.066-1.844.198-2.25.132-.406.377-.733.733-.979.357-.246.759-.368,1.209-.368.351,0,.65.087.9.259.249.172.429.414.54.724.111.31.166.996.166,2.052v5.001h2.592v-6.09h0ZM183.821,327.302h2.592v-4.761c0-.941.069-1.614.208-2.02.138-.406.368-.716.687-.932.32-.215.679-.323,1.079-.323.332,0,.596.068.788.202.195.136.336.342.429.618.093.278.14.894.14,1.846v5.37h2.592v-4.705c0-.924.07-1.598.212-2.025.142-.427.372-.752.692-.973.319-.221.661-.332,1.024-.332.499,0,.867.185,1.107.554.178.283.268.911.268,1.882v5.6h2.592v-6.265c0-.933-.091-1.61-.268-2.029-.246-.565-.618-.994-1.117-1.287-.497-.293-1.107-.438-1.825-.438-.567,0-1.1.128-1.597.387-.499.259-.964.65-1.394,1.171-.295-.521-.673-.913-1.134-1.171-.461-.259-1.005-.387-1.632-.387-1.182,0-2.2.52-3.054,1.559v-1.338h-2.389v9.799h0ZM203.407,316.176v-2.398h-2.592v2.398h2.592ZM203.407,327.302v-9.799h-2.592v9.799h2.592ZM208.786,317.504v-3.46l-2.602,1.513v1.946h-1.19v2.067h1.19v4.272c0,.916.026,1.525.083,1.827.066.423.189.76.365,1.009.174.249.45.454.826.61.374.157.795.234,1.262.234.763,0,1.445-.128,2.048-.387l-.221-2.01c-.455.164-.803.247-1.041.247-.174,0-.319-.042-.438-.128-.121-.087-.198-.195-.23-.327-.034-.132-.051-.599-.051-1.398v-3.949h1.77v-2.067h-1.77Z"/>
        <path class="cls-10" d="M63.2,357.732v-5.748h5.646v-2.288h-5.646v-3.201h6.541v-2.288h-9.272v13.525h2.731ZM77.73,344.207h-2.888l-5.268,13.525h2.897l1.116-3.072h5.406l1.181,3.072h2.971l-5.415-13.525h0ZM74.427,352.381l1.826-5.018,1.864,5.018h-3.69ZM87.334,357.732v-5.914h5.351v5.914h2.731v-13.525h-2.731v5.322h-5.351v-5.322h-2.731v13.525h2.731ZM100.979,357.732v-5.646h.554c.627,0,1.085.051,1.375.153.289.1.563.289.821.561.258.274.738.937,1.439,1.99l1.974,2.942h3.266l-1.651-2.638c-.652-1.052-1.17-1.784-1.555-2.196-.384-.412-.872-.792-1.462-1.136,1.187-.172,2.079-.589,2.675-1.251.597-.659.895-1.498.895-2.513,0-.799-.197-1.51-.59-2.131-.394-.622-.918-1.052-1.573-1.296-.655-.244-1.705-.365-3.15-.365h-5.748v13.525h2.731ZM100.979,346.495h2.131c1.107,0,1.771.015,1.993.045.443.074.786.251,1.029.531.243.28.364.648.364,1.103,0,.404-.092.744-.277,1.015-.184.27-.44.461-.766.571-.326.111-1.144.166-2.454.166h-2.02v-3.431h0ZM122.171,357.732v-2.279h-7.556v-3.681h6.79v-2.279h-6.79v-2.999h7.298v-2.288h-10.028v13.525h10.287ZM127.226,357.732v-5.646h.554c.627,0,1.085.051,1.375.153.289.1.563.289.821.561.258.274.738.937,1.439,1.99l1.974,2.942h3.266l-1.651-2.638c-.652-1.052-1.17-1.784-1.555-2.196-.384-.412-.872-.792-1.462-1.136,1.187-.172,2.079-.589,2.675-1.251.596-.659.895-1.498.895-2.513,0-.799-.197-1.51-.59-2.131-.394-.622-.918-1.052-1.573-1.296-.655-.244-1.705-.365-3.15-.365h-5.748v13.525h2.731ZM127.226,346.495h2.131c1.107,0,1.771.015,1.993.045.443.074.786.251,1.029.531.243.28.365.648.365,1.103,0,.404-.092.744-.277,1.015-.184.27-.44.461-.766.571-.326.111-1.144.166-2.454.166h-2.02v-3.431h0ZM140.705,357.732v-2.592h-2.592v2.592h2.592ZM150.388,348.483c-.704-.514-1.653-.771-2.846-.771-1.457,0-2.614.452-3.469,1.353-.855.901-1.282,2.16-1.282,3.777,0,1.6.426,2.851,1.278,3.756.852.903,1.994,1.355,3.427,1.355,1.261,0,2.266-.297,3.017-.894.75-.597,1.258-1.479,1.522-2.649l-2.546-.433c-.129.682-.35,1.164-.664,1.444-.314.28-.717.419-1.209.419-.658,0-1.182-.24-1.573-.72-.391-.48-.586-1.3-.586-2.462,0-1.047.192-1.791.577-2.237.384-.446.9-.669,1.545-.669.486,0,.881.128,1.185.387.304.257.5.642.586,1.153l2.555-.461c-.308-1.052-.813-1.835-1.518-2.349h0ZM153.861,344.207v13.525h2.592v-4.907c0-.826.078-1.447.235-1.869.157-.421.404-.737.743-.947.338-.208.723-.314,1.153-.314.375,0,.687.081.936.246.249.162.423.382.521.659.098.276.148.928.148,1.956v5.175h2.592v-5.748c0-.879-.045-1.529-.134-1.946-.089-.417-.255-.799-.498-1.145-.243-.344-.604-.627-1.084-.848-.48-.221-1.018-.333-1.614-.333-1.163,0-2.162.489-2.999,1.468v-4.973h-2.592ZM168.004,346.607v-2.4h-2.592v2.4h2.592ZM168.004,357.732v-9.797h-2.592v9.797h2.592ZM170.587,361.46h2.593v-4.935c.486.521.949.892,1.388,1.107.44.214.93.321,1.472.321,1.138,0,2.106-.454,2.906-1.36.8-.907,1.199-2.179,1.199-3.815,0-1.593-.397-2.834-1.19-3.728-.793-.89-1.759-1.338-2.897-1.338-.652,0-1.246.155-1.781.463-.535.306-.959.707-1.273,1.198v-1.438h-2.417v13.525h0ZM173.78,350.495c.418-.489.944-.735,1.577-.735.609,0,1.119.249,1.532.748.412.499.618,1.26.618,2.288,0,1.101-.2,1.893-.6,2.375-.4.484-.901.725-1.504.725-.627,0-1.159-.264-1.596-.79-.437-.525-.655-1.34-.655-2.439,0-.96.209-1.685.627-2.173h0ZM184.795,357.732v-2.592h-2.592v2.592h2.592ZM196.439,344.207h-2.594v4.871c-.799-.911-1.746-1.366-2.84-1.366-1.194,0-2.181.433-2.962,1.298-.781.864-1.172,2.126-1.172,3.786,0,1.623.401,2.889,1.204,3.796.803.907,1.766,1.36,2.892,1.36.554,0,1.103-.136,1.648-.41.544-.274,1.015-.69,1.415-1.249v1.438h2.409v-13.525h0ZM190.141,350.429c.416-.487.93-.733,1.546-.733.633,0,1.153.248,1.559.743.406.495.608,1.306.608,2.432,0,1.009-.208,1.767-.627,2.275-.418.506-.926.76-1.521.76-.752,0-1.336-.338-1.753-1.015-.289-.467-.435-1.223-.435-2.269,0-.971.208-1.702.624-2.192h0ZM204.04,355.684c-.276.221-.618.332-1.024.332-.597,0-1.094-.213-1.495-.64-.401-.429-.608-1.026-.627-1.795h6.494c.038-1.986-.365-3.461-1.207-4.423-.843-.964-1.993-1.445-3.45-1.445-1.298,0-2.371.461-3.22,1.379-.85.92-1.273,2.192-1.273,3.817,0,1.359.323,2.485.967,3.376.818,1.113,2.08,1.668,3.783,1.668,1.077,0,1.973-.248,2.691-.743.716-.495,1.239-1.215,1.572-2.163l-2.583-.433c-.142.491-.351.848-.627,1.069h0ZM200.939,351.994c-.006-.707.176-1.266.544-1.68.37-.412.837-.618,1.404-.618.529,0,.977.197,1.347.586.368.391.561.962.58,1.712h-3.875ZM210.028,357.962l3.386-13.986h-1.946l-3.35,13.986h1.91ZM225.056,357.732v-2.279h-7.556v-3.681h6.791v-2.279h-6.791v-2.999h7.297v-2.288h-10.027v13.525h10.286ZM230.122,357.732v-5.748h5.646v-2.288h-5.646v-3.201h6.541v-2.288h-9.273v13.525h2.732ZM244.975,344.152h-2.103c-.295.824-.841,1.545-1.634,2.163-.792.618-1.527,1.037-2.205,1.258v2.352c1.287-.423,2.403-1.079,3.35-1.965v9.77h2.592v-13.579h0ZM256.345,345.014c-.673-.574-1.523-.862-2.551-.862-1.464,0-2.655.546-3.571,1.642-.916,1.094-1.374,2.881-1.374,5.36,0,2.417.44,4.155,1.319,5.217.88,1.062,2.003,1.591,3.367,1.591,1.273,0,2.316-.418,3.129-1.255.811-.835,1.217-1.946,1.217-3.329,0-1.306-.385-2.369-1.158-3.193-.771-.824-1.699-1.236-2.781-1.236-.96,0-1.761.382-2.407,1.143.098-1.555.336-2.579.714-3.072.378-.491.841-.737,1.389-.737.412,0,.748.123,1.005.368.259.246.419.627.48,1.143l2.509-.276c-.183-1.094-.612-1.929-1.287-2.505h0ZM252.272,351.446c.346-.391.767-.586,1.264-.586.518,0,.949.204,1.292.612.344.41.516,1.054.516,1.933,0,.856-.159,1.47-.48,1.846-.319.374-.718.563-1.198.563-.499,0-.941-.23-1.328-.688-.389-.459-.582-1.109-.582-1.952,0-.761.172-1.34.516-1.729h0ZM265.991,344.152h-2.103c-.295.824-.841,1.545-1.632,2.163-.794.618-1.529,1.037-2.205,1.258v2.352c1.285-.423,2.401-1.079,3.348-1.965v9.77h2.592v-13.579h0ZM277.458,357.732v-2.721h1.68v-2.279h-1.68v-8.58h-2.177l-5.867,8.589v2.269h5.534v2.721h2.509ZM271.84,352.732l3.108-4.623v4.623h-3.108ZM281.822,356.957c.788.671,1.804,1.005,3.053,1.005,1.563,0,2.783-.595,3.664-1.789.644-.873.967-1.867.967-2.98,0-1.334-.399-2.42-1.198-3.257-.801-.835-1.776-1.255-2.925-1.255-.603,0-1.194.145-1.772.435l.406-2.298h4.89v-2.426h-6.855l-1.328,7.038,2.103.304c.591-.658,1.258-.986,2.003-.986.595,0,1.081.208,1.453.623.372.414.557,1.037.557,1.867,0,.886-.187,1.549-.563,1.99-.374.438-.833.659-1.374.659-.474,0-.892-.172-1.255-.512-.363-.342-.582-.805-.656-1.389l-2.583.266c.153,1.132.624,2.033,1.411,2.704h0ZM298.378,345.014c-.673-.574-1.523-.862-2.551-.862-1.464,0-2.655.546-3.571,1.642-.916,1.094-1.374,2.881-1.374,5.36,0,2.417.44,4.155,1.319,5.217.881,1.062,2.003,1.591,3.367,1.591,1.273,0,2.316-.418,3.129-1.255.811-.835,1.217-1.946,1.217-3.329,0-1.306-.385-2.369-1.158-3.193-.771-.824-1.699-1.236-2.781-1.236-.96,0-1.761.382-2.407,1.143.098-1.555.336-2.579.714-3.072.378-.491.841-.737,1.389-.737.412,0,.748.123,1.005.368.259.246.419.627.48,1.143l2.509-.276c-.183-1.094-.612-1.929-1.287-2.505h0ZM294.304,351.446c.346-.391.767-.586,1.264-.586.518,0,.948.204,1.292.612.344.41.516,1.054.516,1.933,0,.856-.159,1.47-.478,1.846-.321.374-.72.563-1.2.563-.499,0-.941-.23-1.328-.688-.387-.459-.582-1.109-.582-1.952,0-.761.172-1.34.516-1.729h0Z"/>
        <polygon class="cls-6" points="58.135 357.732 58.135 355.453 50.579 355.453 50.579 351.773 57.369 351.773 57.369 349.494 50.579 349.494 50.579 346.495 57.876 346.495 57.876 344.207 47.848 344.207 47.848 357.732 58.135 357.732 58.135 357.732"/>
        <path class="cls-10" d="M158.311,228.838v-2.507h-8.312v-4.049h7.469v-2.505h-7.469v-3.299h8.027v-2.517h-11.031v14.877h11.315ZM170.641,222.14c0-.831-.052-1.472-.157-1.918-.105-.446-.291-.845-.558-1.198-.267-.351-.661-.641-1.182-.867-.521-.227-1.096-.34-1.725-.34-1.428,0-2.612.608-3.552,1.827v-1.583h-2.649v10.777h2.852v-4.88c0-1.205.073-2.031.218-2.477.145-.446.414-.805.807-1.075.392-.27.836-.406,1.329-.406.386,0,.715.094.989.283.274.191.472.455.594.797.122.342.183,1.094.183,2.258v5.5h2.852v-6.698h0ZM173.452,232.938h2.852v-5.428c.534.574,1.044.981,1.527,1.217.484.236,1.023.355,1.619.355,1.252,0,2.317-.499,3.197-1.496s1.319-2.398,1.319-4.196c0-1.752-.436-3.119-1.309-4.1-.873-.981-1.935-1.472-3.187-1.472-.717,0-1.37.17-1.959.508-.589.338-1.055.777-1.4,1.319v-1.583h-2.659v14.877h0ZM176.963,220.878c.46-.538,1.038-.807,1.735-.807.67,0,1.231.274,1.685.822.453.548.68,1.387.68,2.517,0,1.211-.22,2.082-.66,2.613-.44.531-.991.795-1.654.795-.69,0-1.275-.289-1.756-.867-.48-.578-.72-1.474-.72-2.685,0-1.054.23-1.852.69-2.388h0ZM189.049,220.298c.285-.198.68-.299,1.188-.299.75,0,1.262.117,1.532.35.27.234.406.625.406,1.173v.283c-.514.217-1.438.45-2.772.701-.987.189-1.743.41-2.267.663-.524.255-.932.62-1.223,1.096-.291.478-.436,1.02-.436,1.631,0,.92.32,1.68.959,2.282.639.603,1.514.903,2.624.903.629,0,1.221-.119,1.776-.355.554-.236,1.075-.591,1.563-1.066.021.055.055.166.102.334.108.372.198.654.274.843h2.821c-.251-.514-.421-.996-.512-1.445-.093-.45-.138-1.149-.138-2.095l.03-3.329c0-1.238-.127-2.09-.38-2.553s-.692-.845-1.315-1.147c-.622-.3-1.57-.452-2.842-.452-1.4,0-2.455.251-3.166.752-.71.501-1.211,1.272-1.502,2.313l2.588.467c.176-.501.406-.85.689-1.051h0ZM192.176,224.232c0,.682-.038,1.147-.111,1.389-.11.372-.336.688-.68.945-.467.338-.958.508-1.472.508-.461,0-.839-.145-1.136-.436-.298-.291-.446-.637-.446-1.035,0-.406.186-.741.558-1.005.243-.162.76-.329,1.552-.497.792-.17,1.37-.316,1.736-.436v.569h0ZM200.639,228.838v-14.877h-2.851v14.877h2.851Z"/>
        <path class="cls-10" d="M21.926,266.493v-12.525h4.698v-1.676h-11.256v1.676h4.679v12.525h1.879ZM32.097,264.789c-.452.334-.998.502-1.637.502-.859,0-1.576-.3-2.151-.901-.575-.599-.895-1.464-.959-2.596h7.672c.006-.206.01-.361.01-.465,0-1.699-.436-3.015-1.308-3.951-.872-.937-1.996-1.406-3.371-1.406-1.421,0-2.577.478-3.468,1.434-.891.956-1.337,2.299-1.337,4.03,0,1.672.441,2.972,1.322,3.898.882.928,2.075,1.391,3.579,1.391,1.195,0,2.176-.291,2.945-.871.768-.582,1.295-1.398,1.579-2.451l-1.802-.223c-.265.735-.623,1.272-1.075,1.608h0ZM28.354,258.21c.546-.535,1.219-.803,2.02-.803.885,0,1.605.336,2.16,1.007.362.433.581,1.083.659,1.948h-5.744c.058-.897.36-1.615.906-2.152h0ZM37.808,265.892c.701.556,1.719.833,3.056.833.807,0,1.531-.14,2.17-.421.639-.282,1.128-.678,1.468-1.192.339-.512.509-1.06.509-1.642,0-.593-.139-1.09-.417-1.491-.278-.401-.66-.707-1.148-.916-.488-.21-1.348-.478-2.582-.809-.852-.232-1.366-.38-1.54-.446-.304-.121-.526-.278-.668-.465-.142-.179-.213-.384-.213-.61,0-.355.171-.665.513-.93.342-.264.914-.397,1.715-.397.678,0,1.203.149,1.574.446.371.297.596.71.673,1.239l1.705-.232c-.11-.665-.31-1.196-.601-1.593-.291-.399-.741-.712-1.351-.945s-1.319-.35-2.126-.35c-.536,0-1.038.07-1.506.208-.468.14-.838.31-1.109.51-.362.257-.648.582-.857.973-.21.391-.315.814-.315,1.273,0,.504.127.964.383,1.381.255.416.63.743,1.124.977.494.236,1.38.516,2.659.839.949.238,1.543.436,1.782.591.342.225.514.535.514.93,0,.438-.194.822-.581,1.147-.387.327-.982.489-1.782.489-.794,0-1.413-.183-1.855-.552-.442-.368-.712-.897-.809-1.589l-1.724.272c.194,1.09.641,1.914,1.342,2.47h0ZM50.125,265c-.258,0-.457-.042-.596-.125-.139-.085-.239-.196-.3-.34-.061-.142-.092-.461-.092-.958v-6.016h1.753v-1.357h-1.753v-3.594l-1.734,1.047v2.547h-1.279v1.357h1.279v5.92c0,1.045.071,1.731.213,2.058.142.327.388.59.736.79.349.2.839.3,1.472.3.387,0,.827-.053,1.317-.155l-.252-1.54c-.316.045-.572.066-.765.066h0ZM55.065,258.191v-1.986h-1.986v1.986h1.986ZM55.065,266.493v-1.986h-1.986v1.986h1.986ZM69.703,252.233h-1.124c-.304.614-.82,1.247-1.55,1.899-.73.652-1.582,1.207-2.557,1.666v1.685c.542-.2,1.154-.501,1.836-.901.681-.401,1.232-.801,1.652-1.202v11.112h1.744v-14.26h0ZM79.264,252.233h-1.124c-.304.614-.82,1.247-1.55,1.899-.73.652-1.582,1.207-2.557,1.666v1.685c.542-.2,1.154-.501,1.836-.901.681-.401,1.232-.801,1.652-1.202v11.112h1.744v-14.26h0ZM90.089,264.483c.494.752,1.175,1.317,2.044,1.691.869.374,1.946.561,3.231.561,1.014,0,1.926-.185,2.736-.557.81-.37,1.432-.89,1.865-1.559.432-.669.649-1.381.649-2.137,0-.761-.197-1.434-.591-2.02-.394-.584-1.004-1.066-1.831-1.447-.568-.259-1.616-.559-3.143-.905-1.527-.346-2.472-.684-2.833-1.013-.368-.329-.552-.75-.552-1.26,0-.588.26-1.088.78-1.506.52-.416,1.348-.625,2.485-.625,1.091,0,1.916.231,2.475.688.559.459.886,1.137.983,2.035l1.802-.136c-.032-.833-.265-1.578-.698-2.237-.433-.659-1.051-1.158-1.855-1.496-.804-.34-1.732-.508-2.785-.508-.956,0-1.824.161-2.606.484-.781.323-1.376.795-1.782,1.419-.407.623-.61,1.294-.61,2.01,0,.652.166,1.241.499,1.769.333.525.838.967,1.516,1.323.523.278,1.437.573,2.742.886,1.304.312,2.147.544,2.528.692.594.227,1.02.506,1.279.839s.388.722.388,1.166c0,.44-.134.845-.402,1.217-.268.372-.677.663-1.225.877-.549.214-1.182.319-1.899.319-.807,0-1.534-.14-2.18-.421-.646-.282-1.122-.648-1.429-1.103-.307-.455-.502-1.039-.586-1.75l-1.773.155c.026.95.286,1.801.78,2.553h0ZM103.641,265.34c.888.924,2.052,1.385,3.492,1.385.898,0,1.726-.21,2.485-.629.759-.419,1.337-1.009,1.734-1.769.397-.758.596-1.801.596-3.123,0-1.634-.449-2.915-1.346-3.841-.898-.928-2.054-1.391-3.468-1.391-1.272,0-2.351.382-3.235,1.143-1.059.918-1.589,2.328-1.589,4.234,0,1.736.444,3.067,1.332,3.991h0ZM104.964,258.395c.575-.652,1.298-.979,2.17-.979.859,0,1.577.329,2.156.982.578.656.867,1.621.867,2.893,0,1.349-.287,2.354-.862,3.012-.575.659-1.295.988-2.16.988-.872,0-1.595-.327-2.17-.982-.575-.656-.862-1.642-.862-2.959s.287-2.303.862-2.955h0ZM115.697,266.493v-14.201h-1.744v14.201h1.744ZM125.461,266.493h1.821c-.22-.393-.367-.805-.441-1.236-.074-.429-.111-1.455-.111-3.074v-2.326c0-.775-.029-1.311-.087-1.608-.103-.478-.284-.873-.542-1.187-.258-.314-.662-.572-1.211-.78-.549-.206-1.263-.31-2.141-.31-.885,0-1.663.121-2.335.363-.672.244-1.185.588-1.54,1.037-.355.45-.61,1.037-.765,1.769l1.705.232c.187-.729.476-1.239.867-1.527.391-.287.996-.431,1.817-.431.878,0,1.54.197,1.986.591.329.291.494.792.494,1.5,0,.066-.003.217-.01.455-.665.234-1.702.433-3.109.601-.691.085-1.208.172-1.55.263-.465.128-.883.319-1.255.571-.371.253-.672.586-.901,1.003-.229.416-.344.877-.344,1.379,0,.86.303,1.564.911,2.118.607.552,1.476.828,2.606.828.684,0,1.325-.113,1.923-.338.597-.227,1.219-.614,1.865-1.164.052.486.168.909.349,1.27h0ZM124.967,261.97c0,.769-.094,1.349-.281,1.744-.245.51-.63.911-1.153,1.205-.523.293-1.12.44-1.792.44-.678,0-1.193-.155-1.545-.465-.352-.31-.528-.697-.528-1.162,0-.304.081-.58.242-.829.161-.247.391-.436.688-.565.297-.13.804-.246,1.521-.349,1.266-.181,2.215-.401,2.848-.659v.641h0ZM131.157,266.493v-5.387c0-.735.097-1.413.291-2.033.129-.408.345-.726.649-.954.303-.23.646-.344,1.027-.344.426,0,.852.125,1.279.378l.6-1.617c-.607-.376-1.205-.563-1.792-.563-.407,0-.78.117-1.119.35s-.709.712-1.109,1.443v-1.561h-1.569v10.288h1.744ZM143.101,266.493h1.821c-.22-.393-.367-.805-.441-1.236-.074-.429-.111-1.455-.111-3.074v-2.326c0-.775-.029-1.311-.087-1.608-.103-.478-.284-.873-.542-1.187-.258-.314-.662-.572-1.211-.78-.549-.206-1.263-.31-2.141-.31-.885,0-1.663.121-2.335.363-.672.244-1.185.588-1.54,1.037-.355.45-.61,1.037-.765,1.769l1.705.232c.187-.729.476-1.239.867-1.527s.996-.431,1.816-.431c.878,0,1.54.197,1.986.591.329.291.494.792.494,1.5,0,.066-.003.217-.01.455-.665.234-1.702.433-3.109.601-.691.085-1.208.172-1.55.263-.465.128-.883.319-1.254.571-.371.253-.672.586-.901,1.003-.229.416-.344.877-.344,1.379,0,.86.303,1.564.91,2.118.607.552,1.476.828,2.606.828.684,0,1.325-.113,1.923-.338.597-.227,1.219-.614,1.865-1.164.052.486.168.909.349,1.27h0ZM142.607,261.97c0,.769-.094,1.349-.281,1.744-.245.51-.63.911-1.153,1.205-.523.293-1.12.44-1.792.44-.678,0-1.193-.155-1.545-.465-.352-.31-.528-.697-.528-1.162,0-.304.081-.58.242-.829.161-.247.391-.436.688-.565.297-.13.804-.246,1.521-.349,1.266-.181,2.215-.401,2.848-.659v.641h0ZM148.817,266.493v-5.619c0-1.317.27-2.211.809-2.683.539-.471,1.18-.707,1.923-.707.465,0,.87.106,1.216.316.345.21.586.489.722.843.136.351.203.882.203,1.593v6.258h1.744v-6.326c0-.807-.032-1.372-.097-1.695-.103-.497-.284-.928-.542-1.289-.258-.361-.648-.654-1.167-.877-.52-.223-1.09-.334-1.71-.334-1.427,0-2.519.565-3.274,1.695v-1.462h-1.569v10.288h1.744ZM159.715,265.204c.691,1.015,1.643,1.521,2.858,1.521,1.221,0,2.267-.482,3.139-1.444.872-.962,1.308-2.324,1.308-4.087,0-.743-.103-1.442-.31-2.093-.207-.652-.493-1.209-.857-1.67-.365-.463-.83-.82-1.395-1.075-.565-.255-1.164-.384-1.797-.384-1.143,0-2.083.463-2.819,1.385v-5.066h-1.744v14.201h1.618v-1.289h0ZM160.528,258.399c.555-.661,1.214-.992,1.976-.992.756,0,1.4.319,1.933.96.533.639.799,1.631.799,2.972,0,1.311-.278,2.298-.833,2.961-.555.661-1.214.992-1.976.992-.937,0-1.679-.448-2.228-1.345-.336-.55-.504-1.442-.504-2.674,0-1.253.278-2.211.833-2.874h0ZM170.893,254.297v-2.005h-1.744v2.005h1.744ZM170.893,266.493v-10.288h-1.744v10.288h1.744ZM179.515,264.789c-.452.334-.998.502-1.637.502-.859,0-1.576-.3-2.15-.901-.575-.599-.895-1.464-.959-2.596h7.672c.006-.206.01-.361.01-.465,0-1.699-.436-3.015-1.308-3.951-.872-.937-1.995-1.406-3.371-1.406-1.421,0-2.577.478-3.468,1.434s-1.337,2.299-1.337,4.03c0,1.672.441,2.972,1.322,3.898.882.928,2.075,1.391,3.579,1.391,1.195,0,2.176-.291,2.945-.871.768-.582,1.295-1.398,1.579-2.451l-1.802-.223c-.265.735-.623,1.272-1.075,1.608h0ZM175.771,258.21c.546-.535,1.219-.803,2.02-.803.885,0,1.605.336,2.16,1.007.362.433.581,1.083.659,1.948h-5.744c.058-.897.36-1.615.906-2.152h0ZM187.623,265c-.258,0-.457-.042-.596-.125-.139-.085-.239-.196-.3-.34-.061-.142-.092-.461-.092-.958v-6.016h1.753v-1.357h-1.753v-3.594l-1.734,1.047v2.547h-1.279v1.357h1.279v5.92c0,1.045.071,1.731.213,2.058.142.327.388.59.736.79.349.2.839.3,1.472.3.388,0,.827-.053,1.318-.155l-.252-1.54c-.317.045-.572.066-.765.066h0ZM196.061,264.789c-.453.334-.998.502-1.638.502-.858,0-1.576-.3-2.15-.901-.574-.599-.894-1.464-.958-2.596h7.671c.006-.206.009-.361.009-.465,0-1.699-.436-3.015-1.308-3.951-.871-.937-1.995-1.406-3.371-1.406-1.421,0-2.577.478-3.469,1.434-.89.956-1.336,2.299-1.336,4.03,0,1.672.44,2.972,1.323,3.898.88.928,2.075,1.391,3.579,1.391,1.194,0,2.177-.291,2.946-.871.767-.582,1.294-1.398,1.578-2.451l-1.801-.223c-.264.735-.624,1.272-1.075,1.608h0ZM192.316,258.21c.546-.535,1.219-.803,2.02-.803.884,0,1.604.336,2.16,1.007.363.433.582,1.083.659,1.948h-5.744c.059-.897.359-1.615.905-2.152h0ZM202.852,266.493v-5.387c0-.735.096-1.413.291-2.033.128-.408.344-.726.648-.954.304-.23.646-.344,1.028-.344.425,0,.852.125,1.277.378l.601-1.617c-.607-.376-1.204-.563-1.791-.563-.408,0-.78.117-1.12.35-.338.232-.709.712-1.109,1.443v-1.561h-1.568v10.288h1.744ZM217.827,270.669c-1.931-3.101-2.897-6.203-2.897-9.309,0-1.221.138-2.435.416-3.643.227-.969.537-1.899.931-2.791.251-.574.767-1.532,1.549-2.876h-1.249c-1.215,1.621-2.112,3.248-2.694,4.882-.497,1.408-.744,2.88-.744,4.417,0,1.742.333,3.429.998,5.056.665,1.627,1.478,3.048,2.441,4.263h1.249ZM221.954,266.493v-5.774h3.643c2.008,0,3.397-.418,4.164-1.255.769-.835,1.154-1.857,1.154-3.065,0-.705-.145-1.351-.433-1.939-.287-.588-.667-1.043-1.137-1.37-.472-.327-1.056-.548-1.753-.663-.497-.091-1.217-.136-2.16-.136h-5.358v14.201h1.88ZM221.954,253.968h3.633c.852,0,1.436.042,1.753.127.489.134.886.414,1.187.837.3.423.45.932.45,1.525,0,.822-.255,1.457-.765,1.91-.51.452-1.372.676-2.587.676h-3.671v-5.075h0ZM234.828,266.493v-5.629c0-.807.096-1.44.291-1.899.193-.457.518-.822.973-1.088.455-.268.941-.402,1.457-.402.692,0,1.226.198,1.604.595.378.397.567,1.032.567,1.905v6.519h1.744v-6.519c0-1.009-.121-1.776-.363-2.307-.244-.529-.644-.945-1.207-1.243-.561-.3-1.224-.452-1.986-.452-1.239,0-2.267.472-3.08,1.415v-5.096h-1.744v14.201h1.744ZM244.801,265.34c.888.924,2.052,1.385,3.492,1.385.897,0,1.727-.21,2.485-.629.76-.419,1.338-1.009,1.734-1.769.397-.758.595-1.801.595-3.123,0-1.634-.448-2.915-1.345-3.841-.897-.928-2.054-1.391-3.469-1.391-1.272,0-2.35.382-3.235,1.143-1.06.918-1.589,2.328-1.589,4.234,0,1.736.444,3.067,1.332,3.991h0ZM246.123,258.395c.574-.652,1.298-.979,2.169-.979.86,0,1.578.329,2.156.982.578.656.867,1.621.867,2.893,0,1.349-.287,2.354-.862,3.012-.576.659-1.296.988-2.162.988-.871,0-1.595-.327-2.169-.982-.574-.656-.862-1.642-.862-2.959s.287-2.303.862-2.955h0ZM258.193,265c-.259,0-.457-.042-.595-.125-.14-.085-.24-.196-.3-.34-.062-.142-.093-.461-.093-.958v-6.016h1.753v-1.357h-1.753v-3.594l-1.734,1.047v2.547h-1.277v1.357h1.277v5.92c0,1.045.072,1.731.214,2.058.142.327.387.59.737.79.348.2.839.3,1.472.3.387,0,.828-.053,1.317-.155l-.251-1.54c-.316.045-.571.066-.765.066h0ZM261.347,265.34c.888.924,2.052,1.385,3.492,1.385.897,0,1.727-.21,2.485-.629.76-.419,1.338-1.009,1.734-1.769.397-.758.595-1.801.595-3.123,0-1.634-.448-2.915-1.345-3.841-.899-.928-2.054-1.391-3.469-1.391-1.272,0-2.35.382-3.235,1.143-1.06.918-1.589,2.328-1.589,4.234,0,1.736.444,3.067,1.332,3.991h0ZM262.669,258.395c.574-.652,1.298-.979,2.169-.979.86,0,1.578.329,2.156.982.578.656.867,1.621.867,2.893,0,1.349-.287,2.354-.863,3.012-.574.659-1.294.988-2.16.988-.871,0-1.595-.327-2.169-.982-.576-.656-.863-1.642-.863-2.959s.287-2.303.863-2.955h0ZM276.182,266.493l3.894-10.288h-1.793l-2.286,6.277c-.278.763-.493,1.415-.648,1.957-.2-.716-.419-1.408-.659-2.073l-2.209-6.161h-1.84l3.913,10.288h1.629ZM282.298,265.34c.888.924,2.052,1.385,3.494,1.385.897,0,1.725-.21,2.485-.629.758-.419,1.336-1.009,1.734-1.769.397-.758.595-1.801.595-3.123,0-1.634-.45-2.915-1.347-3.841-.898-.928-2.054-1.391-3.467-1.391-1.273,0-2.35.382-3.237,1.143-1.058.918-1.589,2.328-1.589,4.234,0,1.736.444,3.067,1.332,3.991h0ZM283.621,258.395c.574-.652,1.298-.979,2.171-.979.858,0,1.578.329,2.154.982.578.656.867,1.621.867,2.893,0,1.349-.287,2.354-.862,3.012-.574.659-1.294.988-2.16.988-.873,0-1.597-.327-2.171-.982s-.862-1.642-.862-2.959.287-2.303.862-2.955h0ZM294.355,266.493v-14.201h-1.744v14.201h1.744ZM300.099,265c-.259,0-.457-.042-.595-.125-.14-.085-.24-.196-.3-.34-.062-.142-.093-.461-.093-.958v-6.016h1.753v-1.357h-1.753v-3.594l-1.733,1.047v2.547h-1.279v1.357h1.279v5.92c0,1.045.07,1.731.212,2.058.142.327.387.59.737.79s.839.3,1.472.3c.387,0,.828-.053,1.319-.155l-.253-1.54c-.316.045-.571.066-.765.066h0ZM309.631,266.493h1.821c-.219-.393-.367-.805-.44-1.236-.076-.429-.111-1.455-.111-3.074v-2.326c0-.775-.03-1.311-.087-1.608-.104-.478-.285-.873-.542-1.187-.259-.314-.663-.572-1.211-.78-.55-.206-1.264-.31-2.141-.31-.886,0-1.665.121-2.335.363-.673.244-1.185.588-1.54,1.037-.355.45-.61,1.037-.765,1.769l1.704.232c.187-.729.476-1.239.867-1.527s.996-.431,1.816-.431c.879,0,1.54.197,1.986.591.331.291.495.792.495,1.5,0,.066-.004.217-.009.455-.665.234-1.702.433-3.11.601-.692.085-1.207.172-1.549.263-.465.128-.884.319-1.255.571-.372.253-.673.586-.901,1.003-.231.416-.344.877-.344,1.379,0,.86.302,1.564.911,2.118.606.552,1.476.828,2.605.828.684,0,1.324-.113,1.923-.338.597-.227,1.219-.614,1.865-1.164.051.486.166.909.348,1.27h0ZM309.138,261.97c0,.769-.094,1.349-.282,1.744-.246.51-.629.911-1.153,1.205-.523.293-1.12.44-1.793.44-.676,0-1.192-.155-1.544-.465-.353-.31-.529-.697-.529-1.162,0-.304.081-.58.242-.829.163-.247.391-.436.688-.565.299-.13.805-.246,1.521-.349,1.266-.181,2.216-.401,2.849-.659v.641h0ZM315.356,254.297v-2.005h-1.744v2.005h1.744ZM315.356,266.493v-10.288h-1.744v10.288h1.744ZM319.764,266.493v-4.077l1.23-1.183,3.401,5.26h2.15l-4.331-6.471,3.934-3.817h-2.258l-4.127,4.185v-8.098h-1.744v14.201h1.744ZM331.509,266.406c.669-1.627,1.003-3.314,1.003-5.056,0-1.538-.249-3.01-.746-4.417-.58-1.634-1.479-3.261-2.692-4.882h-1.249c.788,1.357,1.307,2.324,1.559,2.906.393.89.701,1.821.92,2.789.278,1.196.418,2.4.418,3.614,0,3.106-.966,6.209-2.897,9.309h1.249c.956-1.215,1.769-2.636,2.435-4.263h0Z"/>
        <path class="cls-10" d="M120.038,292.69l1.56-4.302h5.938l1.656,4.302h2.141l-5.812-14.203h-2.025l-5.454,14.203h1.995ZM123.7,282.693c.329-.897.584-1.803.765-2.713.22.769.555,1.75,1.008,2.946l1.482,3.932h-4.814l1.56-4.164h0ZM140.914,292.69v-10.288h-1.744v5.511c0,.879-.095,1.549-.286,2.01-.19.461-.515.826-.973,1.094-.459.268-.949.402-1.472.402s-.963-.13-1.317-.393c-.355-.261-.588-.622-.697-1.079-.071-.317-.107-.931-.107-1.84v-5.706h-1.744v6.373c0,.743.036,1.287.107,1.629.103.51.282.941.538,1.292.255.351.646.644,1.172.877.526.232,1.093.35,1.7.35,1.376,0,2.464-.582,3.265-1.744v1.512h1.56ZM144.42,296.036c.756.552,1.747.828,2.974.828,1.033,0,1.904-.193,2.611-.58.707-.387,1.224-.916,1.55-1.585.326-.667.489-1.803.489-3.405v-8.892h-1.608v1.239c-.788-.981-1.789-1.472-3.003-1.472-.911,0-1.704.225-2.378.678-.675.452-1.19,1.092-1.545,1.921-.355.831-.533,1.736-.533,2.717,0,1.428.387,2.653,1.162,3.673.775,1.02,1.87,1.53,3.284,1.53,1.137,0,2.086-.45,2.848-1.347.006,1.137-.036,1.882-.126,2.237-.155.582-.452,1.034-.891,1.357-.439.323-1.062.484-1.87.484-.749,0-1.34-.161-1.773-.484-.323-.238-.52-.62-.591-1.143l-1.695-.251c-.026,1.111.339,1.942,1.095,2.494h0ZM145.583,284.558c.542-.631,1.201-.945,1.976-.945.788,0,1.461.319,2.02.958.559.64.838,1.589.838,2.849,0,1.317-.271,2.284-.814,2.9-.542.618-1.214.926-2.015.926-.807,0-1.479-.31-2.015-.932-.536-.62-.804-1.604-.804-2.953,0-1.239.271-2.175.814-2.804h0ZM162.981,292.69v-10.288h-1.744v5.511c0,.879-.095,1.549-.286,2.01-.19.461-.515.826-.973,1.094-.459.268-.949.402-1.472.402s-.963-.13-1.317-.393c-.355-.261-.588-.622-.697-1.079-.071-.317-.107-.931-.107-1.84v-5.706h-1.744v6.373c0,.743.035,1.287.107,1.629.103.51.282.941.538,1.292.255.351.646.644,1.172.877.526.232,1.093.35,1.7.35,1.376,0,2.464-.582,3.265-1.744v1.512h1.56ZM166.357,292.089c.701.555,1.719.833,3.056.833.807,0,1.531-.142,2.17-.421.639-.282,1.129-.678,1.468-1.192.339-.514.508-1.06.508-1.642,0-.593-.139-1.092-.416-1.493-.278-.399-.66-.705-1.148-.915-.488-.21-1.348-.48-2.582-.809-.853-.232-1.366-.382-1.54-.446-.304-.123-.526-.278-.668-.465-.142-.181-.213-.384-.213-.61,0-.355.171-.665.513-.93.342-.265.914-.397,1.715-.397.678,0,1.203.147,1.574.444.371.299.596.71.673,1.241l1.705-.232c-.11-.665-.31-1.198-.601-1.595-.291-.397-.741-.712-1.351-.945s-1.319-.348-2.126-.348c-.536,0-1.038.07-1.506.208-.468.14-.838.308-1.109.508-.362.259-.648.584-.857.973-.21.391-.315.816-.315,1.275,0,.503.127.964.383,1.379.255.418.63.743,1.124.979.494.236,1.38.516,2.659.837.949.24,1.543.436,1.782.591.342.227.514.537.514.93,0,.44-.194.822-.581,1.149-.387.327-.982.489-1.782.489-.794,0-1.413-.185-1.855-.552-.443-.368-.712-.897-.809-1.589l-1.724.27c.194,1.092.641,1.916,1.342,2.471h0ZM178.674,291.197c-.258,0-.457-.042-.596-.127-.139-.083-.239-.197-.3-.338-.061-.142-.092-.461-.092-.96v-6.014h1.753v-1.357h-1.753v-3.594l-1.734,1.045v2.549h-1.279v1.357h1.279v5.918c0,1.047.071,1.733.213,2.059.142.325.388.59.736.788.349.2.839.3,1.472.3.388,0,.827-.051,1.317-.155l-.252-1.54c-.317.045-.572.068-.765.068h0ZM188.371,291.014c.194-.317.439-.631.735-.945.299-.314.969-.909,2.016-1.787,1.253-1.06,2.148-1.893,2.689-2.5.538-.606.924-1.185,1.156-1.734.232-.548.35-1.107.35-1.676,0-1.117-.397-2.054-1.192-2.808-.794-.756-1.872-1.134-3.235-1.134-1.351,0-2.425.349-3.226,1.051-.801.701-1.263,1.719-1.385,3.057l1.792.183c.006-.892.261-1.589.765-2.092.503-.504,1.175-.756,2.014-.756.795,0,1.44.236,1.933.71.495.476.741,1.058.741,1.75,0,.659-.27,1.358-.812,2.097-.542.739-1.587,1.742-3.129,3.008-.995.812-1.756,1.53-2.282,2.15-.526.62-.909,1.249-1.148,1.889-.149.387-.217.79-.203,1.211h9.387v-1.676h-6.965ZM198.61,291.458c.78.982,1.857,1.474,3.225,1.474,1.039,0,1.901-.28,2.583-.839.68-.557,1.192-1.349,1.534-2.373.342-1.022.514-2.367.514-4.034,0-1.408-.106-2.526-.319-3.358-.213-.829-.508-1.532-.882-2.11-.374-.578-.848-1.02-1.423-1.328-.576-.306-1.245-.459-2.007-.459-1.034,0-1.889.278-2.572.833-.682.556-1.194,1.343-1.54,2.368-.346,1.024-.518,2.375-.518,4.055,0,2.666.467,4.591,1.404,5.772h0ZM199.898,280.89c.478-.678,1.117-1.016,1.918-1.016.814,0,1.493.384,2.039,1.153.546.769.818,2.322.818,4.659,0,2.324-.272,3.875-.818,4.65-.546.775-1.219,1.162-2.02,1.162s-1.474-.385-2.02-1.158c-.546-.771-.818-2.322-.818-4.654s.3-3.93.901-4.795h0ZM210.438,291.014c.193-.317.438-.631.737-.945.297-.314.967-.909,2.014-1.787,1.253-1.06,2.148-1.893,2.689-2.5.538-.606.924-1.185,1.156-1.734.232-.548.35-1.107.35-1.676,0-1.117-.397-2.054-1.192-2.808-.794-.756-1.872-1.134-3.235-1.134-1.349,0-2.426.349-3.225,1.051-.801.701-1.264,1.719-1.385,3.057l1.791.183c.006-.892.261-1.589.765-2.092.504-.504,1.175-.756,2.014-.756.795,0,1.44.236,1.933.71.495.476.741,1.058.741,1.75,0,.659-.27,1.358-.812,2.097-.542.739-1.585,1.742-3.129,3.008-.996.812-1.755,1.53-2.282,2.15-.525.62-.909,1.249-1.147,1.889-.149.387-.217.79-.204,1.211h9.387v-1.676h-6.964ZM226.605,292.69v-3.401h1.918v-1.598h-1.918v-9.203h-1.425l-6.481,9.203v1.598h6.161v3.401h1.744ZM220.416,287.69l4.446-6.403v6.403h-4.446Z"/>
        <path class="cls-10" d="M111.465,143.092c2.199,1.897,5.351,2.845,9.455,2.845,2.819,0,5.173-.395,7.063-1.185,1.889-.789,3.351-1.996,4.384-3.62,1.033-1.624,1.55-3.366,1.55-5.225,0-2.052-.432-3.775-1.295-5.17-.863-1.395-2.059-2.494-3.587-3.299-1.528-.804-3.886-1.583-7.074-2.336-3.188-.753-5.196-1.476-6.023-2.17-.65-.546-.974-1.203-.974-1.971,0-.841.347-1.513,1.041-2.015,1.077-.782,2.569-1.174,4.473-1.174,1.845,0,3.229.365,4.152,1.096.922.731,1.524,1.93,1.804,3.598l6.554-.288c-.104-2.982-1.185-5.365-3.244-7.152-2.059-1.786-5.126-2.679-9.2-2.679-2.495,0-4.624.376-6.388,1.129-1.764.753-3.115,1.849-4.052,3.288-.938,1.439-1.406,2.986-1.406,4.639,0,2.569.996,4.746,2.989,6.532,1.417,1.27,3.882,2.34,7.395,3.211,2.731.679,4.48,1.151,5.248,1.417,1.122.399,1.908.867,2.358,1.406.45.539.675,1.192.675,1.959,0,1.196-.535,2.24-1.605,3.133-1.07.893-2.661,1.34-4.772,1.34-1.993,0-3.576-.502-4.749-1.506-1.174-1.004-1.952-2.576-2.336-4.716l-6.377.62c.428,3.631,1.742,6.396,3.941,8.292h0ZM145.154,118.659v-5.757h-6.222v5.757h6.222ZM145.154,145.362v-23.515h-6.222v23.515h6.222ZM163.189,140.446c-.664.532-1.483.797-2.458.797-1.432,0-2.628-.513-3.587-1.539-.96-1.026-1.461-2.461-1.506-4.307h15.588c.089-4.768-.878-8.307-2.9-10.617-2.022-2.31-4.783-3.465-8.281-3.465-3.115,0-5.69,1.104-7.728,3.31-2.037,2.207-3.056,5.259-3.056,9.156,0,3.263.775,5.964,2.325,8.104,1.963,2.672,4.989,4.008,9.078,4.008,2.583,0,4.735-.594,6.454-1.782,1.719-1.188,2.978-2.919,3.775-5.192l-6.2-1.041c-.34,1.181-.841,2.037-1.506,2.568h0ZM155.749,131.59c-.015-1.697.421-3.041,1.306-4.03.886-.989,2.007-1.484,3.366-1.484,1.269,0,2.347.469,3.233,1.406.886.938,1.351,2.306,1.395,4.107h-9.3ZM175.245,147.664c0,2.096.834,3.827,2.502,5.192,1.668,1.365,4.495,2.048,8.48,2.048,2.111,0,3.857-.221,5.236-.664,1.381-.443,2.483-1.056,3.31-1.838.828-.782,1.468-1.86,1.927-3.233.457-1.373.686-3.447.686-6.222v-21.101h-5.823v3.299c-1.889-2.554-4.288-3.831-7.196-3.831-2.82,0-5.178,1.041-7.074,3.122-1.897,2.081-2.845,5.093-2.845,9.034,0,3.144.723,5.772,2.17,7.883,1.845,2.672,4.347,4.008,7.506,4.008,2.834,0,5.182-1.269,7.041-3.808v3.432c0,1.387-.096,2.339-.287,2.856-.282.723-.695,1.247-1.241,1.572-.811.487-2.029.731-3.653.731-1.27,0-2.2-.221-2.79-.664-.428-.31-.701-.878-.819-1.705l-7.108-.863c-.015.295-.022.546-.022.753h0ZM182.275,127.814c.967-1.159,2.196-1.738,3.687-1.738,1.535,0,2.804.591,3.809,1.771,1.003,1.181,1.506,2.989,1.506,5.425,0,2.333-.525,4.093-1.574,5.281-1.047,1.188-2.332,1.782-3.852,1.782-1.417,0-2.609-.579-3.576-1.738-.967-1.159-1.45-2.985-1.45-5.48,0-2.376.483-4.144,1.45-5.303h0ZM215.201,140.446c-.665.532-1.483.797-2.458.797-1.432,0-2.628-.513-3.586-1.539-.96-1.026-1.462-2.461-1.506-4.307h15.588c.089-4.768-.879-8.307-2.9-10.617-2.024-2.31-4.784-3.465-8.281-3.465-3.116,0-5.691,1.104-7.728,3.31-2.037,2.207-3.055,5.259-3.055,9.156,0,3.263.775,5.964,2.324,8.104,1.963,2.672,4.99,4.008,9.079,4.008,2.583,0,4.735-.594,6.454-1.782,1.719-1.188,2.978-2.919,3.775-5.192l-6.199-1.041c-.34,1.181-.843,2.037-1.506,2.568h0ZM207.76,131.59c-.015-1.697.421-3.041,1.307-4.03.886-.989,2.007-1.484,3.365-1.484,1.27,0,2.347.469,3.233,1.406.886.938,1.351,2.306,1.394,4.107h-9.3ZM233.812,138.099c0-4,.172-6.628.52-7.882.348-1.255.824-2.122,1.428-2.602.605-.48,1.343-.72,2.214-.72.899,0,1.874.34,2.923,1.019l1.925-5.425c-1.313-.782-2.679-1.174-4.096-1.174-1.003,0-1.901.251-2.691.753-.79.502-1.678,1.543-2.668,3.122v-3.343h-5.778v23.515h6.222v-7.263h0Z"/>
        <path class="cls-10" d="M32.371,182.604v-4.33h-12.901v-21.157h-5.189v25.487h18.09ZM45.264,178.713c-.526.421-1.175.631-1.946.631-1.134,0-2.08-.406-2.84-1.218-.76-.812-1.157-1.949-1.192-3.409h12.34c.07-3.775-.696-6.576-2.296-8.405-1.601-1.829-3.786-2.743-6.556-2.743-2.466,0-4.505.874-6.118,2.621-1.613,1.747-2.419,4.163-2.419,7.248,0,2.583.614,4.721,1.841,6.416,1.554,2.115,3.95,3.173,7.187,3.173,2.045,0,3.748-.47,5.11-1.411,1.361-.94,2.358-2.311,2.989-4.11l-4.908-.824c-.269.935-.666,1.613-1.192,2.033h0ZM39.374,171.702c-.012-1.344.333-2.407,1.034-3.19.701-.783,1.589-1.174,2.664-1.174,1.005,0,1.858.371,2.559,1.113.701.742,1.069,1.826,1.104,3.252h-7.362ZM60.207,161.465v-4.558h-4.926v4.558h4.926ZM60.207,182.604v-18.616h-4.926v18.616h4.926ZM66.062,181.483c1.478,1.028,3.485,1.543,6.021,1.543,2.793,0,4.902-.614,6.328-1.841,1.426-1.227,2.139-2.694,2.139-4.4,0-1.566-.515-2.787-1.543-3.663-1.04-.865-2.872-1.595-5.495-2.191-2.624-.596-4.157-1.058-4.601-1.385-.327-.245-.491-.543-.491-.894,0-.409.187-.742.561-.999.561-.362,1.49-.543,2.787-.543,1.028,0,1.82.193,2.375.579.555.386.932.941,1.131,1.665l4.645-.859c-.468-1.624-1.321-2.851-2.559-3.681-1.239-.83-3.132-1.245-5.679-1.245-2.676,0-4.651.549-5.925,1.648-1.274,1.098-1.911,2.454-1.911,4.067,0,1.788.736,3.185,2.209,4.189,1.063.725,3.582,1.525,7.555,2.402.853.199,1.402.415,1.648.649.234.245.35.555.35.929,0,.549-.216.988-.648,1.315-.643.467-1.601.701-2.875.701-1.157,0-2.057-.248-2.699-.745-.643-.497-1.069-1.224-1.28-2.182l-4.943.754c.456,1.765,1.423,3.161,2.901,4.189h0ZM89.674,163.989v-6.573l-4.943,2.875v3.699h-2.261v3.926h2.261v8.116c0,1.741.052,2.898.158,3.471.128.806.359,1.446.692,1.919.333.473.856.859,1.569,1.157.713.298,1.513.447,2.401.447,1.449,0,2.746-.246,3.891-.736l-.421-3.821c-.865.316-1.525.473-1.981.473-.327,0-.605-.082-.833-.245-.228-.164-.374-.371-.438-.622-.064-.251-.096-1.136-.096-2.656v-7.502h3.365v-3.926h-3.365ZM112.927,182.604v-18.616h-4.926v7.853c0,2.665-.123,4.339-.368,5.022-.245.684-.701,1.256-1.367,1.718-.666.462-1.42.692-2.261.692-.736,0-1.344-.172-1.823-.517-.479-.344-.809-.812-.99-1.402-.181-.59-.272-2.194-.272-4.812v-8.554h-4.926v11.779c0,1.753.222,3.126.666,4.119.444.993,1.163,1.765,2.156,2.314.993.549,2.115.824,3.366.824,1.227,0,2.393-.287,3.497-.859,1.104-.573,1.995-1.355,2.673-2.349v2.787h4.575ZM134.601,171.036c0-1.437-.091-2.542-.272-3.313-.181-.771-.503-1.461-.964-2.069-.462-.607-1.142-1.107-2.042-1.499-.9-.391-1.893-.587-2.98-.587-2.466,0-4.511,1.052-6.135,3.155v-2.734h-4.575v18.616h4.926v-8.431c0-2.08.125-3.506.377-4.277.251-.771.716-1.39,1.394-1.858.678-.467,1.443-.701,2.296-.701.666,0,1.236.164,1.709.491.473.327.815.786,1.025,1.376.21.59.316,1.89.316,3.9v9.501h4.926v-11.569h0ZM138.765,184.428c0,1.659.66,3.029,1.981,4.111,1.32,1.081,3.558,1.621,6.714,1.621,1.671,0,3.053-.176,4.146-.525,1.092-.351,1.966-.837,2.621-1.456.654-.62,1.163-1.472,1.525-2.559.362-1.087.543-2.729.543-4.926v-16.705h-4.61v2.612c-1.496-2.022-3.395-3.033-5.697-3.033-2.232,0-4.099.824-5.6,2.472-1.502,1.648-2.252,4.032-2.252,7.152,0,2.489.572,4.569,1.718,6.24,1.461,2.115,3.442,3.173,5.942,3.173,2.244,0,4.102-1.005,5.574-3.015v2.717c0,1.098-.076,1.852-.228,2.261-.222.572-.549.987-.982,1.245-.643.386-1.607.578-2.892.578-1.005,0-1.742-.175-2.209-.526-.339-.245-.555-.695-.648-1.35l-5.627-.684c-.012.234-.017.432-.017.596h0ZM144.33,168.713c.765-.917,1.738-1.376,2.919-1.376,1.215,0,2.22.467,3.015,1.402.794.935,1.192,2.367,1.192,4.295,0,1.847-.415,3.24-1.245,4.181-.83.941-1.847,1.411-3.05,1.411-1.122,0-2.066-.459-2.831-1.376-.765-.917-1.148-2.364-1.148-4.339,0-1.881.383-3.281,1.148-4.198h0ZM161.973,181.483c1.478,1.028,3.485,1.543,6.021,1.543,2.793,0,4.902-.614,6.328-1.841,1.426-1.227,2.139-2.694,2.139-4.4,0-1.566-.514-2.787-1.542-3.663-1.04-.865-2.872-1.595-5.495-2.191-2.623-.596-4.157-1.058-4.601-1.385-.327-.245-.491-.543-.491-.894,0-.409.187-.742.561-.999.561-.362,1.49-.543,2.787-.543,1.028,0,1.82.193,2.375.579.555.386.932.941,1.131,1.665l4.645-.859c-.468-1.624-1.321-2.851-2.559-3.681-1.239-.83-3.132-1.245-5.679-1.245-2.676,0-4.651.549-5.925,1.648-1.274,1.098-1.911,2.454-1.911,4.067,0,1.788.736,3.185,2.209,4.189,1.063.725,3.582,1.525,7.555,2.402.853.199,1.402.415,1.648.649.234.245.351.555.351.929,0,.549-.217.988-.649,1.315-.643.467-1.601.701-2.875.701-1.157,0-2.057-.248-2.699-.745-.643-.497-1.069-1.224-1.28-2.182l-4.943.754c.456,1.765,1.423,3.161,2.901,4.189h0ZM181.58,181.483c1.478,1.028,3.485,1.543,6.021,1.543,2.793,0,4.902-.614,6.328-1.841,1.425-1.227,2.139-2.694,2.139-4.4,0-1.566-.516-2.787-1.544-3.663-1.039-.865-2.872-1.595-5.494-2.191-2.624-.596-4.158-1.058-4.602-1.385-.327-.245-.491-.543-.491-.894,0-.409.187-.742.561-.999.561-.362,1.49-.543,2.787-.543,1.028,0,1.82.193,2.376.579.554.386.932.941,1.13,1.665l4.646-.859c-.469-1.624-1.321-2.851-2.56-3.681-1.239-.83-3.133-1.245-5.679-1.245-2.676,0-4.651.549-5.925,1.648-1.274,1.098-1.911,2.454-1.911,4.067,0,1.788.736,3.185,2.209,4.189,1.063.725,3.582,1.525,7.555,2.402.852.199,1.402.415,1.648.649.232.245.35.555.35.929,0,.549-.215.988-.648,1.315-.642.467-1.601.701-2.875.701-1.157,0-2.057-.248-2.699-.745-.643-.497-1.069-1.224-1.28-2.182l-4.943.754c.456,1.765,1.423,3.161,2.901,4.189h0ZM199.881,189.685h4.926v-9.377c.922.993,1.801,1.694,2.638,2.103.835.409,1.767.614,2.794.614,2.163,0,4.004-.862,5.523-2.586,1.519-1.724,2.279-4.14,2.279-7.248,0-3.027-.754-5.387-2.262-7.082-1.508-1.694-3.342-2.542-5.504-2.542-1.239,0-2.366.292-3.382.877-1.018.584-1.823,1.344-2.42,2.279v-2.734h-4.591v25.697h0ZM205.946,168.853c.794-.929,1.793-1.393,2.997-1.393,1.156,0,2.127.473,2.91,1.42.782.946,1.175,2.396,1.175,4.347,0,2.092-.38,3.597-1.139,4.514-.761.918-1.714,1.376-2.859,1.376-1.192,0-2.203-.5-3.033-1.499-.829-.999-1.243-2.544-1.243-4.636,0-1.823.397-3.199,1.192-4.128h0ZM231.178,178.713c-.525.421-1.173.631-1.944.631-1.134,0-2.08-.406-2.84-1.218-.76-.812-1.158-1.949-1.192-3.409h12.34c.07-3.775-.695-6.576-2.296-8.405-1.602-1.829-3.786-2.743-6.556-2.743-2.466,0-4.504.874-6.118,2.621-1.612,1.747-2.418,4.163-2.418,7.248,0,2.583.614,4.721,1.84,6.416,1.555,2.115,3.951,3.173,7.187,3.173,2.044,0,3.749-.47,5.109-1.411,1.362-.94,2.358-2.311,2.989-4.11l-4.909-.824c-.268.935-.665,1.613-1.192,2.033h0ZM225.289,171.702c-.011-1.344.334-2.407,1.035-3.19.701-.783,1.589-1.174,2.664-1.174,1.005,0,1.857.371,2.558,1.113.701.742,1.069,1.826,1.105,3.252h-7.363ZM245.948,182.604v-5.96l2.296-2.401,4.68,8.361h5.311l-6.819-11.814,6.364-6.801h-6.065l-5.767,6.556v-13.638h-4.926v25.697h4.926ZM265.974,163.989v-6.573l-4.943,2.875v3.699h-2.262v3.926h2.262v8.116c0,1.741.053,2.898.159,3.471.128.806.359,1.446.692,1.919.333.473.856.859,1.568,1.157.714.298,1.513.447,2.401.447,1.449,0,2.747-.246,3.892-.736l-.421-3.821c-.863.316-1.525.473-1.98.473-.327,0-.605-.082-.833-.245-.227-.164-.374-.371-.438-.622-.064-.251-.096-1.136-.096-2.656v-7.502h3.367v-3.926h-3.367ZM277.114,176.855c0-3.167.138-5.247.412-6.24.276-.993.652-1.68,1.132-2.06.478-.38,1.062-.57,1.752-.57.714,0,1.485.269,2.315.806l1.525-4.295c-1.039-.619-2.12-.929-3.242-.929-.795,0-1.506.199-2.129.596-.625.397-1.33,1.221-2.112,2.472v-2.647h-4.576v18.616h4.926v-5.749h0ZM302.838,182.604v-18.616h-4.926v7.853c0,2.665-.123,4.339-.368,5.022-.246.684-.701,1.256-1.366,1.718-.667.462-1.421.692-2.262.692-.737,0-1.343-.172-1.823-.517-.48-.344-.809-.812-.99-1.402-.181-.59-.272-2.194-.272-4.812v-8.554h-4.926v11.779c0,1.753.221,3.126.667,4.119.444.993,1.162,1.765,2.156,2.314.992.549,2.114.824,3.365.824,1.226,0,2.392-.287,3.497-.859,1.103-.573,1.995-1.355,2.674-2.349v2.787h4.574ZM307.213,182.604h4.926v-9.045c0-1.788.13-3.067.395-3.839.263-.771.697-1.361,1.306-1.77.607-.409,1.29-.613,2.05-.613.631,0,1.132.129,1.498.386.368.257.641.648.816,1.174.176.526.263,1.695.263,3.506v10.202h4.926v-8.94c0-1.753.134-3.035.402-3.848.268-.812.707-1.429,1.315-1.849.608-.421,1.256-.631,1.946-.631.947,0,1.648.35,2.103,1.052.338.538.508,1.73.508,3.576v10.64h4.926v-11.902c0-1.776-.17-3.061-.508-3.856-.467-1.075-1.175-1.89-2.122-2.445-.947-.555-2.103-.833-3.469-.833-1.077,0-2.086.245-3.033.736-.947.491-1.829,1.233-2.647,2.226-.561-.993-1.281-1.735-2.156-2.226-.877-.491-1.912-.736-3.104-.736-2.243,0-4.178.988-5.801,2.962v-2.542h-4.54v18.616h0Z"/>
      </g>
    </g>
  </g>
</svg>