<?xml version="1.0" encoding="utf-8"?>
<!-- Generator: Adobe Illustrator 26.0.1, SVG Export Plug-In . SVG Version: 6.00 Build 0)  -->
<svg version="1.1" xmlns="http://www.w3.org/2000/svg" xmlns:xlink="http://www.w3.org/1999/xlink" x="0px" y="0px"
	 viewBox="0 0 141.7 110.6" style="enable-background:new 0 0 141.7 110.6;" xml:space="preserve">
<style type="text/css">
	.st0{fill:#F0EEE1;}
	.st1{fill:#13556F;}
	.st2{fill:#507666;}
	.st3{fill:#005A8C;}
	.st4{display:none;}
	.st5{display:inline;fill:#005F9B;}
	.st6{fill:#FFFFFF;}
	.st7{fill:#A4B419;}
	.st8{display:none;fill:#005F9B;}
	.st9{font-family:'KFWCentroSans-Bold';}
	.st10{font-size:20.25px;}
</style>
<g id="Hintergrund">
	<rect y="0" class="st0" width="141.7" height="86.4"/>
	<path class="st1" d="M0,86.4v24.2h135.3c0,0,6.4,0,6.4-6.4V86.4H0z"/>
</g>
<g id="Typo">
	<g>
		<path class="st2" d="M16,76.5c-0.5,0.2-1.6,0.5-2.9,0.5c-1.4,0-2.6-0.4-3.5-1.2c-0.8-0.8-1.3-2-1.3-3.5c0-2.8,1.9-4.8,5-4.8
			c1.1,0,1.9,0.2,2.3,0.4l-0.3,1c-0.5-0.2-1.1-0.4-2.1-0.4c-2.3,0-3.7,1.4-3.7,3.7c0,2.4,1.4,3.8,3.6,3.8c0.8,0,1.3-0.1,1.6-0.2V73
			H13v-1H16V76.5z"/>
		<path class="st2" d="M17.9,67.8c0.6-0.1,1.5-0.2,2.3-0.2c1.3,0,2.1,0.2,2.7,0.8c0.5,0.4,0.7,1,0.7,1.8c0,1.2-0.8,2-1.8,2.4v0
			c0.7,0.2,1.1,0.9,1.4,1.9c0.3,1.3,0.5,2.2,0.7,2.6h-1.2c-0.2-0.3-0.4-1.1-0.6-2.2c-0.3-1.3-0.8-1.8-1.9-1.8h-1.1v4h-1.2V67.8z
			 M19.1,72h1.2c1.3,0,2.1-0.7,2.1-1.8c0-1.2-0.9-1.7-2.1-1.7c-0.6,0-1,0.1-1.2,0.1V72z"/>
		<path class="st2" d="M26.5,67.7v5.5c0,2.1,0.9,3,2.2,3c1.4,0,2.3-0.9,2.3-3v-5.5h1.2v5.4c0,2.9-1.5,4-3.5,4c-1.9,0-3.3-1.1-3.3-4
			v-5.5H26.5z M26.8,66.3c0-0.4,0.3-0.7,0.7-0.7c0.4,0,0.7,0.3,0.7,0.7c0,0.4-0.3,0.7-0.7,0.7S26.8,66.7,26.8,66.3z M29.4,66.3
			c0-0.4,0.3-0.7,0.7-0.7c0.4,0,0.7,0.3,0.7,0.7c0,0.4-0.3,0.7-0.7,0.7C29.6,67,29.4,66.7,29.4,66.3z"/>
		<path class="st2" d="M34.2,77v-9.3h1.3l3,4.7c0.7,1.1,1.2,2.1,1.7,3l0,0c-0.1-1.2-0.1-2.4-0.1-3.8v-3.9h1.1V77H40l-3-4.7
			c-0.6-1-1.3-2.1-1.7-3.1l0,0c0.1,1.2,0.1,2.3,0.1,3.8v4H34.2z"/>
		<path class="st2" d="M43.3,67.8c0.7-0.1,1.6-0.2,2.6-0.2c1.7,0,3,0.4,3.8,1.2c0.8,0.8,1.3,1.8,1.3,3.3c0,1.5-0.5,2.8-1.3,3.6
			c-0.9,0.9-2.3,1.3-4.1,1.3c-0.9,0-1.6,0-2.2-0.1V67.8z M44.5,76c0.3,0.1,0.7,0.1,1.2,0.1c2.6,0,4-1.4,4-3.9c0-2.2-1.2-3.6-3.8-3.6
			c-0.6,0-1.1,0.1-1.4,0.1V76z"/>
		<path class="st2" d="M57.3,72.6h-3.6V76h4v1h-5.2v-9.3h5v1h-3.8v2.9h3.6V72.6z"/>
		<path class="st2" d="M59.3,77v-9.3h1.3l3,4.7c0.7,1.1,1.2,2.1,1.7,3l0,0c-0.1-1.2-0.1-2.4-0.1-3.8v-3.9h1.1V77h-1.2l-3-4.7
			c-0.6-1-1.3-2.1-1.7-3.1l0,0c0.1,1.2,0.1,2.3,0.1,3.8v4H59.3z"/>
	</g>
	<g>
		<path class="st3" d="M12.5,14.8l0.8-1l4.1-4.4h3.5l-5.3,5.4l5.6,8.4h-3.5c-1.4-2.2-2.7-4.3-4.1-6.5l-1.2,1.3v5.2H9.4V9.4h2.9v5.4
			H12.5z"/>
		<path class="st3" d="M22.6,15.3h-1.4v-1.6l1.4-0.4V12c0-1.9,0.8-3.4,3.8-3.4c0.7,0,1.8,0.1,2.7,0.3l-0.3,2
			c-0.6-0.1-1.3-0.2-1.7-0.2c-1,0-1.6,0.3-1.6,1.3v1.3h2.8v1.9h-2.8c0,0.9,0,7.2,0,8h-2.8V15.3z"/>
		<path class="st3" d="M39.6,13.2c-0.2,1.1-0.4,2.4-0.6,3.5l-1.4,6.6h-3.7L30.5,9.4h3.2c0.4,1.7,1.1,5.4,1.5,7.1
			c0.2,1,0.4,2.4,0.6,3.4h0.1c0.2-1,0.4-2.3,0.6-3.3c0.4-1.9,1.2-5.4,1.6-7.3h3.2c0.2,0.8,1.6,6.5,1.8,7.1c0.1,0.2,0.6,3,0.7,3.4H44
			c0.2-1.1,0.4-2.5,0.6-3.5c0.4-1.7,1.1-5.3,1.5-7h3.1c-0.7,3.1-2.7,11.3-3.3,13.9h-3.7c-0.5-1.8-1.2-4.8-1.7-6.6
			c-0.2-0.6-0.6-2.8-0.7-3.5L39.6,13.2z"/>
	</g>
	<g>
		<path class="st3" d="M18.1,41.1l-1-3.2H12l-1,3.2h-3l4.7-13.9h3.8l4.6,13.9H18.1z M15.5,32.3l-0.8-3h-0.1l-0.8,3.1l-1,3.6h3.8
			L15.5,32.3z"/>
		<path class="st3" d="M30.4,31c-0.2,1.1-0.4,2.4-0.6,3.5l-1.4,6.6h-3.7l-3.4-13.9h3.2c0.4,1.7,1.1,5.4,1.5,7.1
			c0.2,1,0.4,2.4,0.6,3.4h0.1c0.2-1,0.4-2.3,0.6-3.3c0.4-1.9,1.2-5.4,1.6-7.3H32c0.2,0.8,1.6,6.5,1.8,7.1c0.1,0.2,0.6,3,0.7,3.4h0.2
			c0.2-1.1,0.4-2.5,0.6-3.5c0.4-1.7,1.1-5.3,1.5-7h3.1c-0.7,3.1-2.7,11.3-3.3,13.9h-3.7c-0.5-1.8-1.2-4.8-1.7-6.6
			c-0.2-0.6-0.6-2.8-0.7-3.5L30.4,31z"/>
		<path class="st3" d="M49.5,41.1l-1-3.2h-5.1l-1,3.2h-3l4.7-13.9H48l4.6,13.9H49.5z M46.9,32.3l-0.8-3H46l-0.8,3.1l-1,3.6H48
			L46.9,32.3z"/>
		<path class="st3" d="M62.1,34.8L62.1,34.8c1.2,0.4,1.6,1.4,1.9,2.4l1.1,3.9h-3c-0.3-1.2-0.7-2.4-1.1-3.6c-0.4-1.5-1.2-2-2.3-2
			h-1.5v5.6h-2.9V27.2H60c3.2,0,4.5,1.8,4.5,4C64.5,32.7,63.7,34.2,62.1,34.8z M59.4,33.5c0.9,0,2.1-0.5,2.1-2.1c0-1.4-0.9-2-2.1-2
			h-2.1v4.1H59.4z"/>
		<path class="st3" d="M67.1,41.1V27.2h5.2c4.9,0,6.2,3.2,6.2,6.9s-1.5,7-6.3,7H67.1z M70.1,29.3V39h1.8c1.4,0,3.5-0.7,3.5-4.7
			c0-4.1-1.9-4.9-3.5-4.9H70.1z"/>
	</g>
	<g class="st4">
		<path class="st5" d="M12.9,56.9h5.8v2H8.9v-1.8c2.3-2.1,6.3-5.2,6.3-7.7c0-1.2-0.8-1.9-2.2-1.9c-0.7,0-2,0.2-3.4,1l-0.9-1.7
			c1.7-1.2,3.5-1.6,4.8-1.6c2.8,0,4.6,1.4,4.6,4c0,2.9-3.2,5.7-5.2,7.5L12.9,56.9z"/>
		<path class="st5" d="M26.1,59.1c-4.3,0-5.5-3.2-5.5-6.8c0-3.4,1.2-7,5.5-7c4.4,0,5.4,3.7,5.4,7C31.5,55.8,30.1,59.1,26.1,59.1z
			 M26.1,47.4c-2.3,0-2.6,2.7-2.6,4.8c0,2.6,0.4,4.7,2.6,4.7c2,0,2.5-2.3,2.5-4.7C28.6,50.2,28.4,47.4,26.1,47.4z"/>
		<path class="st5" d="M35.8,48L33,48.3v-1.9l3.1-0.9h2.6v13.5h-2.8V48z"/>
		<path class="st5" d="M49.9,51.8c1.3,0.7,2.2,1.8,2.2,3.4c0,2.2-2,3.9-5.2,3.9c-3.2,0-5.1-1.5-5.1-3.7c0-1.2,0.5-2.8,2.3-3.9
			c-1.1-0.7-1.7-1.4-1.7-2.7c0-2.1,1.9-3.6,4.6-3.6c2.1,0,4.6,1,4.6,3.5C51.7,49.6,51.4,50.8,49.9,51.8z M49.3,55
			c0-1.1-1-1.7-3.1-2.6c-1.2,0.8-1.5,1.8-1.5,2.6c0,1,0.8,1.9,2.3,1.9C48.5,57,49.3,56.1,49.3,55z M47.8,51c1.1-0.8,1.4-1.4,1.4-2.1
			c0-0.8-0.6-1.7-2.1-1.7c-1.4,0-1.9,1-1.9,1.6C45.2,49.9,46.3,50.3,47.8,51z"/>
	</g>
	<g>
		<path class="st6" d="M8.9,103.2v-9.7h1.6v8.5h5v1.1H8.9z"/>
		<path class="st6" d="M22.1,102.1h0.9l0.1,0.9c-0.4,0.2-1,0.3-1.4,0.3c-0.6,0-0.9-0.1-1-0.8c0,0,0,0,0,0c-1,0.9-2,0.9-2.4,0.9
			c-1.6,0-2.1-1.2-2.1-2c0-1.3,1.2-2,2.7-2.1l1.7-0.1v-0.4c0-1-0.3-1.4-1.4-1.4c-0.7,0-1.5,0.1-2.2,0.4c-0.1-0.3-0.2-0.7-0.3-1
			c0.8-0.4,1.9-0.6,2.8-0.6c1.6,0,2.5,0.6,2.5,2.3V102.1z M19.1,100.1c-0.8,0.1-1.2,0.4-1.2,1.1c0,0.7,0.3,1.1,1.1,1.1
			c0.5,0,1.1-0.3,1.7-0.8V100L19.1,100.1z"/>
		<path class="st6" d="M28.8,103.2v-4.4c0-0.9-0.2-1.4-1.1-1.4c-0.6,0-1.3,0.3-1.9,0.6v5.2h-1.6v-6.9h1.5l0,0.6l0.1,0
			c0.8-0.5,1.7-0.8,2.4-0.8c1.9,0,2.1,1.1,2.1,2.3v4.8H28.8z"/>
		<path class="st6" d="M36.6,96.6v-3.5h1.5v10.1h-1.5l0-0.6c0,0,0,0,0,0c-0.6,0.5-1.5,0.7-2.1,0.7c-2.1,0-2.7-1.6-2.7-3.4
			c0-2.1,0.8-3.8,2.9-3.8C35.2,96.1,36,96.2,36.6,96.6z M36.6,97.7c-0.3-0.2-1-0.4-1.6-0.4c-0.8,0-1.6,0.5-1.6,2.6
			c0,1.8,0.6,2.3,1.6,2.3c0.5,0,1.3-0.3,1.6-0.6V97.7z"/>
		<path class="st6" d="M45.7,99.4v0.5h-4.6c0,1.2,0.5,2.1,1.9,2.1c0.8,0,1.5-0.2,2.2-0.5l0.3,1c-0.9,0.5-1.8,0.7-2.7,0.7
			c-2.6,0-3.2-1.6-3.2-3.5c0-1.4,0.5-3.6,3.2-3.6C45.6,96.1,45.7,98.4,45.7,99.4z M41.2,99.1h3.1c0-1.2-0.3-2-1.5-2
			C41.6,97.1,41.3,98.1,41.2,99.1z"/>
		<path class="st6" d="M52.1,96.6c-0.1,0.2-0.3,0.8-0.4,1c-0.7-0.3-1.3-0.4-1.8-0.4c-0.6,0-1.2,0.2-1.2,0.9c0,0.5,0.8,0.7,1.4,0.9
			c1.2,0.3,2.5,0.7,2.5,2.2c0,1.4-1.1,2-2.9,2c-0.8,0-1.9-0.2-2.6-0.5l0.4-1c1,0.4,1.8,0.5,2.2,0.5c0.8,0,1.4-0.2,1.4-0.9
			c0-0.6-0.7-0.8-1.4-1.1c-1.2-0.4-2.4-0.7-2.4-2s1.1-2,2.7-2C50.5,96.1,51.4,96.2,52.1,96.6z"/>
		<path class="st6" d="M58.7,96.6c-0.1,0.2-0.3,0.8-0.4,1c-0.7-0.3-1.3-0.4-1.8-0.4c-0.6,0-1.2,0.2-1.2,0.9c0,0.5,0.8,0.7,1.4,0.9
			c1.2,0.3,2.5,0.7,2.5,2.2c0,1.4-1.1,2-2.9,2c-0.8,0-1.9-0.2-2.6-0.5l0.4-1c1,0.4,1.8,0.5,2.2,0.5c0.8,0,1.4-0.2,1.4-0.9
			c0-0.6-0.7-0.8-1.4-1.1c-1.2-0.4-2.4-0.7-2.4-2s1.1-2,2.7-2C57.1,96.1,58,96.2,58.7,96.6z"/>
		<path class="st6" d="M61.6,95.3c-0.5,0-0.9-0.4-0.9-0.9c0-0.5,0.4-0.9,0.9-0.9c0.6,0,1,0.4,1,0.9C62.5,94.9,62.1,95.3,61.6,95.3z
			 M60.8,103.2v-6.9h1.5v6.9H60.8z"/>
		<path class="st6" d="M70.3,99.4v0.5h-4.6c0,1.2,0.5,2.1,1.9,2.1c0.8,0,1.5-0.2,2.2-0.5l0.3,1c-0.9,0.5-1.8,0.7-2.7,0.7
			c-2.6,0-3.2-1.6-3.2-3.5c0-1.4,0.5-3.6,3.2-3.6C70.2,96.1,70.3,98.4,70.3,99.4z M65.8,99.1h3.1c0-1.2-0.3-2-1.5-2
			C66.2,97.1,65.9,98.1,65.8,99.1z"/>
		<path class="st6" d="M72.8,100.4c-0.5-0.3-0.9-0.8-0.9-1.8c0-1.8,1.5-2.5,2.9-2.5c0.5,0,1,0.1,1.4,0.2h2.3v0.9h-1l0,0.1
			c0.3,0.3,0.4,0.9,0.4,1.4c0,1.6-1.3,2.4-3,2.4l-0.8,0c-0.6,0-1,0.1-1,0.5c0,0.3,0.3,0.4,0.6,0.4h1.9c1.7,0,2.7,0.7,2.7,2.1
			c0,1.3-1.2,2.3-3.7,2.3c-2.5,0-3.1-1-3.1-2c0-0.7,0.5-1.3,0.9-1.6c-0.5-0.1-0.8-0.5-0.8-1C71.7,100.9,72.2,100.6,72.8,100.4
			L72.8,100.4z M73.8,102.8c-0.4,0.1-0.7,0.6-0.7,1.1c0,0.6,0.3,1.2,1.8,1.2c1.2,0,1.9-0.5,1.9-1.2c0-0.5-0.2-1.1-1.4-1.1H73.8z
			 M74.9,97.1c-1,0-1.5,0.5-1.5,1.4c0,0.8,0.5,1.4,1.4,1.4c0.9,0,1.6-0.4,1.6-1.4C76.3,97.9,76,97.1,74.9,97.1z"/>
	</g>
</g>
<g id="Gestaltungselement">
	<path class="st7" d="M98.4,76.9c-2.4,0-3.7-1-3.7-2.5c0-0.8,0.4-1.7,1.2-2.8l21-28.5c0.2-0.3,0.3-0.6,0-1L97.4,15.3
		C96.5,14.1,96,13,96,12c0-1.6,1.3-2.5,3.9-2.5h6.2c2.6,0,4.1,0.5,5.9,2.9l16.8,23.5c1.9,2.4,2.8,4.2,2.8,6.6c0,3.3-0.7,4.5-2.8,7.5
		L111.7,74c-1.7,2.4-2.9,2.9-6.1,2.9H98.4z"/>
</g>
<g id="_x32_022">
	<text id="_x32_022_Kopie" transform="matrix(1 0 0 1 7.9175 58.9171)" class="st8 st9 st10">2022</text>
	<g>
		<path class="st3" d="M12.9,56.9h5.8v2H8.9v-1.8c2.3-2.1,6.3-5.2,6.3-7.7c0-1.2-0.8-1.9-2.2-1.9c-0.7,0-2,0.2-3.4,1l-0.9-1.7
			c1.7-1.2,3.5-1.6,4.8-1.6c2.8,0,4.6,1.4,4.6,4c0,2.9-3.2,5.7-5.2,7.5L12.9,56.9z"/>
		<path class="st3" d="M25.9,59.1c-4.3,0-5.5-3.2-5.5-6.8c0-3.4,1.2-7,5.5-7c4.4,0,5.4,3.7,5.4,7C31.3,55.8,30,59.1,25.9,59.1z
			 M25.9,47.4c-2.3,0-2.6,2.7-2.6,4.8c0,2.6,0.4,4.7,2.6,4.7c2,0,2.5-2.3,2.5-4.7C28.4,50.2,28.2,47.4,25.9,47.4z"/>
		<path class="st3" d="M37,56.9h5.8v2H33v-1.8c2.3-2.1,6.3-5.2,6.3-7.7c0-1.2-0.8-1.9-2.2-1.9c-0.7,0-2,0.2-3.4,1l-0.9-1.7
			c1.7-1.2,3.5-1.6,4.8-1.6c2.8,0,4.6,1.4,4.6,4c0,2.9-3.2,5.7-5.2,7.5L37,56.9z"/>
		<path class="st3" d="M49,56.9h5.8v2H45v-1.8c2.3-2.1,6.3-5.2,6.3-7.7c0-1.2-0.8-1.9-2.2-1.9c-0.7,0-2,0.2-3.4,1l-0.9-1.7
			c1.7-1.2,3.5-1.6,4.8-1.6c2.8,0,4.6,1.4,4.6,4c0,2.9-3.2,5.7-5.2,7.5L49,56.9z"/>
	</g>
</g>
</svg>
