<?xml version="1.0" encoding="UTF-8"?>
<svg id="Ebene_1" xmlns="http://www.w3.org/2000/svg" width="50mm" height="50mm" version="1.1" xmlns:xlink="http://www.w3.org/1999/xlink" viewBox="0 0 141.732 141.732">
  <!-- Generator: Adobe Illustrator 29.4.0, SVG Export Plug-In . SVG Version: 2.1.0 Build 152)  -->
  <defs>
    <style>
      .st0 {
        clip-path: url(#clippath-6);
      }

      .st1 {
        clip-path: url(#clippath-4);
      }

      .st2 {
        fill: #1d1d1b;
      }

      .st3 {
        fill: #fff;
      }

      .st4 {
        fill: #f2b825;
      }

      .st5 {
        fill: none;
      }

      .st6 {
        clip-path: url(#clippath-1);
      }

      .st7 {
        fill: #8e140b;
      }

      .st8 {
        clip-path: url(#clippath-3);
      }

      .st9 {
        clip-path: url(#clippath-2);
      }

      .st10 {
        fill: #e40524;
      }

      .st11 {
        clip-path: url(#clippath);
      }

      .st12 {
        fill: #991914;
      }
    </style>
    <clipPath id="clippath">
      <rect class="st5" width="141.732" height="141.732"/>
    </clipPath>
    <clipPath id="clippath-1">
      <path class="st5" d="M.708,70.866c0,38.747,31.411,70.158,70.158,70.158s70.158-31.411,70.158-70.158S109.613.707,70.866.707.708,32.118.708,70.866"/>
    </clipPath>
    <clipPath id="clippath-2">
      <rect class="st5" width="141.732" height="141.732"/>
    </clipPath>
    <clipPath id="clippath-3">
      <rect class="st5" x="37.372" y="108.686" width="66.987" height="13.349"/>
    </clipPath>
    <clipPath id="clippath-4">
      <rect class="st5" width="141.732" height="141.732"/>
    </clipPath>
    <clipPath id="clippath-6">
      <rect class="st5" width="141.732" height="141.732"/>
    </clipPath>
  </defs>
  <g class="st11">
    <g class="st6">
      <rect class="st7" x="-19.875" y="42.9" width="182.961" height="55.891"/>
      <rect class="st4" x="-19.875" y="98.757" width="182.961" height="56.724"/>
      <rect class="st2" x="-19.875" y="-13.789" width="182.961" height="56.726"/>
    </g>
    <g class="st9">
      <path class="st3" d="M132.816,70.866c0,34.214-27.736,61.95-61.95,61.95S8.916,105.08,8.916,70.866,36.652,8.916,70.866,8.916s61.95,27.736,61.95,61.95"/>
      <path class="st2" d="M59.887,123.146v.031h-.437v-.05c0-.1-.012-.461-.404-.461-.352,0-.501.253-.501,1.087,0,.877.154,1.105.465,1.105.356,0,.481-.25.481-.823v-.016h-.485v-.331h.922v1.446h-.348v-.319h-.008c-.138.289-.332.373-.631.373-.607,0-.857-.403-.857-1.423,0-.999.299-1.431.958-1.431.627,0,.845.413.845.812"/>
      <path class="st2" d="M61.836,123.326c.142-.227.319-.314.55-.314.356,0,.53.195.53.549v1.573h-.437v-1.419c0-.243-.065-.373-.263-.373-.194,0-.348.15-.348.4v1.392h-.436v-1.423c0-.258-.077-.369-.267-.369-.203,0-.344.162-.344.4v1.392h-.437v-2.069h.413v.242h.012c.105-.18.311-.295.522-.295.234,0,.42.08.505.314"/>
      <path class="st2" d="M63.86,122.389v.919h.009c.08-.184.254-.296.493-.296.356,0,.671.169.671,1.061,0,.762-.239,1.115-.712,1.115-.234,0-.4-.103-.477-.308h-.008v.254h-.412v-2.745h.436ZM64.204,124.858c.295,0,.368-.266.368-.766,0-.565-.093-.75-.344-.75-.339,0-.392.3-.392.778,0,.461.073.738.368.738"/>
      <polygon class="st2" points="65.926 122.389 65.926 123.489 66.775 123.489 66.775 122.389 67.236 122.389 67.236 125.134 66.775 125.134 66.775 123.858 65.926 123.858 65.926 125.134 65.465 125.134 65.465 122.389 65.926 122.389"/>
      <path class="st2" d="M70.281,122.946c0,.277-.166.449-.396.608l-.106.073.506.676c.077-.126.113-.273.113-.434v-.039h.364v.02c0,.269-.109.576-.247.761l.393.523h-.49l-.173-.235c-.235.207-.457.288-.728.288-.684,0-.85-.484-.85-.761,0-.292.158-.538.405-.715l.182-.131-.041-.058c-.113-.157-.255-.353-.255-.549,0-.381.291-.584.688-.584.198,0,.635.091.635.557M69.593,124.838c.154,0,.308-.066.449-.212l-.586-.784-.085.069c-.154.119-.267.269-.267.488,0,.243.214.439.489.439M69.581,123.373l.097-.085c.158-.139.215-.25.215-.357,0-.147-.082-.258-.279-.258-.094,0-.267.046-.267.238,0,.115.056.25.234.462"/>
      <path class="st2" d="M74.007,123.185v.062h-.461v-.04c0-.365-.138-.542-.409-.542-.359,0-.497.224-.497,1.085,0,.888.15,1.108.493,1.108.288,0,.429-.22.429-.651v-.057h.461v.042c0,.65-.323.996-.89.996-.691,0-.954-.389-.954-1.427,0-1.022.255-1.427.958-1.427.64,0,.87.343.87.851"/>
      <path class="st2" d="M75.923,124.096c0,.542-.141,1.092-.812,1.092-.667,0-.809-.554-.809-1.092,0-.546.122-1.084.809-1.084.651,0,.812.472.812,1.084M75.111,124.88c.323,0,.376-.262.376-.776,0-.508-.073-.786-.38-.786-.315,0-.368.351-.368.782,0,.518.057.78.372.78"/>
      <rect class="st2" x="76.372" y="124.626" width=".461" height=".508"/>
      <polygon class="st2" points="78.895 122.389 78.895 123.584 78.902 123.584 79.775 122.389 80.281 122.389 79.448 123.546 80.37 125.134 79.848 125.134 79.148 123.9 78.895 124.245 78.895 125.134 78.433 125.134 78.433 122.389 78.895 122.389"/>
      <path class="st2" d="M82.335,123.146v.031h-.437v-.05c0-.1-.012-.461-.404-.461-.352,0-.501.253-.501,1.087,0,.877.154,1.105.465,1.105.356,0,.481-.25.481-.823v-.016h-.485v-.331h.922v1.446h-.348v-.319h-.008c-.138.289-.332.373-.631.373-.607,0-.857-.403-.857-1.423,0-.999.299-1.431.958-1.431.627,0,.845.413.845.812"/>
    </g>
    <g class="st8">
      <path class="st2" d="M42.084,109.128h1.292c1.425,0,1.589.956,1.589,2.261,0,1.298-.158,2.261-1.583,2.261h-1.298v-4.522ZM42.806,113.105h.602c.627,0,.835-.469.835-1.716,0-1.19-.177-1.716-.835-1.716h-.602v3.432Z"/>
      <polygon class="st2" points="48.425 109.128 48.425 109.736 46.703 109.736 46.703 110.99 48.324 110.99 48.324 111.598 46.703 111.598 46.703 113.042 48.476 113.042 48.476 113.649 45.981 113.649 45.981 109.128 48.425 109.128"/>
      <path class="st2" d="M50.068,109.128v3.242c0,.571.222.823.665.823.437,0,.658-.252.658-.823v-3.242h.722v3.191c0,.969-.449,1.419-1.38,1.419-.969,0-1.387-.481-1.387-1.424v-3.186h.722Z"/>
      <polygon class="st2" points="55.7 109.128 55.7 109.736 54.642 109.736 54.642 113.649 53.92 113.649 53.92 109.736 52.844 109.736 52.844 109.128 55.7 109.128"/>
      <path class="st2" d="M59.071,110.211v.12h-.722v-.076c0-.31-.076-.671-.633-.671-.361,0-.608.222-.608.652,0,.38.19.589.678.767l.487.177c.513.19.919.456.919,1.197,0,.898-.514,1.361-1.495,1.361-.899,0-1.374-.481-1.374-1.399v-.089h.722v.102c0,.614.291.841.741.841.443,0,.683-.316.683-.658,0-.469-.215-.659-.62-.798l-.494-.171c-.608-.209-.969-.551-.969-1.248,0-.797.532-1.279,1.413-1.279.835,0,1.272.38,1.272,1.172"/>
      <path class="st2" d="M62.906,110.439v.102h-.722v-.064c0-.601-.215-.892-.64-.892-.563,0-.779.367-.779,1.786,0,1.463.235,1.823.773,1.823.45,0,.671-.36.671-1.07v-.095h.722v.069c0,1.07-.506,1.641-1.393,1.641-1.083,0-1.494-.64-1.494-2.35,0-1.684.399-2.349,1.5-2.349,1.001,0,1.362.563,1.362,1.399"/>
      <polygon class="st2" points="64.536 109.128 64.536 110.94 65.866 110.94 65.866 109.128 66.587 109.128 66.587 113.649 65.866 113.649 65.866 111.547 64.536 111.547 64.536 113.649 63.814 113.649 63.814 109.128 64.536 109.128"/>
      <polygon class="st2" points="70.154 109.128 70.154 109.736 68.432 109.736 68.432 110.99 70.053 110.99 70.053 111.598 68.432 111.598 68.432 113.042 70.205 113.042 70.205 113.649 67.71 113.649 67.71 109.128 70.154 109.128"/>
      <path class="st2" d="M73.716,110.211v.12h-.722v-.076c0-.31-.076-.671-.633-.671-.361,0-.608.222-.608.652,0,.38.19.589.678.767l.487.177c.513.19.919.456.919,1.197,0,.898-.514,1.361-1.495,1.361-.899,0-1.374-.481-1.374-1.399v-.089h.722v.102c0,.614.291.841.741.841.443,0,.683-.316.683-.658,0-.469-.215-.659-.62-.798l-.494-.171c-.608-.209-.969-.551-.969-1.248,0-.797.532-1.279,1.413-1.279.835,0,1.272.38,1.272,1.172"/>
      <rect class="st2" x="76.765" y="109.129" width=".722" height="4.521"/>
      <polygon class="st2" points="79.34 109.128 80.651 112.497 80.663 112.497 80.663 109.128 81.347 109.128 81.347 113.649 80.467 113.649 79.156 110.192 79.144 110.192 79.144 113.649 78.46 113.649 78.46 109.128 79.34 109.128"/>
      <path class="st2" d="M84.934,110.211v.12h-.722v-.076c0-.31-.076-.671-.633-.671-.361,0-.608.222-.608.652,0,.38.19.589.678.767l.487.177c.513.19.919.456.919,1.197,0,.898-.514,1.361-1.495,1.361-.899,0-1.374-.481-1.374-1.399v-.089h.722v.102c0,.614.291.841.741.841.443,0,.683-.316.683-.658,0-.469-.215-.659-.62-.798l-.494-.171c-.608-.209-.969-.551-.969-1.248,0-.797.532-1.279,1.413-1.279.835,0,1.272.38,1.272,1.172"/>
      <polygon class="st2" points="88.414 109.128 88.414 109.736 87.356 109.736 87.356 113.649 86.635 113.649 86.635 109.736 85.558 109.736 85.558 109.128 88.414 109.128"/>
      <rect class="st2" x="89.049" y="109.129" width=".722" height="4.521"/>
      <polygon class="st2" points="93.265 109.128 93.265 109.736 92.207 109.736 92.207 113.649 91.486 113.649 91.486 109.736 90.409 109.736 90.409 109.128 93.265 109.128"/>
      <path class="st2" d="M94.598,109.128v3.242c0,.571.222.823.665.823.437,0,.658-.252.658-.823v-3.242h.722v3.191c0,.969-.449,1.419-1.38,1.419-.969,0-1.387-.481-1.387-1.424v-3.186h.722Z"/>
      <polygon class="st2" points="100.109 109.128 100.109 109.736 99.051 109.736 99.051 113.649 98.329 113.649 98.329 109.736 97.253 109.736 97.253 109.128 100.109 109.128"/>
      <polygon class="st2" points="44.497 115.763 44.497 116.371 42.807 116.371 42.807 117.625 44.396 117.625 44.396 118.233 42.807 118.233 42.807 120.284 42.084 120.284 42.084 115.763 44.497 115.763"/>
      <path class="st2" d="M45.722,115.763v3.243c0,.57.222.823.665.823.437,0,.658-.253.658-.823v-3.243h.723v3.192c0,.968-.45,1.419-1.381,1.419-.969,0-1.387-.482-1.387-1.425v-3.186h.722ZM46.166,115.282h-.608v-.684h.608v.684ZM47.216,115.282h-.607v-.684h.607v.684Z"/>
      <path class="st2" d="M50.087,115.763c.748,0,1.153.425,1.153,1.165,0,.507-.196,1.02-.754,1.109v.012c.564.051.697.437.709.963l.013.595c.006.387.025.525.228.678h-.817c-.114-.153-.133-.393-.139-.785l-.007-.362c-.006-.531-.12-.816-.658-.816h-.595v1.963h-.722v-4.522h1.589ZM49.815,117.777c.266,0,.703-.127.703-.74,0-.456-.19-.729-.678-.729h-.62v1.469h.595Z"/>
      <path class="st2" d="M56.237,116.846v.12h-.722v-.076c0-.31-.076-.671-.633-.671-.361,0-.608.222-.608.652,0,.38.19.589.678.767l.487.177c.513.19.919.456.919,1.197,0,.898-.514,1.361-1.495,1.361-.899,0-1.374-.481-1.374-1.399v-.089h.722v.102c0,.614.291.841.741.841.443,0,.683-.316.683-.658,0-.469-.215-.659-.62-.798l-.494-.171c-.608-.209-.969-.551-.969-1.248,0-.797.532-1.279,1.413-1.279.835,0,1.272.38,1.272,1.172"/>
      <polygon class="st2" points="59.425 115.763 59.425 116.371 57.703 116.371 57.703 117.625 59.324 117.625 59.324 118.233 57.703 118.233 57.703 119.677 59.476 119.677 59.476 120.284 56.981 120.284 56.981 115.763 59.425 115.763"/>
      <path class="st2" d="M61.658,115.763c.748,0,1.153.425,1.153,1.165,0,.507-.196,1.02-.754,1.109v.012c.564.051.697.437.709.963l.013.595c.006.387.025.525.228.678h-.817c-.114-.153-.133-.393-.139-.785l-.007-.362c-.006-.531-.12-.816-.658-.816h-.595v1.963h-.722v-4.522h1.589ZM61.386,117.777c.266,0,.703-.127.703-.74,0-.456-.19-.729-.678-.729h-.62v1.469h.595Z"/>
      <polygon class="st2" points="63.864 115.763 64.631 119.372 64.643 119.372 65.454 115.763 66.22 115.763 65.08 120.284 64.162 120.284 63.098 115.763 63.864 115.763"/>
      <rect class="st2" x="66.565" y="115.764" width=".722" height="4.521"/>
      <path class="st2" d="M70.8,117.074v.102h-.722v-.064c0-.601-.215-.892-.64-.892-.563,0-.779.367-.779,1.786,0,1.463.235,1.823.773,1.823.45,0,.671-.36.671-1.07v-.095h.722v.069c0,1.07-.506,1.641-1.393,1.641-1.083,0-1.494-.64-1.494-2.35,0-1.684.399-2.349,1.5-2.349,1.001,0,1.362.563,1.362,1.399"/>
      <polygon class="st2" points="73.817 115.763 73.817 116.371 72.095 116.371 72.095 117.625 73.716 117.625 73.716 118.233 72.095 118.233 72.095 119.677 73.868 119.677 73.868 120.284 71.373 120.284 71.373 115.763 73.817 115.763"/>
      <rect class="st2" x="74.371" y="118.132" width="1.659" height=".646"/>
      <path class="st2" d="M79.612,118.023c0,.754-.126,1.419-.355,1.792l.462.488-.43.386-.462-.468c-.184.107-.424.152-.71.152-1.032,0-1.494-.729-1.494-2.35,0-1.639.468-2.349,1.494-2.349,1.033,0,1.495.716,1.495,2.349M78.111,119.828c.121,0,.209-.013.266-.044l-.342-.336.412-.411.297.297c.096-.297.146-.74.146-1.329,0-1.521-.336-1.786-.779-1.786-.506,0-.766.443-.766,1.786,0,1.481.31,1.823.766,1.823"/>
      <path class="st2" d="M80.957,115.763v3.242c0,.571.222.823.665.823.437,0,.658-.252.658-.823v-3.242h.722v3.191c0,.969-.449,1.419-1.38,1.419-.969,0-1.387-.481-1.387-1.424v-3.186h.722Z"/>
      <path class="st2" d="M85.513,115.763l1.191,4.522h-.754l-.278-1.109h-1.324l-.291,1.109h-.754l1.286-4.522h.924ZM84.481,118.6h1.07l-.519-2.229h-.012l-.539,2.229Z"/>
      <polygon class="st2" points="87.701 115.763 87.701 119.677 89.449 119.677 89.449 120.284 86.979 120.284 86.979 115.763 87.701 115.763"/>
      <rect class="st2" x="89.882" y="115.764" width=".722" height="4.521"/>
      <polygon class="st2" points="93.883 115.763 93.883 116.371 92.825 116.371 92.825 120.284 92.104 120.284 92.104 116.371 91.027 116.371 91.027 115.763 93.883 115.763"/>
      <path class="st2" d="M96.115,115.763l1.19,4.522h-.753l-.279-1.109h-1.323l-.291,1.109h-.754l1.285-4.522h.925ZM95.418,115.282h-.608v-.684h.608v.684ZM95.083,118.6h1.07l-.519-2.228h-.013l-.538,2.228ZM96.47,115.282h-.608v-.684h.608v.684Z"/>
      <polygon class="st2" points="100.184 115.763 100.184 116.371 99.126 116.371 99.126 120.284 98.404 120.284 98.404 116.371 97.328 116.371 97.328 115.763 100.184 115.763"/>
      <rect class="st2" x="37.373" y="109.092" width="1.807" height="5.613"/>
      <rect class="st7" x="37.373" y="114.704" width="1.807" height="5.613"/>
      <rect class="st4" x="102.552" y="109.092" width="1.807" height="11.225"/>
    </g>
    <rect class="st10" x="55.825" y="14.457" width="30.313" height="18.878"/>
    <g class="st1">
      <path class="st3" d="M66.305,20.289h-5.716v8.545h2.676v-5.971h1.825c.375,0,.568.183.568.57v5.401h2.676v-6.513c0-1.202-.827-2.032-2.029-2.032M79.9,20.283l-1.779,5.112-1.775-5.112h-3.983v-3.273l-2.677.529v9.316c0,1.291.802,2.094,2.098,2.094h2.179v-2.506h-1.028c-.345,0-.572-.127-.572-.597v-2.983h2.087l2.329,5.977h2.687l3.337-8.557h-2.903Z"/>
      <rect class="st2" x="16.083" y="36.787" width="109.07" height="2.479"/>
      <rect class="st4" x="13.297" y="102.655" width="115.228" height="2.479"/>
    </g>
  </g>
  <g>
    <path class="st2" d="M17.988,94.451h.638v1.741h.011l1.209-1.741h.7l-1.154,1.686,1.277,2.312h-.722l-.969-1.798-.353.504v1.294h-.638v-3.998Z"/>
    <path class="st2" d="M22.546,98.096h-.017c-.151.269-.437.431-.773.431-.448,0-.75-.207-.75-.985v-2.105h.605v2.161c0,.336.151.448.409.448s.493-.168.493-.504v-2.105h.605v3.013h-.571v-.353Z"/>
    <path class="st2" d="M23.812,95.436h.571v.353h.017c.151-.269.437-.431.772-.431.459,0,.75.207.75.817v2.273h-.605v-2.066c0-.392-.117-.543-.42-.543-.246,0-.481.195-.481.588v2.021h-.605v-3.013Z"/>
    <path class="st2" d="M28.174,98.08h-.011c-.078.195-.229.447-.661.447-.706,0-.985-.588-.985-1.624,0-1.338.47-1.545.929-1.545.325,0,.571.162.684.431h.011v-1.338h.605v3.998h-.571v-.369ZM27.625,95.839c-.347,0-.47.279-.47,1.092,0,.684.089,1.114.51,1.114.414,0,.509-.426.509-1.069,0-.723-.084-1.137-.549-1.137Z"/>
    <path class="st2" d="M29.96,97.021v.174c0,.402.05.918.504.918.431,0,.481-.493.481-.672h.571c0,.666-.403,1.086-1.058,1.086-.493,0-1.104-.146-1.104-1.54,0-.789.168-1.629,1.115-1.629.84,0,1.064.504,1.064,1.344v.319h-1.574ZM30.929,96.606v-.162c0-.381-.123-.672-.465-.672-.386,0-.504.381-.504.772v.062h.969Z"/>
    <path class="st2" d="M32.138,95.436h.571v.353h.017c.151-.269.437-.431.772-.431.459,0,.75.207.75.817v2.273h-.605v-2.066c0-.392-.117-.543-.42-.543-.246,0-.481.195-.481.588v2.021h-.605v-3.013Z"/>
    <path class="st2" d="M36.479,98.096h-.017c-.151.269-.437.431-.773.431-.448,0-.75-.207-.75-.985v-2.105h.605v2.161c0,.336.151.448.409.448s.493-.168.493-.504v-2.105h.605v3.013h-.571v-.353Z"/>
    <path class="st2" d="M37.744,95.436h.605v.471h.011c.134-.336.358-.549.7-.549.067,0,.106.011.146.022v.615c-.045-.011-.151-.033-.252-.033-.274,0-.605.123-.605.684v1.803h-.605v-3.013Z"/>
    <path class="st2" d="M39.514,95.436h.415v-.856h.604v.856h.493v.448h-.493v1.797c0,.235.067.319.274.319.09,0,.163-.005.218-.017v.448c-.128.033-.296.05-.487.05-.409,0-.61-.111-.61-.728v-1.87h-.415v-.448Z"/>
    <path class="st2" d="M41.983,97.021v.174c0,.402.05.918.504.918.431,0,.481-.493.481-.672h.571c0,.666-.403,1.086-1.058,1.086-.493,0-1.104-.146-1.104-1.54,0-.789.168-1.629,1.115-1.629.84,0,1.064.504,1.064,1.344v.319h-1.574ZM42.952,96.606v-.162c0-.381-.123-.672-.465-.672-.386,0-.504.381-.504.772v.062h.969Z"/>
    <path class="st2" d="M44.184,94.406h.604v.604h-.604v-.604ZM44.184,95.436h.604v3.013h-.604v-3.013Z"/>
    <path class="st2" d="M45.505,94.451h.604v3.998h-.604v-3.998Z"/>
    <path class="st2" d="M48.445,96.321c.224,0,.403.179.403.403s-.179.403-.403.403-.403-.18-.403-.403.18-.403.403-.403Z"/>
    <path class="st2" d="M52.298,95.447c0-.229-.106-.515-.426-.515-.599,0-.633.789-.633,1.366l.017.011c.157-.285.425-.42.772-.42.543,0,.98.393.98,1.182,0,.913-.375,1.456-1.215,1.456-1.002,0-1.193-.762-1.193-1.898,0-1.187.218-2.145,1.266-2.145.694,0,1.069.313,1.069.963h-.638ZM51.844,98.08c.392,0,.526-.387.526-.852,0-.549-.163-.856-.526-.856-.465,0-.549.408-.549.885,0,.459.173.823.549.823Z"/>
    <path class="st2" d="M55.412,94.451v2.867c0,.504.202.728.588.728.381,0,.583-.224.583-.728v-2.867h.638v2.816c0,.924-.459,1.26-1.221,1.26-.767,0-1.227-.336-1.227-1.26v-2.816h.639Z"/>
    <path class="st2" d="M57.937,95.436h.571v.353h.017c.151-.269.437-.431.772-.431.459,0,.75.207.75.817v2.273h-.605v-2.066c0-.392-.117-.543-.42-.543-.246,0-.481.195-.481.588v2.021h-.605v-3.013Z"/>
    <path class="st2" d="M60.502,95.436h.415v-.856h.604v.856h.493v.448h-.493v1.797c0,.235.067.319.274.319.09,0,.163-.005.218-.017v.448c-.128.033-.296.05-.487.05-.409,0-.61-.111-.61-.728v-1.87h-.415v-.448Z"/>
    <path class="st2" d="M62.971,97.021v.174c0,.402.05.918.504.918.431,0,.481-.493.481-.672h.571c0,.666-.403,1.086-1.058,1.086-.493,0-1.104-.146-1.104-1.54,0-.789.168-1.629,1.115-1.629.84,0,1.064.504,1.064,1.344v.319h-1.574ZM63.94,96.606v-.162c0-.381-.123-.672-.465-.672-.386,0-.504.381-.504.772v.062h.969Z"/>
    <path class="st2" d="M65.149,95.436h.605v.471h.011c.134-.336.358-.549.7-.549.067,0,.106.011.146.022v.615c-.045-.011-.151-.033-.252-.033-.274,0-.605.123-.605.684v1.803h-.605v-3.013Z"/>
    <path class="st2" d="M67.064,95.436h.571v.353h.017c.151-.269.437-.431.772-.431.459,0,.75.207.75.817v2.273h-.605v-2.066c0-.392-.117-.543-.42-.543-.246,0-.481.195-.481.588v2.021h-.605v-3.013Z"/>
    <path class="st2" d="M70.385,97.021v.174c0,.402.05.918.504.918.431,0,.482-.493.482-.672h.571c0,.666-.403,1.086-1.059,1.086-.493,0-1.104-.146-1.104-1.54,0-.789.168-1.629,1.115-1.629.839,0,1.064.504,1.064,1.344v.319h-1.574ZM71.354,96.606v-.162c0-.381-.124-.672-.465-.672-.386,0-.504.381-.504.772v.062h.969Z"/>
    <path class="st2" d="M72.569,94.451h.604v1.311l.018.011c.168-.258.431-.414.739-.414.459,0,.75.207.75.817v2.273h-.604v-2.066c0-.392-.118-.543-.42-.543-.247,0-.482.195-.482.588v2.021h-.604v-3.998Z"/>
    <path class="st2" d="M75.387,95.436h.571v.353h.017c.151-.269.437-.431.723-.431.431,0,.61.207.699.459.174-.291.398-.459.762-.459.426,0,.734.218.734.801v2.29h-.605v-2.066c0-.392-.117-.543-.363-.543s-.482.195-.482.588v2.021h-.604v-2.066c0-.392-.117-.543-.369-.543-.241,0-.477.195-.477.588v2.021h-.604v-3.013Z"/>
    <path class="st2" d="M80.117,97.021v.174c0,.402.051.918.505.918.431,0,.481-.493.481-.672h.571c0,.666-.403,1.086-1.059,1.086-.493,0-1.104-.146-1.104-1.54,0-.789.168-1.629,1.114-1.629.84,0,1.064.504,1.064,1.344v.319h-1.574ZM81.087,96.606v-.162c0-.381-.124-.672-.465-.672-.387,0-.505.381-.505.772v.062h.97Z"/>
    <path class="st2" d="M82.302,95.436h.571v.353h.017c.151-.269.438-.431.773-.431.459,0,.75.207.75.817v2.273h-.604v-2.066c0-.392-.118-.543-.42-.543-.247,0-.482.195-.482.588v2.021h-.604v-3.013Z"/>
    <path class="st2" d="M86.132,94.372h.499l-1.271,4.155h-.498l1.271-4.155Z"/>
    <path class="st2" d="M87.129,94.451h.997l.706,2.962h.011l.694-2.962h.975v3.998h-.604v-3.326h-.012l-.807,3.326h-.537l-.807-3.326h-.011v3.326h-.605v-3.998Z"/>
    <path class="st2" d="M93.244,97.822c0,.111.067.213.157.213.039,0,.078-.006.101-.018v.393c-.072.033-.179.072-.297.072-.269,0-.492-.106-.51-.397h-.011c-.162.297-.397.442-.75.442-.482,0-.784-.269-.784-.846,0-.672.291-.812.7-.946l.47-.129c.219-.062.354-.123.354-.386,0-.274-.096-.448-.415-.448-.403,0-.459.285-.459.577h-.571c0-.639.264-.991,1.059-.991.532,0,.957.207.957.739v1.725ZM92.674,96.858c-.157.124-.493.196-.673.28-.173.084-.246.264-.246.487,0,.252.123.454.375.454.364,0,.544-.274.544-.717v-.505Z"/>
    <path class="st2" d="M93.989,95.436h.604v.471h.012c.135-.336.358-.549.7-.549.067,0,.106.011.146.022v.615c-.045-.011-.151-.033-.252-.033-.274,0-.605.123-.605.684v1.803h-.604v-3.013Z"/>
    <path class="st2" d="M95.904,94.451h.605v2.245h.011l.913-1.26.699-.006-.906,1.165,1.024,1.854h-.661l-.739-1.372-.341.414v.958h-.605v-3.998Z"/>
    <path class="st2" d="M99.073,97.021v.174c0,.402.051.918.505.918.431,0,.481-.493.481-.672h.571c0,.666-.403,1.086-1.059,1.086-.493,0-1.104-.146-1.104-1.54,0-.789.168-1.629,1.114-1.629.84,0,1.064.504,1.064,1.344v.319h-1.574ZM100.043,96.606v-.162c0-.381-.124-.672-.465-.672-.387,0-.505.381-.505.772v.062h.97Z"/>
    <path class="st2" d="M101.258,95.436h.571v.353h.017c.151-.269.438-.431.773-.431.459,0,.75.207.75.817v2.273h-.604v-2.066c0-.392-.118-.543-.42-.543-.247,0-.481.195-.481.588v2.021h-.605v-3.013Z"/>
    <path class="st2" d="M105.676,96.321c.225,0,.403.179.403.403s-.179.403-.403.403-.403-.18-.403-.403.18-.403.403-.403Z"/>
    <path class="st2" d="M109.522,98.08h-.011c-.079.195-.229.447-.661.447-.706,0-.985-.588-.985-1.624,0-1.338.47-1.545.93-1.545.324,0,.571.162.683.431h.012v-1.338h.604v3.998h-.571v-.369ZM108.974,95.839c-.347,0-.471.279-.471,1.092,0,.684.09,1.114.51,1.114.415,0,.51-.426.51-1.069,0-.723-.084-1.137-.549-1.137Z"/>
    <path class="st2" d="M110.8,94.406h.604v.604h-.604v-.604ZM110.8,95.436h.604v3.013h-.604v-3.013Z"/>
    <path class="st2" d="M113.427,96.315v-.078c0-.241-.084-.465-.398-.465-.24,0-.431.112-.431.392,0,.235.106.331.426.442l.386.135c.448.151.655.392.655.868,0,.644-.47.918-1.08.918-.762,0-.991-.353-.991-.935v-.112h.537v.095c0,.348.123.538.471.538.33,0,.492-.168.492-.442,0-.224-.117-.37-.33-.442l-.493-.174c-.453-.156-.644-.387-.644-.868,0-.565.409-.828,1.03-.828.768,0,.94.447.94.823v.134h-.57Z"/>
    <path class="st2" d="M116.153,98.096h-.012c-.111.269-.358.431-.688.431-.471,0-.924-.324-.924-1.545,0-1.036.279-1.624.985-1.624.432,0,.582.252.661.447h.011v-.369h.571v3.998h-.604v-1.338ZM115.677,95.839c-.42,0-.51.431-.51,1.114,0,.812.163,1.092.471,1.092.465,0,.549-.414.549-1.137,0-.644-.095-1.069-.51-1.069Z"/>
    <path class="st2" d="M117.514,97.71h.639v.739h-.639v-.739Z"/>
    <path class="st2" d="M120.414,98.08h-.011c-.079.195-.229.447-.661.447-.706,0-.985-.588-.985-1.624,0-1.338.47-1.545.93-1.545.324,0,.571.162.683.431h.012v-1.338h.604v3.998h-.571v-.369ZM119.865,95.839c-.347,0-.471.279-.471,1.092,0,.684.09,1.114.51,1.114.415,0,.51-.426.51-1.069,0-.723-.084-1.137-.549-1.137Z"/>
    <path class="st2" d="M122.2,97.021v.174c0,.402.051.918.505.918.431,0,.481-.493.481-.672h.571c0,.666-.403,1.086-1.059,1.086-.493,0-1.104-.146-1.104-1.54,0-.789.168-1.629,1.114-1.629.84,0,1.064.504,1.064,1.344v.319h-1.574ZM123.17,96.606v-.162c0-.381-.124-.672-.465-.672-.387,0-.505.381-.505.772v.062h.97Z"/>
  </g>
  <g>
    <path class="st2" d="M57.887,76.867h-1.359v-1.06h.209c1.27,0,1.569-.659,1.649-1.109h1.179v7.076h-1.679v-4.907Z"/>
    <path class="st2" d="M61.208,79.975h1.559v1.799h-1.559v-1.799Z"/>
  </g>
  <g>
    <path class="st2" d="M65.047,74.638h2.599c1.769,0,2.109,1.279,2.109,2.169,0,1.279-.609,2.179-2.289,2.179h-.74v2.788h-1.679v-7.136ZM66.727,77.747h.46c.669,0,.83-.42.83-.9,0-.549-.18-.969-.86-.969h-.43v1.869Z"/>
    <path class="st2" d="M70.567,74.638h1.619v7.136h-1.619v-7.136Z"/>
    <path class="st2" d="M73.107,78.026c.01-.739.229-1.189.609-1.449s.84-.35,1.51-.35c1.329,0,1.919.46,1.919,1.599v2.779c0,.409,0,.929.189,1.169h-1.56c-.06-.189-.079-.41-.09-.62h-.02c-.22.48-.729.76-1.27.76-.909,0-1.439-.479-1.439-1.648,0-.63.26-1.16.66-1.38.399-.22.999-.319,1.449-.439.489-.13.579-.21.579-.62,0-.329-.149-.539-.51-.539-.449,0-.579.27-.589.739h-1.439ZM74.986,80.794c.34,0,.649-.2.649-.739,0-.45.01-.729.01-.95-.51.271-.729.28-.879.4-.17.13-.25.3-.25.6,0,.43.17.689.47.689Z"/>
    <path class="st2" d="M78.427,77.486h-.669v-1.119h.669v-1.589h1.619v1.589h.75v1.119h-.75v2.729c0,.38.141.5.521.5.069,0,.159-.01.229-.02v1.079c-.31.04-.62.06-.93.06-1.119,0-1.439-.199-1.439-1.459v-2.889Z"/>
    <path class="st2" d="M81.348,80.535l2.039-2.929h-1.949v-1.239h3.868v1.239l-2.099,2.929h2.148v1.239h-4.008v-1.239Z"/>
  </g>
  <g>
    <path class="st2" d="M19.136,84.065h.919l.752,4.438h.016l.752-4.438h.959l.768,4.462h.016l.744-4.462h.904l-1.136,5.709h-1.055l-.736-4.302h-.016l-.728,4.302h-1.055l-1.104-5.709Z"/>
    <path class="st2" d="M28.271,88.878c0,.16.096.304.224.304.056,0,.112-.008.144-.023v.56c-.104.048-.256.104-.424.104-.384,0-.704-.151-.728-.567h-.016c-.231.424-.567.632-1.071.632-.688,0-1.119-.384-1.119-1.208,0-.959.416-1.159.999-1.351l.672-.185c.312-.088.504-.176.504-.552,0-.392-.136-.64-.592-.64-.576,0-.656.408-.656.824h-.815c0-.912.375-1.415,1.511-1.415.759,0,1.367.295,1.367,1.055v2.463ZM25.84,83.889h.768v.863h-.768v-.863ZM27.455,87.503c-.224.176-.704.279-.959.399-.248.12-.352.376-.352.695,0,.36.176.648.536.648.52,0,.776-.393.776-1.023v-.72ZM27.167,83.889h.768v.863h-.768v-.863Z"/>
    <path class="st2" d="M29.264,85.472h.864v.672h.016c.192-.479.512-.783,1-.783.096,0,.152.016.208.031v.88c-.064-.017-.216-.048-.359-.048-.392,0-.864.176-.864.976v2.574h-.864v-4.302Z"/>
    <path class="st2" d="M31.952,85.472h.816v.504h.024c.216-.384.624-.615,1.031-.615.616,0,.872.295,1,.655.248-.416.568-.655,1.087-.655.608,0,1.047.312,1.047,1.143v3.271h-.863v-2.95c0-.56-.168-.775-.52-.775s-.688.279-.688.839v2.887h-.864v-2.95c0-.56-.167-.775-.527-.775-.344,0-.68.279-.68.839v2.887h-.864v-4.302Z"/>
    <path class="st2" d="M38.647,87.735v.248c0,.575.072,1.312.72,1.312.616,0,.688-.704.688-.96h.816c0,.952-.576,1.552-1.511,1.552-.704,0-1.575-.208-1.575-2.199,0-1.127.24-2.326,1.591-2.326,1.2,0,1.52.719,1.52,1.918v.456h-2.247ZM40.031,87.143v-.231c0-.544-.176-.96-.664-.96-.552,0-.72.544-.72,1.104v.088h1.383Z"/>
    <path class="st2" d="M41.696,85.472h.815v.527h.016c.176-.383.496-.639.968-.639.983,0,1.383.839,1.383,2.318,0,1.807-.736,2.207-1.328,2.207-.463,0-.815-.232-.975-.616h-.016v1.911h-.863v-5.709ZM43.247,89.199c.496,0,.72-.368.72-1.56,0-.976-.128-1.591-.728-1.591-.592,0-.728.607-.728,1.526,0,1.032.128,1.624.735,1.624Z"/>
    <path class="st2" d="M47.847,89.27h-.024c-.216.384-.624.616-1.103.616-.64,0-1.072-.296-1.072-1.407v-3.007h.864v3.086c0,.48.216.641.583.641s.704-.24.704-.72v-3.007h.864v4.302h-.815v-.504Z"/>
    <path class="st2" d="M49.607,85.472h.816v.504h.024c.216-.384.624-.615,1.031-.615.616,0,.872.295,1,.655.248-.416.568-.655,1.087-.655.607,0,1.047.312,1.047,1.143v3.271h-.863v-2.95c0-.56-.168-.775-.52-.775s-.688.279-.688.839v2.887h-.863v-2.95c0-.56-.168-.775-.528-.775-.344,0-.68.279-.68.839v2.887h-.864v-4.302Z"/>
    <path class="st2" d="M55.56,85.472h.816v.527h.016c.176-.383.496-.639.967-.639.983,0,1.383.839,1.383,2.318,0,1.807-.736,2.207-1.327,2.207-.464,0-.816-.232-.976-.616h-.016v1.911h-.864v-5.709ZM57.111,89.199c.496,0,.72-.368.72-1.56,0-.976-.128-1.591-.728-1.591-.592,0-.728.607-.728,1.526,0,1.032.128,1.624.735,1.624Z"/>
    <path class="st2" d="M60.255,87.735v.248c0,.575.072,1.312.72,1.312.616,0,.688-.704.688-.96h.816c0,.952-.576,1.552-1.511,1.552-.704,0-1.575-.208-1.575-2.199,0-1.127.24-2.326,1.591-2.326,1.2,0,1.52.719,1.52,1.918v.456h-2.247ZM61.638,87.143v-.231c0-.544-.176-.96-.664-.96-.552,0-.72.544-.72,1.104v.088h1.383Z"/>
    <path class="st2" d="M63.304,85.472h.815v.504h.024c.216-.384.624-.615,1.104-.615.655,0,1.071.295,1.071,1.167v3.246h-.864v-2.95c0-.56-.168-.775-.6-.775-.352,0-.688.279-.688.839v2.887h-.863v-4.302Z"/>
    <path class="st2" d="M70.727,84.065c-.64,1.071-.912,2.23-.912,3.59,0,1.199.272,2.591.912,3.591h-.616c-.631-.832-1.159-2.127-1.159-3.591s.543-2.758,1.175-3.59h.6Z"/>
    <path class="st2" d="M71.055,86.919c0-2.039.576-2.967,1.888-2.967s1.887.928,1.887,2.967-.576,2.967-1.887,2.967-1.888-.928-1.888-2.967ZM73.918,86.896c0-1.92-.433-2.255-.976-2.255s-.976.335-.976,2.255c0,1.967.432,2.303.976,2.303s.976-.336.976-2.303Z"/>
    <path class="st2" d="M75.72,85.472h.815v.504h.023c.217-.384.624-.615,1.104-.615.656,0,1.071.295,1.071,1.167v3.246h-.863v-2.95c0-.56-.168-.775-.6-.775-.352,0-.688.279-.688.839v2.887h-.863v-4.302Z"/>
    <path class="st2" d="M79.672,84.065h.863v5.709h-.863v-5.709Z"/>
    <path class="st2" d="M81.487,84.002h.863v.863h-.863v-.863ZM81.487,85.472h.863v4.302h-.863v-4.302Z"/>
    <path class="st2" d="M83.287,85.472h.815v.504h.023c.216-.384.624-.615,1.104-.615.656,0,1.071.295,1.071,1.167v3.246h-.863v-2.95c0-.56-.168-.775-.6-.775-.352,0-.688.279-.688.839v2.887h-.863v-4.302Z"/>
    <path class="st2" d="M87.958,87.735v.248c0,.575.072,1.312.72,1.312.615,0,.688-.704.688-.96h.815c0,.952-.575,1.552-1.511,1.552-.704,0-1.575-.208-1.575-2.199,0-1.127.24-2.326,1.591-2.326,1.199,0,1.52.719,1.52,1.918v.456h-2.247ZM89.342,87.143v-.231c0-.544-.176-.96-.664-.96-.552,0-.72.544-.72,1.104v.088h1.384Z"/>
    <path class="st2" d="M91.046,87.055h2.096v.815h-2.096v-.815Z"/>
    <path class="st2" d="M95.182,84.065h1.168l1.503,5.709h-.951l-.353-1.399h-1.671l-.367,1.399h-.952l1.623-5.709ZM96.397,87.647l-.655-2.814h-.017l-.68,2.814h1.352Z"/>
    <path class="st2" d="M98.438,85.472h.815v.504h.023c.217-.384.624-.615,1.104-.615.656,0,1.071.295,1.071,1.167v3.246h-.863v-2.95c0-.56-.168-.775-.6-.775-.352,0-.688.279-.688.839v2.887h-.863v-4.302Z"/>
    <path class="st2" d="M102.375,84.065h.863v1.911h.016c.16-.384.512-.615.976-.615.656,0,1.327.295,1.327,2.206,0,1.479-.399,2.319-1.407,2.319-.615,0-.831-.36-.943-.64h-.016v.527h-.815v-5.709ZM103.918,89.199c.6,0,.728-.616.728-1.592,0-1.159-.176-1.559-.672-1.559-.663,0-.783.592-.783,1.623,0,.919.136,1.527.728,1.527Z"/>
    <path class="st2" d="M106.358,84.002h.863v.863h-.863v-.863ZM106.358,85.472h.863v4.302h-.863v-4.302Z"/>
    <path class="st2" d="M108.91,87.735v.248c0,.575.072,1.312.72,1.312.616,0,.688-.704.688-.96h.815c0,.952-.575,1.552-1.511,1.552-.704,0-1.575-.208-1.575-2.199,0-1.127.24-2.326,1.591-2.326,1.199,0,1.52.719,1.52,1.918v.456h-2.247ZM110.294,87.143v-.231c0-.544-.177-.96-.664-.96-.552,0-.72.544-.72,1.104v.088h1.384Z"/>
    <path class="st2" d="M111.615,85.472h.592v-1.224h.863v1.224h.703v.64h-.703v2.566c0,.336.096.456.392.456.128,0,.231-.008.312-.024v.64c-.184.049-.424.072-.695.072-.584,0-.871-.16-.871-1.039v-2.671h-.592v-.64Z"/>
    <path class="st2" d="M115.069,87.735v.248c0,.575.072,1.312.72,1.312.615,0,.688-.704.688-.96h.815c0,.952-.575,1.552-1.511,1.552-.704,0-1.575-.208-1.575-2.199,0-1.127.24-2.326,1.591-2.326,1.199,0,1.52.719,1.52,1.918v.456h-2.247ZM116.453,87.143v-.231c0-.544-.176-.96-.664-.96-.552,0-.72.544-.72,1.104v.088h1.384Z"/>
    <path class="st2" d="M118.118,85.472h.863v.672h.016c.192-.479.512-.783,1-.783.096,0,.151.016.208.031v.88c-.064-.017-.216-.048-.36-.048-.392,0-.863.176-.863.976v2.574h-.863v-4.302Z"/>
    <path class="st2" d="M120.351,91.246c.64-1.072.911-2.231.911-3.591,0-1.199-.271-2.59-.911-3.59h.615c.632.832,1.16,2.127,1.16,3.59s-.544,2.759-1.176,3.591h-.6Z"/>
  </g>
  <g class="st0">
    <g>
      <path class="st2" d="M34.292,41.455h2.971c2.365,0,2.486,1.87,2.486,3.927s-.121,3.928-2.486,3.928h-2.971v-7.855ZM36.339,47.836h.407c.792,0,.891-.33.891-2.454s-.099-2.453-.891-2.453h-.407v4.907Z"/>
      <path class="st2" d="M40.793,41.455h4.654v1.672h-2.607v1.342h2.442v1.606h-2.442v1.562h2.707v1.672h-4.753v-7.855Z"/>
      <path class="st2" d="M48.461,41.455v5.666c0,.759.231.957.616.957s.616-.198.616-.957v-5.666h2.046v5.148c0,2.201-.946,2.86-2.662,2.86s-2.663-.66-2.663-2.86v-5.148h2.046Z"/>
      <path class="st2" d="M53.972,43.193h-1.54v-1.738h5.127v1.738h-1.541v6.117h-2.046v-6.117Z"/>
      <path class="st2" d="M61.419,43.721v-.187c0-.462-.187-.847-.583-.847-.44,0-.638.341-.638.693,0,1.551,3.345.792,3.345,3.664,0,1.672-.979,2.42-2.784,2.42-1.694,0-2.64-.583-2.64-2.211v-.275h1.98v.187c0,.671.275.913.671.913.418,0,.66-.33.66-.759,0-1.551-3.213-.781-3.213-3.564,0-1.584.847-2.454,2.575-2.454,1.782,0,2.541.737,2.541,2.42h-1.914Z"/>
      <path class="st2" d="M67.645,43.842c0-.891-.165-1.155-.561-1.155-.627,0-.693.572-.693,2.695s.066,2.695.693,2.695c.506,0,.616-.44.616-1.925h1.98v.583c0,2.2-1.287,2.728-2.596,2.728-2.299,0-2.806-1.155-2.806-4.082,0-3.003.682-4.082,2.806-4.082,1.848,0,2.541.968,2.541,2.486v.495h-1.98v-.44Z"/>
      <path class="st2" d="M70.625,41.455h2.047v2.882h1.254v-2.882h2.046v7.855h-2.046v-3.234h-1.254v3.234h-2.047v-7.855Z"/>
      <path class="st2" d="M77.138,41.455h2.046v6.183h2.52v1.672h-4.565v-7.855Z"/>
      <path class="st2" d="M84.067,41.455h2.574l1.914,7.855h-2.178l-.21-1.375h-1.628l-.209,1.375h-2.178l1.914-7.855ZM85.365,43.061h-.021l-.562,3.333h1.145l-.562-3.333Z"/>
      <path class="st2" d="M89.237,41.455h2.288l1.32,4.84h.021v-4.84h1.915v7.855h-2.245l-1.364-4.852h-.021v4.852h-1.914v-7.855Z"/>
      <path class="st2" d="M95.947,41.455h2.97c2.366,0,2.486,1.87,2.486,3.927s-.12,3.928-2.486,3.928h-2.97v-7.855ZM97.993,47.836h.407c.792,0,.891-.33.891-2.454s-.099-2.453-.891-2.453h-.407v4.907Z"/>
      <path class="st2" d="M105.507,43.721v-.187c0-.462-.188-.847-.584-.847-.439,0-.638.341-.638.693,0,1.551,3.345.792,3.345,3.664,0,1.672-.979,2.42-2.783,2.42-1.694,0-2.641-.583-2.641-2.211v-.275h1.98v.187c0,.671.274.913.671.913.418,0,.66-.33.66-.759,0-1.551-3.213-.781-3.213-3.564,0-1.584.848-2.454,2.574-2.454,1.782,0,2.542.737,2.542,2.42h-1.914Z"/>
    </g>
    <g>
      <path class="st2" d="M16.187,51.454h3.091c1.463,0,2.145.781,2.145,1.958,0,.836-.363,1.584-1.232,1.76v.022c1.034.099,1.452.979,1.452,1.793,0,1.364-.66,2.321-2.365,2.321h-3.091v-7.855ZM18.233,54.534h.495c.418,0,.649-.374.649-.792,0-.44-.231-.814-.649-.814h-.495v1.606ZM18.233,57.835h.572c.374,0,.726-.33.726-.968,0-.605-.352-.946-.726-.946h-.572v1.915Z"/>
      <path class="st2" d="M22.588,51.454h4.654v1.672h-2.607v1.342h2.442v1.606h-2.442v1.562h2.707v1.672h-4.753v-7.855Z"/>
      <path class="st2" d="M28.319,51.454h2.046v6.183h2.52v1.672h-4.566v-7.855Z"/>
      <path class="st2" d="M33.611,51.454h2.046v7.855h-2.046v-7.855Z"/>
      <path class="st2" d="M36.778,51.454h4.654v1.672h-2.607v1.342h2.442v1.606h-2.442v1.562h2.707v1.672h-4.753v-7.855Z"/>
      <path class="st2" d="M42.543,51.454h3.091c1.463,0,2.145.781,2.145,1.958,0,.836-.363,1.584-1.232,1.76v.022c1.034.099,1.452.979,1.452,1.793,0,1.364-.66,2.321-2.365,2.321h-3.091v-7.855ZM44.589,54.534h.495c.418,0,.649-.374.649-.792,0-.44-.231-.814-.649-.814h-.495v1.606ZM44.589,57.835h.572c.374,0,.726-.33.726-.968,0-.605-.352-.946-.726-.946h-.572v1.915Z"/>
      <path class="st2" d="M50.088,53.192h-1.54v-1.738h5.126v1.738h-1.54v6.117h-2.046v-6.117Z"/>
      <path class="st2" d="M54.411,51.454h4.654v1.672h-2.607v1.342h2.442v1.606h-2.442v1.562h2.707v1.672h-4.753v-7.855Z"/>
      <path class="st2" d="M63.223,53.72v-.187c0-.462-.187-.847-.583-.847-.44,0-.638.341-.638.693,0,1.551,3.345.792,3.345,3.664,0,1.672-.979,2.42-2.784,2.42-1.694,0-2.64-.583-2.64-2.211v-.275h1.98v.187c0,.671.275.913.671.913.418,0,.66-.33.66-.759,0-1.551-3.213-.781-3.213-3.564,0-1.584.847-2.454,2.575-2.454,1.782,0,2.541.737,2.541,2.42h-1.914Z"/>
      <path class="st2" d="M67.402,53.192h-1.54v-1.738h5.127v1.738h-1.541v6.117h-2.046v-6.117Z"/>
      <path class="st2" d="M71.726,51.454h4.653v1.672h-2.607v1.342h2.442v1.606h-2.442v1.562h2.706v1.672h-4.752v-7.855Z"/>
      <path class="st2" d="M81.812,51.454h2.574l1.914,7.855h-2.178l-.209-1.375h-1.629l-.209,1.375h-2.178l1.914-7.855ZM83.11,53.06h-.021l-.562,3.333h1.145l-.562-3.333Z"/>
      <path class="st2" d="M86.982,51.454h2.288l1.32,4.84h.021v-4.84h1.915v7.855h-2.245l-1.364-4.852h-.021v4.852h-1.914v-7.855Z"/>
      <path class="st2" d="M93.725,51.454h3.092c1.463,0,2.146.781,2.146,1.958,0,.836-.363,1.584-1.232,1.76v.022c1.034.099,1.452.979,1.452,1.793,0,1.364-.66,2.321-2.365,2.321h-3.092v-7.855ZM95.771,54.534h.495c.418,0,.648-.374.648-.792,0-.44-.23-.814-.648-.814h-.495v1.606ZM95.771,57.835h.572c.374,0,.726-.33.726-.968,0-.605-.352-.946-.726-.946h-.572v1.915Z"/>
      <path class="st2" d="M100.094,51.454h2.046v7.855h-2.046v-7.855Z"/>
      <path class="st2" d="M103.262,51.454h4.653v1.672h-2.607v1.342h2.442v1.606h-2.442v1.562h2.706v1.672h-4.752v-7.855Z"/>
      <path class="st2" d="M110.138,53.192h-1.541v-1.738h5.127v1.738h-1.54v6.117h-2.046v-6.117Z"/>
      <path class="st2" d="M114.46,51.454h4.653v1.672h-2.607v1.342h2.442v1.606h-2.442v1.562h2.706v1.672h-4.752v-7.855Z"/>
      <path class="st2" d="M120.191,51.454h3.201c1.562,0,2.156.88,2.156,2.09,0,1.045-.407,1.727-1.342,1.87v.022c.99.088,1.287.715,1.287,1.76v.671c0,.407,0,.936.099,1.089.055.088.099.176.231.242v.11h-2.179c-.198-.418-.198-1.166-.198-1.496v-.528c0-.891-.176-1.122-.671-1.122h-.539v3.146h-2.046v-7.855ZM122.237,54.776h.407c.583,0,.858-.374.858-.935,0-.638-.253-.913-.869-.913h-.396v1.848Z"/>
    </g>
    <g>
      <path class="st12" d="M17.779,62.174h1.859v5.617h2.289v1.519h-4.147v-7.136Z"/>
      <path class="st12" d="M22.528,62.174h1.799v1.339h-1.799v-1.339ZM22.528,63.903h1.799v5.407h-1.799v-5.407Z"/>
      <path class="st12" d="M25.499,65.112h-.62v-1.209h.62v-.39c0-1.079.42-1.479,1.669-1.479.26,0,.58.02.86.06v1.129c-.09-.02-.17-.03-.3-.03-.22,0-.43.11-.43.38v.33h.73v1.209h-.73v4.198h-1.799v-4.198Z"/>
      <path class="st12" d="M30.218,66.912v.709c0,.58.24.729.49.729.32,0,.51-.2.51-.939h1.619c-.01.649-.17,1.159-.51,1.509-.34.35-.86.53-1.609.53-1.739,0-2.299-.78-2.299-2.839s.68-2.848,2.299-2.848c1.439,0,2.169.64,2.169,2.599v.55h-2.668ZM31.207,65.692c0-.569-.12-.83-.5-.83-.37,0-.49.26-.49.83v.24h.989v-.24Z"/>
      <path class="st12" d="M42.055,69.31h-1.979l-.31-.42c-.53.31-.979.56-1.729.56-1.189,0-2.189-.67-2.189-2.009,0-.819.43-1.579,1.339-2.069-.36-.49-.68-1.079-.68-1.619,0-.989.8-1.659,2.019-1.659,1.239,0,2.039.669,2.039,1.659,0,.69-.46,1.33-1.239,1.829l.809,1.089c.15-.24.22-.53.24-.839h1.559c-.04.799-.27,1.579-.839,2.139l.959,1.339ZM38.027,66.522c-.29.22-.44.51-.44.72,0,.46.38.81.77.81.21,0,.47-.12.62-.24l-.949-1.29ZM38.477,64.513c.439-.4.589-.669.589-.879,0-.29-.22-.5-.529-.5s-.53.21-.53.5c0,.21.14.459.47.879Z"/>
      <path class="st12" d="M45.158,62.174h1.859v5.617h2.289v1.519h-4.147v-7.136Z"/>
      <path class="st12" d="M49.908,62.174h1.799v1.339h-1.799v-1.339ZM49.908,63.903h1.799v5.407h-1.799v-5.407Z"/>
      <path class="st12" d="M52.228,63.903h1.859l.51,3.888h.02l.5-3.888h1.859l-1.319,5.407h-2.119l-1.31-5.407Z"/>
      <path class="st12" d="M57.508,62.174h1.799v1.339h-1.799v-1.339ZM57.508,63.903h1.799v5.407h-1.799v-5.407Z"/>
      <path class="st12" d="M60.188,63.903h1.739v.66h.02c.23-.53.69-.799,1.31-.799.79,0,1.409.31,1.409,1.469v4.078h-1.799v-3.568c0-.45-.12-.64-.439-.64s-.44.19-.44.64v3.568h-1.799v-5.407Z"/>
      <path class="st12" d="M68.276,63.903h1.679v5.317c0,1.479-.989,1.929-2.258,1.929-1.16,0-2.069-.29-2.099-1.519h1.619c0,.27.17.42.45.42.27,0,.55-.07.55-.67v-1.029h-.02c-.23.62-.72.81-1.219.81-.72,0-1.579-.42-1.579-2.668,0-2.089.62-2.729,1.669-2.729.5,0,.989.24,1.189.89h.02v-.75ZM67.716,67.821c.33,0,.5-.22.5-1.359,0-1.129-.17-1.359-.5-1.359-.339,0-.52.229-.52,1.359,0,1.14.18,1.359.52,1.359Z"/>
      <path class="st12" d="M74.757,62.174h2.339l1.738,7.136h-1.979l-.189-1.25h-1.479l-.19,1.25h-1.979l1.739-7.136ZM75.936,63.633h-.02l-.51,3.028h1.039l-.51-3.028Z"/>
      <path class="st12" d="M78.738,63.903h1.739l.449,3.888h.021l.529-3.888h1.919l.53,3.888h.02l.45-3.888h1.738l-1.099,5.407h-2.039l-.55-3.828h-.021l-.549,3.828h-2.039l-1.1-5.407Z"/>
      <path class="st12" d="M89.206,69.31c-.06-.19-.08-.39-.11-.61h-.02c-.2.48-.68.75-1.22.75-1.079,0-1.499-.66-1.499-1.589,0-1,.35-1.469,1.499-1.739l.71-.17c.39-.09.529-.26.529-.589s-.149-.5-.459-.5c-.34,0-.5.15-.51.72h-1.56c0-1.549,1.249-1.819,2.069-1.819,1.259,0,2.139.33,2.139,1.739v2.639c0,.5.02.89.17,1.169h-1.739ZM89.096,67.351v-.649h-.02c-.1.14-.35.13-.609.25-.28.13-.37.34-.37.7s.17.59.439.59c.4,0,.56-.3.56-.89Z"/>
      <path class="st12" d="M91.647,63.903h1.739v.86h.021c.199-.65.679-1,1.209-1h.29v1.679c-.16-.03-.3-.04-.45-.04-.64,0-1.01.25-1.01.959v2.948h-1.799v-5.407Z"/>
      <path class="st12" d="M98.127,62.174h1.799v7.136h-1.739v-.74h-.021c-.22.6-.589.88-1.229.88-1.21,0-1.619-.959-1.619-2.958,0-2.039.659-2.729,1.659-2.729.51,0,.949.2,1.129.75h.021v-2.339ZM97.627,68.111c.409,0,.5-.34.5-1.5,0-1.169-.091-1.509-.5-1.509-.42,0-.51.34-.51,1.509,0,1.16.09,1.5.51,1.5Z"/>
      <path class="st12" d="M103.367,64.633c.01-.73.1-1.319.439-1.739s.92-.66,1.879-.66c1.859,0,2.279.87,2.279,1.929,0,.959-.351,1.569-.88,2.099l-1.1,1.069c-.159.16-.39.37-.46.58h2.439v1.399h-4.658c0-.979.25-1.879,1.06-2.708l1.239-1.259c.36-.36.5-.63.5-1.159,0-.6-.189-.79-.479-.79-.26,0-.52.14-.52.94v.3h-1.739Z"/>
      <path class="st12" d="M111.016,62.234c1.659,0,2.408.75,2.408,3.608s-.749,3.608-2.408,3.608-2.409-.75-2.409-3.608.75-3.608,2.409-3.608ZM110.466,67.011c0,1.01.16,1.279.55,1.279s.55-.27.55-1.279v-2.339c0-1.009-.16-1.279-.55-1.279s-.55.27-.55,1.279v2.339Z"/>
      <path class="st12" d="M114.018,64.633c.01-.73.1-1.319.439-1.739s.92-.66,1.879-.66c1.859,0,2.279.87,2.279,1.929,0,.959-.351,1.569-.88,2.099l-1.1,1.069c-.159.16-.39.37-.46.58h2.439v1.399h-4.658c0-.979.25-1.879,1.06-2.708l1.239-1.259c.36-.36.5-.63.5-1.159,0-.6-.189-.79-.479-.79-.26,0-.52.14-.52.94v.3h-1.739Z"/>
      <path class="st12" d="M119.497,62.374h4.107v1.399h-2.688l-.08,1.189c.34-.32.779-.52,1.31-.52,1.139,0,1.769.739,1.769,2.249,0,1.839-.56,2.759-2.318,2.759-1.64,0-2.319-.75-2.319-2.029v-.229h1.739v.24c0,.669.19.859.51.859.36,0,.53-.16.53-1.519,0-.79-.19-1.069-.53-1.069-.31,0-.51.18-.51.6h-1.679l.16-3.928Z"/>
    </g>
  </g>
</svg>