<?xml version="1.0" encoding="UTF-8"?>
<svg id="Layer_2" data-name="Layer 2" xmlns="http://www.w3.org/2000/svg" width="289.6" height="103.7" version="1.1" viewBox="0 0 289.6 103.7">
  <defs>
    <style>
      .cls-1 {
        fill: #3d9dc1;
      }

      .cls-1, .cls-2, .cls-3, .cls-4 {
        stroke-width: 0px;
      }

      .cls-2 {
        fill: #000;
      }

      .cls-5 {
        isolation: isolate;
      }

      .cls-3 {
        fill: #3c9cc0;
      }

      .cls-4 {
        fill: #fff;
      }
    </style>
  </defs>
  <rect class="cls-4" y="-.015" width="289.56" height="103.73"/>
  <g id="Ebene_1" data-name="Ebene 1">
    <g class="cls-5">
      <g class="cls-5">
        <path class="cls-1" d="M121.9,20.5c-.2-.1-.2-.2,0-.5l.6-1c.1-.2.4-.2.5-.1.7.5,1.4,1,2.4,1s1.5-.5,1.5-1.2-.7-1.4-2-1.9c-1.5-.6-3-1.6-3-3.5s1.1-3.1,3.6-3.1,2.9.8,3.2,1.1c.2.1.2.4.1.5l-.6.9c-.1.2-.4.3-.6.2-.7-.4-1.3-.9-2.2-.9s-1.4.5-1.4,1.1.6,1.3,1.9,1.8c1.6.6,3.4,1.5,3.4,3.6s-1.4,3.2-3.7,3.2-3.1-.9-3.5-1.2h-.2Z"/>
        <path class="cls-1" d="M136.1,10.2c3.2,0,5.8,2.6,5.8,5.8s-2.6,5.8-5.8,5.8-5.8-2.5-5.8-5.8,2.6-5.8,5.8-5.8ZM136.1,19.6c2,0,3.7-1.6,3.7-3.7s-1.7-3.7-3.7-3.7-3.7,1.7-3.7,3.7,1.6,3.7,3.7,3.7Z"/>
        <path class="cls-1" d="M143.9,10.7c0-.2.1-.3.3-.3h1.5c.2,0,.3.1.3.3v9h4.1c.2,0,.3.1.3.3v1.3c0,.2-.1.3-.3.3h-5.9c-.2,0-.3-.1-.3-.3v-10.6h0Z"/>
        <path class="cls-1" d="M150.7,21.1l5-10.8c0-.1.1-.2.3-.2h.2q.2,0,.3.2l4.9,10.8c.1.2,0,.4-.3.4h-1.4c-.2,0-.4-.1-.5-.3l-.8-1.7h-4.8l-.8,1.7c0,.2-.2.3-.5.3h-1.4c-.2,0-.4-.2-.3-.4h.1ZM157.6,17.7l-1.6-3.5h0l-1.6,3.5h3.2Z"/>
        <path class="cls-1" d="M162.7,10.7c0-.2.1-.3.3-.3h4.6c1.9,0,3.5,1.5,3.5,3.4s-1,2.7-2.4,3.2l2.2,4.1c.1.2,0,.5-.3.5h-1.7c-.1,0-.2,0-.3-.1l-2.1-4.2h-1.8v4.1c0,.2-.1.3-.3.3h-1.5c-.2,0-.3-.1-.3-.3v-10.6h0l.1-.1ZM167.4,15.5c.9,0,1.6-.7,1.6-1.6s-.7-1.6-1.6-1.6h-2.6v3.2s2.6,0,2.6,0Z"/>
        <path class="cls-1" d="M175.8,21.1l5-10.8c0-.1.1-.2.3-.2h.2q.2,0,.3.2l4.9,10.8c.1.2,0,.4-.3.4h-1.4c-.2,0-.4-.1-.5-.3l-.8-1.7h-4.8l-.8,1.7c0,.2-.2.3-.5.3h-1.4c-.2,0-.4-.2-.3-.4h.1ZM182.7,17.7l-1.6-3.5h0l-1.6,3.5h3.2Z"/>
        <path class="cls-1" d="M187.8,10.5c0-.2.1-.3.3-.3h.2c.1,0,.2,0,.3.1l6.5,7h0v-6.6c0-.2.1-.3.3-.3h1.5c.2,0,.3.1.3.3v10.8c0,.2-.1.3-.3.3h-.2c-.1,0-.2,0-.3-.1l-6.6-7.2h0v6.9c0,.2-.1.3-.3.3h-1.5c-.2,0-.3-.1-.3-.3v-10.8l.1-.1Z"/>
        <path class="cls-1" d="M205.7,15.9c.9.3,1.9,1.1,1.9,2.6s-1.5,3.1-3.5,3.1h-3.9c-.2,0-.3-.1-.3-.3v-10.6c0-.2.1-.3.3-.3h3.7c1.9,0,3.4,1.3,3.4,3s-.8,2.1-1.6,2.5h0ZM203.8,15.1c.8,0,1.3-.6,1.3-1.4s-.5-1.4-1.3-1.4h-1.7v2.8s1.7,0,1.7,0ZM204,19.7c.8,0,1.4-.6,1.4-1.5s-.6-1.4-1.4-1.4h-2v2.9h2Z"/>
        <path class="cls-1" d="M209.8,10.7c0-.2.1-.3.3-.3h1.5c.2,0,.3.1.3.3v10.6c0,.2-.1.3-.3.3h-1.5c-.2,0-.3-.1-.3-.3,0,0,0-10.6,0-10.6Z"/>
        <path class="cls-1" d="M214.7,10.7c0-.2.1-.3.3-.3h6.5c.2,0,.3.1.3.3v1.3c0,.2-.1.3-.3.3h-4.7v2.6h3.9c.2,0,.3.1.3.3v1.3c0,.2-.1.3-.3.3h-3.9v2.8h4.7c.2,0,.3.1.3.3v1.3c0,.2-.1.3-.3.3h-6.5c-.2,0-.3-.1-.3-.3v-10.6h0v.1Z"/>
        <path class="cls-1" d="M225.7,12.3h-2.4c-.2,0-.3-.1-.3-.3v-1.3c0-.2.1-.3.3-.3h7c.2,0,.3.1.3.3v1.3c0,.2-.1.3-.3.3h-2.4v9c0,.2-.1.3-.3.3h-1.5c-.2,0-.3-.1-.3-.3v-9h-.1Z"/>
        <path class="cls-1" d="M232.3,10.7c0-.2.1-.3.3-.3h6.5c.2,0,.3.1.3.3v1.3c0,.2-.1.3-.3.3h-4.7v2.6h3.9c.2,0,.3.1.3.3v1.3c0,.2-.1.3-.3.3h-3.9v2.8h4.7c.2,0,.3.1.3.3v1.3c0,.2-.1.3-.3.3h-6.5c-.2,0-.3-.1-.3-.3v-10.6h0v.1Z"/>
        <path class="cls-1" d="M241.5,10.7c0-.2.1-.3.3-.3h4.6c1.9,0,3.5,1.5,3.5,3.4s-1,2.7-2.4,3.2l2.2,4.1c.1.2,0,.5-.3.5h-1.7c-.1,0-.2,0-.3-.1l-2.1-4.2h-1.8v4.1c0,.2-.1.3-.3.3h-1.5c-.2,0-.3-.1-.3-.3v-10.6h0l.1-.1ZM246.2,15.5c.9,0,1.6-.7,1.6-1.6s-.7-1.6-1.6-1.6h-2.6v3.2s2.6,0,2.6,0Z"/>
      </g>
      <g class="cls-5">
        <path class="cls-2" d="M170.2,28c0-.1.1-.3.3-.3h5.7c.1,0,.3.1.3.3v1.1c0,.1-.1.3-.3.3h-4.1v2.3h3.5c.1,0,.3.1.3.3v1.2c0,.2-.1.3-.3.3h-3.5v2.5h4.1c.1,0,.3.1.3.3v1.2c0,.1-.1.3-.3.3h-5.7c-.1,0-.3-.1-.3-.3v-9.3h0v-.2Z"/>
        <path class="cls-2" d="M177.8,31.4c0-.2.1-.3.3-.3h.5c.1,0,.2,0,.3.2l.2.6c.2-.3.8-.9,2.1-.9,2.1,0,2.6,1.4,2.6,3v3.3c0,.2-.1.3-.3.3h-1.1c-.2,0-.3-.1-.3-.3v-3.3c0-.8-.3-1.4-1.1-1.4s-1.2.6-1.4,1v3.7c0,.2-.1.3-.4.3h-1c-.1,0-.3-.1-.3-.3v-5.9h-.1Z"/>
        <path class="cls-2" d="M188.9,37.7c-.6,0-1.3-.2-1.6-.3v3.1c0,.2-.1.3-.3.3h-1.1c-.2,0-.3-.2-.3-.3v-9.2c0-.2.1-.3.3-.3h.5c.1,0,.2.1.3.3l.2.5s.7-1,2.1-1,3.1,1.4,3.1,3.4-1.3,3.4-3.2,3.4h0v.1ZM187.3,35.8s.5.4,1.3.4,1.6-.9,1.6-1.8-.5-1.8-1.5-1.8-1.3.5-1.4.9v2.3h0Z"/>
        <path class="cls-2" d="M195.6,33.5c.7,0,1.2.2,1.2.2,0-.8-.2-1.2-.9-1.2s-1.4.1-1.8.2c-.2,0-.3,0-.4-.3v-.7c-.2-.2,0-.4,0-.4.1,0,1.2-.3,2.2-.3,2,0,2.4,1,2.4,2.8v3.5c0,.2-.1.3-.3.3h-.5c-.1,0-.2,0-.3-.2l-.2-.4c-.4.4-1,.8-2,.8s-2.2-.8-2.2-2.2.9-2,2.6-2h0l.2-.1ZM195.7,36.4c.6,0,1.1-.5,1.2-.7v-1s-.4-.2-.9-.2c-.7,0-1.1.3-1.1.9s.3.9.9.9h0l-.1.1Z"/>
        <path class="cls-2" d="M200.2,28.1c0-.1.1-.3.3-.3h1.1c.1,0,.3.1.3.3v9.2c0,.2-.1.3-.3.3h-1.1c-.1,0-.3-.1-.3-.3,0,0,0-9.2,0-9.2Z"/>
      </g>
    </g>
    <rect class="cls-3" width="84.5" height="103.7"/>
    <g>
      <path class="cls-4" d="M68.2,77.4c1,0,1.8.8,1.9,1.9v5.4c0,1-.8,1.8-1.9,1.9H16.3c-1,0-1.9-.8-1.9-1.9v-5.4c0-1,.8-1.8,1.9-1.9h51.9Z"/>
      <path class="cls-4" d="M60.7,58.8l-6.2-6c1.8-3.3,3.1-6.9,3.7-10.6.1-1-.1-1.4-1.4-1.6h-2.2c-2-.3-2,.6-2.2,1.6-.4,2.2-1.1,4.4-2.2,6.5l-13.7-13.8-.9-.9c-2.2-2.1-3.9-4.1-3.9-6.6-.1-3.1,2.3-5.7,5.4-5.9h.5c4,0,6.5,2.6,6.5,5.4,0,.3,0,.7-.1,1-.1,1.3.1,1.7,2.2,1.7h2.3c1.3,0,1.3-.7,1.4-1.7,0-.4.1-.9.1-1.3,0-5.7-4.7-10.3-12-10.3s-12.2,4.7-12.2,10.9,2.1,6.7,4.6,9.5l1.6,1.7h0c-2.4,1.6-9.2,5.4-9.2,13.5s5,12.3,13.3,12.3c5.5.1,10.8-2.1,14.5-6.2l5.3,5.3c.7.8,1.9,1,2.7.3,0,0,.1,0,.2-.2l1.7-1.7c1.4-1.4.9-2.1.1-3l.1.1ZM36.8,58.7c-4,.2-7.3-2.8-7.6-6.7v-.4c0-5.3,4.4-8,6.5-9.3l11,11.6c-2.4,3.1-6,4.9-9.9,4.9v-.1Z"/>
    </g>
    <rect class="cls-1" x="82.8" width="206" height="1.5"/>
    <rect class="cls-1" x="82.9" y="45.1" width="206" height="1.5"/>
    <g class="cls-5">
      <g class="cls-5">
        <path class="cls-2" d="M144.9,73.6s.1-.1.2-.1h.7c.1,0,.2.1.2.2l-1.9,6.6s-.1.1-.2.1h-.7c-.1,0-.2-.1-.2-.2l2-6.6h-.1Z"/>
        <path class="cls-2" d="M148,75.3l-.9.2c-.1,0-.2,0-.2-.1v-.7l1.3-1.1c.1,0,.2-.1.4-.1h.5c.1,0,.2,0,.2.2v6.6c0,.1,0,.2-.2.2h-.9c-.1,0-.2,0-.2-.2v-4.9h0v-.1Z"/>
        <path class="cls-2" d="M150.8,77c0-2.3.9-3.6,2.6-3.6s2.6,1.3,2.6,3.6-.9,3.6-2.6,3.6-2.6-1.3-2.6-3.6ZM154.7,77c0-1.5-.5-2.4-1.3-2.4s-1.3.9-1.3,2.4.5,2.4,1.3,2.4,1.3-.9,1.3-2.4Z"/>
        <path class="cls-2" d="M157.2,77c0-2.3.9-3.6,2.6-3.6s2.6,1.3,2.6,3.6-.9,3.6-2.6,3.6-2.6-1.3-2.6-3.6ZM161.1,77c0-1.5-.5-2.4-1.3-2.4s-1.3.9-1.3,2.4.5,2.4,1.3,2.4,1.3-.9,1.3-2.4Z"/>
        <path class="cls-2" d="M166.3,73.7s0-.2.2-.2h2.4c1.2,0,2.2,1,2.2,2.2s-1,2.2-2.2,2.2h-1.2v2.3s0,.2-.2.2h-.9c-.1,0-.2,0-.2-.2v-6.6h0l-.1.1ZM168.8,76.7c.6,0,1-.4,1-1s-.4-1-1-1h-1.2v2h1.2Z"/>
        <path class="cls-2" d="M171.8,76.1c0-.1.1-.2.2-.2h.8c.1,0,.2,0,.2.2v2.4c0,.6.2.9.8.9s.8-.5.8-.9v-2.5q0-.2.2-.2h.8c.1,0,.2,0,.2.2v4.2c0,.1-.1.2-.2.2h-.4c-.1,0-.2,0-.2-.2v-.4c-.4.2-.9.7-1.6.7-1.4,0-1.7-.9-1.7-2.1v-2.4l.1.1Z"/>
        <path class="cls-2" d="M177.2,76.1c0-.1.1-.2.2-.2h.4c.1,0,.2,0,.2.1l.2.4c.2-.2.6-.7,1.5-.7,1.5,0,1.9,1,1.9,2.1v2.4c0,.1-.1.2-.2.2h-.8c-.1,0-.2,0-.2-.2v-2.4c0-.6-.2-1-.8-1s-.9.4-1,.7v2.6q0,.2-.3.2h-.7c-.1,0-.2,0-.2-.2v-4.2h0l-.2.2Z"/>
        <path class="cls-2" d="M182.8,73.7c0-.1.1-.2.2-.2h.8c.1,0,.2.1.2.2v3.9l1.6-1.6s.2-.1.3-.1h.9c.2,0,.3.2.1.3l-1.8,1.8,1.9,2.2c.1.1,0,.3-.1.3h-1.2l-1.7-2.1v1.9c0,.1-.1.2-.2.2h-.8c-.1,0-.2,0-.2-.2v-6.6h0Z"/>
        <path class="cls-2" d="M188.2,77h-.4c-.1,0-.2-.1-.2-.2v-.7c0-.1,0-.2.2-.2h.4v-1.3c0-.1.1-.2.2-.2h.8c.1,0,.2,0,.2.2v1.3h1.1c.1,0,.2,0,.2.2v.7c0,.1-.1.2-.2.2h-1.1v2.1c0,.3.1.4.4.4s.6-.1.7-.2c.1,0,.2,0,.3.1v.6c.2.1.1.2,0,.3-.2,0-.8.3-1.3.3-1,0-1.3-.7-1.3-1.5v-2.1h0Z"/>
        <path class="cls-2" d="M193.9,75.8c1.2,0,2.1.9,2.1,2.1s0,.2,0,.3-.1.2-.2.2h-3c0,.6.5,1.1,1.1,1.1s.8-.2,1-.3h.3l.4.5v.3c-.4.3-1,.6-1.7.6-1.4,0-2.3-1.1-2.3-2.4s1-2.4,2.3-2.4h0ZM194.7,77.6c0-.4-.4-.8-.9-.8s-.9.3-1,.8h1.9Z"/>
        <path class="cls-2" d="M199.3,73.1c0-.1,0-.2.2-.2h.1c.1,0,.2,0,.2.2v9.6s0,.2-.2.2h-.1c-.1,0-.2,0-.2-.2v-9.6Z"/>
        <path class="cls-2" d="M203.5,77c0-2.3.9-3.6,2.6-3.6s2.6,1.3,2.6,3.6-.9,3.6-2.6,3.6-2.6-1.3-2.6-3.6ZM207.4,77c0-1.5-.5-2.4-1.3-2.4s-1.3.9-1.3,2.4.5,2.4,1.3,2.4,1.3-.9,1.3-2.4Z"/>
        <path class="cls-2" d="M210,79.4l.5-.5h.2c.3.2.7.6,1.3.6s1.2-.6,1.2-1.2-.4-1.2-1.2-1.2h-1.6c-.2,0-.3-.2-.3-.4v-3s0-.2.2-.2h3.2c.1,0,.2,0,.2.2v.7c0,.1,0,.2-.2.2h-2.3v1.4h.9c1.5,0,2.4.9,2.4,2.3s-1.1,2.4-2.5,2.4-1.8-.5-2-.8q-.1-.2,0-.3h0v-.2Z"/>
        <path class="cls-2" d="M216.3,78.7c.5,0,1,.4,1,1s-.4.9-1,.9-.9-.4-.9-.9.4-1,.9-1Z"/>
        <path class="cls-2" d="M220.1,79.4h2.2c.1,0,.2,0,.2.2v.7c0,.1,0,.2-.2.2h-4.1c-.1,0-.2,0-.2-.2h0v-.3c.7-.9,1.9-2.5,2.6-3.3.3-.4.5-.8.5-1.1s-.4-.9-1.1-.9-.9.3-1.1.6h-.3l-.5-.5v-.3s.8-1,2-1,2.3.9,2.3,2.1-.3,1.1-.7,1.7-1.2,1.6-1.8,2.3h0l.2-.2Z"/>
        <path class="cls-2" d="M223.8,77c0-2.3.9-3.6,2.6-3.6s2.6,1.3,2.6,3.6-.9,3.6-2.6,3.6-2.6-1.3-2.6-3.6ZM227.6,77c0-1.5-.5-2.4-1.3-2.4s-1.3.9-1.3,2.4.5,2.4,1.3,2.4,1.3-.9,1.3-2.4Z"/>
        <path class="cls-2" d="M232,79.4h2.2c.1,0,.2,0,.2.2v.7c0,.1,0,.2-.2.2h-4.1c-.1,0-.2,0-.2-.2h0v-.3c.7-.9,1.9-2.5,2.6-3.3.3-.4.5-.8.5-1.1s-.4-.9-1.1-.9-.9.3-1.1.6h-.3l-.5-.5v-.3s.8-1,2-1,2.3.9,2.3,2.1-.3,1.1-.7,1.7-1.2,1.6-1.8,2.3h0l.2-.2Z"/>
        <path class="cls-2" d="M235.4,78.8v-.7c0-.1,0-.2.1-.3l3.5-4.3s.1-.1.3-.1h.5c.1,0,.2,0,.2.2v4.3h.8c.1,0,.2,0,.2.2v.7s0,.2-.2.2h-.8v1.3c0,.1,0,.2-.2.2h-.9c-.1,0-.2,0-.2-.2v-1.3h-3.2c-.1,0-.2,0-.2-.2h.1ZM236.8,77.9h2v-2.5h0l-2,2.5h0Z"/>
      </g>
      <g class="cls-5">
        <path class="cls-2" d="M135.2,90.1c0-.1,0-.3.2-.3h.8s.2,0,.2.1l.7,2.2h0l1.2-2.3h.4l1.2,2.3h0l.7-2.2c0-.1.1-.1.3-.1h.7c.2,0,.3.1.2.3l-1.4,4.3s-.1.1-.2.1h0q-.1,0-.2-.1l-1.4-2.8h0l-1.4,2.8s-.1.1-.2.1h0c-.1,0-.2,0-.2-.1l-1.4-4.3h-.2Z"/>
        <path class="cls-2" d="M142.3,90.1c0-.1,0-.3.2-.3h.8s.2,0,.2.1l.7,2.2h0l1.2-2.3h.4l1.2,2.3h0l.7-2.2c0-.1.1-.1.3-.1h.7c.2,0,.3.1.2.3l-1.4,4.3s-.1.1-.2.1h0q-.1,0-.2-.1l-1.4-2.8h0l-1.4,2.8s-.1.1-.2.1h0c-.1,0-.2,0-.2-.1l-1.4-4.3h-.2Z"/>
        <path class="cls-2" d="M149.4,90.1c0-.1,0-.3.2-.3h.8s.2,0,.2.1l.7,2.2h0l1.2-2.3h.4l1.2,2.3h0l.7-2.2c0-.1.1-.1.3-.1h.7c.2,0,.3.1.2.3l-1.4,4.3s-.1.1-.2.1h0q-.1,0-.2-.1l-1.4-2.8h0l-1.4,2.8s-.1.1-.2.1h0c-.1,0-.2,0-.2-.1l-1.4-4.3h-.2Z"/>
        <path class="cls-2" d="M157.4,92.7c.5,0,1,.4,1,1s-.4.9-1,.9-.9-.4-.9-.9.4-1,.9-1Z"/>
        <path class="cls-2" d="M159.4,87.7c0-.1.1-.2.2-.2h.8c.1,0,.2.1.2.2v2.4c.2-.2.6-.4,1.2-.4,1.5,0,1.9,1,1.9,2.2v2.3c0,.1-.1.2-.2.2h-.8c-.1,0-.2,0-.2-.2v-2.3c0-.6-.3-1-.8-1s-.8.3-1,.8v2.6c0,.1,0,.2-.2.2h-.8c-.1,0-.2,0-.2-.2v-6.6h-.1Z"/>
        <path class="cls-2" d="M167,89.8c1.3,0,2.4,1.1,2.4,2.4s-1.1,2.4-2.4,2.4-2.4-1.1-2.4-2.4,1.1-2.4,2.4-2.4ZM167,93.4c.7,0,1.2-.6,1.2-1.3s-.5-1.3-1.2-1.3-1.2.6-1.2,1.3.5,1.3,1.2,1.3Z"/>
        <path class="cls-2" d="M170.4,90.1c0-.1.1-.2.2-.2h.4c.1,0,.2,0,.2.1l.2.4c.2-.2.6-.7,1.4-.7s1,.2,1.4.7c.2-.2.7-.7,1.5-.7,1.5,0,1.8.9,1.8,2.1v2.4c0,.1-.1.2-.2.2h-.8c-.1,0-.2,0-.2-.2v-2.4c0-.6-.2-1-.8-1s-.9.5-.9.5v2.8c0,.1-.1.2-.2.2h-.8c-.1,0-.2,0-.2-.2v-2.4c0-.6-.2-1-.8-1s-.8.4-.9.7v2.6c0,.1-.1.2-.2.2h-.8c-.1,0-.2,0-.2-.2v-4.2h0l-.1.3Z"/>
        <path class="cls-2" d="M180.7,89.8c1.2,0,2.1.9,2.1,2.1s0,.2,0,.3-.1.2-.2.2h-3c0,.6.5,1.1,1.1,1.1s.8-.2,1-.3h.3l.4.5v.3c-.4.3-1,.6-1.7.6-1.4,0-2.3-1.1-2.3-2.4s1-2.4,2.3-2.4h0ZM181.6,91.6c0-.4-.4-.8-.9-.8s-.9.3-1,.8h1.9Z"/>
        <path class="cls-2" d="M185.3,91.6c.5,0,.9.1.9.1,0-.6-.1-.9-.6-.9s-1,0-1.3.2c-.1,0-.2,0-.3-.2v-.5c-.1-.2,0-.2,0-.3.1,0,.8-.2,1.6-.2,1.4,0,1.7.8,1.7,2v2.5c0,.1-.1.2-.2.2h-.3s-.1,0-.2-.2v-.3c-.4.3-.9.6-1.6.6s-1.6-.6-1.6-1.6.7-1.4,1.8-1.4h.1ZM185.3,93.7c.4,0,.8-.3.8-.5v-.7s-.3-.1-.7-.1c-.5,0-.8.2-.8.7s.2.7.7.6Z"/>
        <path class="cls-2" d="M188.6,90.1c0-.1.1-.2.2-.2h.4c.1,0,.2,0,.2.1l.2.4c.2-.2.6-.7,1.5-.7,1.5,0,1.9,1,1.9,2.1v2.4c0,.1-.1.2-.2.2h-.8c-.1,0-.2,0-.2-.2v-2.4c0-.6-.2-1-.8-1s-.9.4-1,.7v2.6q0,.2-.3.2h-.7c-.1,0-.2,0-.2-.2v-4.2h0l-.2.2Z"/>
        <path class="cls-2" d="M196.1,89.8c.5,0,.9.1,1.1.2v-2.2c0-.1.1-.2.2-.2h.8c.1,0,.2.1.2.2v6.6c0,.1-.1.2-.2.2h-.4c-.1,0-.2,0-.2-.2v-.4c-.1,0-.6.7-1.6.7s-2.2-1-2.2-2.4.9-2.4,2.3-2.4v-.1ZM197.2,91.2s-.4-.3-1-.3-1.1.6-1.1,1.3.4,1.3,1.1,1.3.9-.4,1-.6c0,0,0-1.7,0-1.6v-.1Z"/>
        <path class="cls-2" d="M199.6,94.2s-.1-.2,0-.2l.3-.6c0-.1.2-.2.3,0,.2.1.5.3,1,.3s.5-.1.5-.3-.3-.4-.9-.6c-.9-.3-1.3-.8-1.3-1.5s.5-1.3,1.7-1.3,1.1.2,1.4.3c.1,0,.2.2.1.3l-.3.5c0,.1-.2.1-.3,0-.2,0-.5-.2-.9-.2s-.4.2-.4.3.2.3.7.5c.9.4,1.5.7,1.5,1.6s-.6,1.4-1.8,1.4-1.2-.2-1.5-.4h0l-.1-.1Z"/>
        <path class="cls-2" d="M203.9,90.1c0-.1.1-.2.2-.2h.4c.1,0,.2,0,.2.1l.2.4c.2-.2.6-.7,1.4-.7s1,.2,1.4.7c.2-.2.7-.7,1.5-.7,1.5,0,1.8.9,1.8,2.1v2.4c0,.1-.1.2-.2.2h-.8c-.1,0-.2,0-.2-.2v-2.4c0-.6-.2-1-.8-1s-.9.5-.9.5v2.8c0,.1-.1.2-.2.2h-.8c-.1,0-.2,0-.2-.2v-2.4c0-.6-.2-1-.8-1s-.8.4-.9.7v2.6c0,.1-.1.2-.2.2h-.8c-.1,0-.2,0-.2-.2v-4.2h0l-.1.3Z"/>
        <path class="cls-2" d="M213.7,91.6c.5,0,.9.1.9.1,0-.6-.1-.9-.6-.9s-1,0-1.3.2c-.1,0-.2,0-.3-.2v-.5c-.1-.2,0-.2,0-.3.1,0,.8-.2,1.6-.2,1.4,0,1.7.8,1.7,2v2.5c0,.1-.1.2-.2.2h-.3s-.1,0-.2-.2v-.3c-.4.3-.9.6-1.6.6s-1.6-.6-1.6-1.6.7-1.4,1.8-1.4h.1ZM213.7,93.7c.4,0,.8-.3.8-.5v-.7s-.3-.1-.7-.1c-.5,0-.8.2-.8.7s.2.7.7.6Z"/>
        <path class="cls-2" d="M217,90.1c0-.1.1-.2.2-.2h.4c.1,0,.2,0,.2.2l.2.4c.2-.2.6-.7,1.3-.7s1,.2.9.4l-.3.7c0,.1-.2.2-.3,0s-.2,0-.4,0c-.5,0-.8.3-.9.5v2.9c0,.2-.1.2-.3.2h-.8c-.1,0-.2,0-.2-.2v-4.2h0Z"/>
        <path class="cls-2" d="M221.2,91h-.4c-.1,0-.2-.1-.2-.2v-.7c0-.1,0-.2.2-.2h.4v-1.3c0-.1.1-.2.2-.2h.8c.1,0,.2,0,.2.2v1.3h1.1c.1,0,.2,0,.2.2v.7c0,.1-.1.2-.2.2h-1.1v2.1c0,.3.1.4.4.4s.6-.1.7-.2c.1,0,.2,0,.3.1v.6c.2.1.1.2,0,.3-.2,0-.8.3-1.3.3-1,0-1.3-.7-1.3-1.5v-2.1h0Z"/>
        <path class="cls-2" d="M225.5,92.7c.5,0,1,.4,1,1s-.4.9-1,.9-.9-.4-.9-.9.4-1,.9-1Z"/>
        <path class="cls-2" d="M229.5,89.8c.5,0,.9.1,1.1.2v-2.2c0-.1.1-.2.2-.2h.8c.1,0,.2.1.2.2v6.6c0,.1-.1.2-.2.2h-.4c-.1,0-.2,0-.2-.2v-.4c-.1,0-.6.7-1.6.7s-2.2-1-2.2-2.4.9-2.4,2.3-2.4v-.1ZM230.6,91.2s-.4-.3-1-.3-1.1.6-1.1,1.3.4,1.3,1.1,1.3.9-.4,1-.6c0,0,0-1.7,0-1.6v-.1Z"/>
        <path class="cls-2" d="M235.2,89.8c1.2,0,2.1.9,2.1,2.1s0,.2,0,.3-.1.2-.2.2h-3c0,.6.5,1.1,1.1,1.1s.8-.2,1-.3h.3l.4.5v.3c-.4.3-1,.6-1.7.6-1.4,0-2.3-1.1-2.3-2.4s1-2.4,2.3-2.4h0ZM236,91.6c0-.4-.4-.8-.9-.8s-.9.3-1,.8h1.9Z"/>
      </g>
    </g>
    <g class="cls-5">
      <path class="cls-2" d="M154.5,64.3c-.1,0-.2-.3-.1-.5l.5-1.1c0-.2.3-.3.5-.1.4.2,1,.5,1.8.5s.9-.2.9-.6-.5-.7-1.6-1.2c-1.6-.6-2.3-1.4-2.3-2.6s.9-2.4,3-2.4,2,.3,2.5.6c.2.1.3.4.2.6l-.5,1c-.1.2-.3.2-.5.2-.4-.2-1-.4-1.7-.4s-.8.3-.8.5.4.6,1.2.9c1.6.7,2.8,1.2,2.8,2.9s-1.1,2.5-3.2,2.5-2.2-.4-2.7-.8h0Z"/>
      <path class="cls-2" d="M165.9,56.4c2.2,0,3.8,1.6,3.8,3.8s0,.4,0,.5c0,.2-.2.4-.4.4h-5.3c0,1,.9,1.9,2.1,1.9s1.4-.3,1.8-.6c.2-.2.4-.2.5,0l.7.9c.1.2.2.4,0,.5-.7.6-1.8,1.1-3.1,1.1-2.5,0-4.2-2-4.2-4.4s1.7-4.3,4.2-4.3h0l-.1.2ZM167.4,59.7c0-.8-.7-1.4-1.6-1.4s-1.7.6-1.8,1.4h3.4Z"/>
      <path class="cls-2" d="M171.4,52.7c0-.2.2-.4.4-.4h1.5c.2,0,.4.2.4.4v4.4c.4-.4,1.1-.7,2.1-.7,2.6,0,3.4,1.8,3.4,3.9v4.2c0,.2-.2.4-.4.4h-1.5c-.2,0-.4-.2-.4-.4v-4.2c0-1.2-.5-1.9-1.5-1.9s-1.5.6-1.7,1.5v4.6c0,.2-.1.4-.4.4h-1.4c-.2,0-.4-.2-.4-.4v-11.8h-.1Z"/>
      <path class="cls-2" d="M181.3,56.9c0-.2.2-.4.4-.4h.7c.2,0,.3,0,.4.3l.3.8c.3-.4,1.1-1.3,2.3-1.3s1.8.3,1.6.8l-.5,1.2c0,.2-.3.3-.5.2-.2,0-.4-.2-.8-.2-.9,0-1.4.6-1.6.9v5.2c0,.3-.2.4-.5.4h-1.4c-.2,0-.4-.2-.4-.4v-7.5h0Z"/>
      <path class="cls-2" d="M200.1,64.9c0,2.7-1.9,4-4.1,4s-2.6-.6-3-.9c-.1-.1-.2-.3,0-.5l.5-1.2c0-.2.3-.2.5-.1.3.2,1.1.6,2,.6,1.3,0,2-.4,2-2v-.2c-.4.1-1.2.3-2,.3-2.5,0-4.1-1.9-4.1-4.3s1.7-4.4,4-4.4,2.7,1.2,2.7,1.2l.2-.7c0-.2.2-.4.4-.4h.7c.2,0,.4.2.4.4v8h0l-.2.2ZM197.8,59.6c-.2-.5-.8-1.2-1.8-1.2s-2,1.1-2,2.3.7,2.3,2.1,2.3,1.7-.5,1.7-.5v-3,.1Z"/>
      <path class="cls-2" d="M202.3,56.9c0-.2.2-.4.4-.4h1.5c.2,0,.4.2.4.4v4.4c0,1.1.4,1.7,1.4,1.7s1.4-.8,1.5-1.5v-4.5c0-.3.1-.4.4-.4h1.4c.2,0,.4.2.4.4v7.5c0,.2-.2.4-.4.4h-.6c-.2,0-.3-.1-.4-.3l-.2-.7c-.4.5-1.3,1.2-2.6,1.2-2.6,0-3.1-1.6-3.1-3.7v-4.4h0l-.1-.1Z"/>
      <path class="cls-2" d="M212.5,58.6h-.8c-.2,0-.4-.2-.4-.4v-1.2c0-.2.2-.4.4-.4h.8v-2.3c0-.2.2-.4.4-.4h1.5c.2,0,.4.2.4.4v2.3h1.9c.2,0,.4.2.4.4v1.2c0,.2-.2.4-.4.4h-1.9v3.8c0,.6.3.7.7.7s1-.2,1.3-.3c.2,0,.4,0,.5.2l.2,1.1c0,.2,0,.4-.2.5-.3.2-1.5.5-2.3.5-1.9,0-2.3-1.2-2.3-2.7v-3.8h-.2Z"/>
    </g>
    <rect class="cls-1" x="82.6" y="102.3" width="206" height="1.4"/>
    <rect class="cls-1" x="288.1" width="1.5" height="103.7"/>
  </g>
  <g class="cls-5">
    <path class="cls-3" d="M132.5,79.6c.5-.2,1.9-.8,2.3-1.9-.2,0-.7.3-1.2.3-1,0-2.1-.8-2.1-2.2s1.1-2.4,2.3-2.4,2.4,1.3,2.4,2.8c0,3-2.6,4.2-3.4,4.4-.1,0-.2,0-.3-.1l-.2-.6c0-.1,0-.2.2-.3ZM135,76.1c0-.7-.4-1.5-1.2-1.5s-1.2.6-1.2,1.2.5,1.2,1.2,1.2,1.1-.5,1.2-.9h0Z"/>
    <path class="cls-3" d="M139.3,79.4h2.2c.1,0,.2,0,.2.2v.7c0,.1,0,.2-.2.2h-4.1c-.1,0-.2,0-.2-.2h0v-.3c.7-.9,1.9-2.5,2.6-3.3.3-.4.5-.8.5-1.1s-.4-.9-1.1-.9-.9.3-1.1.6h-.3l-.5-.5v-.3s.8-1,2-1,2.3.9,2.3,2.1-.3,1.1-.7,1.7-1.2,1.6-1.8,2.3h0l.2-.2Z"/>
  </g>
</svg>