<?xml version="1.0" encoding="UTF-8"?><svg id="Ebene_1" xmlns="http://www.w3.org/2000/svg" xmlns:xlink="http://www.w3.org/1999/xlink" viewBox="0 0 425.2 223.26"><defs><style>.cls-1{fill:#d2dbe5;}.cls-2{fill:#24438f;}.cls-3,.cls-4{fill:#fff;}.cls-4{filter:url(#drop-shadow-1);}.cls-5{fill:#3b368b;}.cls-6{fill:#243983;}</style><filter id="drop-shadow-1" x="150.35" y="108.33" width="265.93" height="31.42" filterUnits="userSpaceOnUse"><feOffset dx="0" dy="2.66"/><feGaussianBlur result="blur" stdDeviation="2.66"/><feFlood flood-color="#010101" flood-opacity=".3"/><feComposite in2="blur" operator="in"/><feComposite in="SourceGraphic"/></filter></defs><rect class="cls-1" width="425.2" height="223.26"/><path class="cls-6" d="M170.63,64.93c-2.45-.03-4.55-.39-6.31-1.08-1.76-.69-3.21-1.74-4.36-3.14-1.15-1.41-1.99-3.2-2.52-5.39-.54-2.19-.8-4.78-.8-7.77s.28-5.69.83-7.89,1.41-4.01,2.59-5.41c1.18-1.41,2.68-2.44,4.5-3.1,1.82-.66,4.01-.99,6.58-.99.79,0,1.8.06,3,.18,1.21.12,2.36.31,3.46.55v2.94c-2.29-.46-4.34-.69-6.15-.69-2.08,0-3.83.25-5.25.76-1.42.5-2.58,1.33-3.49,2.48-.9,1.15-1.55,2.64-1.95,4.47-.4,1.83-.6,4.07-.6,6.7s.2,4.76.6,6.56c.4,1.8,1.03,3.29,1.9,4.45.87,1.16,1.98,2.01,3.33,2.55,1.35.54,2.97.8,4.86.8.43,0,.96-.02,1.61-.07s1.31-.1,2.02-.16v-14.45h3.17v17.06c-1.5.24-2.78.41-3.83.5-1.06.09-2.12.14-3.19.14Z"/><path class="cls-6" d="M195.08,64.93c-2.05,0-3.79-.27-5.23-.8-1.44-.53-2.61-1.37-3.53-2.5-.92-1.13-1.58-2.56-2-4.29-.41-1.73-.62-3.78-.62-6.17v-20.64h3.35v20.55c0,3.79.63,6.54,1.9,8.26,1.27,1.71,3.31,2.57,6.12,2.57s4.89-.85,6.12-2.55,1.86-4.46,1.86-8.28v-20.55h3.44v20.64c0,2.39-.21,4.44-.64,6.17-.43,1.73-1.1,3.16-2.02,4.29-.92,1.13-2.09,1.97-3.53,2.5-1.44.53-3.18.8-5.23.8Z"/><path class="cls-6" d="M219.16,33.6h-8.49v-3.07h20.5v3.07h-8.58v30.87h-3.44v-30.87Z"/><path class="cls-6" d="M242.14,60.69c-1.19-4.02-1.79-8.17-1.79-12.45s.6-8.43,1.79-12.45c1.19-4.02,2.94-7.73,5.23-11.12h2.98v.18c-2.26,3.33-4.01,6.99-5.23,10.96-1.22,3.98-1.83,8.12-1.83,12.43s.61,8.49,1.83,12.45c1.22,3.96,2.96,7.61,5.23,10.94v.18h-2.98c-2.29-3.39-4.04-7.1-5.23-11.12Z"/><path class="cls-6" d="M252.78,59.98c0-1.38.13-2.64.39-3.78.26-1.15.68-2.24,1.26-3.28.58-1.04,1.33-2.04,2.25-3s2.05-1.93,3.39-2.91c1.01-.76,1.86-1.48,2.55-2.16.69-.67,1.25-1.34,1.7-2,.44-.66.76-1.33.94-2.02s.28-1.43.28-2.22c0-3.67-1.93-5.5-5.78-5.5-.76,0-1.61.08-2.55.25-.93.17-2,.45-3.19.85l-.5-2.89c1.35-.43,2.59-.73,3.74-.92,1.15-.18,2.24-.28,3.28-.28,2.78,0,4.88.68,6.28,2.04,1.41,1.36,2.11,3.4,2.11,6.12,0,1.04-.12,2.01-.34,2.91-.23.9-.6,1.78-1.12,2.64-.52.86-1.2,1.71-2.04,2.55-.84.84-1.86,1.72-3.05,2.64-1.19.98-2.19,1.87-2.98,2.68-.79.81-1.43,1.62-1.9,2.43-.47.81-.81,1.64-1.01,2.5-.2.86-.3,1.79-.3,2.8v2.02h12.71v3.03h-16.1v-4.5Z"/><path class="cls-6" d="M272.32,71.12l2.06-10.87h3.49l-2.98,11.33-2.57-.46Z"/><path class="cls-6" d="M286.86,34.75h-.14l-5.73,3.99h-.46l-.96-1.74.09-.46,8.26-6.01h2.34v33.94h-3.39v-29.72Z"/><path class="cls-6" d="M294.24,71.81v-.18c2.26-3.33,4-6.98,5.21-10.94,1.21-3.96,1.81-8.11,1.81-12.45s-.6-8.45-1.81-12.43c-1.21-3.97-2.94-7.63-5.21-10.96v-.18h2.98c2.29,3.39,4.04,7.1,5.23,11.12,1.19,4.02,1.79,8.17,1.79,12.45s-.6,8.43-1.79,12.45-2.94,7.73-5.23,11.12h-2.98Z"/><path class="cls-2" d="M157.79,83.4h1.67v5.74h1.44l3.6-5.74h1.92l-3.74,5.95-.64.46v.09l.68.45,4.06,6.23h-1.91l-3.94-5.97h-1.48v5.97h-1.67v-13.18Z"/><path class="cls-2" d="M170.22,96.77c-1.54,0-2.32-.84-2.32-2.53v-7.27h1.66v6.82c0,.57.09.96.26,1.18.17.21.48.32.92.32.36,0,.7-.07,1.03-.21.33-.14.74-.38,1.21-.72v-7.39h1.66v9.62h-1.41l-.12-1.02h-.07c-.63.44-1.15.75-1.57.93-.42.18-.83.27-1.25.27Z"/><path class="cls-2" d="M176.92,86.97h1.41l.11,1.03h.07c.64-.43,1.19-.74,1.66-.93.46-.19.93-.29,1.41-.29.71,0,1.23.2,1.57.61s.5,1.04.5,1.92v7.27h-1.64v-6.79c0-.56-.09-.95-.28-1.18-.18-.23-.46-.35-.83-.35-.34,0-.71.08-1.1.23-.39.15-.8.37-1.21.64v7.45h-1.66v-9.62Z"/><path class="cls-2" d="M188.59,96.75c-2.08,0-3.12-1.61-3.12-4.83,0-1.66.35-2.93,1.06-3.8.71-.87,1.74-1.31,3.11-1.31.2,0,.4,0,.6.03.2.02.45.05.76.1v-4.74h1.64v14.39h-1.48l-.14-.96h-.05c-.57.75-1.36,1.12-2.37,1.12ZM189.07,95.48c.26,0,.51-.05.74-.14.23-.09.44-.24.61-.43s.32-.43.42-.71c.1-.28.15-.62.15-1v-4.99c-.29-.07-.53-.12-.75-.15s-.43-.04-.66-.04c-.82,0-1.43.3-1.82.89-.39.59-.59,1.54-.59,2.85s.15,2.22.46,2.82c.31.6.78.9,1.43.9Z"/><path class="cls-2" d="M198.37,96.75c-1.26,0-2.22-.41-2.88-1.24-.66-.83-.99-2.02-.99-3.57,0-1.69.32-2.96.96-3.83.64-.87,1.59-1.3,2.85-1.3,2.07,0,3.1,1.41,3.1,4.24,0,.31,0,.56-.02.76-.01.2-.03.4-.05.6h-5.17c.06,1.06.27,1.82.62,2.3.36.48.91.71,1.66.71.36,0,.74-.04,1.16-.12.42-.08.87-.22,1.35-.41l.09,1.32c-.38.17-.81.3-1.29.4-.48.1-.95.15-1.4.15ZM198.28,88.11c-1.28,0-1.98,1.03-2.08,3.08h3.71c-.02-1.1-.16-1.89-.41-2.37-.25-.47-.65-.71-1.21-.71Z"/><path class="cls-2" d="M203.25,86.97h1.41l.11,1.03h.07c.64-.43,1.19-.74,1.66-.93.46-.19.93-.29,1.41-.29.71,0,1.23.2,1.57.61s.5,1.04.5,1.92v7.27h-1.64v-6.79c0-.56-.09-.95-.28-1.18-.18-.23-.46-.35-.83-.35-.34,0-.71.08-1.1.23-.39.15-.8.37-1.21.64v7.45h-1.66v-9.62Z"/><path class="cls-2" d="M214.46,96.77c-1.54,0-2.32-.84-2.32-2.53v-7.27h1.66v6.82c0,.57.09.96.26,1.18.17.21.48.32.92.32.36,0,.7-.07,1.03-.21.33-.14.74-.38,1.21-.72v-7.39h1.66v9.62h-1.41l-.12-1.02h-.07c-.63.44-1.15.75-1.57.93-.42.18-.83.27-1.25.27Z"/><path class="cls-2" d="M221.15,86.97h1.41l.11,1.21h.11c.09-.09.23-.21.42-.33.18-.12.39-.25.63-.38.24-.13.49-.25.76-.37.27-.11.53-.21.79-.29h.36v1.67h-.66c-.46.07-.9.19-1.3.35-.4.16-.72.34-.96.54v7.21h-1.66v-9.62Z"/><path class="cls-2" d="M230.56,96.68c-1.73,0-2.6-.87-2.6-2.6v-5.67h-1.64v-1.44h1.73l.23-2.48,1.32-.21v2.69h2.32v1.44h-2.32v5.33c0,.57.12.98.35,1.24.23.26.57.38,1.01.38.13,0,.28,0,.45-.03.17-.02.32-.05.46-.1v1.3c-.48.09-.91.14-1.3.14Z"/><path class="cls-2" d="M236.85,96.75c-1.26,0-2.22-.41-2.88-1.24-.66-.83-.99-2.02-.99-3.57,0-1.69.32-2.96.96-3.83.64-.87,1.59-1.3,2.85-1.3,2.07,0,3.1,1.41,3.1,4.24,0,.31,0,.56-.02.76-.01.2-.03.4-.05.6h-5.17c.06,1.06.27,1.82.62,2.3s.91.71,1.66.71c.36,0,.74-.04,1.16-.12s.87-.22,1.35-.41l.09,1.32c-.38.17-.81.3-1.29.4-.48.1-.95.15-1.4.15ZM236.76,88.11c-1.28,0-1.98,1.03-2.08,3.08h3.71c-.02-1.1-.16-1.89-.41-2.37-.25-.47-.65-.71-1.21-.71Z"/><path class="cls-2" d="M242.57,84.99c-.68,0-1.02-.34-1.02-1.02s.34-.98,1.02-.98,1.01.33,1.01.98-.34,1.02-1.01,1.02ZM241.75,86.97h1.64v9.62h-1.64v-9.62Z"/><path class="cls-2" d="M245.72,82.19h1.66v14.39h-1.66v-14.39Z"/><path class="cls-4" d="M150.35,108.33v31.42h265.93v-31.42H150.35Z"/><path class="cls-2" d="M161.48,130.75c-1.37,0-2.4-.57-3.12-1.7-.71-1.13-1.07-2.82-1.07-5.05s.36-3.92,1.07-5.07c.71-1.15,1.75-1.72,3.12-1.72s2.42.57,3.12,1.72c.7,1.15,1.05,2.84,1.05,5.07s-.35,3.9-1.05,5.04c-.7,1.14-1.74,1.71-3.12,1.71ZM161.48,129.29c.85,0,1.48-.43,1.89-1.28.4-.85.61-2.19.61-4.01s-.2-3.16-.61-4.04-1.03-1.31-1.89-1.31-1.47.44-1.87,1.32-.61,2.22-.61,4.03.2,3.17.6,4.02c.4.85,1.02,1.27,1.88,1.27Z"/><path class="cls-2" d="M169.42,130.72c-.32,0-.65-.02-1-.05-.34-.04-.69-.09-1.03-.18v-1.32h.11c.24.08.5.15.8.19.3.04.6.06.91.06,1.75,0,2.62-.79,2.62-2.37,0-.89-.24-1.55-.72-1.98-.48-.43-1.24-.64-2.29-.64h-.37v-1.28h.37c1.77,0,2.65-.78,2.65-2.35s-.72-2.24-2.16-2.24c-.24,0-.5.02-.78.06s-.61.1-.96.19h-.16l-.09-1.3c.71-.19,1.43-.29,2.14-.29,1.22,0,2.15.28,2.77.84.62.56.94,1.38.94,2.46,0,.85-.18,1.55-.55,2.09-.37.54-.9.91-1.6,1.1v.05c.82.19,1.44.57,1.87,1.15s.64,1.33.64,2.25c0,1.12-.36,1.99-1.08,2.61s-1.73.94-3.02.95Z"/><path class="cls-2" d="M177.76,117.39h1.48l-2.85,15.34h-1.48l2.85-15.34Z"/><path class="cls-2" d="M180.54,128.7c0-.54.05-1.02.15-1.46.1-.44.26-.86.49-1.26.23-.4.52-.78.89-1.14.37-.36.81-.73,1.34-1.1.38-.27.7-.53.97-.77s.48-.49.64-.73c.16-.24.28-.49.35-.75.07-.25.11-.53.11-.83,0-1.33-.73-2-2.19-2-.31,0-.65.03-1.02.1-.37.07-.79.17-1.24.31l-.2-1.39c.55-.17,1.06-.29,1.54-.36.48-.07.94-.11,1.36-.11,2.29,0,3.44,1.09,3.44,3.26,0,.42-.05.8-.14,1.17-.1.36-.25.71-.45,1.05-.21.34-.48.67-.8,1-.33.33-.73.66-1.2,1.01-.46.36-.85.68-1.15.98s-.54.58-.72.86c-.18.28-.3.56-.37.85s-.11.61-.11.97v.73h4.92v1.46h-6.59v-1.87Z"/><path class="cls-2" d="M193.01,130.75c-1.37,0-2.4-.57-3.12-1.7-.71-1.13-1.07-2.82-1.07-5.05s.36-3.92,1.07-5.07c.71-1.15,1.75-1.72,3.12-1.72s2.42.57,3.12,1.72c.7,1.15,1.05,2.84,1.05,5.07s-.35,3.9-1.05,5.04c-.7,1.14-1.74,1.71-3.12,1.71ZM193.01,129.29c.85,0,1.48-.43,1.89-1.28.4-.85.61-2.19.61-4.01s-.2-3.16-.61-4.04-1.03-1.31-1.89-1.31-1.47.44-1.87,1.32-.61,2.22-.61,4.03.2,3.17.6,4.02c.4.85,1.02,1.27,1.88,1.27Z"/><path class="cls-2" d="M198.8,128.7c0-.54.05-1.02.15-1.46.1-.44.26-.86.49-1.26.23-.4.52-.78.89-1.14.37-.36.81-.73,1.34-1.1.38-.27.7-.53.97-.77s.48-.49.64-.73c.16-.24.28-.49.35-.75.07-.25.11-.53.11-.83,0-1.33-.73-2-2.19-2-.31,0-.65.03-1.02.1-.37.07-.79.17-1.24.31l-.2-1.39c.55-.17,1.06-.29,1.54-.36.48-.07.94-.11,1.36-.11,2.29,0,3.44,1.09,3.44,3.26,0,.42-.05.8-.14,1.17-.1.36-.25.71-.45,1.05-.21.34-.48.67-.8,1-.33.33-.73.66-1.2,1.01-.46.36-.85.68-1.15.98s-.54.58-.72.86c-.18.28-.3.56-.37.85s-.11.61-.11.97v.73h4.92v1.46h-6.59v-1.87Z"/><path class="cls-2" d="M209.18,130.79c-.59,0-1.29-.09-2.08-.27v-1.39h.37c.62.14,1.15.21,1.6.21.82,0,1.44-.22,1.87-.67.43-.45.64-1.1.64-1.95,0-.95-.25-1.62-.74-2.02-.49-.4-1.33-.6-2.52-.6h-1.02l-.07-.07.46-6.64h5.01v1.46h-3.67l-.28,3.97c.82.01,1.52.09,2.09.25s1.04.39,1.41.7c.36.31.63.71.79,1.19.17.49.25,1.08.25,1.76,0,1.29-.36,2.29-1.08,3-.72.71-1.73,1.06-3.04,1.06Z"/><path class="cls-2" d="M228.85,130.66c-1.73,0-2.6-.87-2.6-2.6v-5.67h-1.64v-1.44h1.73l.23-2.48,1.32-.21v2.69h2.32v1.44h-2.32v5.33c0,.57.12.98.35,1.24.23.26.57.38,1.01.38.13,0,.28,0,.45-.03.17-.02.32-.05.46-.1v1.3c-.48.09-.91.14-1.3.14Z"/><path class="cls-2" d="M233.93,130.75c-1.54,0-2.32-.84-2.32-2.53v-7.27h1.66v6.82c0,.57.09.96.26,1.18s.48.32.92.32c.36,0,.7-.07,1.03-.2.33-.14.74-.38,1.21-.72v-7.39h1.66v9.62h-1.41l-.12-1.02h-.07c-.63.44-1.15.75-1.57.93-.42.18-.83.27-1.25.27Z"/><path class="cls-2" d="M244.08,130.74c-1.26,0-2.22-.41-2.88-1.24-.66-.83-.99-2.02-.99-3.57,0-1.69.32-2.96.96-3.83.64-.87,1.59-1.3,2.85-1.3,2.07,0,3.1,1.41,3.1,4.24,0,.31,0,.56-.02.76s-.03.4-.05.6h-5.17c.06,1.06.27,1.82.62,2.3.36.48.91.71,1.66.71.36,0,.74-.04,1.16-.12.42-.08.87-.22,1.35-.41l.09,1.32c-.38.17-.81.3-1.29.4-.48.1-.95.15-1.4.15ZM243.99,122.1c-1.28,0-1.98,1.03-2.08,3.08h3.71c-.02-1.1-.16-1.89-.41-2.37-.25-.48-.65-.71-1.21-.71Z"/><path class="cls-2" d="M247.94,121.06v-.11h1.71l2.05,7.09.23,1.01h.14l.23-1.01,2.05-7.09h1.69v.11l-3.03,9.51h-2.05l-3.03-9.51Z"/><path class="cls-2" d="M257.19,124.93h4.29v1.32h-4.29v-1.32Z"/><path class="cls-2" d="M265.79,130.77c-.38,0-.77-.04-1.17-.11-.4-.07-.86-.17-1.38-.3v-1.3c.38.13.79.23,1.22.3s.85.11,1.26.11c.5,0,.89-.13,1.17-.39.28-.26.42-.62.42-1.09,0-.43-.11-.77-.33-1.02-.22-.25-.58-.44-1.08-.57-.29-.06-.58-.13-.88-.21s-.58-.22-.83-.42c-.25-.2-.46-.47-.62-.81s-.25-.81-.25-1.39c0-.89.26-1.58.77-2.08s1.24-.75,2.17-.75c.33,0,.67.03,1.02.08.35.05.76.13,1.24.24v1.3c-.49-.12-.87-.2-1.15-.24-.28-.04-.55-.06-.81-.06-.54,0-.95.13-1.25.38-.3.25-.45.61-.45,1.06,0,.27.04.5.12.67.08.17.18.31.32.42.14.11.3.2.48.27s.38.13.58.18c.36.09.69.21,1,.34.31.13.58.3.8.51.23.21.4.47.54.79.13.32.2.72.2,1.21,0,.89-.28,1.59-.83,2.11-.55.52-1.31.78-2.27.78Z"/><path class="cls-2" d="M272.46,130.66c-.72,0-1.3-.23-1.73-.7-.43-.47-.64-1.1-.64-1.9,0-1.78,1.12-2.75,3.37-2.92l1.71-.12v-.8c0-.78-.14-1.33-.42-1.64-.28-.31-.76-.46-1.45-.46-.14,0-.32,0-.52.03-.2.02-.41.04-.62.06-.21.02-.43.05-.64.09-.21.04-.4.08-.57.12l-.14-1.3c.46-.09.94-.17,1.42-.22.49-.05.93-.08,1.34-.08,1.12,0,1.94.24,2.46.73.52.49.78,1.25.78,2.28v6.75h-1.37l-.16-1.16h-.11c-.36.32-.76.61-1.22.86-.46.26-.95.38-1.49.38ZM273.04,129.36c.18,0,.36-.04.55-.11.19-.07.38-.16.57-.26.19-.1.37-.21.54-.31.17-.11.32-.2.45-.28v-2.28l-1.35.12c-.74.07-1.26.24-1.58.49-.31.26-.47.65-.47,1.18,0,.48.11.83.33,1.08s.54.37.95.37Z"/><path class="cls-2" d="M280.81,130.66c-.72,0-1.3-.23-1.73-.7-.43-.47-.64-1.1-.64-1.9,0-1.78,1.12-2.75,3.37-2.92l1.71-.12v-.8c0-.78-.14-1.33-.42-1.64-.28-.31-.76-.46-1.45-.46-.14,0-.32,0-.52.03-.2.02-.41.04-.62.06-.21.02-.43.05-.64.09-.21.04-.4.08-.57.12l-.14-1.3c.46-.09.94-.17,1.42-.22.49-.05.93-.08,1.34-.08,1.12,0,1.94.24,2.46.73.52.49.78,1.25.78,2.28v6.75h-1.37l-.16-1.16h-.11c-.36.32-.76.61-1.22.86-.46.26-.95.38-1.49.38ZM281.4,129.36c.18,0,.36-.04.55-.11.19-.07.38-.16.57-.26.19-.1.37-.21.54-.31.17-.11.32-.2.45-.28v-2.28l-1.35.12c-.74.07-1.26.24-1.58.49-.31.26-.47.65-.47,1.18,0,.48.11.83.33,1.08s.54.37.95.37Z"/><path class="cls-2" d="M287.38,120.96h1.41l.11,1.21h.11c.09-.09.23-.21.42-.33.18-.12.39-.25.63-.38.24-.13.49-.25.76-.37.27-.11.53-.21.79-.29h.36v1.67h-.66c-.46.07-.9.19-1.3.35-.4.16-.72.34-.96.54v7.21h-1.66v-9.62Z"/><path class="cls-2" d="M293.46,130.65c-.69,0-1.03-.34-1.03-1.02s.34-1.02,1.03-1.02,1.05.34,1.05,1.02-.35,1.02-1.05,1.02Z"/><path class="cls-2" d="M299.27,130.74c-2.08,0-3.12-1.61-3.12-4.83,0-1.66.35-2.93,1.06-3.8.71-.87,1.74-1.31,3.11-1.31.2,0,.4,0,.6.03.2.02.45.05.76.1v-4.74h1.64v14.39h-1.48l-.14-.96h-.05c-.57.75-1.36,1.12-2.37,1.12ZM299.75,129.47c.26,0,.51-.05.74-.14.23-.09.44-.24.61-.43.18-.19.32-.43.42-.71.1-.29.15-.62.15-1v-4.99c-.29-.07-.54-.12-.75-.15-.21-.03-.43-.04-.66-.04-.82,0-1.43.3-1.82.89s-.59,1.54-.59,2.85.15,2.22.46,2.82.78.9,1.42.9Z"/><path class="cls-2" d="M309.05,130.74c-1.26,0-2.22-.41-2.88-1.24-.66-.83-.99-2.02-.99-3.57,0-1.69.32-2.96.96-3.83.64-.87,1.59-1.3,2.85-1.3,2.07,0,3.1,1.41,3.1,4.24,0,.31,0,.56-.02.76s-.03.4-.05.6h-5.17c.06,1.06.27,1.82.62,2.3.36.48.91.71,1.66.71.36,0,.74-.04,1.16-.12.42-.08.87-.22,1.35-.41l.09,1.32c-.38.17-.81.3-1.29.4-.48.1-.95.15-1.4.15ZM308.96,122.1c-1.28,0-1.98,1.03-2.08,3.08h3.71c-.02-1.1-.16-1.89-.41-2.37-.25-.48-.65-.71-1.21-.71Z"/><path class="cls-2" d="M316.22,117.39h1.48l-2.85,15.34h-1.48l2.85-15.34Z"/><path class="cls-2" d="M322.48,130.81c-.55,0-1.14-.06-1.79-.17-.65-.11-1.24-.27-1.77-.47l.11-1.44c.18.08.4.16.66.24.26.08.54.14.84.2s.59.1.89.13c.3.04.57.05.82.05.79,0,1.41-.19,1.83-.56.43-.37.64-.92.64-1.63,0-.32-.06-.6-.17-.84-.11-.24-.28-.45-.49-.65-.21-.2-.48-.38-.81-.55-.33-.17-.7-.34-1.13-.51-.49-.19-.92-.39-1.28-.6-.37-.21-.68-.46-.94-.75-.26-.29-.46-.63-.59-1.02-.13-.39-.2-.86-.2-1.41s.09-1.06.28-1.51c.18-.45.45-.83.79-1.15.34-.31.76-.56,1.25-.73.49-.17,1.03-.26,1.64-.26.45,0,.91.04,1.37.11.46.07.96.17,1.48.3l-.07,1.42c-.52-.13-1.01-.23-1.47-.29-.46-.06-.86-.1-1.2-.1-.74,0-1.32.2-1.74.6-.42.4-.63.94-.63,1.61,0,.31.05.58.16.8.11.23.27.43.48.62.21.19.48.37.8.53.32.16.69.32,1.12.49.5.2.94.42,1.32.65.38.23.7.5.95.79.25.3.45.64.57,1.03.12.39.19.84.19,1.35,0,.57-.09,1.08-.27,1.54-.18.46-.44.85-.77,1.17-.34.32-.75.57-1.23.74-.48.17-1.02.26-1.63.26Z"/><path class="cls-2" d="M333.22,130.75c-.94-.01-1.75-.15-2.43-.42-.68-.27-1.25-.67-1.69-1.22-.45-.55-.77-1.24-.99-2.09-.21-.85-.32-1.86-.32-3.02s.11-2.23.32-3.08.54-1.55.98-2.09c.44-.54,1-.94,1.67-1.19.68-.25,1.48-.38,2.42-.38.32,0,.66.02,1.01.04.35.03.72.08,1.11.15v1.41c-.26-.06-.56-.1-.9-.12-.34-.02-.66-.04-.97-.04-.71,0-1.32.09-1.81.27-.49.18-.89.47-1.2.88-.31.41-.53.95-.68,1.63-.14.68-.21,1.52-.21,2.53s.07,1.8.21,2.47c.14.67.37,1.22.69,1.64.31.42.71.72,1.2.91.49.18,1.07.28,1.75.28.24,0,.54-.01.9-.04.36-.02.7-.07,1.02-.12v1.37c-.27.07-.58.13-.92.18-.34.05-.73.07-1.17.07Z"/><path class="cls-2" d="M336.09,126.53v-.07l4.31-9.25h.11l1.51.18.07.09-4.24,8.62v.07h3.54l.46-4.52h1.23v4.52h1.32v1.32h-1.32v3.08h-1.69v-3.08h-4.99l-.32-.96Z"/><path class="cls-2" d="M349.77,130.77c-1.33,0-2.34-.51-3.02-1.53s-1.02-2.53-1.02-4.52c0-1.2.11-2.27.34-3.2.23-.93.56-1.72,1-2.36s.98-1.13,1.62-1.46c.64-.33,1.38-.5,2.21-.5.32,0,.64.02.97.07.33.05.68.12,1.06.23l-.14,1.41c-.37-.11-.7-.18-.99-.23-.29-.05-.58-.07-.86-.07-1.08,0-1.92.42-2.5,1.26-.59.84-.94,2.08-1.04,3.73.37-.37.79-.66,1.26-.86.47-.21.95-.31,1.45-.31.54,0,1.02.09,1.46.27s.81.44,1.11.77c.3.34.54.75.7,1.23.17.48.25,1.02.25,1.61,0,.68-.09,1.29-.28,1.84-.18.55-.44,1.02-.77,1.42-.33.39-.74.69-1.21.9-.47.21-1,.31-1.58.31ZM349.75,123.73c-.42,0-.84.11-1.28.33s-.81.51-1.12.86c.01,1.52.22,2.63.61,3.34.4.71,1,1.06,1.81,1.06.68,0,1.21-.27,1.61-.8.4-.53.6-1.26.6-2.19,0-.86-.19-1.5-.58-1.94s-.94-.66-1.65-.66Z"/><path class="cls-2" d="M355.01,128.7c0-.54.05-1.02.15-1.46s.26-.86.49-1.26c.23-.4.52-.78.89-1.14.37-.36.81-.73,1.34-1.1.38-.27.7-.53.97-.77s.48-.49.64-.73.28-.49.35-.75c.07-.25.11-.53.11-.83,0-1.33-.73-2-2.19-2-.31,0-.65.03-1.02.1s-.79.17-1.24.31l-.2-1.39c.55-.17,1.06-.29,1.54-.36.48-.07.93-.11,1.36-.11,2.29,0,3.44,1.09,3.44,3.26,0,.42-.05.8-.14,1.17-.1.36-.25.71-.45,1.05-.21.34-.48.67-.8,1-.33.33-.73.66-1.2,1.01-.46.36-.85.68-1.15.98s-.54.58-.72.86c-.18.28-.3.56-.37.85s-.11.61-.11.97v.73h4.92v1.46h-6.59v-1.87Z"/><path class="cls-2" d="M365.62,119.39h-.05l-2.19,1.39h-.21l-.39-.82.05-.23,3.3-2.33h1.21v13.18h-1.71v-11.19Z"/><path class="cls-2" d="M371.45,130.82l-1.35-.25v-.27l3.78-11.45h-4.58l-.05-1.26.18-.2h5.83l.25.94v.5l-3.72,11.76-.32.23Z"/><rect class="cls-5" x="8.92" y="7.25" width="132.51" height="132.51"/><polygon class="cls-3" points="114.43 92.95 131.23 23.94 118.36 23.94 108.86 66.68 104.82 49.75 91.72 49.75 103 92.95 114.43 92.95"/><polygon class="cls-3" points="33.03 93.21 46.59 93.21 46.59 47.09 54.48 47.09 54.48 32.78 24.17 32.78 24.17 47.23 33.03 47.23 33.03 93.21"/><rect class="cls-3" x="57.37" y="32.78" width="13.42" height="14.31"/><rect class="cls-3" x="76.2" y="32.78" width="13.42" height="14.31"/><path class="cls-3" d="M69.53,93.23h20.09v-43.49h-13.55v30.29h-2.47c-2.33,0-2.79-1.22-2.79-2.78v-27.5h-13.46v30.15c0,9.89,4.8,13.35,12.18,13.35Z"/><path class="cls-3" d="M40.79,100.12l-3.67,19.92h3.31l.61-4.41h3.75l.61,4.41h3.31l-3.67-19.92h-4.25ZM41.53,112.65l1.35-8.56h.05l1.35,8.56h-2.76Z"/><path class="cls-3" d="M90.88,100.12l-3.67,19.92h3.31l.61-4.41h3.75l.61,4.41h3.31l-3.67-19.92h-4.25ZM91.63,112.65l1.35-8.56h.05l1.35,8.56h-2.76Z"/><polygon class="cls-3" points="80.42 100.12 77 100.12 77 120.05 85.8 120.05 85.8 117.07 80.42 117.07 80.42 100.12"/><path class="cls-3" d="M119.06,100.12h-5.07v19.92h5.07c3.53,0,5.41-1.93,5.41-6.02v-7.89c0-4.08-1.88-6.01-5.41-6.01ZM121.04,114.45c0,2.1-.64,2.79-2.46,2.79h-1.19v-14.29h1.19c1.82,0,2.46.69,2.46,2.79v8.72Z"/><path class="cls-3" d="M28.87,104.79c0-1.24.61-1.96,1.71-1.96.77,0,1.69.49,1.82,2.21l3.26-.36c-.3-2.81-1.96-4.83-4.75-4.83-3.37,0-5.3,1.79-5.3,4.97,0,5.71,6.95,6.76,6.95,10.7,0,1.19-.8,1.82-1.99,1.82-1.1,0-1.9-.99-2.04-3.01l-3.26.47c.14,2.98,1.96,5.52,5.13,5.52s5.41-1.82,5.41-5.1c0-5.41-6.95-7.04-6.95-10.43Z"/><path class="cls-3" d="M74.26,106c0-4.25-1.96-5.88-5.8-5.88h-4.8v19.92h3.42v-8.17c.61,0,1.32-.03,1.77-.09l2.43,8.25h3.48l-2.9-9.02c1.16-.52,2.4-1.82,2.4-5.02ZM68.3,109.07h-1.21v-6.13h1.21c1.85,0,2.54.69,2.54,3.06s-.69,3.07-2.54,3.07Z"/><path class="cls-3" d="M53.75,100.12l-3.67,19.92h3.31l.61-4.41h3.75l.61,4.41h3.31l-3.67-19.92h-4.25ZM54.5,112.65l1.35-8.56h.05l1.35,8.56h-2.76Z"/><polygon class="cls-3" points="108.19 111.52 108.13 111.52 103.97 100.12 100.8 100.12 100.8 120.05 103.89 120.05 103.89 107.6 103.94 107.6 108.3 120.05 111.28 120.05 111.28 100.12 108.19 100.12 108.19 111.52"/><path class="cls-5" d="M8.92,148.67v65.67h407.36v-65.67H8.92Z"/><path class="cls-3" d="M28.45,166.56h3.4v13.08h4.88l8.88-13.08h3.92l-9.12,13.28-1.32,1v.24l1.44.96,9.72,14.12h-3.88l-9.4-13.6h-5.12v13.6h-3.4v-29.6Z"/><path class="cls-3" d="M58.69,196.56c-3.57,0-5.36-1.95-5.36-5.84v-16.16h3.36v15.2c0,1.41.23,2.41.7,2.98.47.57,1.29.86,2.46.86s2.31-.23,3.48-.7c1.17-.47,2.39-1.05,3.64-1.74v-16.6h3.36v21.6h-2.8l-.24-2.52h-.16c-.99.51-1.85.95-2.58,1.32-.73.37-1.42.68-2.06.92-.64.24-1.26.41-1.86.52-.6.11-1.25.16-1.94.16Z"/><path class="cls-3" d="M76.41,174.56h2.8l.24,2.44h.2c.93-.51,1.79-.94,2.58-1.3.79-.36,1.51-.65,2.18-.88s1.3-.39,1.9-.5c.6-.11,1.19-.16,1.78-.16,1.76,0,3.09.47,3.98,1.42.89.95,1.34,2.42,1.34,4.42v16.16h-3.36v-15.12c0-1.44-.25-2.47-.76-3.08-.51-.61-1.32-.92-2.44-.92-.96,0-2.05.21-3.26.62-1.21.41-2.49.98-3.82,1.7v16.8h-3.36v-21.6Z"/><path class="cls-3" d="M106.61,196.56c-2.75,0-4.82-.89-6.22-2.68-1.4-1.79-2.1-4.56-2.1-8.32s.91-6.63,2.74-8.54c1.83-1.91,4.3-2.86,7.42-2.86.8,0,1.57.04,2.3.12.73.08,1.46.17,2.18.28v-10.72h3.36v32.32h-2.96l-.28-2.48h-.2c-1.44,1.92-3.52,2.88-6.24,2.88ZM107.41,193.88c.72,0,1.41-.11,2.08-.32.67-.21,1.25-.53,1.76-.96.51-.43.91-.93,1.22-1.52.31-.59.46-1.27.46-2.04v-11.84c-1.47-.29-2.99-.44-4.56-.44-2.21,0-3.87.67-4.98,2.02-1.11,1.35-1.66,3.54-1.66,6.58s.47,5.15,1.4,6.5c.93,1.35,2.36,2.02,4.28,2.02Z"/><path class="cls-3" d="M130.81,196.52c-3.12,0-5.48-.92-7.08-2.76-1.6-1.84-2.4-4.53-2.4-8.08,0-3.73.79-6.58,2.36-8.54,1.57-1.96,3.87-2.94,6.88-2.94,5.17,0,7.76,3.19,7.76,9.56,0,.61-.02,1.15-.06,1.6-.04.45-.09.87-.14,1.24h-13.44c.13,2.51.71,4.33,1.74,5.48,1.03,1.15,2.59,1.72,4.7,1.72.96,0,1.97-.1,3.02-.3,1.05-.2,2.11-.5,3.18-.9l.2,2.64c-.96.4-2.04.71-3.24.94-1.2.23-2.36.34-3.48.34ZM130.49,176.84c-3.6,0-5.53,2.44-5.8,7.32h10.56c-.08-2.61-.49-4.49-1.22-5.62-.73-1.13-1.91-1.7-3.54-1.7Z"/><path class="cls-3" d="M143.25,174.56h2.8l.24,2.44h.2c.93-.51,1.79-.94,2.58-1.3.79-.36,1.51-.65,2.18-.88s1.3-.39,1.9-.5c.6-.11,1.19-.16,1.78-.16,1.76,0,3.09.47,3.98,1.42.89.95,1.34,2.42,1.34,4.42v16.16h-3.36v-15.12c0-1.44-.25-2.47-.76-3.08-.51-.61-1.32-.92-2.44-.92-.96,0-2.05.21-3.26.62-1.21.41-2.49.98-3.82,1.7v16.8h-3.36v-21.6Z"/><path class="cls-3" d="M164.77,193.92l11.04-16.36v-.2h-10.68v-2.8h14.88v2.16l-11,16.4v.24h11.4v2.76h-15.64v-2.2Z"/><path class="cls-3" d="M190.21,196.56c-3.57,0-5.36-1.95-5.36-5.84v-16.16h3.36v15.2c0,1.41.23,2.41.7,2.98.47.57,1.29.86,2.46.86s2.31-.23,3.48-.7c1.17-.47,2.39-1.05,3.64-1.74v-16.6h3.36v21.6h-2.8l-.24-2.52h-.16c-.99.51-1.85.95-2.58,1.32-.73.37-1.42.68-2.06.92-.64.24-1.26.41-1.86.52-.6.11-1.25.16-1.94.16Z"/><path class="cls-3" d="M209.81,177.48h-4.08v-2.92h4.12v-1.24c0-1.81.15-3.32.44-4.52.29-1.2.79-2.17,1.5-2.9.71-.73,1.66-1.27,2.86-1.6,1.2-.33,2.71-.54,4.52-.62l.16,2.56c-1.25.11-2.27.27-3.06.48-.79.21-1.41.56-1.88,1.04-.47.48-.79,1.11-.96,1.9-.17.79-.26,1.81-.26,3.06v1.84h5.16v2.92h-5.16v18.68h-3.36v-18.68Z"/><path class="cls-3" d="M222.13,174.56h2.8l.24,2.84h.2c1.17-.69,2.36-1.34,3.56-1.94,1.2-.6,2.37-1.02,3.52-1.26h1v3.28h-1.24c-1.17.16-2.34.45-3.5.88s-2.23.93-3.22,1.52v16.28h-3.36v-21.6Z"/><path class="cls-3" d="M238.89,169.96c-1.41,0-2.12-.69-2.12-2.08s.71-2.04,2.12-2.04,2.12.68,2.12,2.04-.71,2.08-2.12,2.08ZM237.21,174.56h3.36v21.6h-3.36v-21.6Z"/><path class="cls-3" d="M255.13,196.52c-3.12,0-5.48-.92-7.08-2.76-1.6-1.84-2.4-4.53-2.4-8.08,0-3.73.79-6.58,2.36-8.54,1.57-1.96,3.87-2.94,6.88-2.94,5.17,0,7.76,3.19,7.76,9.56,0,.61-.02,1.15-.06,1.6s-.09.87-.14,1.24h-13.44c.13,2.51.71,4.33,1.74,5.48,1.03,1.15,2.59,1.72,4.7,1.72.96,0,1.97-.1,3.02-.3,1.05-.2,2.11-.5,3.18-.9l.2,2.64c-.96.4-2.04.71-3.24.94-1.2.23-2.36.34-3.48.34ZM254.81,176.84c-3.6,0-5.53,2.44-5.8,7.32h10.56c-.08-2.61-.49-4.49-1.22-5.62-.73-1.13-1.91-1.7-3.54-1.7Z"/><path class="cls-3" d="M274.81,196.56c-2.75,0-4.82-.89-6.22-2.68-1.4-1.79-2.1-4.56-2.1-8.32s.91-6.63,2.74-8.54c1.83-1.91,4.3-2.86,7.42-2.86.8,0,1.57.04,2.3.12s1.46.17,2.18.28v-10.72h3.36v32.32h-2.96l-.28-2.48h-.2c-1.44,1.92-3.52,2.88-6.24,2.88ZM275.61,193.88c.72,0,1.41-.11,2.08-.32.67-.21,1.25-.53,1.76-.96s.91-.93,1.22-1.52c.31-.59.46-1.27.46-2.04v-11.84c-1.47-.29-2.99-.44-4.56-.44-2.21,0-3.87.67-4.98,2.02-1.11,1.35-1.66,3.54-1.66,6.58s.47,5.15,1.4,6.5,2.36,2.02,4.28,2.02Z"/><path class="cls-3" d="M299.01,196.52c-3.12,0-5.48-.92-7.08-2.76-1.6-1.84-2.4-4.53-2.4-8.08,0-3.73.79-6.58,2.36-8.54,1.57-1.96,3.87-2.94,6.88-2.94,5.17,0,7.76,3.19,7.76,9.56,0,.61-.02,1.15-.06,1.6s-.09.87-.14,1.24h-13.44c.13,2.51.71,4.33,1.74,5.48,1.03,1.15,2.59,1.72,4.7,1.72.96,0,1.97-.1,3.02-.3,1.05-.2,2.11-.5,3.18-.9l.2,2.64c-.96.4-2.04.71-3.24.94-1.2.23-2.36.34-3.48.34ZM298.69,176.84c-3.6,0-5.53,2.44-5.8,7.32h10.56c-.08-2.61-.49-4.49-1.22-5.62-.73-1.13-1.91-1.7-3.54-1.7Z"/><path class="cls-3" d="M311.45,174.56h2.8l.24,2.44h.2c.93-.51,1.79-.94,2.58-1.3.79-.36,1.51-.65,2.18-.88.67-.23,1.3-.39,1.9-.5.6-.11,1.19-.16,1.78-.16,1.76,0,3.09.47,3.98,1.42.89.95,1.34,2.42,1.34,4.42v16.16h-3.36v-15.12c0-1.44-.25-2.47-.76-3.08-.51-.61-1.32-.92-2.44-.92-.96,0-2.05.21-3.26.62-1.21.41-2.49.98-3.82,1.7v16.8h-3.36v-21.6Z"/><path class="cls-3" d="M334.41,163.84h3.36v13.12c1.81-.96,3.37-1.67,4.66-2.12,1.29-.45,2.51-.68,3.66-.68,1.76,0,3.09.47,3.98,1.42.89.95,1.34,2.42,1.34,4.42v16.16h-3.36v-15.12c0-1.44-.25-2.47-.76-3.08-.51-.61-1.32-.92-2.44-.92-.96,0-2.04.21-3.24.62-1.2.41-2.48.98-3.84,1.7v16.8h-3.36v-32.32Z"/><path class="cls-3" d="M365.81,196.52c-3.12,0-5.48-.92-7.08-2.76-1.6-1.84-2.4-4.53-2.4-8.08,0-3.73.79-6.58,2.36-8.54,1.57-1.96,3.87-2.94,6.88-2.94,5.17,0,7.76,3.19,7.76,9.56,0,.61-.02,1.15-.06,1.6s-.09.87-.14,1.24h-13.44c.13,2.51.71,4.33,1.74,5.48,1.03,1.15,2.59,1.72,4.7,1.72.96,0,1.97-.1,3.02-.3,1.05-.2,2.11-.5,3.18-.9l.2,2.64c-.96.4-2.04.71-3.24.94-1.2.23-2.36.34-3.48.34ZM365.49,176.84c-3.6,0-5.53,2.44-5.8,7.32h10.56c-.08-2.61-.49-4.49-1.22-5.62-.73-1.13-1.91-1.7-3.54-1.7Z"/><path class="cls-3" d="M379.96,169.96c-1.41,0-2.12-.69-2.12-2.08s.71-2.04,2.12-2.04,2.12.68,2.12,2.04-.71,2.08-2.12,2.08ZM378.29,174.56h3.36v21.6h-3.36v-21.6Z"/><path class="cls-3" d="M395.77,196.44c-3.97,0-5.96-1.99-5.96-5.96v-12.96h-4.28v-2.96h4.44l.48-5.4,2.68-.4v5.8h6.08v2.96h-6.08v12.28c0,2.61,1.19,3.92,3.56,3.92.37,0,.79-.03,1.24-.1.45-.07.91-.17,1.36-.3v2.68c-1.23.29-2.4.44-3.52.44Z"/></svg>