<?xml version="1.0" encoding="UTF-8"?>
<svg id="Layer_2" data-name="Layer 2" xmlns="http://www.w3.org/2000/svg" width="289.56" height="103.73" version="1.1" viewBox="0 0 289.56 103.73">
  <defs>
    <style>
      .cls-1 {
        fill: #3d9dc1;
      }

      .cls-1, .cls-2, .cls-3, .cls-4 {
        stroke-width: 0px;
      }

      .cls-2 {
        fill: #000;
      }

      .cls-5 {
        isolation: isolate;
      }

      .cls-3 {
        fill: #3c9cc0;
      }

      .cls-4 {
        fill: #fff;
      }
    </style>
  </defs>
  <rect class="cls-4" width="289.56" height="103.73"/>
  <g id="Ebene_1" data-name="Ebene 1">
    <g class="cls-5">
      <g class="cls-5">
        <path class="cls-1" d="M90.73,10.74c-.06-.22.06-.38.29-.38h1.47c.13,0,.26.11.29.22l1.66,6.39h.06l2.54-6.59c.03-.1.11-.18.27-.18h.29c.16,0,.24.08.27.18l2.56,6.59h.06l1.63-6.39c.03-.11.16-.22.29-.22h1.47c.22,0,.35.16.29.38l-3.02,10.76c-.03.13-.16.22-.29.22h-.26c-.14,0-.24-.08-.27-.18l-2.87-7.25h-.08l-2.83,7.25c-.05.1-.11.18-.27.18h-.26c-.13,0-.26-.1-.29-.22l-3.03-10.76h.03Z"/>
        <path class="cls-1" d="M104.01,21.15l4.98-10.77c.05-.1.13-.18.27-.18h.16c.16,0,.22.08.27.18l4.93,10.77c.1.21-.03.42-.27.42h-1.39c-.24,0-.35-.1-.46-.32l-.78-1.73h-4.79l-.78,1.73c-.06.16-.21.32-.46.32h-1.39c-.24,0-.37-.21-.27-.42h-.02ZM106.17,8.13c0-.66.5-1.15,1.15-1.15s1.17.5,1.17,1.15-.51,1.17-1.17,1.17-1.15-.51-1.15-1.17ZM110.92,17.74l-1.6-3.52h-.05l-1.57,3.52h3.22ZM110.12,8.13c0-.66.5-1.15,1.15-1.15s1.17.5,1.17,1.15-.51,1.17-1.17,1.17-1.15-.51-1.15-1.17Z"/>
        <path class="cls-1" d="M116.02,10.66c0-.16.13-.3.3-.3h4.58c1.92,0,3.49,1.54,3.49,3.44,0,1.47-.98,2.67-2.37,3.23l2.19,4.07c.11.21,0,.46-.27.46h-1.68c-.14,0-.22-.08-.26-.14l-2.13-4.24h-1.78v4.08c0,.16-.14.3-.3.3h-1.47c-.18,0-.3-.14-.3-.3,0,0,0-10.6,0-10.6ZM120.73,15.46c.85,0,1.58-.74,1.58-1.63,0-.85-.74-1.55-1.58-1.55h-2.61v3.19h2.61v-.01Z"/>
        <path class="cls-1" d="M127.88,10.44c.02-.13.11-.24.29-.24h.26c.13,0,.22.06.27.16l3.52,7.55h.05l3.52-7.55c.05-.1.13-.16.27-.16h.26c.18,0,.27.11.29.24l1.89,10.76c.05.22-.08.37-.29.37h-1.46c-.14,0-.27-.13-.3-.24l-.94-6.07h-.05l-2.8,6.29c-.03.1-.13.18-.27.18h-.29c-.14,0-.22-.08-.27-.18l-2.83-6.29h-.05l-.93,6.07c-.02.11-.14.24-.29.24h-1.44c-.21,0-.34-.14-.3-.37l1.9-10.76h-.01Z"/>
        <path class="cls-1" d="M140.6,10.66c0-.16.13-.3.3-.3h6.51c.18,0,.3.14.3.3v1.31c0,.16-.13.3-.3.3h-4.74v2.63h3.95c.16,0,.3.14.3.3v1.33c0,.18-.14.3-.3.3h-3.95v2.8h4.74c.18,0,.3.14.3.3v1.31c0,.16-.13.3-.3.3h-6.51c-.18,0-.3-.14-.3-.3v-10.6.02Z"/>
        <path class="cls-1" d="M149.82,10.66c0-.16.13-.3.3-.3h3.76c1.97,0,3.59,1.6,3.59,3.54s-1.62,3.6-3.57,3.6h-2v3.76c0,.16-.14.3-.3.3h-1.47c-.18,0-.3-.14-.3-.3v-10.6h-.01ZM153.82,15.54c.9,0,1.58-.72,1.58-1.67,0-.88-.69-1.55-1.58-1.55h-1.92v3.22h1.92Z"/>
        <path class="cls-1" d="M159.13,10.66c0-.16.14-.3.3-.3h1.52c.18,0,.3.14.3.3v6.67c0,1.36.93,2.3,2.32,2.3s2.34-.94,2.34-2.29v-6.69c0-.16.13-.3.3-.3h1.52c.16,0,.3.14.3.3v6.79c0,2.43-1.94,4.27-4.47,4.27s-4.45-1.84-4.45-4.27v-6.79l.02.01Z"/>
        <path class="cls-1" d="M171.82,10.44c.02-.13.11-.24.29-.24h.26c.13,0,.22.06.27.16l3.52,7.55h.05l3.52-7.55c.05-.1.13-.16.27-.16h.26c.18,0,.27.11.29.24l1.89,10.76c.05.22-.08.37-.29.37h-1.46c-.14,0-.27-.13-.3-.24l-.94-6.07h-.05l-2.8,6.29c-.03.1-.13.18-.27.18h-.29c-.14,0-.22-.08-.27-.18l-2.83-6.29h-.05l-.93,6.07c-.02.11-.14.24-.29.24h-1.44c-.21,0-.34-.14-.3-.37l1.9-10.76h-.01Z"/>
        <path class="cls-1" d="M184.54,10.66c0-.16.13-.3.3-.3h3.76c1.97,0,3.59,1.6,3.59,3.54s-1.62,3.6-3.57,3.6h-2v3.76c0,.16-.14.3-.3.3h-1.47c-.18,0-.3-.14-.3-.3v-10.6h-.01ZM188.54,15.54c.9,0,1.58-.72,1.58-1.67,0-.88-.69-1.55-1.58-1.55h-1.92v3.22h1.92Z"/>
        <path class="cls-1" d="M193.96,10.66c0-.16.13-.3.3-.3h6.51c.18,0,.3.14.3.3v1.31c0,.16-.13.3-.3.3h-4.74v2.63h3.95c.16,0,.3.14.3.3v1.33c0,.18-.14.3-.3.3h-3.95v2.8h4.74c.18,0,.3.14.3.3v1.31c0,.16-.13.3-.3.3h-6.51c-.18,0-.3-.14-.3-.3v-10.6.02Z"/>
        <path class="cls-1" d="M205.69,21.15l4.98-10.77c.05-.1.13-.18.27-.18h.16c.16,0,.22.08.27.18l4.93,10.77c.1.21-.03.42-.27.42h-1.39c-.24,0-.35-.1-.46-.32l-.79-1.73h-4.79l-.79,1.73c-.06.16-.21.32-.46.32h-1.39c-.24,0-.37-.21-.27-.42ZM212.6,17.74l-1.6-3.52h-.05l-1.57,3.52h3.22Z"/>
        <path class="cls-1" d="M217.7,10.49c0-.16.14-.29.3-.29h.24c.11,0,.19.03.27.11l6.53,6.96h.03v-6.61c0-.16.13-.3.3-.3h1.47c.16,0,.3.14.3.3v10.77c0,.16-.14.29-.3.29h-.22c-.11,0-.19-.03-.27-.11l-6.56-7.23h-.03v6.88c0,.16-.13.3-.3.3h-1.46c-.16,0-.3-.14-.3-.3v-10.77Z"/>
        <path class="cls-1" d="M235.63,15.9c.93.32,1.92,1.07,1.92,2.58,0,1.79-1.54,3.09-3.49,3.09h-3.87c-.18,0-.3-.14-.3-.3v-10.6c0-.16.13-.3.3-.3h3.67c1.91,0,3.38,1.28,3.38,2.96,0,1.2-.77,2.08-1.6,2.5v.08l-.01-.01ZM233.69,15.06c.82,0,1.34-.64,1.34-1.44s-.53-1.36-1.34-1.36h-1.74v2.8s1.74,0,1.74,0ZM233.91,19.67c.8,0,1.41-.62,1.41-1.46s-.61-1.39-1.41-1.39h-1.97v2.85h1.97Z"/>
        <path class="cls-1" d="M239.74,10.66c0-.16.14-.3.3-.3h1.49c.16,0,.3.14.3.3v10.6c0,.16-.14.3-.3.3h-1.49c-.16,0-.3-.14-.3-.3v-10.6Z"/>
        <path class="cls-1" d="M244.55,10.66c0-.16.13-.3.3-.3h6.51c.18,0,.3.14.3.3v1.31c0,.16-.13.3-.3.3h-4.74v2.63h3.95c.16,0,.3.14.3.3v1.33c0,.18-.14.3-.3.3h-3.95v2.8h4.74c.18,0,.3.14.3.3v1.31c0,.16-.13.3-.3.3h-6.51c-.18,0-.3-.14-.3-.3v-10.6.02Z"/>
        <path class="cls-1" d="M255.58,12.28h-2.45c-.18,0-.3-.14-.3-.3v-1.31c0-.16.13-.3.3-.3h7c.18,0,.3.14.3.3v1.31c0,.16-.13.3-.3.3h-2.45v8.98c0,.16-.14.3-.3.3h-1.49c-.16,0-.3-.14-.3-.3v-8.98h-.01Z"/>
        <path class="cls-1" d="M262.2,10.66c0-.16.13-.3.3-.3h6.51c.18,0,.3.14.3.3v1.31c0,.16-.13.3-.3.3h-4.74v2.63h3.95c.16,0,.3.14.3.3v1.33c0,.18-.14.3-.3.3h-3.95v2.8h4.74c.18,0,.3.14.3.3v1.31c0,.16-.13.3-.3.3h-6.51c-.18,0-.3-.14-.3-.3v-10.6.02Z"/>
        <path class="cls-1" d="M271.41,10.66c0-.16.13-.3.3-.3h4.58c1.92,0,3.49,1.54,3.49,3.44,0,1.47-.98,2.67-2.37,3.23l2.19,4.07c.11.21,0,.46-.27.46h-1.68c-.14,0-.22-.08-.26-.14l-2.13-4.24h-1.78v4.08c0,.16-.14.3-.3.3h-1.47c-.18,0-.3-.14-.3-.3,0,0,0-10.6,0-10.6ZM276.12,15.46c.85,0,1.58-.74,1.58-1.63,0-.85-.74-1.55-1.58-1.55h-2.61v3.19h2.61v-.01Z"/>
      </g>
      <g class="cls-5">
        <path class="cls-2" d="M170.23,28.02c0-.14.11-.27.27-.27h5.7c.15,0,.27.13.27.27v1.15c0,.14-.11.27-.27.27h-4.15v2.3h3.46c.14,0,.27.13.27.27v1.16c0,.15-.13.27-.27.27h-3.46v2.45h4.15c.15,0,.27.13.27.27v1.15c0,.14-.11.27-.27.27h-5.7c-.15,0-.27-.13-.27-.27v-9.29Z"/>
        <path class="cls-2" d="M177.83,31.4c0-.18.15-.31.31-.31h.53c.15,0,.22.07.27.2l.24.6c.24-.27.84-.94,2.09-.94,2.06,0,2.59,1.39,2.59,2.96v3.35c0,.17-.15.31-.31.31h-1.13c-.17,0-.31-.14-.31-.31v-3.35c0-.84-.34-1.36-1.12-1.36-.84,0-1.25.56-1.4,1.01v3.7c0,.24-.1.31-.41.31h-1.04c-.15,0-.31-.14-.31-.31v-5.86Z"/>
        <path class="cls-2" d="M188.88,37.72c-.64,0-1.26-.15-1.55-.27v3.14c0,.15-.15.31-.31.31h-1.13c-.17,0-.31-.15-.31-.31v-9.19c0-.17.14-.31.31-.31h.52c.15,0,.25.13.31.31l.17.52s.74-.97,2.12-.97c1.76,0,3.1,1.43,3.1,3.39s-1.28,3.38-3.21,3.38h-.02ZM187.32,35.75s.53.36,1.34.36c1.06,0,1.61-.87,1.61-1.78s-.52-1.79-1.53-1.79c-.84,0-1.29.53-1.43.9v2.31h.01Z"/>
        <path class="cls-2" d="M195.62,33.47c.66,0,1.25.18,1.25.18.03-.83-.21-1.22-.9-1.22-.59,0-1.44.13-1.82.24-.21.07-.34-.08-.36-.28l-.14-.73c-.06-.24.07-.35.21-.39.14-.06,1.16-.32,2.21-.32,2.02,0,2.44,1.05,2.44,2.82v3.49c0,.17-.14.31-.31.31h-.48c-.11,0-.2-.04-.28-.22l-.18-.43c-.38.36-1.02.81-2.03.81-1.29,0-2.18-.83-2.18-2.21,0-1.15.94-2.03,2.58-2.03l-.01-.02ZM195.67,36.41c.57,0,1.08-.45,1.16-.69v-.95s-.43-.2-.95-.2c-.74,0-1.15.35-1.15.92s.34.91.94.91v.01Z"/>
        <path class="cls-2" d="M200.26,28.06c0-.15.15-.31.31-.31h1.13c.15,0,.31.15.31.31v9.19c0,.17-.15.31-.31.31h-1.13c-.15,0-.31-.14-.31-.31v-9.19Z"/>
      </g>
    </g>
    <rect class="cls-3" width="84.48" height="103.73"/>
    <g>
      <path class="cls-4" d="M68.17,77.45c1.02.02,1.85.84,1.86,1.86v5.44c-.02,1.02-.84,1.85-1.86,1.86H16.32c-1.02-.02-1.85-.84-1.86-1.86v-5.44c.02-1.02.84-1.85,1.86-1.86h51.85Z"/>
      <path class="cls-4" d="M60.72,58.83l-6.16-6.02c1.8-3.31,3.06-6.89,3.72-10.6.14-1-.14-1.43-1.43-1.58l-2.15-.13c-2.01-.14-2.01.72-2.15,1.72-.37,2.25-1.09,4.43-2.15,6.45l-13.74-13.76-.86-.86c-2.15-2.15-3.87-4.15-3.87-6.59-.13-3.11,2.29-5.74,5.4-5.87.16-.01.31-.01.47,0,4.01,0,6.45,2.58,6.45,5.44.03.34-.02.68-.14,1-.14,1.29.14,1.72,2.15,1.72h2.29c1.29,0,1.29-.72,1.43-1.72.07-.43.12-.86.14-1.29,0-5.73-4.73-10.31-12.03-10.31-6.73,0-12.18,4.73-12.18,10.89,0,3.87,2.15,6.73,4.58,9.45l1.58,1.72v.14c-2.44,1.43-9.17,5.3-9.17,13.32,0,6.59,5.01,12.32,13.32,12.32,5.48.13,10.76-2.12,14.47-6.16l5.3,5.3c.66.83,1.87.96,2.7.29.06-.05.11-.1.17-.15l1.72-1.72c1.43-1.42.86-2.14.14-3ZM36.8,58.69c-3.95.24-7.34-2.77-7.58-6.72-.01-.15-.01-.29-.01-.44,0-5.3,4.44-8.02,6.45-9.31l11.03,11.6c-2.36,3.07-6.02,4.87-9.89,4.87Z"/>
    </g>
    <rect class="cls-1" x="82.84" width="206" height="1.45"/>
    <rect class="cls-1" x="82.9" y="45.09" width="206" height="1.54"/>
    <g class="cls-5">
      <g class="cls-5">
        <path class="cls-3" d="M132.5,79.61c.48-.15,1.95-.79,2.26-1.92-.17.1-.69.29-1.17.29-1.03,0-2.1-.77-2.1-2.24,0-1.3,1.06-2.36,2.33-2.36,1.61,0,2.45,1.3,2.45,2.84,0,3.01-2.55,4.16-3.43,4.44-.15.05-.25,0-.29-.14l-.24-.61c-.05-.12-.01-.23.19-.3ZM135.03,76.07c0-.7-.37-1.53-1.2-1.53-.65,0-1.18.57-1.18,1.22s.53,1.21,1.19,1.21,1.08-.53,1.19-.9h0Z"/>
        <path class="cls-3" d="M139.29,79.38h2.2c.11,0,.2.09.2.19v.71c0,.11-.09.2-.2.2h-4.06c-.11,0-.19-.09-.19-.2v-.1c0-.11.05-.19.08-.23.7-.86,1.93-2.46,2.59-3.33.32-.39.52-.79.52-1.14,0-.46-.35-.93-1.09-.93-.49,0-.92.35-1.15.6-.09.09-.2.09-.28,0l-.5-.49c-.06-.06-.08-.19-.01-.27,0,0,.81-1.01,2.03-1.01,1.48,0,2.3.94,2.3,2.05,0,.67-.29,1.08-.69,1.66-.43.62-1.21,1.58-1.75,2.27v.02h0Z"/>
      </g>
      <g class="cls-5">
        <path class="cls-2" d="M144.86,73.61c.02-.07.1-.13.18-.13h.72c.14,0,.22.11.18.25l-1.95,6.62c-.02.07-.11.13-.18.13h-.73c-.13,0-.22-.11-.18-.25l1.96-6.62h0Z"/>
        <path class="cls-2" d="M148,75.35l-.9.2c-.1.02-.2-.04-.21-.14l-.06-.5c0-.11,0-.15.1-.22l1.28-1.08c.1-.09.21-.13.35-.13h.52c.11,0,.19.09.19.19v6.61c0,.11-.08.2-.19.2h-.88c-.12,0-.2-.09-.2-.2v-4.93h0Z"/>
        <path class="cls-2" d="M150.83,76.98c0-2.26.95-3.6,2.59-3.6s2.6,1.34,2.6,3.6-.95,3.6-2.6,3.6-2.59-1.35-2.59-3.6ZM154.71,76.98c0-1.53-.5-2.41-1.3-2.41s-1.29.88-1.29,2.41.5,2.42,1.29,2.42,1.3-.89,1.3-2.42Z"/>
        <path class="cls-2" d="M157.24,76.98c0-2.26.95-3.6,2.59-3.6s2.6,1.34,2.6,3.6-.95,3.6-2.6,3.6-2.59-1.35-2.59-3.6ZM161.12,76.98c0-1.53-.5-2.41-1.3-2.41s-1.29.88-1.29,2.41.5,2.42,1.29,2.42,1.3-.89,1.3-2.42Z"/>
        <path class="cls-2" d="M166.29,73.67c0-.1.08-.19.19-.19h2.35c1.23,0,2.24,1,2.24,2.21s-1.01,2.25-2.23,2.25h-1.25v2.35c0,.1-.09.19-.19.19h-.92c-.11,0-.19-.09-.19-.19v-6.62h0ZM168.79,76.72c.56,0,.99-.45.99-1.04,0-.55-.43-.97-.99-.97h-1.2v2.01h1.2Z"/>
        <path class="cls-2" d="M171.84,76.08c0-.13.1-.22.22-.22h.81c.12,0,.22.09.22.22v2.45c0,.61.21.92.78.92.51,0,.75-.46.82-.86v-2.51c0-.18.06-.22.25-.22h.78c.12,0,.22.09.22.22v4.18c0,.12-.1.22-.22.22h-.36c-.11,0-.19-.08-.22-.17l-.13-.39c-.24.25-.72.67-1.43.67-1.43,0-1.74-.89-1.74-2.06v-2.45Z"/>
        <path class="cls-2" d="M177.22,76.08c0-.13.11-.22.22-.22h.38c.11,0,.16.05.19.14l.17.43c.17-.19.6-.67,1.49-.67,1.47,0,1.85.99,1.85,2.11v2.39c0,.12-.11.22-.22.22h-.81c-.12,0-.22-.1-.22-.22v-2.39c0-.6-.24-.97-.8-.97-.6,0-.89.4-1,.72v2.64c0,.17-.07.22-.29.22h-.74c-.11,0-.22-.1-.22-.22v-4.18h0Z"/>
        <path class="cls-2" d="M182.75,73.7c0-.11.11-.22.22-.22h.81c.12,0,.22.11.22.22v3.91l1.59-1.61c.08-.07.16-.14.29-.14h.94c.19,0,.26.21.15.34l-1.83,1.8,1.92,2.15c.12.13.05.33-.14.33h-.98c-.08,0-.17-.04-.2-.09l-1.74-2.08v1.95c0,.12-.1.22-.22.22h-.81c-.11,0-.22-.1-.22-.22v-6.56h0Z"/>
        <path class="cls-2" d="M188.23,76.98h-.45c-.12,0-.21-.11-.21-.22v-.68c0-.13.09-.22.21-.22h.45v-1.28c0-.12.11-.22.22-.22h.82c.12,0,.21.1.21.22v1.28h1.08c.12,0,.22.09.22.22v.68c0,.11-.1.22-.22.22h-1.08v2.08c0,.31.15.38.38.38.2,0,.58-.11.7-.15.13-.05.24,0,.26.12l.13.61c.03.12-.02.21-.13.27-.16.09-.82.3-1.3.3-1.03,0-1.29-.69-1.29-1.49v-2.12h0Z"/>
        <path class="cls-2" d="M193.87,75.76c1.2,0,2.12.89,2.12,2.14,0,.07,0,.23-.02.3-.01.12-.12.21-.22.21h-2.96c0,.57.48,1.07,1.15,1.07.46,0,.78-.17.99-.34.11-.09.23-.1.3,0l.39.52c.08.09.09.2-.02.3-.4.34-.97.63-1.72.63-1.38,0-2.34-1.1-2.34-2.42s.96-2.41,2.33-2.41h0ZM194.72,77.59c-.02-.45-.38-.8-.89-.8-.56,0-.92.34-.98.8h1.87Z"/>
        <path class="cls-2" d="M199.33,73.07c0-.11.09-.19.19-.19h.13c.1,0,.18.08.18.19v9.61c0,.1-.09.18-.19.18h-.12c-.1,0-.19-.08-.19-.18v-9.61Z"/>
        <path class="cls-2" d="M203.48,76.98c0-2.26.95-3.6,2.59-3.6s2.6,1.34,2.6,3.6-.95,3.6-2.6,3.6-2.59-1.35-2.59-3.6ZM207.36,76.98c0-1.53-.5-2.41-1.3-2.41s-1.29.88-1.29,2.41.5,2.42,1.29,2.42,1.3-.89,1.3-2.42Z"/>
        <path class="cls-2" d="M209.96,79.38l.51-.51c.07-.06.17-.08.25,0,.29.24.71.58,1.33.58.7,0,1.19-.57,1.19-1.22s-.43-1.15-1.24-1.15h-1.59c-.21,0-.32-.19-.32-.36v-3.04c0-.1.08-.19.2-.19h3.25c.11,0,.2.09.2.19v.7c0,.11-.09.2-.2.2h-2.29v1.37h.89c1.46,0,2.36.94,2.36,2.28s-1.07,2.36-2.49,2.36c-1.11,0-1.78-.54-2.03-.85-.14-.16-.15-.23-.02-.35v-.01Z"/>
        <path class="cls-2" d="M216.27,78.68c.52,0,.96.44.96.96s-.44.95-.96.95-.95-.44-.95-.95.43-.96.95-.96Z"/>
        <path class="cls-2" d="M220.08,79.38h2.2c.11,0,.2.09.2.19v.71c0,.11-.09.2-.2.2h-4.06c-.11,0-.19-.09-.19-.2v-.1c0-.11.05-.19.08-.23.7-.86,1.93-2.46,2.59-3.33.32-.39.52-.79.52-1.14,0-.46-.35-.93-1.09-.93-.49,0-.92.35-1.15.6-.09.09-.2.09-.28,0l-.5-.49c-.06-.06-.08-.19,0-.27,0,0,.81-1.01,2.03-1.01,1.48,0,2.3.94,2.3,2.05,0,.67-.29,1.08-.69,1.66-.43.62-1.21,1.58-1.75,2.27v.02h-.01Z"/>
        <path class="cls-2" d="M223.76,76.98c0-2.26.95-3.6,2.59-3.6s2.6,1.34,2.6,3.6-.95,3.6-2.6,3.6-2.59-1.35-2.59-3.6ZM227.64,76.98c0-1.53-.5-2.41-1.3-2.41s-1.29.88-1.29,2.41.5,2.42,1.29,2.42,1.3-.89,1.3-2.42Z"/>
        <path class="cls-2" d="M232.03,79.38h2.2c.11,0,.2.09.2.19v.71c0,.11-.09.2-.2.2h-4.06c-.11,0-.19-.09-.19-.2v-.1c0-.11.05-.19.08-.23.7-.86,1.93-2.46,2.59-3.33.32-.39.52-.79.52-1.14,0-.46-.35-.93-1.09-.93-.49,0-.92.35-1.15.6-.09.09-.2.09-.28,0l-.5-.49c-.06-.06-.08-.19-.01-.27,0,0,.81-1.01,2.03-1.01,1.48,0,2.3.94,2.3,2.05,0,.67-.29,1.08-.69,1.66-.43.62-1.21,1.58-1.75,2.27v.02h0Z"/>
        <path class="cls-2" d="M235.38,78.79v-.65c0-.14.04-.25.13-.35l3.54-4.3c.07-.08.13-.11.26-.11h.49c.11,0,.2.09.2.2v4.34h.82c.12,0,.2.08.2.18v.69c0,.1-.08.2-.2.2h-.82v1.29c.01.11-.08.2-.19.2h-.85c-.1,0-.2-.09-.2-.2v-1.29h-3.18c-.11,0-.2-.1-.2-.2ZM236.75,77.95h2.04v-2.49h-.02l-2.02,2.47v.02h0Z"/>
      </g>
      <g class="cls-5">
        <path class="cls-2" d="M135.17,90.12c-.07-.14.03-.26.19-.26h.78c.06,0,.18.05.2.14l.7,2.2h0l1.21-2.34s.07-.1.18-.1h.09c.11,0,.16.04.19.1l1.2,2.34h0l.69-2.2c.04-.13.14-.14.26-.14h.7c.16,0,.26.12.21.26l-1.42,4.34c-.02.07-.1.13-.21.13h-.04c-.1,0-.15-.05-.19-.11l-1.45-2.78h0l-1.45,2.78c-.03.06-.1.11-.18.11h-.06c-.11,0-.18-.06-.2-.13l-1.41-4.34h.01Z"/>
        <path class="cls-2" d="M142.3,90.12c-.07-.14.03-.26.19-.26h.78c.06,0,.18.05.2.14l.7,2.2h0l1.21-2.34s.07-.1.18-.1h.09c.11,0,.16.04.19.1l1.2,2.34h0l.69-2.2c.04-.13.14-.14.26-.14h.7c.16,0,.26.12.21.26l-1.42,4.34c-.02.07-.1.13-.21.13h-.04c-.1,0-.15-.05-.19-.11l-1.45-2.78h0l-1.45,2.78c-.03.06-.1.11-.18.11h-.06c-.11,0-.18-.06-.2-.13l-1.41-4.34h.01Z"/>
        <path class="cls-2" d="M149.43,90.12c-.07-.14.03-.26.19-.26h.78c.06,0,.18.05.2.14l.7,2.2h0l1.21-2.34s.07-.1.18-.1h.09c.11,0,.16.04.19.1l1.2,2.34h0l.69-2.2c.04-.13.14-.14.26-.14h.7c.16,0,.26.12.21.26l-1.42,4.34c-.02.07-.1.13-.21.13h-.04c-.1,0-.15-.05-.19-.11l-1.45-2.78h0l-1.45,2.78c-.03.06-.1.11-.18.11h-.06c-.11,0-.18-.06-.2-.13l-1.41-4.34h.01Z"/>
        <path class="cls-2" d="M157.43,92.68c.52,0,.96.44.96.96s-.44.95-.96.95-.95-.44-.95-.95.43-.96.95-.96Z"/>
        <path class="cls-2" d="M159.42,87.7c0-.11.11-.22.22-.22h.81c.12,0,.22.11.22.22v2.45c.23-.2.63-.39,1.18-.39,1.47,0,1.87,1.02,1.87,2.18v2.32c0,.12-.11.22-.22.22h-.81c-.12,0-.22-.1-.22-.22v-2.33c0-.64-.29-1.03-.84-1.03s-.84.34-.96.81v2.55c0,.13-.06.22-.24.22h-.79c-.11,0-.22-.1-.22-.22v-6.56h0Z"/>
        <path class="cls-2" d="M167.02,89.76c1.31,0,2.37,1.1,2.37,2.4s-1.06,2.43-2.37,2.43-2.36-1.11-2.36-2.43,1.06-2.4,2.36-2.4ZM167.02,93.45c.67,0,1.21-.58,1.21-1.29s-.54-1.26-1.21-1.26-1.2.56-1.2,1.26.53,1.29,1.2,1.29Z"/>
        <path class="cls-2" d="M170.38,90.08c0-.13.11-.22.22-.22h.36c.1,0,.17.05.19.13l.17.44c.19-.22.6-.67,1.41-.67.67,0,1,.24,1.38.7.2-.21.66-.7,1.49-.7,1.48,0,1.83.94,1.83,2.14v2.36c0,.12-.1.22-.23.22h-.8c-.12,0-.22-.1-.22-.22v-2.39c0-.6-.22-.97-.8-.97-.67,0-.86.48-.86.48,0,0,.02.23.02.44v2.44c0,.12-.11.22-.22.22h-.82c-.13,0-.22-.1-.22-.22v-2.39c0-.6-.17-.97-.76-.97s-.78.4-.89.72v2.64c0,.12-.11.22-.22.22h-.81c-.11,0-.22-.1-.22-.22v-4.18h0Z"/>
        <path class="cls-2" d="M180.71,89.76c1.2,0,2.12.89,2.12,2.14,0,.07,0,.23-.02.3,0,.12-.12.21-.22.21h-2.96c.01.57.48,1.07,1.15,1.07.46,0,.78-.17.99-.34.11-.09.23-.1.3,0l.39.52c.08.09.09.2-.02.3-.4.34-.97.63-1.72.63-1.38,0-2.34-1.1-2.34-2.42s.96-2.41,2.33-2.41h0ZM181.57,91.59c-.02-.45-.38-.8-.89-.8-.56,0-.92.34-.98.8h1.87Z"/>
        <path class="cls-2" d="M185.29,91.56c.47,0,.89.13.89.13.02-.59-.15-.87-.64-.87-.42,0-1.03.09-1.3.17-.15.05-.24-.06-.26-.2l-.1-.52c-.04-.17.05-.25.15-.28.1-.04.83-.23,1.58-.23,1.44,0,1.74.75,1.74,2.01v2.49c0,.12-.1.22-.22.22h-.34c-.08,0-.14-.03-.2-.16l-.13-.31c-.27.26-.73.58-1.45.58-.92,0-1.56-.59-1.56-1.58,0-.82.67-1.45,1.84-1.45ZM185.32,93.66c.41,0,.77-.32.83-.49v-.68s-.31-.14-.68-.14c-.53,0-.82.25-.82.66s.24.65.67.65Z"/>
        <path class="cls-2" d="M188.59,90.08c0-.13.11-.22.22-.22h.38c.11,0,.16.05.19.14l.17.43c.17-.19.6-.67,1.49-.67,1.47,0,1.85.99,1.85,2.11v2.39c0,.12-.11.22-.22.22h-.81c-.12,0-.22-.1-.22-.22v-2.39c0-.6-.24-.97-.8-.97-.6,0-.89.4-1,.72v2.64c0,.17-.07.22-.29.22h-.74c-.11,0-.22-.1-.22-.22v-4.18h0Z"/>
        <path class="cls-2" d="M196.13,89.76c.46,0,.9.11,1.11.19v-2.25c0-.11.11-.22.22-.22h.81c.12,0,.22.11.22.22v6.56c0,.12-.1.22-.22.22h-.37c-.11,0-.18-.09-.22-.22l-.12-.36s-.53.69-1.51.69c-1.26,0-2.21-1.02-2.21-2.42s.91-2.41,2.29-2.41ZM197.24,91.16s-.38-.26-.96-.26c-.76,0-1.15.62-1.15,1.27s.37,1.28,1.09,1.28c.6,0,.92-.38,1.02-.64,0,0,0-1.65,0-1.65Z"/>
        <path class="cls-2" d="M199.63,94.17c-.06-.04-.11-.15-.06-.25l.3-.6c.05-.11.16-.15.27-.08.21.13.54.3,1.02.3.35,0,.51-.13.51-.33s-.26-.4-.87-.64c-.89-.34-1.29-.76-1.29-1.46s.53-1.35,1.66-1.35c.68,0,1.12.18,1.37.34.1.08.16.2.1.32l-.26.53c-.07.11-.19.13-.29.09-.22-.1-.54-.23-.92-.23-.31,0-.44.15-.44.3,0,.21.23.32.66.5.89.36,1.53.68,1.53,1.6,0,.73-.62,1.38-1.78,1.38-.77,0-1.25-.24-1.51-.42h0Z"/>
        <path class="cls-2" d="M203.9,90.08c0-.13.11-.22.22-.22h.36c.1,0,.17.05.19.13l.17.44c.19-.22.6-.67,1.41-.67.67,0,1,.24,1.38.7.2-.21.66-.7,1.49-.7,1.48,0,1.83.94,1.83,2.14v2.36c0,.12-.1.22-.23.22h-.8c-.12,0-.22-.1-.22-.22v-2.39c0-.6-.22-.97-.8-.97-.67,0-.86.48-.86.48,0,0,.02.23.02.44v2.44c0,.12-.11.22-.22.22h-.82c-.13,0-.22-.1-.22-.22v-2.39c0-.6-.17-.97-.76-.97s-.78.4-.89.72v2.64c0,.12-.11.22-.22.22h-.81c-.11,0-.22-.1-.22-.22v-4.18h0Z"/>
        <path class="cls-2" d="M213.7,91.56c.47,0,.89.13.89.13.02-.59-.15-.87-.64-.87-.42,0-1.03.09-1.3.17-.15.05-.24-.06-.26-.2l-.1-.52c-.04-.17.05-.25.15-.28.1-.04.83-.23,1.58-.23,1.44,0,1.74.75,1.74,2.01v2.49c0,.12-.1.22-.22.22h-.34c-.08,0-.14-.03-.2-.16l-.13-.31c-.27.26-.73.58-1.45.58-.92,0-1.56-.59-1.56-1.58,0-.82.67-1.45,1.84-1.45ZM213.73,93.66c.41,0,.77-.32.83-.49v-.68s-.31-.14-.68-.14c-.53,0-.82.25-.82.66s.24.65.67.65Z"/>
        <path class="cls-2" d="M217,90.08c0-.13.11-.22.22-.22h.37c.11,0,.16.05.2.15l.17.45c.16-.23.59-.7,1.3-.7.55,0,1,.15.87.45l-.3.68c-.05.11-.16.15-.27.1s-.22-.09-.43-.09c-.5,0-.8.32-.88.48v2.88c0,.17-.11.22-.26.22h-.77c-.11,0-.22-.1-.22-.22v-4.18h0Z"/>
        <path class="cls-2" d="M221.18,90.98h-.45c-.12,0-.21-.11-.21-.22v-.68c0-.13.09-.22.21-.22h.45v-1.28c0-.12.11-.22.22-.22h.82c.12,0,.21.1.21.22v1.28h1.08c.12,0,.22.09.22.22v.68c0,.11-.1.22-.22.22h-1.08v2.08c0,.31.15.38.38.38.2,0,.58-.11.7-.15.13-.05.24,0,.26.12l.13.61c.03.12-.02.21-.13.27-.16.09-.82.3-1.3.3-1.03,0-1.29-.69-1.29-1.49v-2.12h0Z"/>
        <path class="cls-2" d="M225.47,92.68c.52,0,.96.44.96.96s-.44.95-.96.95-.95-.44-.95-.95.43-.96.95-.96Z"/>
        <path class="cls-2" d="M229.46,89.76c.46,0,.9.11,1.11.19v-2.25c0-.11.11-.22.22-.22h.81c.12,0,.22.11.22.22v6.56c0,.12-.1.22-.22.22h-.37c-.11,0-.18-.09-.22-.22l-.12-.36s-.53.69-1.51.69c-1.26,0-2.21-1.02-2.21-2.42s.91-2.41,2.29-2.41ZM230.57,91.16s-.38-.26-.96-.26c-.76,0-1.15.62-1.15,1.27s.37,1.28,1.09,1.28c.6,0,.92-.38,1.02-.64,0,0,0-1.65,0-1.65Z"/>
        <path class="cls-2" d="M235.16,89.76c1.2,0,2.12.89,2.12,2.14,0,.07,0,.23-.02.3,0,.12-.12.21-.22.21h-2.96c.01.57.48,1.07,1.15,1.07.46,0,.78-.17.99-.34.11-.09.23-.1.3,0l.39.52c.08.09.09.2-.02.3-.4.34-.97.63-1.72.63-1.38,0-2.34-1.1-2.34-2.42s.96-2.41,2.33-2.41h0ZM236.01,91.59c-.02-.45-.38-.8-.89-.8-.56,0-.92.34-.98.8h1.87Z"/>
      </g>
    </g>
    <g class="cls-5">
      <path class="cls-2" d="M154.48,64.3c-.11-.07-.2-.27-.11-.45l.54-1.08c.09-.2.29-.27.49-.14.38.23.97.54,1.84.54.63,0,.92-.23.92-.59,0-.38-.47-.72-1.57-1.15-1.6-.61-2.32-1.37-2.32-2.63s.95-2.43,2.99-2.43c1.22,0,2.02.32,2.47.61.18.14.29.36.18.58l-.47.96c-.13.2-.34.23-.52.16-.4-.18-.97-.42-1.66-.42-.56,0-.79.27-.79.54,0,.38.41.58,1.19.9,1.6.65,2.75,1.22,2.75,2.88,0,1.31-1.12,2.48-3.21,2.48-1.39,0-2.25-.43-2.72-.76h0Z"/>
      <path class="cls-2" d="M165.86,56.36c2.16,0,3.82,1.6,3.82,3.85,0,.13-.02.41-.04.54-.02.22-.22.38-.4.38h-5.33c.02,1.03.86,1.93,2.07,1.93.83,0,1.41-.31,1.78-.61.2-.16.41-.18.54,0l.7.94c.14.16.16.36-.04.54-.72.61-1.75,1.13-3.1,1.13-2.49,0-4.21-1.98-4.21-4.36s1.73-4.34,4.2-4.34h.01ZM167.41,59.66c-.04-.81-.68-1.44-1.6-1.44-1.01,0-1.66.61-1.76,1.44h3.37-.01Z"/>
      <path class="cls-2" d="M171.37,52.65c0-.2.2-.4.4-.4h1.46c.22,0,.4.2.4.4v4.41c.41-.36,1.13-.7,2.12-.7,2.65,0,3.37,1.84,3.37,3.92v4.18c0,.22-.2.4-.4.4h-1.46c-.22,0-.4-.18-.4-.4v-4.2c0-1.15-.52-1.86-1.51-1.86s-1.51.61-1.73,1.46v4.59c0,.23-.11.4-.43.4h-1.42c-.2,0-.4-.18-.4-.4v-11.81.01Z"/>
      <path class="cls-2" d="M181.3,56.94c0-.23.2-.4.4-.4h.67c.2,0,.29.09.36.27l.31.81c.29-.41,1.06-1.26,2.34-1.26.99,0,1.8.27,1.57.81l-.54,1.22c-.09.2-.29.27-.49.18-.2-.09-.4-.16-.77-.16-.9,0-1.44.58-1.58.87v5.19c0,.31-.2.4-.47.4h-1.39c-.2,0-.4-.18-.4-.4v-7.53h-.01Z"/>
      <path class="cls-2" d="M200.08,64.95c0,2.68-1.87,4.03-4.14,4.03-1.37,0-2.59-.63-2.99-.94-.13-.11-.18-.32-.09-.47l.54-1.17c.07-.16.31-.22.49-.11.31.18,1.12.63,1.98.63,1.28,0,1.96-.43,1.96-1.98v-.23c-.38.14-1.17.34-2,.34-2.49,0-4.12-1.91-4.12-4.34s1.71-4.36,3.98-4.36c1.76,0,2.72,1.24,2.72,1.24l.22-.67c.07-.23.2-.4.4-.4h.67c.22,0,.4.18.4.4v8.01l-.02.02ZM197.83,59.56c-.18-.47-.76-1.15-1.84-1.15-1.3,0-1.96,1.13-1.96,2.3s.7,2.29,2.07,2.29c1.04,0,1.73-.47,1.73-.47,0,0,0-2.97,0-2.97Z"/>
      <path class="cls-2" d="M202.29,56.94c0-.23.18-.4.4-.4h1.46c.22,0,.4.16.4.4v4.41c0,1.1.38,1.66,1.4,1.66.92,0,1.35-.83,1.48-1.55v-4.52c0-.32.11-.4.45-.4h1.4c.22,0,.4.16.4.4v7.53c0,.22-.18.4-.4.4h-.65c-.2,0-.34-.14-.4-.31l-.23-.7c-.43.45-1.3,1.21-2.57,1.21-2.58,0-3.13-1.6-3.13-3.71v-4.41l-.01-.01Z"/>
      <path class="cls-2" d="M212.53,58.56h-.81c-.22,0-.38-.2-.38-.4v-1.22c0-.23.16-.4.38-.4h.81v-2.3c0-.22.2-.4.4-.4h1.48c.22,0,.38.18.38.4v2.3h1.94c.22,0,.4.16.4.4v1.22c0,.2-.18.4-.4.4h-1.94v3.75c0,.56.27.68.68.68.36,0,1.04-.2,1.26-.27.23-.09.43.02.47.21l.23,1.1c.05.21-.04.38-.23.49-.29.16-1.48.54-2.34.54-1.85,0-2.32-1.24-2.32-2.68v-3.82h-.01Z"/>
    </g>
    <rect class="cls-1" x="82.63" y="102.28" width="206" height="1.45"/>
    <rect class="cls-1" x="288.11" width="1.45" height="103.73"/>
  </g>
</svg>